<svg id="Layer_1" data-name="Layer 1" xmlns="http://www.w3.org/2000/svg" xmlns:xlink="http://www.w3.org/1999/xlink" viewBox="0 0 392.15 393.92" width="406" height="306" class="illustration styles_illustrationTablet__1DWOa"><defs><linearGradient id="linear-gradient" x1="225.31" y1="327.19" x2="221.93" y2="447.14" gradientUnits="userSpaceOnUse"><stop offset="0" stop-opacity="0"></stop><stop offset="0.91" stop-opacity="0.8"></stop><stop offset="1"></stop></linearGradient><linearGradient id="linear-gradient-2" x1="226.05" y1="323.47" x2="231.3" y2="476.64" xlink:href="#linear-gradient"></linearGradient><linearGradient id="linear-gradient-3" x1="189.41" y1="292.53" x2="185.47" y2="241.01" xlink:href="#linear-gradient"></linearGradient><linearGradient id="linear-gradient-4" x1="196.93" y1="91.59" x2="204.54" y2="118.06" gradientUnits="userSpaceOnUse"><stop offset="0" stop-color="#ecc4d7"></stop><stop offset="0.42" stop-color="#efd4d1"></stop><stop offset="1" stop-color="#f2eac9"></stop></linearGradient><linearGradient id="linear-gradient-5" x1="191.04" y1="63.99" x2="211.5" y2="74.5" xlink:href="#linear-gradient-4"></linearGradient><linearGradient id="linear-gradient-6" x1="200.28" y1="161.31" x2="157.76" y2="165.53" xlink:href="#linear-gradient"></linearGradient><linearGradient id="linear-gradient-7" x1="204.5" y1="160.11" x2="270.77" y2="160.11" xlink:href="#linear-gradient-4"></linearGradient><linearGradient id="linear-gradient-8" x1="171.59" y1="131.41" x2="62.72" y2="232.77" xlink:href="#linear-gradient"></linearGradient><linearGradient id="linear-gradient-9" x1="124.62" y1="145.87" x2="171.25" y2="99.75" xlink:href="#linear-gradient"></linearGradient><linearGradient id="linear-gradient-10" x1="210.35" y1="93.02" x2="157.7" y2="192.69" xlink:href="#linear-gradient"></linearGradient><linearGradient id="linear-gradient-11" x1="108" y1="138.18" x2="159.99" y2="86.75" xlink:href="#linear-gradient"></linearGradient><linearGradient id="linear-gradient-12" x1="112.4" y1="155.72" x2="162.71" y2="171.12" xlink:href="#linear-gradient"></linearGradient><linearGradient id="linear-gradient-13" x1="211.08" y1="291.83" x2="199.53" y2="198.35" xlink:href="#linear-gradient"></linearGradient><linearGradient id="linear-gradient-14" x1="230.97" y1="288.72" x2="253.92" y2="288.72" xlink:href="#linear-gradient-4"></linearGradient><linearGradient id="linear-gradient-15" x1="144.84" y1="302.06" x2="208.65" y2="302.06" xlink:href="#linear-gradient-4"></linearGradient><linearGradient id="linear-gradient-16" x1="229.21" y1="350.74" x2="269.77" y2="350.74" xlink:href="#linear-gradient"></linearGradient><linearGradient id="linear-gradient-17" x1="116.18" y1="342.35" x2="147.19" y2="342.35" xlink:href="#linear-gradient"></linearGradient><linearGradient id="linear-gradient-18" x1="219.49" y1="325.34" x2="222.12" y2="338.1" xlink:href="#linear-gradient"></linearGradient><linearGradient id="linear-gradient-19" x1="104.59" y1="316.93" x2="93.32" y2="324.81" xlink:href="#linear-gradient"></linearGradient><linearGradient id="linear-gradient-20" x1="212.78" y1="183.14" x2="192.88" y2="186.89" xlink:href="#linear-gradient"></linearGradient><linearGradient id="linear-gradient-21" x1="202.95" y1="134.68" x2="178.74" y2="148.76" xlink:href="#linear-gradient"></linearGradient><linearGradient id="linear-gradient-22" x1="145.33" y1="114.09" x2="172.92" y2="69.89" xlink:href="#linear-gradient"></linearGradient><linearGradient id="linear-gradient-23" x1="161.29" y1="97.99" x2="183.93" y2="97.99" xlink:href="#linear-gradient"></linearGradient><linearGradient id="linear-gradient-24" x1="166.65" y1="97.99" x2="181.04" y2="97.99" xlink:href="#linear-gradient"></linearGradient></defs><title>68. Hiking</title><path d="M334.2,346.53s36-68.55,13.52-103.26S312.81,185,315.62,163s5.29-81.16-45.85-91.16S239,38.94,224.4,32.8s-55-17.39-65,34.14-18.37,135.9-74.69,155.94-18,144.64-18,144.64S289.72,416.36,334.2,346.53Z" transform="translate(-27.37 -27.32)" fill="#68e1fd" opacity="0.27"></path><path d="M40.12,372.1c16.05-.69,31.39-6.42,47.14-9.53s33.35-3.2,46.42,6.14a4.38,4.38,0,0,0,1.48.81c2.09.5,3.43-2,4.51-3.9,4.33-7.41,14.54-8.18,23.12-8.1,17.54.15,35.35.13,52.22-4.7,17.22-4.93,33.12-14.78,50.94-16.65,14.3-1.5,28.58,2.31,42.46,6.07,14.9,4.05,31.46,2.15,46.28-2.18,5.93-1.73,11.8-4,18-4.46,9-.68,18,2.63,25.49,7.64,19.05,12.7,28.88,41.44,14.54,59.28-11,13.66-30.59,15.89-48.09,16.76-109.43,5.42-219-1.41-328.4-8.24-2.71-.17-5.74-.48-7.5-2.56-2.52-3-1-7.45.71-11C33.35,389.18,36.17,380.44,40.12,372.1Z" transform="translate(-27.37 -27.32)" fill="#68e1fd"></path><path d="M40.12,372.1c16.05-.69,31.39-6.42,47.14-9.53s33.35-3.2,46.42,6.14a4.38,4.38,0,0,0,1.48.81c2.09.5,3.43-2,4.51-3.9,4.33-7.41,14.54-8.18,23.12-8.1,17.54.15,35.35.13,52.22-4.7,17.22-4.93,33.12-14.78,50.94-16.65,14.3-1.5,28.58,2.31,42.46,6.07,14.9,4.05,31.46,2.15,46.28-2.18,5.93-1.73,11.8-4,18-4.46,9-.68,18,2.63,25.49,7.64,19.05,12.7,28.88,41.44,14.54,59.28-11,13.66-30.59,15.89-48.09,16.76-109.43,5.42-219-1.41-328.4-8.24-2.71-.17-5.74-.48-7.5-2.56-2.52-3-1-7.45.71-11C33.35,389.18,36.17,380.44,40.12,372.1Z" transform="translate(-27.37 -27.32)" fill="url(#linear-gradient)"></path><path d="M280.63,347c3.4.66,6.59,2.11,9.83,3.33,28.72,10.73,60.82,2.84,91.3,6.17-3.58,8.05-14.42,9-23.22,8.8q-29.3-.6-58.59.31c-1.77.05-3.69.17-5.05,1.3-2.59,2.18-1.5,6.37-2.5,9.61-1.69,5.53-8.8,7-14.58,6.88-18.17-.33-36.46-6.45-54.21-2.57-13.94,3.05-26.74,12.14-41,11.29-8.37-.49-16.16-4.43-24.44-5.75-19.06-3.05-38,7.92-57.21,6.53-6.87-.49-13.53-2.55-20-4.85-4.09-1.45-9.06-5.11-7.06-9,.86-1.64,2.73-2.44,4.49-3,23.08-7.42,48.52,4.3,72.25-.67a12,12,0,0,0,5.79-2.49c1.31-1.21,2.08-2.87,3.22-4.23,3.76-4.49,10.44-4.78,16.29-4.7l37.28.49c3,0,6.12.07,9-1,3.07-1.14,5.54-3.42,8.17-5.37,7.15-5.29,15.17-7.62,23.91-8.24S271.89,345.25,280.63,347Z" transform="translate(-27.37 -27.32)" fill="url(#linear-gradient-2)"></path><path d="M159.81,218s1.73,22.25,8.13,33.06,7.32,26.53,7.32,26.53L211.08,274l-8.5-33.47Z" transform="translate(-27.37 -27.32)" fill="#68e1fd"></path><path d="M160.22,218s1.72,22.25,8.13,33.06,7.32,26.53,7.32,26.53L211.49,274,203,240.48Z" transform="translate(-27.37 -27.32)" fill="url(#linear-gradient-3)"></path><path d="M192.64,88.18,190.39,103s6.33,7,17,0V93.75S197.61,82.55,192.64,88.18Z" transform="translate(-27.37 -27.32)" fill="url(#linear-gradient-4)"></path><polygon points="232.22 109.6 220.83 54.63 223.73 53.6 277.21 319.47 274.67 319.47 232.22 109.6" fill="#68e1fd"></polygon><path d="M217,53.61s1.5,6.8,2.73,14.42c.2,1.28,3.14,3.06,2.62,4.26-2.53,5.82-.52,13.81-1.92,15.89-3.15,4.69-18.87,9.86-27.77,0S182.58,52.69,198,50.54,215.85,52.23,217,53.61Z" transform="translate(-27.37 -27.32)" fill="url(#linear-gradient-5)"></path><path d="M210.26,34.85c2.79-.15,5.88-.37,8.06,1.39a5.32,5.32,0,0,1-1.73,9.2c1.53.34,1.94,2.56,1,3.86a6.41,6.41,0,0,1-4,2.19,10.43,10.43,0,0,0-4.38,1.64c-1.12.92-1.71,2.33-2.66,3.43a6.8,6.8,0,0,1-3.84,2.21,18.2,18.2,0,0,0-2.86.5c-2,.73-3.09,3-3.12,5.2a22.56,22.56,0,0,0,1.32,6.29,1.39,1.39,0,0,1,0,1.08c-.3.51-1.07.44-1.57.13A8,8,0,0,0,195,71a2,2,0,0,0-2.17.79,4.15,4.15,0,0,0-.71,2.33c-.09,1.65.41,3.51,1.84,4.34.66.38,1.48.54,1.94,1.13a3,3,0,0,1,.32,2.23l-1,8.64a1.52,1.52,0,0,1-.15.6,1.42,1.42,0,0,1-1.08.54,9,9,0,0,1-8.8-4.13c-.41-.67-.8-1.45-1.54-1.72s-1.5.09-2.27,0c-1.53-.1-2.48-1.67-3.16-3a25.7,25.7,0,0,1-2.6-6.75c-.3-1.65-.27-3.35-.57-5-.45-2.53-1.64-4.9-1.87-7.46-.18-2,.24-4.2-.63-6.05A4.72,4.72,0,0,1,172,56a3.17,3.17,0,0,1,.34-1.4c1.22-3,2.57-6.1,5.2-7.92,2.05-1.42,4.7-1.91,6.49-3.63s2.41-4.24,4.3-5.73c2.92-2.3,7.49-1.07,10.56-3.16,2.32-1.58,2.78-1.79,5-.39C205.75,34.9,208.14,35,210.26,34.85Z" transform="translate(-27.37 -27.32)"></path><path d="M179.5,113.82s7.45-10.6,10.89-10.8,13.46.9,17,0,7.79,14.52,9.59,23.11-3.18,93.11-3.18,93.11L160,222.88S163.72,132,179.5,113.82Z" transform="translate(-27.37 -27.32)" fill="#68e1fd"></path><path d="M179.5,113.82s7.45-10.6,10.89-10.8,13.46.9,17,0,7.79,14.52,9.59,23.11-3.18,93.11-3.18,93.11L160,222.88S163.72,132,179.5,113.82Z" transform="translate(-27.37 -27.32)" fill="url(#linear-gradient-6)"></path><path d="M204.5,165.66s7.82,17.21,12.48,17.64,38.42-23,43.37-23.34,7.32.37,9.47-2.36,0-16,0-16-5.92,1.2-7.56,0-2.67-4.72-2.67-4.72-1.13,1.93-2.66,4.72-5.76,12.56-19.3,16S222.3,162,222.3,162l-3.85-7.72Z" transform="translate(-27.37 -27.32)" fill="url(#linear-gradient-7)"></path><path d="M140.55,74.44a10.42,10.42,0,0,1,10.39-.31c5.07,2.72,14,6.64,22.13,6,12.3-1,12.94,10.65,12.76,17.67s-14.09,20.63-25.71,14.12c-8-4.45-15.94-8.23-20.19-10.18a9.71,9.71,0,0,1-5-5.19C132.7,91,130.39,80.7,140.55,74.44Z" transform="translate(-27.37 -27.32)" fill="#68e1fd"></path><path d="M175.7,112l-1.3,8.56v0l-14.28,93.94s-13.5,8.71-23.32,10.4c-5.54,1-14.89-3.62-22.81-9.44l0,0c-6.08-4.48-11.31-9.7-13.28-13.71-4.54-9.22,2.42-35,10.06-49.11s-8.8-32.46,7.67-43.85,21.53-7.06,21.53-7.06Z" transform="translate(-27.37 -27.32)" fill="#68e1fd"></path><path d="M175.7,112l-1.3,8.56v0l-14.28,93.94s-13.5,8.71-23.32,10.4c-5.54,1-14.89-3.62-22.81-9.44l0,0c-6.08-4.48-11.31-9.7-13.28-13.71-4.54-9.22,2.42-35,10.06-49.11s-8.8-32.46,7.67-43.85,21.53-7.06,21.53-7.06Z" transform="translate(-27.37 -27.32)" fill="url(#linear-gradient-8)"></path><path d="M124.27,144.12s15.1,5.23,17.91-1.49,2.11-17.41,7.6-18.54a6.93,6.93,0,0,1,7.71,3.66l2.63-15.84L125.85,130Z" transform="translate(-27.37 -27.32)" fill="url(#linear-gradient-9)"></path><path d="M198.88,172.57C184.89,188.45,163.4,199,163.4,199v-10s45.48-30.23,44-59.12-21.11-23.56-33-9.22l-.54-5-.38-3.56s13.59-21.82,32.41-11.15S216.91,152.11,198.88,172.57Z" transform="translate(-27.37 -27.32)" fill="#68e1fd"></path><path d="M211,124.7c-.81,8.42-1.63,39.63-47.6,67.47v-3.24s45.48-30.23,44-59.12-21.11-23.56-33-9.22l-.54-5c3.88-4.08,13-12.56,21.4-11.4C206.2,105.76,211.83,116.2,211,124.7Z" transform="translate(-27.37 -27.32)" fill="#68e1fd"></path><path d="M211,124.7c-.81,8.42-1.63,39.63-47.6,67.47v-3.24s45.48-30.23,44-59.12-21.11-23.56-33-9.22l-.54-5c3.88-4.08,13-12.56,21.4-11.4C206.2,105.76,211.83,116.2,211,124.7Z" transform="translate(-27.37 -27.32)" fill="url(#linear-gradient-10)"></path><path d="M160.12,111.91a64.2,64.2,0,0,0-19.33,13.51c-8.9,9.2-4.14,15.42-12.24,17.93-6.19,1.93-14.21.1-15.71-1.71-.44-.52-1.77-1.65-3.22-3.38-3.59-4.24-8-12-1.51-23,9-15.34,28.54-15.75,28.54-15.75l21.25,11.2Z" transform="translate(-27.37 -27.32)" fill="#68e1fd"></path><path d="M157.9,110.74a65,65,0,0,0-18.52,13.13c-8.9,9.21-4.14,15.42-12.24,17.94-6.19,1.93-14.21.1-15.71-1.71-.29-.35-1-1-1.81-1.84-3.59-4.24-8-12-1.51-23,9-15.34,28.54-15.75,28.54-15.75Z" transform="translate(-27.37 -27.32)" fill="url(#linear-gradient-11)"></path><path d="M175.7,112l-1.3,8.56v0l-14.28,93.94s-13.5,8.71-23.32,10.4c-5.54,1-14.89-3.62-22.81-9.44,1.89,1.44,16.82,6.26,23.47,1.2s22.66-104.8,22.66-104.8C164.65,114.3,175.7,112,175.7,112Z" transform="translate(-27.37 -27.32)" fill="#68e1fd"></path><path d="M175.7,112l-1.3,8.56v0l-14.28,93.94s-13.5,8.71-23.32,10.4c-5.54,1-14.89-3.62-22.81-9.44,1.89,1.44,16.82,6.26,23.47,1.2s22.66-104.8,22.66-104.8C164.65,114.3,175.7,112,175.7,112Z" transform="translate(-27.37 -27.32)" fill="url(#linear-gradient-12)"></path><path d="M124.27,144.12s2.25,10.24-1.84,15.15-15.83,44.44-10.27,54.85L107,209.67s-2.86-25.1,8.94-48c0,0,5.69-5.89,3.23-17.76Z" transform="translate(-27.37 -27.32)" fill="#68e1fd"></path><path d="M123.23,144.12s2.26,10.24-1.84,15.15-15.82,44.44-10.26,54.85L106,209.67s-2.86-25.1,8.94-48c0,0,5.69-5.89,3.22-17.76Z" transform="translate(-27.37 -27.32)" fill="#68e1fd"></path><path d="M160.12,214.55h53.95s.29,7.93,8.23,13.66,25.9,19.61,25.9,19.61L222.3,272s-29.5-19.46-28.86-19.16S155.85,245.35,160.12,214.55Z" transform="translate(-27.37 -27.32)" fill="#68e1fd"></path><path d="M160.12,214.55h53.95s.29,7.93,8.23,13.66,25.9,19.61,25.9,19.61L222.3,272s-29.5-19.46-28.86-19.16S155.85,245.35,160.12,214.55Z" transform="translate(-27.37 -27.32)" fill="url(#linear-gradient-13)"></path><path d="M248.2,247.82s6.43,7.09,5.66,15.06-5.66,66.74-5.66,66.74h-14s-4-34.82,0-48.32S231,263.89,231,263.89Z" transform="translate(-27.37 -27.32)" fill="url(#linear-gradient-14)"></path><path d="M234.89,327.62H246.8a3,3,0,0,1,3,3.44L248.2,342,231,340.52v-9A3.92,3.92,0,0,1,234.89,327.62Z" transform="translate(-27.37 -27.32)" fill="#68e1fd"></path><path d="M229.21,338.88h20.6s.47,8.18,2.93,10.64,12.27,2.66,15.13,7.36,1.64,5.72,1.64,5.72h-40.3Z" transform="translate(-27.37 -27.32)" fill="#68e1fd"></path><rect x="201.84" y="335.28" width="40.56" height="5.69" fill="#68e1fd"></rect><path d="M207.83,274.51s1.84,14.46,0,18.45S160,323.64,160,323.64l-10.44,6-4.69-8.74s18.19-20.56,24-24.24,16.74-4.37,19.81-9.92c2-3.69-1.43-10.33-1.43-10.33Z" transform="translate(-27.37 -27.32)" fill="url(#linear-gradient-15)"></path><path d="M138,321.39l5.14-3.06a5.22,5.22,0,0,1,7.32,2.1l2.19,4.27a5.24,5.24,0,0,1-1.88,6.81l-5,3.12Z" transform="translate(-27.37 -27.32)" fill="#68e1fd"></path><path d="M132.54,323.42l5.42-3.5,9.23,15.65s-8.44,5.64-7.33,9.5,5.71,15.81-4.66,19.7l-19-31.92Z" transform="translate(-27.37 -27.32)" fill="#68e1fd"></path><path d="M229.21,338.88h20.6s.47,8.18,2.93,10.64,12.27,2.66,15.13,7.36,1.64,5.72,1.64,5.72h-40.3Z" transform="translate(-27.37 -27.32)" fill="url(#linear-gradient-16)"></path><path d="M132.54,323.42l5.42-3.5,9.23,15.65s-8.44,5.64-7.33,9.5,5.71,15.81-4.66,19.7l-19-31.92Z" transform="translate(-27.37 -27.32)" fill="url(#linear-gradient-17)"></path><polygon points="88.81 305.53 84.58 308.14 103.29 340.2 107.83 337.46 88.81 305.53" fill="#68e1fd"></polygon><rect x="201.84" y="335.28" width="40.56" height="5.69" fill="url(#linear-gradient-18)"></rect><polygon points="88.81 305.53 84.58 308.14 103.29 340.2 107.83 337.46 88.81 305.53" fill="url(#linear-gradient-19)"></polygon><path d="M166.46,196s14,28.58,0,39.58-20.07,18.07-20.07,18.07l-5.45-3.4s21.52-17,23.36-23-.9-28.33-.9-28.33Z" transform="translate(-27.37 -27.32)" fill="#68e1fd"></path><path d="M198.88,172.57s5.49,19.28,1.6,30.63h6.91s5.89-18.62-2.89-37.54Z" transform="translate(-27.37 -27.32)" fill="#68e1fd"></path><path d="M198.88,172.57s5.49,19.28,1.6,30.63h6.91s5.89-18.62-2.89-37.54Z" transform="translate(-27.37 -27.32)" fill="url(#linear-gradient-20)"></path><path d="M203.05,115a9.94,9.94,0,0,0-17.56-1.86,25.59,25.59,0,0,0-1.87,3.45c-6.31,13.8,16.34,52.77,16.34,52.77l18.49-15.06Z" transform="translate(-27.37 -27.32)" fill="#68e1fd"></path><path d="M203.05,115a9.94,9.94,0,0,0-17.56-1.86,25.59,25.59,0,0,0-1.87,3.45c-6.31,13.8,16.34,52.77,16.34,52.77l18.49-15.06Z" transform="translate(-27.37 -27.32)" fill="url(#linear-gradient-21)"></path><path d="M140.55,74.44a10.42,10.42,0,0,1,10.39-.31c5.07,2.72,14,6.64,22.13,6,12.3-1,12.94,10.65,12.76,17.67s-14.09,20.63-25.71,14.12c-8-4.45-15.94-8.23-20.19-10.18a9.71,9.71,0,0,1-5-5.19C132.7,91,130.39,80.7,140.55,74.44Z" transform="translate(-27.37 -27.32)" fill="url(#linear-gradient-22)"></path><path d="M175.79,84.74A7.93,7.93,0,0,0,171.9,87,40.7,40.7,0,0,0,162.72,99a10.43,10.43,0,0,0-1.41,5.35,10.92,10.92,0,0,0,2.35,5.25,4.29,4.29,0,0,0,1.2,1.27,3.56,3.56,0,0,0,2,.38c4.39-.17,8.07-3.2,11.37-6.1a20,20,0,0,0,4.55-5,10.28,10.28,0,0,0-.2-9.78C181.33,88.08,178.82,84.29,175.79,84.74Z" transform="translate(-27.37 -27.32)" opacity="0.45" fill="url(#linear-gradient-23)"></path><path d="M175.87,89.58A4.86,4.86,0,0,0,173.4,91a25.58,25.58,0,0,0-5.84,7.66,6.62,6.62,0,0,0-.89,3.39,6.92,6.92,0,0,0,1.49,3.34,2.68,2.68,0,0,0,.76.81,2.34,2.34,0,0,0,1.28.24c2.79-.11,5.13-2,7.22-3.88a12.43,12.43,0,0,0,2.89-3.21,6.54,6.54,0,0,0-.12-6.21C179.39,91.7,177.79,89.29,175.87,89.58Z" transform="translate(-27.37 -27.32)" opacity="0.45" fill="url(#linear-gradient-24)"></path></svg>