<svg id="Layer_1" data-name="Layer 1" xmlns="http://www.w3.org/2000/svg" xmlns:xlink="http://www.w3.org/1999/xlink" viewBox="0 0 294.03 291.13" width="406" height="306" class="illustration styles_illustrationTablet__1DWOa"><defs><linearGradient id="linear-gradient" x1="181.31" y1="319.74" x2="286.35" y2="-264.82" gradientTransform="matrix(1, 0, 0, -1, 0, 352)" gradientUnits="userSpaceOnUse"><stop offset="0.01"></stop><stop offset="0.13" stop-opacity="0.69"></stop><stop offset="0.25" stop-opacity="0.32"></stop><stop offset="1" stop-opacity="0"></stop></linearGradient><linearGradient id="linear-gradient-2" x1="206.15" y1="178.69" x2="346.55" y2="111.12" xlink:href="#linear-gradient"></linearGradient><linearGradient id="linear-gradient-3" x1="256.55" y1="235.89" x2="260.21" y2="105.81" xlink:href="#linear-gradient"></linearGradient><linearGradient id="linear-gradient-4" x1="175.66" y1="150.24" x2="289.13" y2="61.83" xlink:href="#linear-gradient"></linearGradient><linearGradient id="linear-gradient-5" x1="220.21" y1="180.3" x2="221.27" y2="160.05" gradientTransform="matrix(1, 0, 0, -1, -62.67, 315.07)" xlink:href="#linear-gradient"></linearGradient><linearGradient id="linear-gradient-6" x1="253.59" y1="157.27" x2="189.53" y2="167.72" xlink:href="#linear-gradient"></linearGradient><linearGradient id="linear-gradient-7" x1="223.61" y1="179.66" x2="223.02" y2="175.21" xlink:href="#linear-gradient"></linearGradient></defs><title>15</title><path d="M354.83,197.41a87,87,0,0,1-3.05,11.31c-2.28,6.66-5.29,13.07-7.2,19.84-5.29,18.79-2.67,41.38-16.45,55.22-3.73,3.74-8.37,6.44-13.07,8.84-20.13,10.26-42.19,13.44-63.51,20.08-23.12,7.2-46.57,14.74-71,15.34A129.53,129.53,0,0,1,83.9,287.31c-8.25-8.89-15.34-19.17-18.73-30.82a65,65,0,0,1-2.37-14.18c-.66-11.17,1.12-22.6,3.26-33.66,4.35-22.49,10.67-45.73,26.27-62.5C106.45,131,128,121,134.05,101.15c2.61-8.65,1.75-18,3.9-26.79,4.55-18.54,22.26-31.65,40.88-35.87,24.87-5.63,48.34,4.73,68.08,19.15,21.37,15.54,47.16,23.08,68.52,38.56C346.44,118.72,362.38,160.11,354.83,197.41Z" transform="translate(-62.67 -36.93)" fill="#68e1fd" opacity="0.18" style="isolation: isolate;"></path><path d="M354.83,197.41a87,87,0,0,1-3.05,11.31c-2.28,6.66-5.29,13.07-7.2,19.84-5.29,18.79-2.67,41.38-16.45,55.22-3.73,3.74-8.37,6.44-13.07,8.84-20.13,10.26-42.19,13.44-63.51,20.08-23.12,7.2-46.57,14.74-71,15.34A129.53,129.53,0,0,1,83.9,287.31c-8.25-8.89-15.34-19.17-18.73-30.82a65,65,0,0,1-2.37-14.18,55,55,0,0,0,7.48-3.84C88,227.18,102,208.54,123.45,204.06c11.38-2.38,23.2-.13,34.44,2.85,17.57,4.66,34.69,11.12,52.57,14.42s37.06,3.2,53.38-4.81c7.24-3.56,13.69-8.56,20.83-12.3C305.9,193.06,330.69,194,354.83,197.41Z" transform="translate(-62.67 -36.93)" fill="#68e1fd" opacity="0.37" style="isolation: isolate;"></path><path d="M171.67,256.07h-.17c-7-.59-13.84-1.63-20.89-.79-2.28.27-4.7.78-6.29,2.43s-1.78,4.8.18,6l-13.8,9.15c-1.59,1.05-3.35,2.38-3.47,4.28-.15,2.31,2.16,4,4.31,4.85,9.65,3.94,20.63,1.81,30.67-1s20.32-6.32,30.65-4.92c3.91.53,7.7,1.75,11.62,2.3a68,68,0,0,0,12.92.14c19.35-1,39.11-2.13,57.07-9.37a40.52,40.52,0,0,0,8.44-4.39,50.42,50.42,0,0,0,5.21-4.46l6-5.56c1.61-1.5,3.21-3,4.74-4.58a67.58,67.58,0,0,0,14.3-22c.7-1.73,1.29-3.78.31-5.36A5.54,5.54,0,0,0,311.4,221,34.72,34.72,0,0,0,290,216.5a21.15,21.15,0,0,0-8.48,2.62,39.08,39.08,0,0,0-6.18,5.16c-15.44,14.44-35.69,22.36-55.42,30-6.14,2.36-12.6,4.77-19.12,3.93-4.64-.59-9-2.81-13.59-3.47C181.7,253.91,177,256.45,171.67,256.07Z" transform="translate(-62.67 -36.93)" fill="url(#linear-gradient)"></path><path d="M281.63,164.14a18.77,18.77,0,0,1-5.44.59,14.44,14.44,0,0,1-4.85-1.92c-4-2.17-8.29-4.22-12.85-4.57s-9.56,1.31-12,5.18c-1.19,1.87-1.69,4.08-2.53,6.13a32,32,0,0,1-6.63,9.5c-9.41,10.07-21.06,17.85-30.4,28a17.3,17.3,0,0,1-3.47,3.2,15.22,15.22,0,0,1-3.33,1.39,140.09,140.09,0,0,1-44.06,6.7c3.93,2.93,9.2,3,14,4.27,7.52,2,13.89,7,21.23,9.6,6.55,2.32,13.63,2.63,20.58,2.59a228.63,228.63,0,0,0,27.8-1.85,16.4,16.4,0,0,0,4.27-1,16.75,16.75,0,0,0,4.48-3.25c7.92-7.23,15.93-14.54,21.87-23.47,1.95-2.94,3.67-6,5.82-8.82,3.59-4.65,8.31-8.37,11.66-13.19a75.45,75.45,0,0,0,4.19-7.5c1.12-2.08,4.08-5.05,4.62-7.16C298,163.22,285.14,163.55,281.63,164.14Z" transform="translate(-62.67 -36.93)" fill="#68e1fd"></path><path d="M251.87,210.47a3,3,0,0,1,1.13-1.61,3.34,3.34,0,0,1,2-.12,12.18,12.18,0,0,0,7.56-1.38,9.37,9.37,0,0,0,4.55-6.08c.17-.86.21-1.74.46-2.57a13.52,13.52,0,0,1,2-3.35,23.28,23.28,0,0,0,3.82-9.49c.54-3.26.44-6.8,2.27-9.55.64-.95,1.49-1.76,2.08-2.75a3.33,3.33,0,0,0,.32-3.28A4.06,4.06,0,0,0,276.8,169a20.09,20.09,0,0,0-11-3.67,4.52,4.52,0,0,0-1.63.18,4.41,4.41,0,0,0-1.82,1.49c-2.63,3.23-4.11,7.23-6.26,10.79-4.74,7.88-12.61,13.51-17.27,21.43A49.42,49.42,0,0,0,235.3,207a94.52,94.52,0,0,0-3.72,13,5.73,5.73,0,0,0-.17,1.6,4.6,4.6,0,0,0,1.73,2.82,12.72,12.72,0,0,0,6.44,2.93c2.15.26,3.38-1.12,4.68-2.68C247.69,220.49,249.86,215.44,251.87,210.47Z" transform="translate(-62.67 -36.93)" fill="url(#linear-gradient-2)"></path><path d="M244.94,143.33c-3.29-.5-6.27-2.15-9.41-3.23a8.23,8.23,0,0,0-5.62-.34,5,5,0,0,0-2.5,6.61l.07.16a9.34,9.34,0,0,0,3.35,3.05,120.52,120.52,0,0,0,25.46,12.23,58.1,58.1,0,0,0,9.33,2.49,27.57,27.57,0,0,0,8.31.18,28,28,0,0,0,10.51-4,7.2,7.2,0,0,0,3.36-3.4c.74-2.12-.42-4.4-1.7-6.24a25.39,25.39,0,0,0-7.28-7.25,36.82,36.82,0,0,0-9-3.57c-2.33-.7-3.27-.11-5.28.66s-4.38.5-6.39.92C253.83,142.47,249.43,144,244.94,143.33Z" transform="translate(-62.67 -36.93)" fill="#68e1fd"></path><path d="M244.94,143.33c-3.29-.5-6.27-2.15-9.41-3.23a8.23,8.23,0,0,0-5.62-.34,5,5,0,0,0-2.5,6.61l.07.16a9.34,9.34,0,0,0,3.35,3.05,120.52,120.52,0,0,0,25.46,12.23,58.1,58.1,0,0,0,9.33,2.49,27.57,27.57,0,0,0,8.31.18,28,28,0,0,0,10.51-4,7.2,7.2,0,0,0,3.36-3.4c.74-2.12-.42-4.4-1.7-6.24a25.39,25.39,0,0,0-7.28-7.25,36.82,36.82,0,0,0-9-3.57c-2.33-.7-3.27-.11-5.28.66s-4.38.5-6.39.92C253.83,142.47,249.43,144,244.94,143.33Z" transform="translate(-62.67 -36.93)" fill="url(#linear-gradient-3)"></path><path d="M262.07,148.25a17,17,0,0,1,4.6,4A6.79,6.79,0,0,1,268,158c-.38,1.33-1.28,2.48-1.5,3.84-.32,1.94.8,3.81,2,5.35s2.63,3,3.08,5a5.67,5.67,0,0,1-2.76,6.1c-2.84,1.53-6.34.31-9.25-1.08s-6.08-3-9.2-2.18c-1.76.47-3.23,1.66-4.86,2.46a13.13,13.13,0,0,1-9.25.75,16.57,16.57,0,0,1-7.86-5.1,11.45,11.45,0,0,1-3-6.14,6.35,6.35,0,0,1,2.68-6c2-1.24,4.58-.92,6.94-.68s5,.28,6.76-1.32c2-1.78,2-4.8,3-7.24a9.16,9.16,0,0,1,10-5.31c1.66.35,3.23,1.17,4.92,1.28s3.6-.5,5.15.29" transform="translate(-62.67 -36.93)" fill="#473f47"></path><path d="M165.43,263.57l.63.37a2.44,2.44,0,0,0,3.12-.59l77.37-96.9a2.42,2.42,0,0,0-.37-3.4l0,0h0a2.42,2.42,0,0,0-3.38.38l-78,96.54a2.42,2.42,0,0,0,.35,3.4A3,3,0,0,0,165.43,263.57Z" transform="translate(-62.67 -36.93)" fill="#473f47"></path><path d="M235.73,257.36l1.08-1.6c.33-.75-.6-2.27-1.36-2.66l-77.8-40.38a1.88,1.88,0,0,0-2.43.64l-1.78,1.83a1.52,1.52,0,0,0,.46,2.1l.15.09,77.27,39.89C232.24,257.72,235.32,258.29,235.73,257.36Z" transform="translate(-62.67 -36.93)" fill="#473f47"></path><path d="M259.94,169.13c1.33,3.26,5.64,4.09,7.9,6.78,1.89,2.24,2.09,5.54,1.21,8.34-2.52,8-9.8,12-16.33,16.34-4.21,2.77-8.33,6.18-10.11,10.89-1,2.68-1.35,5.88-3.6,7.65a8.46,8.46,0,0,1-5.1,1.42,9.36,9.36,0,0,1-2.58-.22,12.24,12.24,0,0,1-4.12-2.27l-5-3.69a21.56,21.56,0,0,0-4.85-2.3c-1.65-.69-3.43-1.5-4.25-3.09-1-2-.15-4.49,1.07-6.4,4.06-6.35,11.36-10.1,15.39-16.48a3,3,0,0,0,.58-1.45,3.42,3.42,0,0,0-.25-1.27c-1.12-3.65-1.07-11.1,4-11.78a14.67,14.67,0,0,1,2.48,0c4.05.15,8.35-.75,11.33-3.51.37-.34.38-.71.6-1.1s.6-.69.82-1.08a7.91,7.91,0,0,0,.84-2.71,38.12,38.12,0,0,1,.59-4.4c.94-3.42,5.47-7.28,8.44-3.4S258.18,164.82,259.94,169.13Z" transform="translate(-62.67 -36.93)" fill="#ffb79c"></path><path d="M239.81,179.72c.14-.08.31-.21.25-.37a.27.27,0,0,0-.14-.14,2.17,2.17,0,0,0-1.73-.06,10.86,10.86,0,0,1-1.71.5,3.57,3.57,0,0,1-2.22-.57,11.44,11.44,0,0,1-1.79-1.48,6.74,6.74,0,0,0,.92,2.5c.45.93,1,5.08,2.69,3.79.64-.49.94-1.58,1.45-2.22A7.89,7.89,0,0,1,239.81,179.72Z" transform="translate(-62.67 -36.93)" fill="#ea967d"></path><path d="M233.07,203.66c-1.73.08-3.52.34-5.15-.22a10.14,10.14,0,0,1-1.86-.94,75.07,75.07,0,0,1-9.55-6.88c1.65-1.07,3.85-.83,5.6-1.72a4.79,4.79,0,0,1,1.6-.71,3.64,3.64,0,0,1,2.32,1,12.37,12.37,0,0,0,4.71,2,17.58,17.58,0,0,1-1.16-3.16,5.47,5.47,0,0,1-.17-2.51,4.19,4.19,0,0,1,2.75-2.76,12.32,12.32,0,0,1,4-.51,4.67,4.67,0,0,1,2,.26,4.29,4.29,0,0,1,1.4,1.21,40.12,40.12,0,0,0,9.51,8.3,5.63,5.63,0,0,1,1.36.95,1.66,1.66,0,0,1,.49,1.52,2.6,2.6,0,0,1-.49.83c-1.18,1.52-2.32,3.07-3.54,4.57-1.06,1.3-1.69,1.58-3.22.92A24.18,24.18,0,0,0,233.07,203.66Z" transform="translate(-62.67 -36.93)" fill="#ea967d"></path><path d="M177.07,198.4l-23.79,52.32-8.26,9.2s-3.19,1.88-2.07,3,7.89,1.68,8.64,1.59,6.57,1.5,7.88-.56,1.1-2.63,1.1-2.63.78-9.67,1.34-11.07,7.24-14.71,13.19-20.07,10.84-15.46,10.84-15.46,32.22,10.49,43.92,9.7,13-11.86,6-15.8c-5.3-3-35-11.24-48.82-15A8.55,8.55,0,0,0,177.07,198.4Z" transform="translate(-62.67 -36.93)" fill="#ea967d"></path><path d="M249.62,162.15s-2.11,6.12.42,6.4,10.27-9.79,10.14-11.72S249.62,162.15,249.62,162.15Z" transform="translate(-62.67 -36.93)" fill="#ea967d"></path><path d="M251.56,164l.37-.14c1.41-.55,1.93-1.64,3-2.61s2.29-1.56,3.36-2.38a6.13,6.13,0,0,0,1.93-2.06,2.36,2.36,0,0,0,2.79-.39,3.07,3.07,0,0,0,1.25-2.49,1.75,1.75,0,0,0-1.85-1.64l-.15,0a9.19,9.19,0,0,0-.61-4.34,5.63,5.63,0,0,0-1.55-1.88,11.1,11.1,0,0,0-4.15-2,6.54,6.54,0,0,0-2.64-.29,15.49,15.49,0,0,0-4.32,1.77c-1.39.76-2.14,2.53-2.78,3.9a22.8,22.8,0,0,0-2.06,11.82,3.68,3.68,0,0,0,.73,2.14,3.75,3.75,0,0,0,2.62.89A11.32,11.32,0,0,0,251.56,164Z" transform="translate(-62.67 -36.93)" fill="#ffb79c"></path><path d="M254.63,150.14a25.17,25.17,0,0,0,3.57,1.06l-.13-.48a3,3,0,0,1,1.77,1.88,14.06,14.06,0,0,1,.23,2.34,9.1,9.1,0,0,0,1.26-1.3,4.14,4.14,0,0,1,.89-.93,1.11,1.11,0,0,1,1.22-.08,13.11,13.11,0,0,0-.49-3.94,6.51,6.51,0,0,0-2.15-3.29,14.68,14.68,0,0,0-4-1.85,9.69,9.69,0,0,0-1.86-.18,8.93,8.93,0,0,0-2.82.18,9.23,9.23,0,0,0-1.65.71c-.51.27-2,.72-2,1.48s1.26,1.43,1.72,1.81A16,16,0,0,0,254.63,150.14Z" transform="translate(-62.67 -36.93)" fill="#473f47"></path><path d="M225.07,203q-4-2.19-7.91-4.44c-6.86-3.9-13.76-7.74-20.77-11.35-3.06-1.58-6.14-3.13-9.3-4.49-1.49-.64-3.59-1.81-5.29-1.62h-.14c-3.94,1.13-37.73,52.65-37.73,52.65s-15.62,9.43-18.16,7.74c-.82.09-1.07-.67-1.72-1.17s-1.67-.86-2.22-.24,0,1.67.6,2.27a10.68,10.68,0,0,0,3.28,2.2,1.38,1.38,0,0,1,.69.49,1.24,1.24,0,0,1,.15.53,3.32,3.32,0,0,0,2.53,2.31,11.44,11.44,0,0,0,3.6,0,50.08,50.08,0,0,1,10.81.25,8.62,8.62,0,0,0,2.68.09,4.89,4.89,0,0,0,3.32-2.72,9.63,9.63,0,0,0,.84-4.33,14,14,0,0,1,.3-4.38s27.28-23.35,28.78-30.48a53.91,53.91,0,0,1,2.81-10c3.95,4,8.08,8,12.31,11.71a127.26,127.26,0,0,0,10.38,8.46,49.24,49.24,0,0,0,4.79,3.07,9.2,9.2,0,0,0,4.86,1.39c4.63,0,8.79,2.74,13.37,3.11a21.36,21.36,0,0,0,3.2,0,10.48,10.48,0,0,0,3.29-.62c2.52-1,3.92-3.71,5.11-6.18a7,7,0,0,0,1-3.69,4.62,4.62,0,0,0-1.64-2.9,13.31,13.31,0,0,0-2.85-1.83Q230.49,206,225.07,203Z" transform="translate(-62.67 -36.93)" fill="#ffb79c"></path><path d="M221.07,263.57l.63.37a2.44,2.44,0,0,0,3.12-.59l77.36-96.9a2.41,2.41,0,0,0-.36-3.4l0,0h0a2.43,2.43,0,0,0-3.39.38L220.4,260a2.42,2.42,0,0,0,.38,3.41A1.94,1.94,0,0,0,221.07,263.57Z" transform="translate(-62.67 -36.93)" fill="#473f47"></path><path d="M257.27,176.63a14,14,0,0,1-2.4,3.56,6,6,0,0,1-1.44,1.15,9.81,9.81,0,0,1-1.69.64c-.76.25-1.51.55-2.27.81a30.19,30.19,0,0,1-13.7,1.42.75.75,0,0,1-.7-.51c-1.83-3.83-3.68-7.86-3.47-12.1a4,4,0,0,0-1.76,1.76,17.33,17.33,0,0,0-1.73,6.47,3.85,3.85,0,0,0,.14,2.15,13.56,13.56,0,0,1,.66,2.14,7.87,7.87,0,0,0,1.25,2.27c1.16,1.44,3.22,2.41,4.88,1.62a10.34,10.34,0,0,0,2.93,3,29.28,29.28,0,0,0,7.7,3.61c2.56.93,5.23.81,7.91,1.37,2.1.44,4.28,1.16,6.34.56.54-.16,1.15-.75.78-1.18a1,1,0,0,0-.46-.25,6.58,6.58,0,0,1-3-2.15c-2.32-3-2.14-8.6-.91-12,1.38-3.83,4.34-7.13,4.65-11.32,0-.35-.24-1.81-.86-1.41-.23.15-.3,1.51-.39,1.84-.19.68-.42,1.34-.65,2A39.52,39.52,0,0,1,257.27,176.63Z" transform="translate(-62.67 -36.93)" fill="#68e1fd"></path><path d="M217.75,198.94s11.95,10.5,24.86,12.54l1-2s-22.28-7.54-23.75-13.27Z" transform="translate(-62.67 -36.93)" fill="#68e1fd"></path><path d="M177.07,198.4l-23.79,52.32-8.26,9.2s-3.19,1.88-2.07,3,7.89,1.68,8.64,1.59,6.57,1.5,7.88-.56,1.1-2.63,1.1-2.63.78-9.67,1.34-11.07,7.24-14.71,13.19-20.07,10.84-15.46,10.84-15.46,32.32,9.05,44,8.26-14.21.14-21.16-3.81c-5.3-3-13.76-13.41-24.64-23.41C181.07,193,178.76,194.58,177.07,198.4Z" transform="translate(-62.67 -36.93)" fill="#ea967d"></path><path d="M197.82,220.29c-3.54,0-7.09-.55-10.62-.19s-7.13,1.73-9.23,4.62l3,1.79c5.33,3.19,10.81,6.44,16.92,7.56a52.77,52.77,0,0,0,7.09.64c12.41.53,25.08,1,37-2.42-.61.17-4.36-3.16-5-3.62-1.72-1.15-3.48-2.25-5.27-3.28a91.23,91.23,0,0,0-11.14-5.47c-3.21-1.32-6.6-3.18-10.05-2.06C206.19,219.25,202.43,220.36,197.82,220.29Z" transform="translate(-62.67 -36.93)" fill="#68e1fd"></path><path d="M197.82,220.29c-3.54,0-7.09-.55-10.62-.19s-7.13,1.73-9.23,4.62l3,1.79c5.33,3.19,10.81,6.44,16.92,7.56a52.77,52.77,0,0,0,7.09.64c12.41.53,25.08,1,37-2.42-.61.17-4.36-3.16-5-3.62-1.72-1.15-3.48-2.25-5.27-3.28a91.23,91.23,0,0,0-11.14-5.47c-3.21-1.32-6.6-3.18-10.05-2.06C206.19,219.25,202.43,220.36,197.82,220.29Z" transform="translate(-62.67 -36.93)" fill="url(#linear-gradient-4)"></path><path d="M291.34,257.36l1.08-1.6c.33-.75-.6-2.27-1.36-2.66l-77.81-40.38a1.89,1.89,0,0,0-2.43.64l-1.75,1.8a1.54,1.54,0,0,0,.48,2.11l.14.08L287,257.24C287.85,257.72,290.92,258.29,291.34,257.36Z" transform="translate(-62.67 -36.93)" fill="#473f47"></path><circle cx="182.7" cy="115.51" r="2.45" fill="#473f47"></circle><circle cx="251.25" cy="153.77" r="2.45" transform="translate(-3.44 340.22) rotate(-80.78)" fill="#473f47"></circle><path d="M234.28,184.43a13.5,13.5,0,0,1-27,0v-.77a6.79,6.79,0,0,0,6.49.78,1.32,1.32,0,0,1,.75-.17,1.41,1.41,0,0,1,.59.35,4.16,4.16,0,0,0,5.83-.63,4.39,4.39,0,0,0,.34-.5c1.75,1,3.8,2.13,5.72,1.45a3.4,3.4,0,0,0,.72-.34h0a9.59,9.59,0,0,0,1.69-1.41c.31.7,1.24.82,2,.73a7.76,7.76,0,0,0,2.78-.9A10.89,10.89,0,0,1,234.28,184.43Z" transform="translate(-62.67 -36.93)" fill="#68e1fd"></path><path d="M234.21,183a7.76,7.76,0,0,1-2.78.9c-.76.09-1.69,0-2-.73a7,7,0,0,1-2.41,1.75c-1.92.68-4-.41-5.72-1.45a4.14,4.14,0,0,1-5.66,1.48,4.59,4.59,0,0,1-.51-.35,1.41,1.41,0,0,0-.59-.35,1.32,1.32,0,0,0-.75.17,6.79,6.79,0,0,1-6.49-.78l4.68-7.55h16.71Z" transform="translate(-62.67 -36.93)" fill="#fff"></path><path d="M212,176.11h4.74l-2.18,8.16a1.32,1.32,0,0,0-.75.17,6.79,6.79,0,0,1-6.49-.78Z" transform="translate(-62.67 -36.93)" fill="#fff" opacity="0.18" style="isolation: isolate;"></path><path d="M234.21,183a7.76,7.76,0,0,1-2.78.9c-.76.09-1.69,0-2-.73a7,7,0,0,1-2.41,1.75c-1.92.68-4-.41-5.72-1.45l-1.14-7.38h8.53Z" transform="translate(-62.67 -36.93)" fill="#fff" opacity="0.18" style="isolation: isolate;"></path><path d="M221.3,183.49h0a4.14,4.14,0,0,1-5.66,1.48,4.59,4.59,0,0,1-.51-.35,1.41,1.41,0,0,0-.59-.35l2.18-8.16h3.44Z" transform="translate(-62.67 -36.93)" fill="#68e1fd" opacity="0.34" style="isolation: isolate;"></path><ellipse cx="157.78" cy="139.24" rx="8.43" ry="1.11" fill="#68e1fd"></ellipse><ellipse cx="157.78" cy="139.24" rx="6.91" ry="0.91" fill="url(#linear-gradient-5)"></ellipse><path d="M226.32,177l3.11,6.22s.78,1.53,3.61.35l-5.28-6.82Z" transform="translate(-62.67 -36.93)" fill="#68e1fd" opacity="0.13" style="isolation: isolate;"></path><polygon points="156.22 140.13 154.06 132.11 148.68 130.03 148.26 130.68 153.32 132.68 155.41 140.1 156.22 140.13" fill="#68e1fd"></polygon><path d="M234.28,184.43a13.5,13.5,0,0,1-13.5,13.5h0c6.17-.44,7-13.33,7-13.33h0a9.59,9.59,0,0,0,1.69-1.41c.31.7,1.24.82,2,.73a7.76,7.76,0,0,0,2.78-.9C234.25,183.48,234.28,184,234.28,184.43Z" transform="translate(-62.67 -36.93)" fill="url(#linear-gradient-6)"></path><polygon points="161.04 136.71 160.63 137.73 159.66 140.13 159.35 140.13 160.4 137.47 160.8 136.47 160.85 136.32 160.92 136.46 161.04 136.71" fill="#fff"></polygon><path d="M223.7,173.64l-.41,1a1.29,1.29,0,0,1-.17-.16l-.06-.1.4-1h.12Z" transform="translate(-62.67 -36.93)" fill="url(#linear-gradient-7)"></path><path d="M226.94,174.09a.11.11,0,0,1-.06.1,1.64,1.64,0,0,1-1.26.4.91.91,0,0,1-.75-.44,1,1,0,0,1-.94.13,1.11,1.11,0,0,1-.67-.67,2.35,2.35,0,0,1-1.12.06.78.78,0,0,1-.6-.84.74.74,0,0,1-.66-.19c-.17-.18-.15-.36-.21-.58a.09.09,0,0,0,0-.07,1.69,1.69,0,0,1-.2-.5,1.63,1.63,0,0,1,.12-.62,23.69,23.69,0,0,0,4.61.08h.13a.16.16,0,0,1,.08.1l.45.88c.35.68.7,1.36,1.06,2C226.93,174,227,174.06,226.94,174.09Z" transform="translate(-62.67 -36.93)" fill="#fff"></path><path d="M225.2,171l-4.15.94-.4.1a1.69,1.69,0,0,1-.2-.5,1.63,1.63,0,0,1,.12-.62,23.69,23.69,0,0,0,4.61.08Z" transform="translate(-62.67 -36.93)" fill="#68e1fd"></path><path d="M221.54,172.83,225.2,171h.13l-2.07,2.64S221.51,174.1,221.54,172.83Z" transform="translate(-62.67 -36.93)" fill="#68e1fd"></path><path d="M224.87,174.15l.46-3.18,1.61,3.12A1.51,1.51,0,0,1,224.87,174.15Z" transform="translate(-62.67 -36.93)" fill="#68e1fd"></path><path d="M268.91,200.05c-.34,1.95-.85,4.06-2.4,5.3-1.78,1.43-4.3,1.27-6.57,1a89.88,89.88,0,0,1-9.78-1.38c-4.36-.95-8.4-3-12.6-4.6a19.52,19.52,0,0,0-2.71-.89c-4-.94-8.43.26-12.29-1.23a4.45,4.45,0,0,1-2.7-2.33,4.52,4.52,0,0,0-.49-1.23c-.5-.69-1.71-1-1.61-1.86a1,1,0,0,1,.83-.82,2.88,2.88,0,0,1,1.24.08l5.22,1a5,5,0,0,0,2.06.11,1.66,1.66,0,0,0,1.34-1.39c0-.41-.16-.8-.17-1.22s.32-.88.72-.78a.83.83,0,0,1,.41.3,19.5,19.5,0,0,0,1.75,1.77,13.1,13.1,0,0,0,6.21,2.7c3.89.7,7.92.39,11.85.75l12.29,1.13a1.36,1.36,0,0,0,1.11-.22,1.26,1.26,0,0,0,.28-.91c.06-3-1.22-5.78-2-8.64s-1.07-6.12.81-8.53c1.45-1.86,5.06-3.78,7-1.62S270,185,270,187.63A69,69,0,0,1,268.91,200.05Z" transform="translate(-62.67 -36.93)" fill="#ffb79c"></path><path d="M283,147a18.22,18.22,0,0,0-15.55-2.84c-3.42,1-6.49,2.8-10,3.65-3.31.81-7.06-.69-10.19-1.72a64.58,64.58,0,0,1-11.86-4.83c-1.52-.88-3.09-1.92-4.85-1.85q8.4-.33,16.9-.13a6.75,6.75,0,0,0,2.41-.27,2.25,2.25,0,0,0,.78-.45c.87-.75,1-2,1.46-3.08a6.81,6.81,0,0,1,.95-1.66,8.14,8.14,0,0,1,4.38-2.78,11.78,11.78,0,0,1,7.06.68,10.43,10.43,0,0,1,5,3.83,5.43,5.43,0,0,1,.63,1.19c.46,1.1.59,3.11,1.61,3.85a5.41,5.41,0,0,1,.61.2C274.37,141.33,279.46,142.86,283,147Z" transform="translate(-62.67 -36.93)" fill="#68e1fd"></path><path d="M272,140.72a20.09,20.09,0,0,1-6.22.83,48,48,0,0,1-11.9-.67c-1.22-.27-3.72-.56-4-1.86a2.25,2.25,0,0,0,.78-.45c.87-.75,1-2,1.46-3.08a6.81,6.81,0,0,1,1-1.66c1.3.31,2.54.81,3.82,1.16,3.41.92,7,.79,10.54.65l2.12-.08a5.43,5.43,0,0,1,.63,1.19c.46,1.1.59,3.11,1.61,3.85A1.13,1.13,0,0,0,272,140.72Z" transform="translate(-62.67 -36.93)" fill="#fff" opacity="0.51" style="isolation: isolate;"></path></svg>