<svg id="Layer_1" data-name="Layer 1" xmlns="http://www.w3.org/2000/svg" xmlns:xlink="http://www.w3.org/1999/xlink" viewBox="0 0 322.82 272.81" width="406" height="306" class="illustration styles_illustrationTablet__1DWOa"><defs><linearGradient id="linear-gradient" x1="642.75" y1="312.51" x2="-540.82" y2="119.32" gradientUnits="userSpaceOnUse"><stop offset="0.01"></stop><stop offset="0.13" stop-opacity="0.69"></stop><stop offset="0.25" stop-opacity="0.32"></stop><stop offset="1" stop-opacity="0"></stop></linearGradient><linearGradient id="linear-gradient-2" x1="159.94" y1="76.87" x2="166.7" y2="206.11" xlink:href="#linear-gradient"></linearGradient><linearGradient id="linear-gradient-3" x1="424.61" y1="265.72" x2="15.79" y2="198.99" xlink:href="#linear-gradient"></linearGradient><linearGradient id="linear-gradient-4" x1="233.3" y1="122.78" x2="229.53" y2="151.22" xlink:href="#linear-gradient"></linearGradient></defs><title>5</title><path d="M368.57,253.74c-3.78,9.08-9.22,17.36-15,25.35-7.77,10.83-16.48,21.51-28.2,27.86-14.89,8.07-32.75,8.15-49.63,6.78-11.43-.93-22.89-2.45-33.76-6.11-15.31-5.15-24.48-6.48-40.09-3.38a399.91,399.91,0,0,1-46.48,6.46c-34.9,2.74-74.81-5.36-93.49-35C47,252.07,50.07,221.07,60.33,194.91c.3-.78.61-1.56.93-2.33,11-26.64,28.43-50.15,40.48-76.32,6.53-14.18,11.53-29.23,20.53-42,18.29-25.87,50.5-35.92,80.86-31.35,29.52,4.44,58.74-4.18,81.07,21.92,14.67,17.13,22.26,39.21,35.52,57.45,12.33,16.95,29.66,30.85,40.88,48.09a70.61,70.61,0,0,1,8.51,17.74C375.54,209,377.11,233.24,368.57,253.74Z" transform="translate(-51.69 -41.88)" fill="#68e1fd" opacity="0.18" style="isolation: isolate;"></path><path d="M368.62,254c-3.78,9.08-9.22,17.36-15,25.35-7.77,10.83-16.48,21.51-28.2,27.86-14.89,8.07-32.75,8.15-49.63,6.78-11.43-.93-22.89-2.45-33.76-6.11-15.31-5.15-24.48-6.48-40.09-3.38A399.91,399.91,0,0,1,155.5,311c-34.9,2.74-74.81-5.36-93.49-35-14.93-23.66-11.89-54.66-1.63-80.82,12.07-9,27.73-14.2,44.95-14.06,13.86.12,27.13,5.21,40.63,8.34,21.26,4.93,43.93,4.94,64.61-2,11.7-3.94,24.38-10.09,35.7-5.18,7.19,3.12,13.68,10.57,21.22,8.44,3.22-.9,5.67-3.44,8.05-5.78a125.74,125.74,0,0,1,22.35-17.45c3.27-2,6.73-3.89,10.53-4.41,4.55-.62,9.1.79,13.54,2a163.78,163.78,0,0,0,38.69,5.64,70.61,70.61,0,0,1,8.51,17.74C375.59,209.25,377.16,233.53,368.62,254Z" transform="translate(-51.69 -41.88)" fill="#68e1fd" opacity="0.37"></path><ellipse cx="165.15" cy="234.55" rx="106.01" ry="13.94" fill="url(#linear-gradient)"></ellipse><path d="M301.45,200a86.16,86.16,0,1,1-172.31,0c0-1.67.05-3.32.14-5,11.76,8.47,28,10.76,41.44,5,1.53-.65,3.15-1.42,4.79-1.11a9.12,9.12,0,0,1,3.74,2.25A26.46,26.46,0,0,0,218.62,194c11.15,6.66,24.23,13.57,36.48,9.26a25.19,25.19,0,0,0,4.63-2.2h0c4-2.37,7.44-5.69,10.8-8.94,2,4.44,7.92,5.23,12.74,4.65A48.66,48.66,0,0,0,301,191,87.12,87.12,0,0,1,301.45,200Z" transform="translate(-51.69 -41.88)" fill="#68e1fd"></path><path d="M301,191a48.66,48.66,0,0,1-17.71,5.79c-4.82.58-10.78-.21-12.74-4.65-4.6,4.45-9.39,9-15.43,11.15-12.25,4.31-25.33-2.6-36.48-9.26a26.46,26.46,0,0,1-39.37,7.22,9.12,9.12,0,0,0-3.74-2.25c-1.64-.31-3.26.46-4.79,1.11-13.4,5.73-29.68,3.44-41.44-5l29.89-48.16H265.79Z" transform="translate(-51.69 -41.88)" fill="#fff"></path><path d="M159.17,146.87h30.22L175.51,199c-1.64-.31-3.26.46-4.79,1.11-13.4,5.73-29.68,3.44-41.44-5Z" transform="translate(-51.69 -41.88)" fill="#fff" opacity="0.18" style="isolation: isolate;"></path><path d="M301,191a48.66,48.66,0,0,1-17.71,5.79c-4.82.58-10.78-.21-12.74-4.65-4.6,4.45-9.39,9-15.43,11.15-12.25,4.31-25.33-2.6-36.48-9.26l-7.27-47.11h54.44Z" transform="translate(-51.69 -41.88)" fill="#fff" opacity="0.18" style="isolation: isolate;"></path><path d="M218.62,194a0,0,0,0,1,0,0,26.47,26.47,0,0,1-39.36,7.2,9.12,9.12,0,0,0-3.74-2.25l13.88-52.08h22Z" transform="translate(-51.69 -41.88)" fill="#68e1fd" opacity="0.34" style="isolation: isolate;"></path><ellipse cx="161.43" cy="105.38" rx="53.79" ry="7.12" fill="#68e1fd"></ellipse><ellipse cx="161.43" cy="105.38" rx="44.12" ry="5.84" fill="url(#linear-gradient-2)"></ellipse><path d="M250.68,152.35l19.85,39.74s4.93,9.75,23,2.21l-33.66-43.52Z" transform="translate(-51.69 -41.88)" fill="#68e1fd" opacity="0.13" style="isolation: isolate;"></path><polygon points="151.47 111.07 137.7 59.85 103.34 46.61 100.72 50.74 133 63.51 146.31 110.87 151.47 111.07" fill="#68e1fd"></polygon><path d="M301.45,200a86.15,86.15,0,0,1-86.16,86.16c39.42-2.82,44.44-85.11,44.44-85.11h0c4-2.37,7.44-5.69,10.8-8.94,2,4.44,7.92,5.23,12.74,4.65A48.66,48.66,0,0,0,301,191,87.12,87.12,0,0,1,301.45,200Z" transform="translate(-51.69 -41.88)" fill="url(#linear-gradient-3)"></path><polygon points="182.22 89.25 179.62 95.74 173.46 111.07 171.45 111.07 178.16 94.08 180.69 87.67 181.06 86.74 181.47 87.65 182.22 89.25" fill="#fff"></polygon><path d="M233.91,131.13l-2.6,6.49a4.93,4.93,0,0,1-1.05-1,5.11,5.11,0,0,1-.41-.62l2.53-6.41a2.62,2.62,0,0,1,.79,0Z" transform="translate(-51.69 -41.88)" fill="url(#linear-gradient-4)"></path><path d="M254.64,134a1,1,0,0,1-.43.63,10.83,10.83,0,0,1-8,2.56c-1.92-.19-4-1.06-4.79-2.8a6.77,6.77,0,0,1-10.26-3.49c-2.36.53-4.85,1.06-7.17.38s-4.35-3-3.79-5.37A4.61,4.61,0,0,1,216,124.7c-1.12-1.12-1-2.27-1.35-3.66a3.53,3.53,0,0,0-.15-.46c-.42-1.07-1.19-1.93-1.28-3.17a9.2,9.2,0,0,1,.79-4,152.72,152.72,0,0,0,29.39.52h.12a1.49,1.49,0,0,1,.86.13,1.59,1.59,0,0,1,.51.66c1,1.86,1.91,3.71,2.87,5.57q3.38,6.53,6.74,13.07A1.12,1.12,0,0,1,254.64,134Z" transform="translate(-51.69 -41.88)" fill="#fff" style="isolation: isolate;"></path><path d="M243.48,113.94l-26.45,6c-.86.2-1.72.43-2.57.65-.42-1.07-1.19-1.93-1.28-3.17a9.2,9.2,0,0,1,.79-4,152.72,152.72,0,0,0,29.39.52Z" transform="translate(-51.69 -41.88)" fill="#68e1fd"></path><path d="M220.17,125.91l23.31-12,.86.13L231.13,130.9S220,134.05,220.17,125.91Z" transform="translate(-51.69 -41.88)" fill="#68e1fd"></path><path d="M241.39,134.39l3-20.32L254.64,134S247.68,140.5,241.39,134.39Z" transform="translate(-51.69 -41.88)" fill="#68e1fd"></path><path d="M161.13,225.39c.3,3.27,1.64,6.79,4.6,8.21a12.12,12.12,0,0,0,1.59-2.8,2.7,2.7,0,0,0,.25-1.27,3,3,0,0,0-.74-1.4l-2.2-2.79a2,2,0,0,0-.27,1.1,9.59,9.59,0,0,1-1.79-3.87c-.19-.85.2-3.32-.52-3.76C160.41,217.79,161.06,224.54,161.13,225.39Z" transform="translate(-51.69 -41.88)" fill="#fff" opacity="0.53"></path><path d="M146,212.8a10.75,10.75,0,0,0-.89,3.5,5.4,5.4,0,0,0,1.07,3.35,2,2,0,0,0,.84.73,1.73,1.73,0,0,0,1.45-.18c1.5-.82,1.86-2.77,2.07-4.47a11.27,11.27,0,0,0,0-3.71c-.23-1-.8-4.82-1.66-4.77C147.33,207.34,146.44,211.7,146,212.8Z" transform="translate(-51.69 -41.88)" fill="#fff" opacity="0.53"></path><path d="M155.05,243.35a7.3,7.3,0,0,0,.35,2.38,3.57,3.57,0,0,0,1.51,1.79,1.27,1.27,0,0,0,.7.23,1.14,1.14,0,0,0,.85-.47c.71-.89.44-2.19.14-3.29a7.77,7.77,0,0,0-.93-2.29c-.4-.58-1.72-2.76-2.24-2.51C154.46,239.66,155,242.57,155.05,243.35Z" transform="translate(-51.69 -41.88)" fill="#fff" opacity="0.53"></path><path d="M235.71,212.8a10.75,10.75,0,0,0-.89,3.5,5.47,5.47,0,0,0,1.07,3.35,2,2,0,0,0,.84.73,1.73,1.73,0,0,0,1.45-.18c1.5-.82,1.87-2.77,2.07-4.47a10.76,10.76,0,0,0,0-3.71c-.23-1-.8-4.82-1.66-4.77C237,207.34,236.12,211.7,235.71,212.8Z" transform="translate(-51.69 -41.88)" fill="#fff" opacity="0.53"></path><path d="M243.93,237.83a7.32,7.32,0,0,0-.6,2.37,3.7,3.7,0,0,0,.72,2.27,1.38,1.38,0,0,0,.57.5,1.21,1.21,0,0,0,1-.12c1-.56,1.27-1.89,1.41-3a7.56,7.56,0,0,0,0-2.51c-.15-.71-.54-3.27-1.12-3.24C244.81,234.13,244.21,237.08,243.93,237.83Z" transform="translate(-51.69 -41.88)" fill="#fff" opacity="0.53"></path></svg>