<svg class="gridItem__media" version="1.1" id="Layer_1" xmlns="http://www.w3.org/2000/svg" xmlns:xlink="http://www.w3.org/1999/xlink" x="0px" y="0px" width="1600" height="1200" viewBox="0 0 1600 1200" style="enable-background:new 0 0 1600 1200;" xml:space="preserve" fill="none">
<path d="M239.388 1059.94L194.938 511.551C193.819 497.582 197.719 483.671 205.938 472.321L429.278 163.511C435.248 155.257 443.259 148.695 452.527 144.467C461.795 140.239 472.002 138.49 482.148 139.391L1246.26 207.161C1258.35 208.231 1269.82 213.021 1279.09 220.87C1288.35 228.72 1294.96 239.245 1298 251.001L1402.78 655.141C1405.36 665.075 1405.29 675.512 1402.58 685.411L1299.65 1061.87L239.388 1059.94Z" fill="#F4F4F4"/>
<path opacity="0.2" fill-rule="evenodd" clip-rule="evenodd" d="M749.998 331L625.328 655.11L993.998 658L871.998 331H749.998Z" class="change-color-in-svg" fill="#4D61FC" style="fill: rgb(114, 134, 157);"/>
<path d="M1341.53 1061.6H203.871C203.654 1061.64 203.431 1061.62 203.219 1061.56C203.006 1061.51 202.809 1061.4 202.641 1061.26C202.473 1061.12 202.338 1060.94 202.246 1060.74C202.153 1060.54 202.105 1060.32 202.105 1060.1C202.105 1059.88 202.153 1059.66 202.246 1059.46C202.338 1059.26 202.473 1059.08 202.641 1058.94C202.809 1058.8 203.006 1058.69 203.219 1058.64C203.431 1058.58 203.654 1058.56 203.871 1058.6H1341.53C1341.75 1058.56 1341.97 1058.58 1342.18 1058.64C1342.4 1058.69 1342.59 1058.8 1342.76 1058.94C1342.93 1059.08 1343.06 1059.26 1343.16 1059.46C1343.25 1059.66 1343.3 1059.88 1343.3 1060.1C1343.3 1060.32 1343.25 1060.54 1343.16 1060.74C1343.06 1060.94 1342.93 1061.12 1342.76 1061.26C1342.59 1061.4 1342.4 1061.51 1342.18 1061.56C1341.97 1061.62 1341.75 1061.64 1341.53 1061.6V1061.6Z" fill="#B2B6BB"/>
<path d="M565.769 321.311H340.469V625.071H565.769V321.311Z" fill="#B2B6BB"/>
<path opacity="0.1" d="M565.769 321.311H340.469V625.071H565.769V321.311Z" fill="black"/>
<path d="M560.37 321.311H335.07V625.071H560.37V321.311Z" fill="#B2B6BB"/>
<path d="M547.95 335.84H346.75V624.17H547.95V335.84Z" fill="#F4F4F4"/>
<path opacity="0.7" d="M346.75 435.5L411.55 335.85H469.49L346.75 516.22V435.5Z" fill="white"/>
<path opacity="0.7" d="M346.75 623.74V558.78L504.66 335.85L548.04 335.86V375.7L367.99 624.26L346.75 623.74Z" fill="white"/>
<path opacity="0.7" d="M419.52 623.561L548.04 445.881V486.601L448.11 624.181L419.52 623.561Z" fill="white"/>
<path d="M573 623.33H317V636.64H573V623.33Z" fill="#B2B6BB"/>
<path d="M448.098 329.25H441.898V629.99H448.098V329.25Z" fill="#B2B6BB"/>
<path d="M557.711 401.289H335.891V407.489H557.711V401.289Z" fill="#B2B6BB"/>
<path d="M557.718 471.061H335.898V477.261H557.718V471.061Z" fill="#B2B6BB"/>
<path d="M557.711 540.83H335.891V547.03H557.711V540.83Z" fill="#B2B6BB"/>
<path d="M560.19 620.279H334.73V623.469H560.19V620.279Z" fill="#B2B6BB"/>
<path opacity="0.1" d="M560.19 620.279H334.73V623.469H560.19V620.279Z" fill="black"/>
<path d="M809.5 348C819.717 348 828 339.717 828 329.5C828 319.283 819.717 311 809.5 311C799.283 311 791 319.283 791 329.5C791 339.717 799.283 348 809.5 348Z" fill="white"/>
<path fill-rule="evenodd" clip-rule="evenodd" d="M830.541 294.521C822.221 291.171 821.181 279.141 821.181 279.141H800.181C800.181 279.141 799.181 291.141 790.821 294.521C786.761 296.151 777.661 298.101 769.021 301.671C763.307 304.032 758.421 308.035 754.984 313.175C751.547 318.314 749.711 324.358 749.711 330.541V330.651H871.651V330.541C871.65 324.358 869.815 318.314 866.378 313.175C862.94 308.035 858.055 304.032 852.341 301.671C843.701 298.101 834.601 296.161 830.541 294.521" fill="#868A91"/>
<path d="M818.942 276.279H802.422V279.139H818.942V276.279Z" fill="#61656D"/>
<path d="M816.329 270.51H805.039V276.28H816.329V270.51Z" fill="#61656D"/>
<path d="M818.942 276.279H802.422V279.139H818.942V276.279Z" fill="#61656D"/>
<path d="M816.329 270.51H805.039V276.28H816.329V270.51Z" fill="#61656D"/>
<path fill-rule="evenodd" clip-rule="evenodd" d="M811.68 270.509H809.68V169.029L811.68 169.179V270.509Z" fill="#61656D"/>
<path opacity="0.2" fill-rule="evenodd" clip-rule="evenodd" d="M871.649 330.541C871.648 324.358 869.813 318.314 866.376 313.175C862.938 308.035 858.053 304.032 852.339 301.671C843.699 298.101 834.599 296.161 830.539 294.521C822.219 291.171 821.179 279.141 821.179 279.141H816.699L816.319 279.211C816.319 279.211 814.999 294.001 827.999 300.171C833.679 302.861 844.789 307.831 848.749 312.711C852.369 317.181 852.809 323.061 852.809 330.651H871.699L871.649 330.541Z" fill="black"/>
<path d="M468.248 1059H993.068L1064.8 670.64C1065.11 668.924 1065.05 667.158 1064.61 665.47C1064.17 663.781 1063.36 662.21 1062.24 660.868C1061.13 659.527 1059.73 658.447 1058.15 657.706C1056.57 656.965 1054.84 656.58 1053.1 656.58H528.278L456.548 1045C456.239 1046.71 456.31 1048.47 456.756 1050.15C457.201 1051.84 458.01 1053.4 459.126 1054.73C460.242 1056.07 461.637 1057.14 463.213 1057.88C464.789 1058.62 466.508 1059 468.248 1059Z" class="change-color-in-svg" fill="#4D61FC" style="fill: rgb(114, 134, 157);"/>
<path opacity="0.2" d="M468.248 1059H993.068L1064.8 670.64C1065.11 668.924 1065.05 667.158 1064.61 665.47C1064.17 663.781 1063.36 662.21 1062.24 660.868C1061.13 659.527 1059.73 658.447 1058.15 657.706C1056.57 656.965 1054.84 656.58 1053.1 656.58H528.278L456.548 1045C456.239 1046.71 456.31 1048.47 456.756 1050.15C457.201 1051.84 458.01 1053.4 459.126 1054.73C460.242 1056.07 461.637 1057.14 463.213 1057.88C464.789 1058.62 466.508 1059 468.248 1059Z" fill="black"/>
<path d="M993.069 1059H464.519C461.607 1059 458.795 1057.94 456.618 1056C454.441 1054.07 453.049 1051.4 452.709 1048.51L409.079 682.089C408.881 680.421 409.039 678.729 409.542 677.126C410.045 675.523 410.882 674.044 411.998 672.788C413.114 671.531 414.483 670.525 416.015 669.836C417.547 669.147 419.208 668.79 420.889 668.789H936.049C938.96 668.788 941.771 669.856 943.947 671.789C946.124 673.723 947.516 676.388 947.859 679.279L993.069 1059Z" class="change-color-in-svg" fill="#4D61FC" style="fill: rgb(114, 134, 157);"/>
<path d="M527.871 658.82L536.121 620C536.705 617.249 538.215 614.782 540.399 613.011C542.583 611.24 545.309 610.272 548.121 610.27H628.221C630.944 610.271 633.59 611.176 635.744 612.842C637.897 614.509 639.437 616.844 640.121 619.479L650.231 658.58L527.871 658.82Z" class="change-color-in-svg" fill="#4D61FC" style="fill: rgb(114, 134, 157);"/>
<path opacity="0.2" d="M527.871 658.82L536.121 620C536.705 617.249 538.215 614.782 540.399 613.011C542.583 611.24 545.309 610.272 548.121 610.27H628.221C630.944 610.271 633.59 611.176 635.744 612.842C637.897 614.509 639.437 616.844 640.121 619.479L650.231 658.58L527.871 658.82Z" fill="black"/>
<g opacity="0.4">
<path opacity="0.4" d="M760.8 822.88L738.17 800.25L692.89 845.53L647.63 800.25L625.01 822.88L670.27 868.15L625 913.41L647.63 936.04L692.9 890.78L738.17 936.06L760.8 913.46L715.52 868.16L760.8 822.88Z" fill="#3F4249"/>
</g>
<path d="M327.172 841.459L319.992 1018.74" stroke="#21252B" stroke-width="0.93" stroke-miterlimit="10" stroke-linecap="round"/>
<path d="M275.043 918.52L306.903 955.909" stroke="#21252B" stroke-width="0.93" stroke-miterlimit="10" stroke-linecap="round"/>
<path d="M349.2 962.959L320.5 1006.53" stroke="#21252B" stroke-width="0.93" stroke-miterlimit="10" stroke-linecap="round"/>
<path d="M363.181 889.809L323.641 935.009" stroke="#21252B" stroke-width="0.93" stroke-miterlimit="10" stroke-linecap="round"/>
<path d="M360.511 914.08C369.881 903.08 372.721 890.08 366.841 885.08C360.961 880.08 348.601 885 339.221 896C329.841 907 327.021 920 332.901 925C338.781 930 351.141 925.13 360.511 914.11" class="change-color-in-svg" fill="#4D61FC" style="fill: rgb(114, 134, 157);"/>
<g opacity="0.3">
<g opacity="0.3">
<path opacity="0.3" d="M367.211 885.529L332.711 924.809C332.841 924.809 332.841 924.939 332.961 924.939C338.881 929.939 351.221 925.069 360.531 914.109C369.731 903.409 372.621 890.819 367.211 885.529" fill="black"/>
</g>
</g>
<path d="M294.101 940.57C298.651 936.8 296.601 926.8 289.511 918.23C282.421 909.66 272.981 905.76 268.421 909.52C263.861 913.28 265.921 923.3 273.011 931.87C280.101 940.44 289.541 944.34 294.101 940.57Z" class="change-color-in-svg" fill="#4D61FC" style="fill: rgb(114, 134, 157);"/>
<g opacity="0.3">
<g opacity="0.3">
<path opacity="0.3" d="M268.121 909.83L294.181 940.43L294.061 940.55C289.521 944.33 280.061 940.43 272.901 931.86C266.111 923.55 263.961 913.73 268.121 909.86" fill="black"/>
</g>
</g>
<path d="M279.832 969.26L313.452 995.45" stroke="#21252B" stroke-width="0.93" stroke-miterlimit="10" stroke-linecap="round"/>
<path d="M302.93 986.999C306.62 982.379 302.57 972.999 293.93 966.059C285.29 959.119 275.2 957.209 271.51 961.829C267.82 966.449 271.87 975.829 280.51 982.769C289.15 989.709 299.23 991.609 302.92 986.999" class="change-color-in-svg" fill="#4D61FC" style="fill: rgb(114, 134, 157);"/>
<g opacity="0.3">
<g opacity="0.3">
<path opacity="0.3" d="M271.272 962.209L303.002 986.879L302.872 987.009C299.222 991.669 289.152 989.779 280.462 982.849C272.022 976.059 267.992 966.849 271.272 962.209Z" fill="black"/>
</g>
</g>
<path d="M340.311 854.789C340.961 840.339 335.361 828.349 327.781 828.009C320.201 827.669 313.541 839.099 312.891 853.549C312.241 867.999 317.831 879.989 325.411 880.329C332.991 880.669 339.651 869.239 340.311 854.789Z" class="change-color-in-svg" fill="#4D61FC" style="fill: rgb(114, 134, 157);"/>
<g opacity="0.3">
<g opacity="0.3">
<path opacity="0.3" d="M312.939 853.68C313.569 839.32 320.239 827.86 327.799 828.24L325.409 880.49C317.849 879.99 312.309 868.03 312.939 853.68Z" fill="black"/>
</g>
</g>
<path d="M352.263 979.409C358.553 969.569 359.263 958.769 353.793 955.279C348.323 951.789 338.793 956.949 332.533 966.789C326.273 976.629 325.533 987.439 331.003 990.919C336.473 994.399 346.003 989.249 352.263 979.409Z" class="change-color-in-svg" fill="#4D61FC" style="fill: rgb(114, 134, 157);"/>
<g opacity="0.3">
<g opacity="0.3">
<path opacity="0.3" d="M332.582 966.738C326.412 976.308 325.662 986.888 330.692 990.538L353.742 955.278L352.352 954.648C346.942 952.648 338.352 957.648 332.582 966.738" fill="black"/>
</g>
</g>
<path d="M316.853 1016.6L297.203 894.219" stroke="#21252B" stroke-width="0.93" stroke-miterlimit="10" stroke-linecap="round"/>
<path d="M299.063 911.35C305.793 910.27 309.583 898.99 307.533 886.15C305.483 873.31 298.353 863.78 291.623 864.85C284.893 865.92 281.113 877.21 283.163 890.05C285.213 902.89 292.343 912.43 299.063 911.35Z" class="change-color-in-svg" fill="#4D61FC" style="fill: rgb(114, 134, 157);"/>
<g opacity="0.3">
<g opacity="0.3">
<path opacity="0.3" d="M283.102 890.06C281.102 877.22 284.872 865.89 291.542 864.76L299.002 911.34C292.322 912.6 285.152 903.03 283.132 890.06" fill="black"/>
</g>
</g>
<path d="M308.162 1059.91H331.702C332.744 1059.91 333.777 1059.71 334.741 1059.31C335.705 1058.92 336.581 1058.33 337.318 1057.6C338.055 1056.86 338.639 1055.98 339.036 1055.02C339.433 1054.06 339.636 1053.02 339.632 1051.98V1020.75H300.102V1052C300.143 1054.11 301.01 1056.12 302.516 1057.61C304.022 1059.09 306.049 1059.92 308.162 1059.93" fill="#868A91"/>
<path d="M340.643 1016.6H299.343C298.776 1016.6 298.231 1016.83 297.83 1017.23C297.429 1017.63 297.203 1018.17 297.203 1018.74C297.203 1019.31 297.429 1019.85 297.83 1020.25C298.231 1020.65 298.776 1020.88 299.343 1020.88H340.643C340.925 1020.88 341.204 1020.83 341.465 1020.72C341.726 1020.62 341.963 1020.46 342.162 1020.26C342.362 1020.06 342.519 1019.82 342.626 1019.56C342.732 1019.3 342.786 1019.02 342.783 1018.74C342.746 1018.18 342.508 1017.66 342.115 1017.27C341.721 1016.87 341.198 1016.64 340.643 1016.6Z" fill="#868A91"/>
<path d="M339.761 1020.75H303.761C303.193 1020.75 302.649 1020.52 302.248 1020.12C301.846 1019.72 301.621 1019.18 301.621 1018.61C301.621 1018.04 301.846 1017.5 302.248 1017.1C302.649 1016.69 303.193 1016.47 303.761 1016.47H299.351C298.783 1016.47 298.239 1016.69 297.838 1017.1C297.436 1017.5 297.211 1018.04 297.211 1018.61C297.211 1019.18 297.436 1019.72 297.838 1020.12C298.239 1020.52 298.783 1020.75 299.351 1020.75H300.241V1051.85C300.236 1052.89 300.437 1053.93 300.834 1054.89C301.23 1055.85 301.814 1056.73 302.552 1057.47C303.289 1058.21 304.165 1058.79 305.13 1059.19C306.095 1059.58 307.128 1059.78 308.171 1059.78H321.001C318.289 1059.79 315.658 1058.85 313.565 1057.13C311.471 1055.41 310.048 1053 309.541 1050.34L303.881 1021.26H339.761V1020.75Z" fill="#61656D"/>
<path d="M1140.63 1041.36L1087.03 1042.7L1108.42 1027.37C1110.2 1026.12 1111.66 1024.47 1112.7 1022.57C1113.74 1020.66 1114.33 1018.54 1114.42 1016.37L1115.14 999.6L1144.36 999.7L1140.63 1041.36Z" fill="#FA898F"/>
<path opacity="0.15" d="M1134.66 1021.81V1021.5C1134.72 1021.05 1134.69 1020.6 1134.57 1020.16C1134.45 1019.73 1134.24 1019.32 1133.96 1018.97C1133.68 1018.61 1133.33 1018.32 1132.94 1018.1C1132.54 1017.88 1132.11 1017.75 1131.66 1017.7L1114.58 1015.23L1114.78 1011.83H1143.38L1140.81 1040.23L1117.46 1037.65L1125.17 1034.57C1127.77 1033.53 1130.04 1031.78 1131.71 1029.53C1133.39 1027.28 1134.41 1024.61 1134.66 1021.81V1021.81Z" fill="black"/>
<path d="M1237.23 1040.33H1213.16L1208.63 999.49L1237.23 999.59V1040.33Z" fill="#FA898F"/>
<path opacity="0.15" d="M1231.27 1033.54L1230.65 1020.99C1230.6 1020.19 1230.28 1019.43 1229.73 1018.85C1229.18 1018.27 1228.44 1017.9 1227.65 1017.8L1210.27 1015.12L1209.86 1011.63L1237.02 1011.73L1237.12 1040.64L1231.27 1033.54Z" fill="black"/>
<path d="M1238.88 677.881V1011.73H1207.5L1180.24 739.501C1180.16 738.637 1179.75 737.837 1179.1 737.264C1178.45 736.691 1177.61 736.389 1176.74 736.421C1175.89 736.428 1175.08 736.746 1174.45 737.314C1173.83 737.882 1173.43 738.66 1173.34 739.501L1144.34 1011.73H1113L1123.8 679.731L1238.88 677.881Z" class="change-color-in-svg" fill="#4D61FC" style="fill: rgb(114, 134, 157);"/>
<path d="M1235.48 1026L1234.76 1025.28C1231.97 1022.56 1228.22 1021.06 1224.33 1021.09C1220.44 1021.13 1216.72 1022.71 1213.98 1025.48L1213.57 1026C1212.19 1027.4 1211.41 1029.28 1211.41 1031.25V1034.33C1211.45 1036.15 1211.17 1037.96 1210.59 1039.68L1208.01 1048.22C1207.38 1050.29 1207.04 1052.44 1207.01 1054.6V1055.6C1207.04 1056.42 1207.39 1057.19 1207.98 1057.76C1208.58 1058.32 1209.37 1058.62 1210.19 1058.6H1239.82C1240.23 1058.63 1240.64 1058.57 1241.03 1058.43C1241.41 1058.29 1241.77 1058.07 1242.07 1057.79C1242.37 1057.51 1242.6 1057.17 1242.77 1056.79C1242.93 1056.42 1243.01 1056.01 1243.01 1055.6V1055.19C1243 1052.67 1242.59 1050.17 1241.78 1047.78L1238.78 1039.45C1238.14 1037.51 1237.8 1035.49 1237.78 1033.45L1237.67 1031.08C1237.62 1029.17 1236.84 1027.35 1235.48 1026Z" fill="#3F4249"/>
<path d="M1239.7 1011.73H1206.26L1205.65 1004.94H1239.6L1239.7 1011.73Z" class="change-color-in-svg" fill="#4D61FC" style="fill: rgb(114, 134, 157);"/>
<path opacity="0.2" d="M1239.7 1011.73H1225.7L1225.39 1004.94H1239.59L1239.7 1011.73Z" fill="black"/>
<path d="M1243.2 1055.35V1055.76C1243.18 1056.58 1242.82 1057.36 1242.23 1057.92C1241.63 1058.48 1240.83 1058.78 1240.01 1058.76H1210.38C1209.97 1058.79 1209.56 1058.73 1209.18 1058.59C1208.79 1058.45 1208.44 1058.23 1208.14 1057.95C1207.84 1057.67 1207.6 1057.33 1207.44 1056.95C1207.27 1056.58 1207.19 1056.17 1207.19 1055.76V1054.76C1207.18 1054.35 1207.21 1053.93 1207.29 1053.53H1243.29C1243.21 1054.13 1243.18 1054.74 1243.2 1055.35V1055.35Z" fill="black"/>
<path d="M1144.33 1031.89V1052.78C1144.34 1053.58 1144.19 1054.37 1143.89 1055.11C1143.59 1055.85 1143.14 1056.53 1142.57 1057.09C1142.01 1057.66 1141.34 1058.1 1140.6 1058.41C1139.86 1058.71 1139.06 1058.86 1138.26 1058.85H1067.17C1066.83 1058.85 1066.5 1058.79 1066.18 1058.66C1065.87 1058.53 1065.58 1058.34 1065.35 1058.11C1065.11 1057.87 1064.92 1057.58 1064.79 1057.27C1064.66 1056.95 1064.6 1056.62 1064.6 1056.28C1064.6 1053.85 1065.37 1051.48 1066.79 1049.5C1068.21 1047.53 1070.22 1046.05 1072.52 1045.28L1088.52 1040.03L1108.89 1024.29C1109.92 1023.5 1111.18 1023.08 1112.48 1023.12C1113.77 1023.16 1115.02 1023.65 1115.99 1024.5L1124.99 1032.21C1125.66 1032.75 1126.45 1033.12 1127.29 1033.29C1128.13 1033.47 1129 1033.44 1129.83 1033.21L1141.25 1029.61C1141.61 1029.47 1141.99 1029.42 1142.37 1029.47C1142.75 1029.52 1143.12 1029.67 1143.42 1029.9C1143.73 1030.12 1143.98 1030.43 1144.14 1030.78C1144.29 1031.12 1144.36 1031.51 1144.33 1031.89Z" fill="#3F4249"/>
<path d="M1138.26 1058.85H1067.17C1066.83 1058.85 1066.5 1058.79 1066.18 1058.66C1065.87 1058.53 1065.59 1058.34 1065.35 1058.11C1065.11 1057.87 1064.92 1057.58 1064.79 1057.27C1064.66 1056.95 1064.6 1056.62 1064.6 1056.28C1064.6 1055.41 1064.7 1054.54 1064.91 1053.7H1144.23C1144.05 1055.14 1143.33 1056.47 1142.23 1057.42C1141.13 1058.37 1139.72 1058.88 1138.26 1058.85V1058.85Z" fill="black"/>
<path d="M1109.35 1032.61C1109.43 1032.61 1109.51 1032.59 1109.58 1032.56C1109.65 1032.52 1109.71 1032.47 1109.76 1032.41C1109.86 1032.28 1109.92 1032.11 1109.92 1031.94C1109.92 1031.78 1109.86 1031.61 1109.76 1031.48L1105.44 1026.85C1105.3 1026.75 1105.14 1026.7 1104.98 1026.7C1104.81 1026.7 1104.65 1026.75 1104.52 1026.85C1104.42 1026.98 1104.36 1027.15 1104.36 1027.31C1104.36 1027.48 1104.42 1027.65 1104.52 1027.78L1108.84 1032.41C1108.98 1032.53 1109.16 1032.61 1109.35 1032.61Z" fill="white"/>
<path d="M1106 1035.29C1106.08 1035.29 1106.16 1035.27 1106.23 1035.23C1106.3 1035.2 1106.36 1035.14 1106.41 1035.08C1106.51 1034.95 1106.56 1034.79 1106.56 1034.62C1106.56 1034.45 1106.51 1034.29 1106.41 1034.16L1102.09 1029.53C1101.96 1029.43 1101.79 1029.37 1101.63 1029.37C1101.46 1029.37 1101.29 1029.43 1101.16 1029.53C1101.06 1029.66 1101 1029.82 1101 1029.99C1101 1030.16 1101.06 1030.32 1101.16 1030.45L1105.48 1035.08C1105.62 1035.21 1105.81 1035.29 1106 1035.29Z" fill="white"/>
<path d="M1102.56 1037.86C1102.64 1037.86 1102.72 1037.84 1102.79 1037.81C1102.86 1037.77 1102.92 1037.72 1102.97 1037.65C1103.07 1037.52 1103.13 1037.36 1103.13 1037.19C1103.13 1037.02 1103.07 1036.86 1102.97 1036.73L1098.65 1032.1C1098.53 1031.98 1098.36 1031.91 1098.19 1031.91C1098.02 1031.91 1097.85 1031.98 1097.73 1032.1C1097.61 1032.22 1097.54 1032.39 1097.54 1032.56C1097.54 1032.73 1097.61 1032.9 1097.73 1033.02L1102.05 1037.65C1102.15 1037.86 1102.25 1037.86 1102.56 1037.86Z" fill="white"/>
<path d="M1218.92 1033C1218.98 1033.01 1219.03 1033 1219.09 1032.98C1219.14 1032.97 1219.19 1032.94 1219.23 1032.9C1220.93 1032.1 1222.8 1031.68 1224.68 1031.68C1226.56 1031.68 1228.43 1032.1 1230.13 1032.9C1230.22 1032.95 1230.31 1032.98 1230.41 1032.99C1230.51 1033 1230.61 1032.99 1230.71 1032.96C1230.8 1032.93 1230.89 1032.88 1230.97 1032.82C1231.05 1032.76 1231.11 1032.68 1231.16 1032.59C1231.21 1032.5 1231.24 1032.41 1231.25 1032.31C1231.26 1032.21 1231.25 1032.11 1231.22 1032.01C1231.19 1031.92 1231.14 1031.83 1231.08 1031.75C1231.02 1031.67 1230.94 1031.61 1230.85 1031.56C1228.93 1030.62 1226.82 1030.14 1224.68 1030.14C1222.54 1030.14 1220.43 1030.62 1218.51 1031.56C1218.35 1031.66 1218.23 1031.82 1218.17 1032C1218.11 1032.19 1218.12 1032.38 1218.2 1032.56C1218.27 1032.69 1218.38 1032.8 1218.5 1032.88C1218.63 1032.95 1218.77 1033 1218.92 1033V1033Z" fill="white"/>
<path d="M1218.92 1036.83C1218.97 1036.84 1219.03 1036.83 1219.08 1036.81C1219.14 1036.8 1219.19 1036.77 1219.23 1036.73C1220.93 1035.93 1222.79 1035.51 1224.68 1035.51C1226.56 1035.51 1228.42 1035.93 1230.13 1036.73C1230.21 1036.78 1230.31 1036.8 1230.41 1036.81C1230.5 1036.82 1230.6 1036.81 1230.69 1036.78C1230.79 1036.75 1230.87 1036.71 1230.95 1036.64C1231.02 1036.58 1231.08 1036.51 1231.13 1036.42C1231.18 1036.33 1231.2 1036.24 1231.21 1036.14C1231.22 1036.05 1231.21 1035.95 1231.19 1035.85C1231.16 1035.76 1231.11 1035.67 1231.05 1035.6C1230.98 1035.53 1230.91 1035.46 1230.82 1035.42C1228.9 1034.48 1226.79 1033.99 1224.65 1033.99C1222.51 1033.99 1220.4 1034.48 1218.48 1035.42C1218.32 1035.52 1218.19 1035.68 1218.14 1035.86C1218.08 1036.05 1218.09 1036.24 1218.17 1036.42C1218.25 1036.55 1218.36 1036.65 1218.49 1036.73C1218.62 1036.8 1218.77 1036.83 1218.92 1036.83V1036.83Z" fill="white"/>
<path d="M1218.92 1040.54C1218.98 1040.55 1219.03 1040.54 1219.09 1040.52C1219.14 1040.5 1219.19 1040.47 1219.23 1040.43C1220.93 1039.63 1222.8 1039.21 1224.68 1039.21C1226.56 1039.21 1228.43 1039.63 1230.13 1040.43C1230.22 1040.48 1230.31 1040.51 1230.41 1040.52C1230.51 1040.53 1230.61 1040.52 1230.71 1040.49C1230.8 1040.46 1230.89 1040.41 1230.97 1040.35C1231.05 1040.29 1231.11 1040.21 1231.16 1040.12C1231.21 1040.03 1231.24 1039.94 1231.25 1039.84C1231.26 1039.74 1231.25 1039.64 1231.22 1039.54C1231.19 1039.44 1231.14 1039.36 1231.08 1039.28C1231.02 1039.2 1230.94 1039.14 1230.85 1039.09C1228.93 1038.15 1226.82 1037.67 1224.68 1037.67C1222.54 1037.67 1220.43 1038.15 1218.51 1039.09C1218.35 1039.19 1218.23 1039.35 1218.17 1039.53C1218.11 1039.72 1218.12 1039.91 1218.2 1040.09C1218.27 1040.22 1218.37 1040.33 1218.5 1040.41C1218.63 1040.49 1218.77 1040.53 1218.92 1040.54Z" fill="white"/>
<path opacity="0.2" d="M1126.12 1008L1156.57 750.9C1157.06 746.922 1158.98 743.258 1161.97 740.59C1164.96 737.923 1168.82 736.433 1172.83 736.4H1176.74C1175.9 736.41 1175.08 736.728 1174.46 737.296C1173.83 737.863 1173.43 738.64 1173.34 739.48L1144.54 1010.17L1126.12 1008Z" fill="black"/>
<path d="M1145.15 1011.73H1111.92L1112.33 1004.94H1145.87L1145.15 1011.73Z" class="change-color-in-svg" fill="#4D61FC" style="fill: rgb(114, 134, 157);"/>
<path opacity="0.2" d="M1145.15 1011.73H1125.61L1126.53 1004.94H1145.87L1145.15 1011.73Z" fill="black"/>
<path opacity="0.2" d="M1238.88 680.35V1004.73L1225.4 1004.84L1213 680.35H1238.88Z" fill="black"/>
<path d="M1121.18 608.641L1123.86 680.351H1238.86L1241.12 634.051L1233.71 572.221L1154.91 550.301L1117 630.001" fill="#21252B"/>
<path d="M1108.73 635.59L1104.62 636.83C1090.42 640.43 1077.62 626.95 1081.88 612.96L1106.06 529.52C1107.21 525.685 1109.42 522.255 1112.45 519.633C1115.47 517.01 1119.18 515.303 1123.14 514.71L1166.96 507.51L1208.22 507.71C1208.22 507.71 1210.79 507.51 1248.96 519.13C1254.14 520.701 1258.61 524.022 1261.61 528.526C1264.61 533.029 1265.96 538.435 1265.42 543.82L1258 619.13C1257.74 621.621 1256.98 624.034 1255.77 626.228C1254.56 628.422 1252.93 630.352 1250.96 631.905C1249 633.458 1246.74 634.603 1244.33 635.272C1241.92 635.941 1239.39 636.12 1236.91 635.8L1206.78 632V604.11H1214.91L1216.45 562.75L1215.73 582.92L1112.73 602.47L1108.73 635.59Z" fill="#21252B"/>
<path opacity="0.6" d="M1154.13 576.301C1162.9 572.711 1166.13 567.961 1169.28 563.371C1172.43 558.781 1175.45 554.371 1183.88 550.871C1192.31 547.371 1197.53 548.441 1203.05 549.531C1208.57 550.621 1214.15 551.721 1222.92 548.121C1231.69 544.521 1234.92 539.781 1238.06 535.121C1241.06 530.711 1243.92 526.521 1251.39 523.191L1250.28 525.971C1248.54 530.331 1248.54 530.331 1248.66 530.611C1248.68 530.667 1248.71 530.72 1248.74 530.771C1248.75 530.826 1248.77 530.88 1248.8 530.931C1248.92 531.211 1248.99 531.361 1249.68 531.161L1249.88 531.061C1250.45 530.871 1251.35 530.501 1252.79 529.891C1252.79 529.281 1252.89 528.681 1252.94 528.101C1251.94 528.531 1250.94 528.941 1250.26 529.241C1250.59 528.431 1251.02 527.351 1251.4 526.401C1253.19 521.911 1253.19 521.911 1252.88 521.601L1252.59 521.311L1252.22 521.461C1243.42 525.021 1240.22 529.791 1237.02 534.401C1233.82 539.011 1230.85 543.461 1222.44 546.911C1214.03 550.361 1208.79 549.341 1203.27 548.251C1197.75 547.161 1192.16 546.071 1183.4 549.661C1174.64 553.251 1171.4 558.001 1168.25 562.591C1165.1 567.181 1162.08 571.641 1153.65 575.091C1145.22 578.541 1140 577.511 1134.48 576.431C1129.91 575.531 1125.2 574.611 1118.65 576.431C1118.47 576.901 1118.29 577.371 1118.12 577.851C1124.82 575.761 1129.42 576.661 1134.24 577.611C1139.72 578.781 1145.36 579.891 1154.13 576.301Z" fill="#F4F4F4"/>
<path opacity="0.6" d="M1143.72 609.001C1149.18 610.071 1154.82 611.181 1163.59 607.591C1172.36 604.001 1175.59 599.251 1178.74 594.651C1181.89 590.051 1184.91 585.651 1193.34 582.161C1201.77 578.671 1206.98 579.731 1212.51 580.821C1218.04 581.911 1223.61 583.001 1232.38 579.411C1241.15 575.821 1244.38 571.061 1247.51 566.461C1250.51 562.041 1253.37 557.861 1260.85 554.521L1259.74 557.311C1258 561.671 1258 561.671 1258.12 561.941C1258.14 561.997 1258.16 562.051 1258.19 562.101C1258.19 562.101 1258.19 562.211 1258.26 562.271C1258.38 562.551 1258.44 562.701 1259.13 562.491L1259.34 562.381C1260.08 562.141 1261.39 561.581 1263.75 560.571L1263.93 558.771C1262.47 559.401 1260.82 560.111 1259.72 560.571L1260.85 557.721C1262.65 553.231 1262.65 553.231 1262.34 552.931L1262.05 552.641L1261.67 552.791C1252.87 556.351 1249.67 561.121 1246.48 565.731C1243.29 570.341 1240.31 574.791 1231.9 578.241C1223.49 581.691 1218.25 580.661 1212.72 579.581C1207.19 578.501 1201.62 577.391 1192.85 580.981C1184.08 584.571 1180.85 589.331 1177.7 593.921C1174.55 598.511 1171.53 602.921 1163.11 606.421C1154.69 609.921 1149.46 608.841 1143.94 607.751C1139.21 606.821 1134.34 605.881 1127.43 607.971L1126.71 609.491C1133.9 607.081 1138.69 608.001 1143.72 609.001Z" fill="#F4F4F4"/>
<path opacity="0.6" d="M1134.71 645.711C1140.17 646.781 1145.81 647.891 1154.58 644.301C1163.35 640.711 1166.58 635.961 1169.73 631.361C1172.88 626.761 1175.9 622.361 1184.33 618.871C1192.76 615.381 1197.97 616.441 1203.5 617.531C1209.03 618.621 1214.6 619.711 1223.37 616.121C1232.14 612.531 1235.37 607.781 1238.5 603.121C1241.5 598.701 1244.36 594.521 1251.83 591.181C1251.52 591.991 1251.1 593.041 1250.73 593.971C1248.98 598.331 1248.98 598.331 1249.1 598.611C1249.1 598.661 1249.15 598.721 1249.18 598.761C1249.21 598.801 1249.18 598.871 1249.25 598.931C1249.37 599.211 1249.43 599.361 1250.12 599.161L1250.33 599.051C1251.06 598.811 1252.33 598.281 1254.6 597.301C1254.98 596.571 1255.35 595.831 1255.72 595.101L1255.06 595.381L1250.71 597.241L1251.84 594.401C1253.64 589.911 1253.64 589.911 1253.33 589.601L1253.04 589.311L1252.66 589.461C1243.86 593.021 1240.66 597.791 1237.47 602.401C1234.28 607.011 1231.3 611.461 1222.88 614.911C1214.46 618.361 1209.24 617.331 1203.71 616.251C1198.18 615.171 1192.61 614.061 1183.84 617.661C1175.07 621.261 1171.84 626.001 1168.69 630.591C1165.54 635.181 1162.52 639.591 1154.1 643.091C1145.68 646.591 1140.45 645.511 1134.93 644.431C1131.18 643.691 1127.34 642.941 1122.47 643.711V644.931C1127.22 644.251 1130.9 645.001 1134.71 645.711Z" fill="#F4F4F4"/>
<path opacity="0.6" d="M1218.73 648.331C1213.28 647.251 1207.63 646.141 1198.86 649.741C1190.09 653.341 1186.86 658.081 1183.71 662.671C1180.56 667.261 1177.54 671.671 1169.12 675.171C1160.7 678.671 1155.47 677.591 1149.95 676.511C1145.24 675.581 1140.39 674.631 1133.52 676.691L1133.1 678.111C1140.1 675.821 1144.77 676.741 1149.71 677.711C1155.17 678.781 1160.81 679.891 1169.58 676.301C1178.35 672.711 1181.58 667.961 1184.73 663.361C1187.88 658.761 1190.9 654.361 1199.33 650.871C1207.76 647.381 1212.97 648.441 1218.5 649.531C1224.03 650.621 1229.6 651.711 1238.37 648.121C1239.12 647.811 1239.82 647.491 1240.5 647.121L1240.57 645.721C1239.74 646.141 1238.86 646.541 1237.9 646.941C1229.48 650.441 1224.26 649.411 1218.73 648.331Z" fill="#F4F4F4"/>
<path opacity="0.6" d="M1239.17 674.471L1239.23 673.231C1233.92 672.231 1228.36 671.231 1219.86 674.741C1216.5 676.049 1213.39 677.949 1210.7 680.351H1212.56C1214.91 678.479 1217.53 676.969 1220.33 675.871C1228.59 672.491 1233.76 673.401 1239.17 674.471Z" fill="#F4F4F4"/>
<path opacity="0.6" d="M1109.28 523.2L1109.43 524.43C1114.83 524.55 1120.43 524.53 1128.26 519.66C1131.35 517.795 1134.09 515.394 1136.34 512.57L1134.5 512.89C1132.5 515.132 1130.18 517.063 1127.61 518.62C1120 523.35 1114.78 523.33 1109.28 523.2Z" fill="#F4F4F4"/>
<path opacity="0.6" d="M1112.71 552.71C1118.17 553.78 1123.81 554.89 1132.58 551.3C1141.35 547.71 1144.58 542.96 1147.73 538.36C1150.88 533.76 1153.9 529.36 1162.33 525.87C1170.76 522.38 1175.97 523.44 1181.5 524.53C1187.03 525.62 1192.6 526.71 1201.37 523.12C1210.14 519.53 1213.37 514.78 1216.5 510.17L1216.8 509.73L1215.55 509.4L1215.49 509.48C1212.32 514.14 1209.32 518.54 1200.9 521.99C1192.48 525.44 1187.26 524.41 1181.73 523.33C1176.2 522.25 1170.63 521.14 1161.86 524.74C1153.09 528.34 1149.86 533.08 1146.71 537.67C1143.56 542.26 1140.54 546.67 1132.12 550.17C1123.7 553.67 1118.47 552.59 1112.95 551.51C1109.04 550.74 1105.04 549.96 1099.87 550.89L1099.49 552.21C1104.68 551.14 1108.61 551.9 1112.71 552.71Z" fill="#F4F4F4"/>
<path d="M1111 602.001L1126.17 599.091L1131.71 579.631L1094.58 569.131L1081.88 613.001C1077.66 627.001 1090.42 640.471 1104.62 636.871L1108.3 635.761L1111 602.001Z" fill="#FA898F"/>
<path opacity="0.3" d="M1223 600.61L1225.58 557.51C1225.59 557.359 1225.55 557.208 1225.45 557.091C1225.35 556.974 1225.22 556.9 1225.06 556.885C1224.91 556.871 1224.76 556.917 1224.65 557.014C1224.53 557.11 1224.45 557.249 1224.44 557.4L1214.77 604.32L1222.65 606.26" fill="black"/>
<path d="M1224.37 579.631L1222.73 606.071L1207.4 604.321L1206.16 583.841L1210.89 582.921L1213.16 581.271C1214.6 580.141 1218.71 580.141 1219.95 579.931L1224.37 579.631Z" fill="#FA898F"/>
<path opacity="0.3" d="M1125.91 599.999L1139.08 553.699C1139.13 553.516 1139.25 553.358 1139.41 553.254C1139.57 553.15 1139.76 553.107 1139.95 553.132C1140.13 553.158 1140.31 553.25 1140.43 553.393C1140.56 553.536 1140.63 553.719 1140.63 553.909L1140.11 597.119L1125.91 599.999Z" fill="black"/>
<path d="M1169.33 479.519C1169.34 481.702 1169.58 483.878 1170.05 486.009L1167.68 507.509C1167.6 508.182 1167.68 508.865 1167.93 509.495C1168.19 510.125 1168.59 510.68 1169.12 511.109L1184.56 524.379C1184.83 524.622 1185.17 524.774 1185.53 524.811C1185.89 524.849 1186.25 524.771 1186.56 524.589L1206.42 511.109C1206.98 510.759 1207.44 510.275 1207.76 509.7C1208.09 509.125 1208.26 508.478 1208.27 507.819L1205.8 471.599L1205.29 464.399C1204.05 436.729 1167.94 459.399 1167.94 459.399C1167.94 459.399 1168.92 468.929 1169.33 479.519Z" fill="#FA898F"/>
<path d="M1164.8 460.9C1167.22 460.9 1169.59 460.182 1171.6 458.837C1173.61 457.492 1175.18 455.581 1176.11 453.344C1177.03 451.107 1177.28 448.646 1176.8 446.272C1176.33 443.898 1175.17 441.717 1173.45 440.005C1171.74 438.293 1169.56 437.127 1167.19 436.655C1164.81 436.183 1162.35 436.425 1160.11 437.352C1157.88 438.278 1155.97 439.847 1154.62 441.86C1153.28 443.873 1152.56 446.239 1152.56 448.66C1152.55 450.268 1152.87 451.862 1153.48 453.349C1154.1 454.835 1155 456.186 1156.13 457.324C1157.27 458.461 1158.62 459.363 1160.11 459.976C1161.6 460.59 1163.19 460.904 1164.8 460.9V460.9Z" fill="#21252B"/>
<path d="M1204.1 439L1205.1 463.07C1205.1 463.07 1202.43 500.21 1178.56 497.02C1151.09 493.42 1163.85 439.72 1163.85 439.72L1204.1 439Z" fill="#FA898F"/>
<path d="M1161.72 423.139C1163.22 422.184 1164.94 421.618 1166.72 421.493C1168.49 421.367 1170.28 421.685 1171.9 422.419C1172.71 422.785 1173.63 422.841 1174.49 422.576C1175.34 422.311 1176.07 421.743 1176.53 420.979C1177.69 419.157 1179.28 417.654 1181.17 416.606C1183.05 415.558 1185.17 414.998 1187.33 414.979C1195.05 414.669 1198.45 418.889 1199.89 421.249C1200.16 421.738 1200.54 422.153 1201 422.458C1201.47 422.763 1202 422.949 1202.56 422.999C1206.16 423.519 1213.47 426.189 1216.04 433.599C1220.57 446.599 1211.2 460.859 1211.2 460.859L1205.44 457.259L1204.44 458.909L1203.44 463.909C1203.44 464.419 1202.72 464.829 1202.21 464.829C1201.92 464.789 1201.65 464.64 1201.47 464.412C1201.28 464.183 1201.19 463.893 1201.21 463.599L1201.52 458.249C1201.55 458.044 1201.53 457.835 1201.47 457.637C1201.41 457.438 1201.31 457.255 1201.17 457.099C1201.04 456.943 1200.87 456.818 1200.68 456.731C1200.49 456.645 1200.29 456.6 1200.08 456.599C1199.35 456.542 1198.65 456.34 1198 456.005C1197.35 455.671 1196.78 455.211 1196.32 454.652C1195.85 454.093 1195.5 453.446 1195.29 452.75C1195.08 452.054 1195 451.323 1195.08 450.599C1195.16 449.874 1195.1 449.139 1194.89 448.44C1194.68 447.74 1194.33 447.091 1193.86 446.53C1193.39 445.969 1192.82 445.509 1192.17 445.177C1191.52 444.845 1190.81 444.648 1190.08 444.599L1165.52 442.999C1157.09 441.659 1153.9 427.999 1161.72 423.139Z" fill="#21252B"/>
<path opacity="0.15" d="M1206.26 478.289L1202.36 472.289C1203.44 472.957 1204.69 473.281 1205.96 473.219L1206.26 478.289Z" fill="black"/>
<path d="M1202.87 466.46C1201.94 470.57 1200.92 473.66 1206.26 473.25C1216.45 472.53 1217.58 458.84 1211.61 456.17C1210.99 455.811 1210.3 455.596 1209.58 455.539C1208.87 455.482 1208.15 455.585 1207.48 455.841C1206.81 456.096 1206.2 456.498 1205.71 457.017C1205.21 457.536 1204.84 458.158 1204.61 458.84L1202.87 466.46Z" fill="#FA898F"/>
<path opacity="0.15" d="M1115.83 575.359L1113.51 575.139C1113.05 575.098 1112.59 575.18 1112.18 575.377C1111.77 575.574 1111.41 575.879 1111.16 576.259V576.259C1110.83 576.75 1110.69 577.34 1110.74 577.927C1110.8 578.514 1111.06 579.063 1111.48 579.479V579.479C1111.81 579.811 1112 580.26 1112 580.729V580.729C1112 581.098 1111.88 581.457 1111.67 581.757C1111.45 582.056 1111.15 582.281 1110.8 582.399L1110.3 582.569C1109.9 582.702 1109.53 582.928 1109.23 583.228C1108.93 583.529 1108.7 583.896 1108.57 584.299V584.389C1108.41 584.873 1108.38 585.392 1108.5 585.889C1108.61 586.385 1108.87 586.84 1109.23 587.199C1109.74 587.711 1110.44 587.998 1111.16 587.999H1112.59C1112.64 588 1112.68 588.012 1112.72 588.034C1112.76 588.057 1112.79 588.089 1112.82 588.128C1112.84 588.167 1112.86 588.211 1112.86 588.257C1112.86 588.303 1112.85 588.348 1112.83 588.389V588.389C1112.6 588.858 1112.52 589.388 1112.6 589.905C1112.69 590.422 1112.93 590.899 1113.3 591.269V591.269C1113.53 591.501 1113.8 591.685 1114.11 591.81C1114.41 591.936 1114.73 592 1115.06 591.999H1120.06L1119.32 592.739C1119.15 592.909 1119 593.109 1118.9 593.329L1118.79 593.549C1118.58 593.972 1118.5 594.451 1118.58 594.918C1118.65 595.385 1118.87 595.816 1119.21 596.149V596.149C1119.47 596.406 1119.79 596.596 1120.13 596.702C1120.48 596.808 1120.85 596.828 1121.21 596.759L1130 594.999L1129.62 578.999L1115.83 575.359Z" fill="black"/>
<path opacity="0.15" d="M1212.23 460.899C1212.03 461.209 1211.72 461.209 1211.31 461.109C1211.04 460.866 1210.72 460.692 1210.37 460.601C1210.03 460.51 1209.66 460.506 1209.31 460.589C1208.8 460.589 1208.39 461.109 1207.87 461.829C1207.3 462.758 1206.98 463.82 1206.95 464.909L1206.74 466.149C1206.74 466.459 1206.43 466.659 1206.02 466.659C1205.61 466.659 1205.5 466.349 1205.5 465.939L1205.71 464.709C1205.76 463.382 1206.1 462.082 1206.71 460.899C1206.97 460.465 1207.31 460.086 1207.72 459.786C1208.13 459.485 1208.59 459.269 1209.08 459.149C1210.1 459.017 1211.13 459.274 1211.96 459.869C1212.23 459.999 1212.33 460.279 1212.23 460.899Z" fill="black"/>
<path opacity="0.15" d="M1183.12 498.35C1188.04 497.679 1192.56 495.271 1195.87 491.56C1195.96 491.463 1196 491.336 1196 491.206C1195.99 491.076 1195.94 490.952 1195.85 490.86C1195.76 490.768 1195.63 490.715 1195.5 490.711C1195.37 490.707 1195.25 490.753 1195.15 490.84C1192.56 493.71 1189.2 495.79 1185.48 496.84C1178.08 498.48 1171.48 495.09 1169.12 492.72L1168.2 501.36C1170.76 501.863 1173.4 501.856 1175.96 501.34C1178.52 500.823 1180.95 499.807 1183.12 498.35V498.35Z" fill="black"/>
<g opacity="0.15">
<path opacity="0.15" d="M1176.12 485.49C1176.11 485.393 1176.12 485.294 1176.15 485.202C1176.18 485.109 1176.24 485.025 1176.31 484.956C1176.37 484.887 1176.46 484.834 1176.55 484.802C1176.64 484.77 1176.74 484.759 1176.84 484.77C1177.89 484.94 1178.96 485.044 1180.03 485.08C1180.22 485.08 1180.4 485.156 1180.54 485.291C1180.67 485.426 1180.75 485.609 1180.75 485.8C1180.75 485.991 1180.67 486.174 1180.54 486.309C1180.4 486.444 1180.22 486.52 1180.03 486.52C1178.91 486.338 1177.77 486.234 1176.64 486.21C1176.33 486 1175.91 485.59 1176.12 485.49Z" fill="black"/>
</g>
<path d="M1096.4 562.91L1133.46 573.98L1131.48 579.96L1094.6 569.12L1096.4 562.91Z" class="change-color-in-svg" fill="#4D61FC" style="fill: rgb(114, 134, 157);"/>
<path opacity="0.15" d="M1181.91 481.1H1181.83C1181.33 480.95 1180.83 480.846 1180.31 480.79L1179.81 480.72C1175.81 480.28 1174.16 482.54 1173.65 483.54V483.63C1173.61 483.791 1173.61 483.96 1173.66 484.12C1173.7 484.28 1173.79 484.425 1173.91 484.54L1173.99 484.61H1174.09H1174.33C1174.46 484.611 1174.58 484.586 1174.7 484.536C1174.81 484.486 1174.91 484.413 1175 484.32L1175.06 484.24C1175.52 483.32 1177.06 481.33 1181.25 482.51C1181.44 482.583 1181.64 482.583 1181.83 482.511C1182.01 482.439 1182.16 482.299 1182.25 482.12C1182.34 481.939 1182.35 481.732 1182.29 481.541C1182.22 481.35 1182.09 481.192 1181.91 481.1V481.1Z" fill="black"/>
<path d="M1182.09 468C1182.52 468 1182.94 467.873 1183.29 467.636C1183.65 467.398 1183.92 467.061 1184.09 466.666C1184.25 466.272 1184.29 465.837 1184.21 465.418C1184.13 464.999 1183.92 464.614 1183.62 464.312C1183.32 464.01 1182.93 463.805 1182.51 463.721C1182.09 463.638 1181.66 463.681 1181.26 463.844C1180.87 464.008 1180.53 464.284 1180.29 464.64C1180.06 464.995 1179.93 465.412 1179.93 465.84C1179.92 466.125 1179.97 466.409 1180.08 466.674C1180.19 466.939 1180.35 467.18 1180.55 467.382C1180.75 467.584 1180.99 467.743 1181.26 467.849C1181.52 467.955 1181.8 468.007 1182.09 468V468Z" fill="#21252B"/>
<path d="M1181.16 466.609C1181.23 466.614 1181.3 466.603 1181.36 466.579C1181.43 466.554 1181.49 466.516 1181.54 466.467C1181.59 466.417 1181.62 466.358 1181.65 466.293C1181.67 466.228 1181.68 466.159 1181.68 466.089C1181.68 466.021 1181.67 465.952 1181.65 465.888C1181.62 465.824 1181.58 465.766 1181.53 465.718C1181.48 465.67 1181.43 465.633 1181.36 465.609C1181.3 465.585 1181.23 465.575 1181.16 465.579C1181.09 465.575 1181.02 465.585 1180.96 465.609C1180.9 465.633 1180.84 465.67 1180.79 465.719C1180.74 465.767 1180.7 465.825 1180.68 465.889C1180.66 465.953 1180.65 466.021 1180.65 466.089C1180.65 466.158 1180.66 466.226 1180.68 466.291C1180.7 466.355 1180.74 466.414 1180.79 466.463C1180.84 466.512 1180.89 466.55 1180.96 466.575C1181.02 466.601 1181.09 466.612 1181.16 466.609V466.609Z" fill="white"/>
<path d="M1165.11 468C1165.54 468 1165.95 467.873 1166.31 467.636C1166.67 467.398 1166.94 467.061 1167.11 466.666C1167.27 466.272 1167.31 465.837 1167.23 465.418C1167.15 464.999 1166.94 464.614 1166.64 464.312C1166.34 464.01 1165.95 463.805 1165.53 463.721C1165.11 463.638 1164.68 463.681 1164.28 463.844C1163.89 464.008 1163.55 464.284 1163.31 464.64C1163.08 464.995 1162.95 465.412 1162.95 465.84C1162.94 466.126 1162.99 466.41 1163.1 466.676C1163.2 466.942 1163.36 467.183 1163.56 467.385C1163.77 467.588 1164.01 467.747 1164.27 467.852C1164.54 467.958 1164.82 468.008 1165.11 468V468Z" fill="#21252B"/>
<path d="M1164.19 466.609C1164.26 466.612 1164.33 466.601 1164.39 466.575C1164.45 466.55 1164.51 466.512 1164.56 466.463C1164.61 466.414 1164.64 466.355 1164.67 466.291C1164.69 466.226 1164.7 466.158 1164.7 466.089C1164.7 466.021 1164.69 465.953 1164.67 465.889C1164.65 465.825 1164.61 465.767 1164.56 465.719C1164.51 465.67 1164.45 465.633 1164.39 465.609C1164.33 465.585 1164.26 465.575 1164.19 465.579C1164.12 465.575 1164.05 465.585 1163.99 465.609C1163.92 465.633 1163.86 465.67 1163.82 465.718C1163.77 465.766 1163.73 465.824 1163.7 465.888C1163.68 465.952 1163.67 466.021 1163.67 466.089C1163.66 466.159 1163.67 466.228 1163.7 466.293C1163.72 466.358 1163.76 466.417 1163.81 466.467C1163.86 466.516 1163.92 466.554 1163.98 466.579C1164.05 466.603 1164.12 466.614 1164.19 466.609Z" fill="white"/>
<g opacity="0.15">
<path opacity="0.15" d="M1171.49 474.691C1171.58 474.003 1171.92 473.375 1172.46 472.934C1172.99 472.494 1173.68 472.274 1174.37 472.321C1174.68 472.321 1174.89 472.631 1174.89 473.041C1174.89 473.451 1174.58 473.561 1174.17 473.561C1173.99 473.54 1173.81 473.556 1173.64 473.607C1173.46 473.658 1173.3 473.743 1173.16 473.857C1173.02 473.972 1172.91 474.113 1172.83 474.273C1172.74 474.432 1172.69 474.607 1172.68 474.787C1172.67 474.966 1172.69 475.147 1172.74 475.317C1172.8 475.488 1172.89 475.646 1173.01 475.78C1173.13 475.915 1173.28 476.024 1173.44 476.102C1173.6 476.179 1173.78 476.223 1173.96 476.231L1176.84 476.441C1177.15 476.441 1177.36 476.751 1177.36 477.161C1177.36 477.571 1177.05 477.671 1176.64 477.671L1173.75 477.471C1173.41 477.452 1173.08 477.363 1172.78 477.21C1172.48 477.057 1172.22 476.842 1172 476.581C1171.79 476.319 1171.63 476.016 1171.55 475.69C1171.46 475.365 1171.44 475.024 1171.49 474.691Z" fill="black"/>
</g>
<path d="M1155.75 592.28L1150.3 608.85L1146.59 606.99C1131.98 607.2 1129.82 595.26 1129.82 595.26L1121.08 596.09C1120.73 596.091 1120.39 595.966 1120.13 595.738C1119.86 595.511 1119.69 595.195 1119.64 594.85C1119.59 594.489 1119.66 594.123 1119.85 593.807C1120.03 593.491 1120.3 593.242 1120.64 593.1L1127.64 590.94L1116.22 590.64C1115.73 590.66 1115.24 590.489 1114.87 590.164C1114.5 589.838 1114.26 589.382 1114.22 588.89C1114.2 588.642 1114.23 588.393 1114.3 588.157C1114.38 587.921 1114.5 587.703 1114.67 587.516C1114.83 587.329 1115.03 587.177 1115.25 587.07C1115.48 586.962 1115.72 586.901 1115.97 586.89L1111.75 587.2H1111.65C1111.3 587.203 1110.95 587.112 1110.64 586.936C1110.33 586.76 1110.08 586.506 1109.9 586.2C1109.73 585.91 1109.64 585.585 1109.63 585.252C1109.61 584.92 1109.68 584.588 1109.82 584.286C1109.96 583.984 1110.17 583.721 1110.44 583.518C1110.7 583.315 1111.01 583.178 1111.34 583.12L1128.93 580.75L1114.32 579.93C1113.81 579.867 1113.35 579.624 1113.01 579.245C1112.67 578.867 1112.48 578.378 1112.47 577.87V577.66C1112.49 577.396 1112.56 577.138 1112.68 576.902C1112.8 576.666 1112.96 576.456 1113.16 576.284C1113.36 576.112 1113.6 575.981 1113.85 575.9C1114.1 575.818 1114.37 575.788 1114.63 575.81H1129.24C1131.45 575.818 1133.59 576.58 1135.31 577.97L1151.67 591.35L1155.75 592.28Z" fill="#FA898F"/>
<path d="M1260.38 596.29L1256.68 634.67C1256.43 637.3 1255.55 639.833 1254.13 642.06C1252.71 644.287 1250.78 646.144 1248.5 647.48C1246.22 648.815 1243.65 649.59 1241.01 649.742C1238.38 649.893 1235.74 649.416 1233.32 648.35L1146.8 610.59L1153.38 591.59L1222.83 606.2L1224.17 585.01L1260.38 596.29Z" fill="#FA898F"/>
<path opacity="0.2" d="M1206.07 582.68L1206.28 583.81L1127 599V597.35L1206.07 582.68Z" fill="black"/>
<path opacity="0.3" d="M1163.36 618.1L1165.11 619.24L1122 632.05L1122.11 630.92L1163.36 618.1Z" fill="black"/>
<path opacity="0.15" d="M1128.38 585.9L1115.83 587.24V586.24L1128.28 584.9L1128.38 585.9Z" fill="black"/>
<path d="M1208.22 507.509V507.709C1208.19 508.366 1208.01 509.006 1207.69 509.58C1207.37 510.153 1206.92 510.642 1206.37 511.009L1186.51 524.479C1186.23 524.647 1185.91 524.72 1185.59 524.689C1185.4 524.696 1185.22 524.663 1185.05 524.592C1184.87 524.522 1184.72 524.415 1184.59 524.279L1169.12 510.999C1168.61 510.555 1168.22 509.996 1167.96 509.368C1167.71 508.741 1167.62 508.062 1167.68 507.389V507.189L1163.57 507.909C1163.57 509.086 1163.82 510.25 1164.32 511.316C1164.82 512.383 1165.55 513.326 1166.45 514.079L1181.78 527.249C1182.65 528.035 1183.74 528.527 1184.9 528.657C1186.07 528.786 1187.24 528.545 1188.26 527.969L1188.47 527.869L1188.67 527.759L1208.53 514.289C1209.51 513.623 1210.34 512.754 1210.96 511.742C1211.58 510.73 1211.98 509.597 1212.13 508.419L1208.22 507.509Z" class="change-color-in-svg" fill="#4D61FC" style="fill: rgb(114, 134, 157);"/>
<path d="M1207.5 604.32L1209.5 603.39L1104 637L1111 602L1206.26 583.74L1207.5 604.32Z" fill="#FA898F"/>
<path d="M1224 580L1261.49 583.74L1257.15 629.46L1222.73 606.07L1224 580Z" fill="#FA898F"/>
<path opacity="0.15" d="M1222.68 606.259L1229.82 608.019H1230.03C1230.65 608.019 1231.16 607.199 1230.34 606.479L1223.03 600.609" fill="black"/>
<path d="M1224.37 579.631L1261.58 583.071L1260.87 589.321L1224.06 586.041L1224.37 579.631Z" class="change-color-in-svg" fill="#4D61FC" style="fill: rgb(114, 134, 157);"/>
<path opacity="0.3" d="M1261 589.33L1265.46 543.93C1265.89 540.033 1265.33 536.09 1263.82 532.472C1262.31 528.854 1259.9 525.68 1256.82 523.25C1258.63 527.097 1259.37 531.358 1258.98 535.59L1253.8 589L1261 589.33Z" fill="black"/>
<path opacity="0.15" d="M1253.8 589L1247.93 634.61C1247.59 637.993 1246.22 641.191 1244.02 643.781C1241.81 646.371 1238.87 648.229 1235.59 649.11C1237.93 649.742 1240.39 649.855 1242.78 649.443C1245.17 649.031 1247.45 648.103 1249.45 646.723C1251.45 645.343 1253.12 643.545 1254.35 641.453C1255.59 639.362 1256.35 637.026 1256.59 634.61L1260.3 596.33L1260.98 589.33L1253.8 589Z" fill="black"/>
<path opacity="0.3" d="M1240.32 649.69C1238.73 649.681 1237.14 649.473 1235.59 649.07L1222 643.31L1163.35 618.1L1205.35 645.99C1207.24 647.119 1208.81 648.695 1209.94 650.579C1211.07 652.462 1211.72 654.596 1211.83 656.79L1212.96 680.24H1238.89L1240.32 649.69Z" fill="black"/>
<path d="M1179.27 457.3C1179.45 457.71 1181.37 457.6 1183.61 457.9C1185.85 458.2 1187.61 458.74 1187.97 458.39C1188.11 458.22 1187.81 457.83 1187.09 457.39C1186.09 456.852 1185 456.512 1183.88 456.39C1182.74 456.232 1181.58 456.289 1180.46 456.56C1179.63 456.81 1179.2 457.11 1179.27 457.3Z" fill="#21252B"/>
<path d="M1168.81 457.3C1168.64 457.71 1166.72 457.6 1164.47 457.9C1162.22 458.2 1160.47 458.74 1160.12 458.39C1159.98 458.22 1160.28 457.83 1161 457.39C1161.99 456.852 1163.08 456.512 1164.2 456.39C1165.34 456.231 1166.5 456.289 1167.62 456.56C1168.46 456.81 1168.88 457.11 1168.81 457.3Z" fill="#21252B"/>
<path opacity="0.15" d="M1127 596.18C1127 596.18 1118 598 1111 602L1126.17 599.09L1127 596.18Z" fill="black"/>
<path opacity="0.15" d="M1224 580L1220.56 593.45C1220.07 595.359 1218.89 597.019 1217.26 598.113C1215.62 599.208 1213.63 599.659 1211.68 599.38L1209 599L1125 624C1082.75 636.77 1081.15 618.06 1081.1 617.41C1081.72 639.27 1104.5 637.5 1104.5 637.5L1209.5 603.39L1222.78 606.07L1223 602L1224 580Z" fill="black"/>
<path d="M1139 410C1139 390.12 1119.52 374 1095.5 374C1071.48 374 1052 390.12 1052 410C1052 429.88 1071.48 446 1095.5 446C1100.13 446.006 1104.74 445.387 1109.21 444.16L1128 452L1121.71 438.73C1132.21 432.15 1139 421.73 1139 410Z" fill="white" stroke="#B2B6BB" stroke-width="2" stroke-miterlimit="10"/>
<path d="M1107.43 398.121C1106.18 395.99 1104.15 394.422 1101.78 393.741C1096.26 392.231 1090.13 392.961 1087.14 396.231C1083.57 398.851 1082.97 405.421 1087.91 405.421C1090.97 405.421 1091.74 399.291 1097.68 400.731C1098.21 400.901 1098.69 401.208 1099.07 401.622C1099.45 402.036 1099.72 402.543 1099.84 403.091C1100.84 406.691 1096.18 409.201 1092.9 413.091C1092.38 413.701 1092.05 414.448 1091.94 415.243C1091.83 416.037 1091.95 416.846 1092.29 417.573C1092.62 418.301 1093.16 418.917 1093.84 419.349C1094.51 419.781 1095.3 420.011 1096.1 420.011C1096.94 420.008 1097.76 419.774 1098.48 419.332C1099.19 418.891 1099.77 418.261 1100.15 417.511C1103.06 411.681 1112.76 407.001 1107.43 398.121Z" fill="#B2B6BB"/>
<path d="M1095.54 423.881C1094.57 423.687 1093.57 423.809 1092.68 424.227C1091.8 424.646 1091.06 425.339 1090.6 426.205C1090.13 427.071 1089.96 428.064 1090.1 429.036C1090.25 430.008 1090.7 430.909 1091.39 431.605C1092.09 432.301 1092.99 432.755 1093.96 432.901C1094.93 433.046 1095.92 432.875 1096.79 432.413C1097.66 431.95 1098.35 431.221 1098.77 430.333C1099.19 429.445 1099.32 428.445 1099.13 427.481C1098.95 426.594 1098.52 425.779 1097.88 425.138C1097.24 424.498 1096.42 424.06 1095.54 423.881Z" fill="#B2B6BB"/>
<path d="M1221.06 416.86C1220.88 416.861 1220.7 416.813 1220.55 416.721C1220.39 416.628 1220.26 416.496 1220.18 416.337C1220.09 416.178 1220.05 415.998 1220.06 415.817C1220.06 415.637 1220.12 415.461 1220.22 415.31L1239.16 386.45C1239.31 386.227 1239.53 386.072 1239.79 386.017C1240.06 385.963 1240.33 386.014 1240.55 386.16C1240.77 386.306 1240.93 386.534 1240.98 386.795C1241.04 387.056 1240.99 387.327 1240.84 387.55L1221.89 416.41C1221.8 416.548 1221.68 416.661 1221.53 416.739C1221.39 416.818 1221.22 416.859 1221.06 416.86V416.86Z" fill="#868A91"/>
<path d="M1268 451H1267.86L1231.14 445.84C1231.01 445.821 1230.88 445.777 1230.77 445.71C1230.65 445.643 1230.55 445.554 1230.47 445.448C1230.39 445.342 1230.34 445.222 1230.3 445.093C1230.27 444.965 1230.26 444.831 1230.28 444.7C1230.3 444.569 1230.34 444.442 1230.41 444.328C1230.48 444.214 1230.57 444.114 1230.67 444.034C1230.78 443.954 1230.9 443.896 1231.03 443.862C1231.15 443.829 1231.29 443.821 1231.42 443.84L1268.14 449C1268.4 449.018 1268.65 449.142 1268.83 449.342C1269 449.543 1269.09 449.805 1269.07 450.07C1269.05 450.335 1268.93 450.582 1268.73 450.756C1268.53 450.931 1268.26 451.018 1268 451V451Z" fill="#868A91"/>
<path d="M1234 427.53C1233.78 427.541 1233.56 427.479 1233.38 427.354C1233.2 427.229 1233.07 427.049 1233 426.84C1232.92 426.589 1232.94 426.316 1233.05 426.08C1233.17 425.844 1233.38 425.664 1233.63 425.58L1277.63 411.05C1277.76 411.003 1277.89 410.983 1278.02 410.989C1278.16 410.996 1278.29 411.03 1278.41 411.088C1278.53 411.147 1278.64 411.229 1278.73 411.331C1278.82 411.432 1278.88 411.55 1278.93 411.678C1278.97 411.806 1278.98 411.941 1278.97 412.075C1278.96 412.209 1278.92 412.339 1278.86 412.458C1278.79 412.576 1278.71 412.681 1278.6 412.766C1278.5 412.85 1278.38 412.913 1278.25 412.95L1234.25 427.48C1234.17 427.506 1234.08 427.523 1234 427.53Z" fill="#868A91"/>
<g opacity="0.3">
<path opacity="0.3" d="M880.998 577C880.766 577.006 880.539 576.929 880.356 576.785C880.174 576.641 880.047 576.438 879.998 576.21L829.998 345.21C829.943 344.945 829.995 344.669 830.143 344.442C830.291 344.215 830.523 344.056 830.788 344C831.054 343.945 831.33 343.997 831.557 344.145C831.784 344.293 831.943 344.525 831.998 344.79L881.998 575.79C882.026 575.919 882.028 576.052 882.005 576.182C881.981 576.311 881.932 576.435 881.861 576.545C881.789 576.656 881.696 576.751 881.588 576.826C881.479 576.901 881.357 576.953 881.228 576.98L880.998 577Z" fill="white"/>
</g>
<g opacity="0.3">
<path opacity="0.3" d="M740.999 577H740.789C740.66 576.973 740.538 576.92 740.429 576.845C740.321 576.771 740.228 576.675 740.157 576.565C740.085 576.454 740.036 576.331 740.012 576.201C739.989 576.072 739.991 575.939 740.019 575.81L790.019 344.81C790.046 344.679 790.1 344.554 790.175 344.443C790.251 344.332 790.348 344.238 790.46 344.164C790.572 344.091 790.698 344.04 790.83 344.016C790.962 343.991 791.097 343.992 791.229 344.02C791.36 344.047 791.485 344.101 791.595 344.176C791.706 344.252 791.801 344.349 791.874 344.461C791.948 344.574 791.998 344.699 792.023 344.831C792.048 344.963 792.046 345.099 792.019 345.23L742.019 576.23C741.965 576.457 741.834 576.658 741.648 576.799C741.462 576.94 741.232 577.011 740.999 577V577Z" fill="white"/>
</g>
<path d="M1161.2 251.301C1161.6 251.301 1161.98 251.143 1162.26 250.861C1162.54 250.58 1162.7 250.199 1162.7 249.801C1162.7 249.403 1162.54 249.021 1162.26 248.74C1161.98 248.459 1161.6 248.301 1161.2 248.301C1160.8 248.301 1160.42 248.459 1160.14 248.74C1159.86 249.021 1159.7 249.403 1159.7 249.801C1159.7 250.199 1159.86 250.58 1160.14 250.861C1160.42 251.143 1160.8 251.301 1161.2 251.301Z" fill="white"/>
</svg>