<svg id="Layer_1" data-name="Layer 1" xmlns="http://www.w3.org/2000/svg" xmlns:xlink="http://www.w3.org/1999/xlink" viewBox="0 0 498.95 443.55" width="406" height="306" class="illustration styles_illustrationTablet__1DWOa"><defs><linearGradient id="linear-gradient" x1="374.45" y1="263.16" x2="376.95" y2="107.58" gradientUnits="userSpaceOnUse"><stop offset="0" stop-color="#010101" stop-opacity="0"></stop><stop offset="0.95" stop-color="#010101"></stop></linearGradient><linearGradient id="linear-gradient-2" x1="286.11" y1="292.29" x2="109.91" y2="790.9" xlink:href="#linear-gradient"></linearGradient><linearGradient id="linear-gradient-3" x1="374.16" y1="188.76" x2="323.08" y2="332.15" xlink:href="#linear-gradient"></linearGradient><linearGradient id="linear-gradient-4" x1="197.71" y1="341.48" x2="200.06" y2="268.37" xlink:href="#linear-gradient"></linearGradient><linearGradient id="linear-gradient-5" x1="190.95" y1="364.26" x2="205.66" y2="364.26" xlink:href="#linear-gradient"></linearGradient><linearGradient id="linear-gradient-6" x1="164.78" y1="364.87" x2="231.83" y2="364.87" xlink:href="#linear-gradient"></linearGradient><linearGradient id="linear-gradient-7" x1="163.6" y1="196.8" x2="384.79" y2="474.22" xlink:href="#linear-gradient"></linearGradient><clipPath id="clip-path" transform="translate(-23.09 -9.95)"><path d="M162.72,188.57h51.53A11.57,11.57,0,0,1,225.62,198l19.06,100.66H187.19Z" fill="none"></path></clipPath><linearGradient id="linear-gradient-8" x1="317.31" y1="289.33" x2="265.3" y2="320.26" xlink:href="#linear-gradient"></linearGradient><linearGradient id="linear-gradient-9" x1="291.46" y1="306.05" x2="208.98" y2="336.98" xlink:href="#linear-gradient"></linearGradient><linearGradient id="linear-gradient-10" x1="290.41" y1="210.97" x2="184.03" y2="261.11" xlink:href="#linear-gradient"></linearGradient><linearGradient id="linear-gradient-11" x1="272.55" y1="201.87" x2="294.58" y2="176.57" xlink:href="#linear-gradient"></linearGradient><linearGradient id="linear-gradient-12" x1="196.95" y1="65.48" x2="397.04" y2="47.04" gradientTransform="translate(59.57 52.55) rotate(7.67)" gradientUnits="userSpaceOnUse"><stop offset="0" stop-color="#fff" stop-opacity="0"></stop><stop offset="0.95" stop-color="#fff"></stop></linearGradient><linearGradient id="linear-gradient-13" x1="166.02" y1="68.01" x2="340.07" y2="51.97" xlink:href="#linear-gradient-12"></linearGradient><linearGradient id="linear-gradient-14" x1="-227.99" y1="771.85" x2="-207.32" y2="771.85" gradientTransform="translate(117.44 909.78) rotate(179.44)" xlink:href="#linear-gradient"></linearGradient><linearGradient id="linear-gradient-15" x1="-192.34" y1="771.85" x2="-171.67" y2="771.85" gradientTransform="translate(117.44 909.78) rotate(179.44)" xlink:href="#linear-gradient"></linearGradient></defs><title>Smiley - Sad</title><path d="M463.2,156.7c-6.07-8.12-14.64-13.95-21.74-21.19-14.55-14.84-22.3-34.83-32.71-52.81-10.95-18.93-25.32-36.14-43.32-48.57C334,12.42,293.59,6.82,255.68,11.47,225.55,15.15,195,25.7,174.26,47.88c-18.06,19.34-26.85,45.44-41.91,67.2-15.5,22.41-37.23,39.64-56,59.34-30.6,32-54.45,73.68-53.16,118C24,321.92,36,350.19,51.71,375.22,62.87,393,76.22,409.73,93.18,422.11c39.75,29,93,30.14,142,25.95s99.49-12.41,146.63,1.71c6.28,1.88,12.68,4.18,19.22,3.65,5.34-.44,10.34-2.74,15-5.38C448.32,429.71,468.47,392,465.78,355c-1.45-20-9-39.67-6.94-59.64,2.62-25.4,21.59-47.26,22.22-72.83C481.52,203.79,474.32,171.55,463.2,156.7Z" transform="translate(-23.09 -9.95)" fill="#68e1fd" opacity="0.24" style="isolation: isolate;"></path><rect x="333.99" y="205.61" width="79.98" height="173.7" fill="#68e1fd"></rect><rect x="333.99" y="205.61" width="79.98" height="173.7" fill="url(#linear-gradient)"></rect><path d="M139.63,387.55c6.27,6.26,15.74,7.76,24.54,8.8a937.72,937.72,0,0,0,181.19,3.91c4.82-.36,9.93-.87,13.77-3.8,18.56-14.2-17.29-16-24.49-15.35-20.22,1.95-40.63,1.13-60.94,1.39q-33.84.45-67.65,1.73-16.91.63-33.8,1.49C167.14,386,142.54,390.45,139.63,387.55Z" transform="translate(-23.09 -9.95)" fill="url(#linear-gradient-2)"></path><path d="M359.37,192.52c3.64.3,7.48.81,10.35,3.06s4.23,6.84,1.88,9.63c-2,2.41-5.65,2.48-8.8,2.35l-53.26-2.22c-4.33-.18-10-3.21-6.42-8.28,2.3-3.25,8.59-2.76,12.06-3.15C329.85,192.24,344.63,191.3,359.37,192.52Z" transform="translate(-23.09 -9.95)" fill="#68e1fd"></path><path d="M311.84,195.39a18.65,18.65,0,0,0-20.67,17.72c1.18.76,2.73.18,4-.41l8.3-3.82c4.36-2,9.09-4.38,11-8.8" transform="translate(-23.09 -9.95)" fill="#f0decd"></path><rect x="281.9" y="197.49" width="174.95" height="9.37" fill="#68e1fd"></rect><rect x="281.9" y="197.49" width="174.95" height="9.37" fill="url(#linear-gradient-3)"></rect><rect x="197.2" y="368.33" width="2.21" height="3.55" fill="#d2e8ec"></rect><rect x="190.95" y="303.92" width="14.71" height="38.46" fill="#68e1fd"></rect><rect x="190.95" y="303.92" width="14.71" height="38.46" fill="url(#linear-gradient-4)"></rect><rect x="190.95" y="360.66" width="14.71" height="7.19" fill="#68e1fd"></rect><rect x="193.15" y="342.17" width="10.3" height="18.71" fill="#68e1fd"></rect><rect x="164.78" y="364.87" width="67.05" height="3.57" fill="#68e1fd"></rect><rect x="190.95" y="360.66" width="14.71" height="7.19" fill="url(#linear-gradient-5)"></rect><line x1="164.78" y1="364.87" x2="231.83" y2="364.87" fill="url(#linear-gradient-6)"></line><rect x="195.09" y="370.22" width="6.43" height="9.56" rx="1.29" fill="#606161"></rect><rect x="166.66" y="368.23" width="2.21" height="4.83" fill="#d2e8ec"></rect><rect x="250.72" y="378.18" width="2.21" height="4.83" transform="translate(480.56 751.24) rotate(-180)" fill="#d2e8ec"></rect><circle cx="166.04" cy="375.54" r="4.77" fill="#606161"></circle><circle cx="230.56" cy="375.23" r="4.77" fill="#606161"></circle><path d="M162.72,188.57h51.54A11.52,11.52,0,0,1,225.6,198l20.86,111.23-60-5Z" transform="translate(-23.09 -9.95)" fill="#68e1fd"></path><path d="M162.72,188.57h51.54A11.52,11.52,0,0,1,225.6,198l20.86,111.23-60-5Z" transform="translate(-23.09 -9.95)" fill="url(#linear-gradient-7)"></path><path d="M227.31,315.67H180.09a8.33,8.33,0,0,1-8.23-7C154.39,199.3,154.39,197.74,154.39,196.9a8.33,8.33,0,0,1,16.64-.63c.53,4.36,9.54,61.23,16.16,102.73h40.12a8.34,8.34,0,1,1,0,16.67ZM171,196.34c0,.19,0,.38,0,.56C171.06,196.81,171.06,196.62,171,196.34Z" transform="translate(-23.09 -9.95)" fill="#68e1fd"></path><g clip-path="url(#clip-path)"><ellipse cx="192.34" cy="247.55" rx="2.27" ry="2.67" transform="matrix(0.68, -0.74, 0.74, 0.68, -143.13, 211.21)" fill="#68e1fd"></ellipse><ellipse cx="221.21" cy="247.55" rx="2.27" ry="2.67" transform="translate(-133.83 232.43) rotate(-47.32)" fill="#68e1fd"></ellipse><ellipse cx="196.31" cy="271.96" rx="2.27" ry="2.67" transform="translate(-159.79 221.99) rotate(-47.32)" fill="#68e1fd"></ellipse><ellipse cx="225.18" cy="271.96" rx="2.27" ry="2.67" transform="translate(-150.49 243.21) rotate(-47.32)" fill="#b3d8dc"></ellipse><ellipse cx="211.22" cy="259.75" rx="2.27" ry="2.67" transform="translate(-146.02 229.02) rotate(-47.32)" fill="#68e1fd"></ellipse><ellipse cx="215.29" cy="284.77" rx="2.27" ry="2.67" transform="translate(-163.1 240.07) rotate(-47.32)" fill="#68e1fd"></ellipse><ellipse cx="184.45" cy="199.03" rx="2.27" ry="2.67" transform="translate(-110 189.78) rotate(-47.32)" fill="#68e1fd"></ellipse><ellipse cx="213.32" cy="199.03" rx="2.27" ry="2.67" transform="translate(-100.7 211) rotate(-47.32)" fill="#68e1fd"></ellipse><ellipse cx="188.42" cy="223.44" rx="2.27" ry="2.67" transform="translate(-126.67 200.56) rotate(-47.32)" fill="#68e1fd"></ellipse><ellipse cx="217.29" cy="223.44" rx="2.27" ry="2.67" transform="translate(-117.37 221.78) rotate(-47.32)" fill="#68e1fd"></ellipse><ellipse cx="203.33" cy="211.24" rx="2.27" ry="2.67" transform="translate(-112.89 207.59) rotate(-47.32)" fill="#68e1fd"></ellipse><ellipse cx="207.39" cy="236.25" rx="2.27" ry="2.67" transform="translate(-129.97 218.64) rotate(-47.32)" fill="#68e1fd"></ellipse></g><path d="M277.66,315.67h-55.9a8.34,8.34,0,1,1,0-16.67h55.9a8.34,8.34,0,1,1,0,16.67Z" transform="translate(-23.09 -9.95)" fill="#68e1fd"></path><path d="M309.64,166.55c.41,3,1.19,6,1.5,9,.66,6.57-1.19,13.67-6.09,18.11s-13.08,5.37-18.12,1.09a18.4,18.4,0,0,1-4.91-7.72c-6.13-16.12-1.23-35.81,11.75-47.17,4.59-4,19.17-11.78,21.07-1,.74,4.22-3,8.81-4.12,12.76A37.09,37.09,0,0,0,309.64,166.55Z" transform="translate(-23.09 -9.95)" fill="#26265f"></path><path d="M263.75,374.64,263,384.93a10,10,0,0,0,5.92,1.37c3.14-.39,9.4-6.82,10.91-6.51l-.06-3.06" transform="translate(-23.09 -9.95)" fill="#ba816c"></path><path d="M300.36,367.29l-.75,10.29a10.06,10.06,0,0,0,5.92,1.38c3.14-.4,9.4-6.83,10.91-6.52l-.06-3.06" transform="translate(-23.09 -9.95)" fill="#ba816c"></path><path d="M274.53,262.29s53.09,25,52.63,26.31-10.28,81.95-10.28,81.95-7.05,4.75-17,0l-1.56-67.81-64.17-9.22s-6.31-9.47-9.82-29.82C231.27,258.18,272.66,261.63,274.53,262.29Z" transform="translate(-23.09 -9.95)" fill="#606161"></path><path d="M274.53,262.29s53.09,25,52.63,26.31-10.28,81.95-10.28,81.95-7.05,4.75-17,0l-1.56-67.81-64.17-9.22s-6.31-9.47-9.82-29.82C231.27,258.18,272.66,261.63,274.53,262.29Z" transform="translate(-23.09 -9.95)" fill="url(#linear-gradient-8)"></path><path d="M224.36,263.69s76.14,28.52,76.49,29.82c2.45,9.13-21,84.22-21,84.22s-7.82,5-17-1l7.29-67.44-37.3-10.86S215.59,291.06,224.36,263.69Z" transform="translate(-23.09 -9.95)" fill="#606161"></path><path d="M224.36,263.69s76.14,28.52,76.49,29.82c2.45,9.13-21,84.22-21,84.22s-7.82,5-17-1l7.29-67.44-37.3-10.86S215.59,291.06,224.36,263.69Z" transform="translate(-23.09 -9.95)" fill="url(#linear-gradient-9)"></path><path d="M271.41,162.44c-5.91,4.22-11,10.15-15.51,15.22a128.69,128.69,0,0,0-22.57,35.91c-3.24,7.81-5.52,16.1-8.82,24.06-.51,1.23-7.11,14.94-6.17,15.7,0,0,15.06,10.8,40.38,18.38,2.72.81,11.43,4.8,13.91,2.3,1.56-1.57,1.39-8.06,1.8-10.16q1.33-6.92,3.25-13.7a171.08,171.08,0,0,1,13.1-32.91c5.2-9.94,12.4-20.88,14.27-32.11,2.17-13-1.15-26.54-16-28.12C282.47,156.31,276.63,158.71,271.41,162.44Z" transform="translate(-23.09 -9.95)" fill="#68e1fd"></path><path d="M274.43,263.85s9.49,11.86,5.47,12.93c-3.69,1-26-5-29.57-3.91s-10.57,6.71-23.44,6.4-14.71-9.74-13.59-16.95a18.63,18.63,0,0,1,5.59-10.93S261.39,268.78,274.43,263.85Z" transform="translate(-23.09 -9.95)" fill="#f2fbff"></path><path d="M282.51,235l-14.4-11.28-4-24.75s-4.69,16.5-1.92,26.11,6.14,11.82,6.14,11.82l12.51,2.91C281.12,238.39,282.23,236.51,282.51,235Z" transform="translate(-23.09 -9.95)" fill="url(#linear-gradient-10)"></path><path d="M309.36,203.5s10.37-4.3,14.6-4.38,14,3.5,14.92,3.79,2.32,2.22-6.16,2.39-11.07,6.89-17.44,6.26-8.26-4.23-8.26-4.23" transform="translate(-23.09 -9.95)" fill="#f0decd"></path><path d="M297.88,175.1l-8,40.93L310,203.52s4,.34,4.54,9.47c0,0-21,21.54-29.13,23.15-36.95,7.31-6.25-60.41-6.25-60.41" transform="translate(-23.09 -9.95)" fill="#68e1fd"></path><path d="M348.09,166.88c-.94.91-11.85,11.31-17.54,14.5s-15,5.62-17.49.83-2.58-7.71-4.83-5.85a63.16,63.16,0,0,0-6,6.48s-7.69-2-10.06-7.59.48-9.49.48-9.49,4.56,0,11-6.83,16.62-26.6,32.07-23.48C345.11,137.35,360.75,154.48,348.09,166.88Z" transform="translate(-23.09 -9.95)" fill="#f0decd"></path><path d="M359.88,158.48c-.67,6.18-4.31,11.53-11.93,13.08-3.33.68-1.12-8.95-7.3-13.68s-19.91,8.89-20.57,7.17,5.77-4,6.23-8.94-5.81-4.28-9.49-.48c-8.95,9.25-12.38,24.81-18.28,36.2-4.22,8.15-19.66,23.53-28.94,13.37-1.77-1.93-3-4.3-4.84-6.19-2.93-3-7-4.57-10.76-6.57s-7.4-5-8.15-9.11c-1.17-6.5,5.06-11.6,8.8-17.05,2.7-3.95,4.23-8.6,6.83-12.62,5-7.79,13.77-12.58,22.78-14.78,7.19-1.75,14.28-1.52,21.59-2,5.73-.39,8.77-2.32,14.26-4,10.9-3.41,22.67-2.18,31.63,5.3A24.43,24.43,0,0,1,359.88,158.48Z" transform="translate(-23.09 -9.95)" fill="#606161"></path><path d="M359.88,158.48c-.67,6.18-4.31,11.53-11.93,13.08-3.33.68-1.12-8.95-7.3-13.68s-19.91,8.89-20.57,7.17,5.77-4,6.23-8.94-5.81-4.28-9.49-.48c-8.95,9.25-12.38,24.81-18.28,36.2-4.22,8.15-19.66,23.53-28.94,13.37-1.77-1.93-3-4.3-4.84-6.19-2.93-3-7-4.57-10.76-6.57s-7.4-5-8.15-9.11c-1.17-6.5,5.06-11.6,8.8-17.05,2.7-3.95,4.23-8.6,6.83-12.62,5-7.79,13.77-12.58,22.78-14.78,7.19-1.75,14.28-1.52,21.59-2,5.73-.39,8.77-2.32,14.26-4,10.9-3.41,22.67-2.18,31.63,5.3A24.43,24.43,0,0,1,359.88,158.48Z" transform="translate(-23.09 -9.95)" fill="url(#linear-gradient-11)"></path><circle cx="285.73" cy="136.43" r="52.43" fill="#68e1fd"></circle><path d="M360.77,153.37a52.41,52.41,0,1,1-45.38-59l.42.06A52.41,52.41,0,0,1,360.77,153.37Z" transform="translate(-23.09 -9.95)" fill="url(#linear-gradient-12)"></path><path d="M360.77,153.37a52.43,52.43,0,0,1-44.85,45l-.42-.06a52.44,52.44,0,0,1-.11-103.93l.42.06A52.41,52.41,0,0,1,360.77,153.37Z" transform="translate(-23.09 -9.95)" fill="url(#linear-gradient-13)"></path><path d="M330.46,164.73l-2.76,1.8c-3.66-3.83-9.82-7.13-20.27-7.16h-.14c-8.09,0-13.48,2.83-17.07,6.36l-2.3-2.3c4.13-4.06,10.25-7.39,19.37-7.39h.17C319.41,156.07,326.4,160.13,330.46,164.73Z" transform="translate(-23.09 -9.95)" fill="#68e1fd"></path><path d="M337.85,130.82a10.06,10.06,0,0,1-2.39,7.07c-1.82,2-4.5,2.92-7.92,2.89-3.57,0-6.29-1.06-8.1-3.06a9.15,9.15,0,0,1-2.22-6.47l2.68.23a6.55,6.55,0,0,0,1.55,4.45c1.29,1.4,3.34,2.13,6.11,2.15s4.65-.65,5.92-2a7.27,7.27,0,0,0,1.68-5Z" transform="translate(-23.09 -9.95)" fill="#68e1fd"></path><path d="M337.85,130.82a10.06,10.06,0,0,1-2.39,7.07c-1.82,2-4.5,2.92-7.92,2.89-3.57,0-6.29-1.06-8.1-3.06a9.15,9.15,0,0,1-2.22-6.47l2.68.23a6.55,6.55,0,0,0,1.55,4.45c1.29,1.4,3.34,2.13,6.11,2.15s4.65-.65,5.92-2a7.27,7.27,0,0,0,1.68-5Z" transform="translate(-23.09 -9.95)" fill="url(#linear-gradient-14)"></path><path d="M302.2,131.17a10,10,0,0,1-2.39,7.06c-1.82,2-4.5,2.93-7.92,2.89s-6.29-1.06-8.1-3.05a9.16,9.16,0,0,1-2.22-6.48l2.68.23a6.58,6.58,0,0,0,1.55,4.46c1.29,1.4,3.35,2.12,6.11,2.15s4.65-.66,5.92-2a7.4,7.4,0,0,0,1.69-5Z" transform="translate(-23.09 -9.95)" fill="#68e1fd"></path><path d="M302.2,131.17a10,10,0,0,1-2.39,7.06c-1.82,2-4.5,2.93-7.92,2.89s-6.29-1.06-8.1-3.05a9.16,9.16,0,0,1-2.22-6.48l2.68.23a6.58,6.58,0,0,0,1.55,4.46c1.29,1.4,3.35,2.12,6.11,2.15s4.65-.66,5.92-2a7.4,7.4,0,0,0,1.69-5Z" transform="translate(-23.09 -9.95)" fill="url(#linear-gradient-15)"></path><rect x="282.13" y="198.11" width="216.82" height="6.87" fill="none"></rect><path d="M323.79,377.42a21.12,21.12,0,0,1,7.17,5.33,2.93,2.93,0,0,1,.78,1.52,2.28,2.28,0,0,1-.53,1.48c-1.55,2-4.51,2.08-7,1.91a96.75,96.75,0,0,1-23.61-4,2.6,2.6,0,0,1-1.21-.65,2.5,2.5,0,0,1-.49-1.25,16.47,16.47,0,0,1,0-5.94,2.4,2.4,0,0,1,.57-1.31c.68-.66,1.8-.38,2.72-.13,4.71,1.28,7.92-.3,12.34-1.24C317.25,372.52,321,376.08,323.79,377.42Z" transform="translate(-23.09 -9.95)" fill="#606161"></path><path d="M287.24,384.3a20.87,20.87,0,0,1,7.17,5.33,2.78,2.78,0,0,1,.77,1.51,2.19,2.19,0,0,1-.53,1.48c-1.54,2-4.5,2.08-7,1.91a97.13,97.13,0,0,1-23.61-4,2.79,2.79,0,0,1-1.21-.65,2.53,2.53,0,0,1-.49-1.26,16,16,0,0,1,0-5.93,2.4,2.4,0,0,1,.56-1.31c.69-.67,1.81-.39,2.73-.13,4.71,1.28,7.91-.31,12.34-1.25C280.69,379.4,284.44,383,287.24,384.3Z" transform="translate(-23.09 -9.95)" fill="#606161"></path></svg>