<svg id="Layer_1" data-name="Layer 1" xmlns="http://www.w3.org/2000/svg" xmlns:xlink="http://www.w3.org/1999/xlink" viewBox="0 0 411.75 381.17" width="406" height="306" class="illustration styles_illustrationTablet__1DWOa"><defs><linearGradient id="linear-gradient" x1="232.44" y1="110.89" x2="196.04" y2="99.3" gradientUnits="userSpaceOnUse"><stop offset="0.01"></stop><stop offset="0.13" stop-opacity="0.69"></stop><stop offset="1" stop-opacity="0"></stop></linearGradient><linearGradient id="linear-gradient-2" x1="-274.66" y1="789.08" x2="-258.14" y2="789.08" gradientTransform="translate(743.22 -506.79) rotate(21.98)" gradientUnits="userSpaceOnUse"><stop offset="0" stop-color="#e5c5d5"></stop><stop offset="0.42" stop-color="#ead4d1"></stop><stop offset="1" stop-color="#f0e9cb"></stop></linearGradient><linearGradient id="linear-gradient-3" x1="203.24" y1="253.45" x2="333.82" y2="253.45" gradientUnits="userSpaceOnUse"><stop offset="0.02" stop-color="#fff" stop-opacity="0"></stop><stop offset="0.32" stop-color="#fff" stop-opacity="0.39"></stop><stop offset="0.68" stop-color="#fff" stop-opacity="0.68"></stop><stop offset="1" stop-color="#fff"></stop></linearGradient><linearGradient id="linear-gradient-4" x1="253.56" y1="138.98" x2="254.56" y2="119.39" xlink:href="#linear-gradient"></linearGradient><linearGradient id="linear-gradient-5" x1="254.09" y1="324.67" x2="254.09" y2="371.59" xlink:href="#linear-gradient"></linearGradient><linearGradient id="linear-gradient-6" x1="274.16" y1="275.81" x2="267.27" y2="310.12" xlink:href="#linear-gradient-3"></linearGradient><linearGradient id="linear-gradient-7" x1="274.94" y1="279.5" x2="259.73" y2="355.23" xlink:href="#linear-gradient"></linearGradient><linearGradient id="linear-gradient-8" x1="267.93" y1="213.85" x2="266.76" y2="178.03" xlink:href="#linear-gradient"></linearGradient><linearGradient id="linear-gradient-9" x1="248.93" y1="100.35" x2="204.75" y2="102.01" xlink:href="#linear-gradient"></linearGradient><linearGradient id="linear-gradient-10" x1="211.27" y1="63" x2="232.16" y2="63" gradientTransform="matrix(1, 0, 0, 1, 0, 0)" xlink:href="#linear-gradient-2"></linearGradient><linearGradient id="linear-gradient-11" x1="263.45" y1="103.71" x2="204.54" y2="100.73" xlink:href="#linear-gradient"></linearGradient><linearGradient id="linear-gradient-12" x1="58.11" y1="296.69" x2="71.3" y2="296.69" gradientTransform="translate(155.1 -134.92) rotate(5.01)" xlink:href="#linear-gradient-2"></linearGradient><linearGradient id="linear-gradient-13" x1="193.35" y1="167.94" x2="206.55" y2="167.94" gradientTransform="matrix(1, 0, 0, 1, 0, 0)" xlink:href="#linear-gradient-2"></linearGradient><linearGradient id="linear-gradient-14" x1="197.12" y1="128.1" x2="213.65" y2="128.1" gradientTransform="matrix(1, 0, 0, 1, 0, 0)" xlink:href="#linear-gradient-2"></linearGradient></defs><title>Waiting</title><path d="M400.88,363.85c-6,3.62-12.74,6.92-19.77,10.48C354.28,388,323,389.48,293.47,390.6L152.06,396c-23.82.9-48.53,1.65-70.46-7.66a89.36,89.36,0,0,1-32.71-24.47C34.7,347.33,25.26,326,20.5,304.57c-7.78-35.06-5.31-71.44-5.9-107.34-.34-20.91-1.73-42,1.86-62.61S29.32,93.47,46.21,81.13c22.71-16.58,52.45-14.95,79-18.44,28-3.68,52-17.35,76.95-29.7,26.14-12.92,55.91-19.84,85.11-17.07,29.52,2.82,50.92,16.26,67.46,40.93a122,122,0,0,1,20.17,57.06c2.13,24-2.89,48.38.67,72.23,7,46.73,45.64,84.69,49.93,131.75C427.75,342.46,416.85,354.24,400.88,363.85Z" transform="translate(-14.05 -15.32)" fill="#68e1fd" opacity="0.18" style="isolation: isolate;"></path><path d="M400.88,363.85c-6,3.62-12.74,6.92-19.77,10.48C354.28,388,323,389.48,293.47,390.6L152.06,396c-23.82.9-48.53,1.65-70.46-7.66a89.36,89.36,0,0,1-32.71-24.47Z" transform="translate(-14.05 -15.32)" fill="#68e1fd" opacity="0.41"></path><path d="M214.58,93.24c-.18,4.52.44,9,.64,13.55a13.36,13.36,0,0,1-.49,5c-1.12,3.12-4.16,5.07-7,6.79-1.8,1.09-3.85,2.65-3.6,4.75a3.75,3.75,0,0,0,3.4,2.94,10.2,10.2,0,0,0,4.71-.92,21.68,21.68,0,0,0,8.1-4.78c4.53-4.71,4.68-12,4.34-18.53-.29-5.48-.76-11.5-3.54-16.38C216.66,77.86,214.74,89.33,214.58,93.24Z" transform="translate(-14.05 -15.32)" fill="#68e1fd"></path><path d="M214.58,93.24c-.18,4.52.44,9,.64,13.55a13.36,13.36,0,0,1-.49,5c-1.12,3.12-4.16,5.07-7,6.79-1.8,1.09-3.85,2.65-3.6,4.75a3.75,3.75,0,0,0,3.4,2.94,10.2,10.2,0,0,0,4.71-.92,21.68,21.68,0,0,0,8.1-4.78c4.53-4.71,4.68-12,4.34-18.53-.29-5.48-.76-11.5-3.54-16.38C216.66,77.86,214.74,89.33,214.58,93.24Z" transform="translate(-14.05 -15.32)" fill="url(#linear-gradient)"></path><path d="M201.22,120.34c-2.07-.72-4.27-1.7-6.34-1a1.26,1.26,0,0,0-.89.75,1.42,1.42,0,0,0,.11.81l2.4,7.11a3.91,3.91,0,0,0,.47,1,3.26,3.26,0,0,0,1.83,1.05,12.71,12.71,0,0,0,7.9-.37c2.62-1,2.85-4.22,1.46-6.48S203.62,121.17,201.22,120.34Z" transform="translate(-14.05 -15.32)" fill="url(#linear-gradient-2)"></path><path d="M196.34,107.49c.68.17.42.57.49,1.26.47,4.38.07,9.31,1,13.6s3.79,8.09,4.32,12.47c-2.11-4.32-4-8.42-5.07-13.16C196.89,120.49,195.31,107.49,196.34,107.49Z" transform="translate(-14.05 -15.32)" fill="#3e3e54"></path><path d="M214.41,148.54s-19.86,23.72-6.62,44.05,36.73,35.45,45.67,50.83-7.28,32.06-12.91,35.18-56.92,40.93-25.15,79.76H322.63s34.75-35.18-23.17-77.67c0,0-41.37-21.11-2.65-51.09s45.67-58.52,27.31-80.8Z" transform="translate(-14.05 -15.32)" fill="#68e1fd"></path><path d="M214.41,148.54s-19.86,23.72-6.62,44.05,36.73,35.45,45.67,50.83-7.28,32.06-12.91,35.18-56.92,40.93-25.15,79.76H322.63s34.75-35.18-23.17-77.67c0,0-41.37-21.11-2.65-51.09s45.67-58.52,27.31-80.8Z" transform="translate(-14.05 -15.32)" fill="url(#linear-gradient-3)"></path><rect x="186.95" y="123.51" width="134.28" height="10.17" rx="5.08" fill="#68e1fd"></rect><rect x="186.95" y="343.44" width="134.28" height="10.17" rx="5.08" fill="#68e1fd"></rect><rect x="186.95" y="123.51" width="134.28" height="10.17" rx="5.08" fill="url(#linear-gradient-4)"></rect><rect x="186.95" y="343.44" width="134.28" height="10.17" rx="5.08" fill="url(#linear-gradient-5)"></rect><path d="M313.58,304.35c-18.17-9.7-78.29-11.31-89.7-3,10.65-14.1,25.28-22.4,25.28-22.4,14.4-9,30.78-1.18,30.78-1.18S300.77,288.43,313.58,304.35Z" transform="translate(-14.05 -15.32)" fill="url(#linear-gradient-6)"></path><path d="M313.2,357.58H223.34l-3.47-3.12c-10.26-17.56-7.74-33.07-1-45.41a62.46,62.46,0,0,1,5-7.65c11.41-8.36,71.53-6.75,89.7,3a55.07,55.07,0,0,1,5,7.3,41.09,41.09,0,0,1,2.54,5.27C330.07,339.6,313.2,357.58,313.2,357.58Z" transform="translate(-14.05 -15.32)" fill="#68e1fd"></path><path d="M318.6,311.65c-4.29,15.62-47.07-8.21-67-10-13.16-1.17-27.06,6.84-27.06,6.84s-4.49,1.63-5.69.54a62.46,62.46,0,0,1,5-7.65c11.41-8.36,71.53-6.75,89.7,3A55.07,55.07,0,0,1,318.6,311.65Z" transform="translate(-14.05 -15.32)" fill="url(#linear-gradient-7)"></path><path d="M223.67,205.36s30.78,24.24,32.77,28.93,18,7.43,23,3.26,17.7-12.12,30.28-30.11-28.79-6.25-42.69-3.64S229.3,189.46,223.67,205.36Z" transform="translate(-14.05 -15.32)" fill="#68e1fd"></path><path d="M223.67,205.36s11.92,7.82,22.51,5.47,17.54-9.12,32.1-7.82,29.12,7.56,33.76.79-.33-12.26-14.9-10.43-38.72,2.08-50.3,1.3S214.08,195.72,223.67,205.36Z" transform="translate(-14.05 -15.32)" fill="#68e1fd"></path><path d="M223.67,205.36s11.92,7.82,22.51,5.47,17.54-9.12,32.1-7.82,29.12,7.56,33.76.79-.33-12.26-14.9-10.43-38.72,2.08-50.3,1.3S214.08,195.72,223.67,205.36Z" transform="translate(-14.05 -15.32)" fill="url(#linear-gradient-8)"></path><path d="M266.71,245.68a5.9,5.9,0,0,0-2,2.22,2.32,2.32,0,0,0-.24,1.86,1.82,1.82,0,0,0,1.73,1.12,3.28,3.28,0,0,0,1.72-.69c1-.65,2.1-1.48,1.95-2.49s-1.71-1.73-3.05-2.13" transform="translate(-14.05 -15.32)" fill="#68e1fd"></path><path d="M272.29,254.93a2.59,2.59,0,0,0-.93.45c-.14.12-.22.25-.11.38a1.17,1.17,0,0,0,.79.23,3.49,3.49,0,0,0,.79-.14c.46-.14,1-.31.89-.51s-.78-.35-1.39-.43" transform="translate(-14.05 -15.32)" fill="#68e1fd"></path><path d="M266.91,257.86a2.59,2.59,0,0,0-.93.45c-.14.12-.21.26-.11.38a1.17,1.17,0,0,0,.79.23,3,3,0,0,0,.79-.14c.46-.13,1-.3.9-.51s-.79-.35-1.4-.43" transform="translate(-14.05 -15.32)" fill="#68e1fd"></path><path d="M275.46,271.51a3.63,3.63,0,0,0-1.37-.29c-.26,0-.49.06-.55.25a1,1,0,0,0,.44.79,3.13,3.13,0,0,0,.86.46c.57.22,1.21.44,1.4.21s-.28-.89-.73-1.42" transform="translate(-14.05 -15.32)" fill="#68e1fd"></path><path d="M259.58,289.29a3.62,3.62,0,0,0-1.36-.29c-.27,0-.5.07-.55.25s.1.52.43.79a3,3,0,0,0,.87.46c.56.22,1.21.44,1.39.21s-.28-.89-.72-1.42" transform="translate(-14.05 -15.32)" fill="#68e1fd"></path><path d="M216.78,87a12.51,12.51,0,0,1,2-7.53,17.26,17.26,0,0,1,5.67-5.41,6.81,6.81,0,0,1,4.29-1.28c1.27.16,5.67-4.62,6.7-3.86,2.9,2.15,2.32,10.1,4.78,12.75a79.07,79.07,0,0,1,1.2,10.76l1.47,27.26c.24,4.51.36,9.42-2.34,13a153.67,153.67,0,0,1-19.8-8.82,3.36,3.36,0,0,1-2.19-3.68c-.27-6.78-.27-13.58,0-20.36C218.68,96.19,217.08,90.64,216.78,87Z" transform="translate(-14.05 -15.32)" fill="#68e1fd"></path><path d="M216.78,87a12.51,12.51,0,0,1,2-7.53,17.26,17.26,0,0,1,5.67-5.41,6.81,6.81,0,0,1,4.29-1.28c1.27.16,5.67-4.62,6.7-3.86,2.9,2.15,2.32,10.1,4.78,12.75a79.07,79.07,0,0,1,1.2,10.76l1.47,27.26c.24,4.51.36,9.42-2.34,13a153.67,153.67,0,0,1-19.8-8.82,3.36,3.36,0,0,1-2.19-3.68c-.27-6.78-.27-13.58,0-20.36C218.68,96.19,217.08,90.64,216.78,87Z" transform="translate(-14.05 -15.32)" fill="url(#linear-gradient-9)"></path><path d="M211.32,66.53l0,.78a4.89,4.89,0,0,0,.77,2.77c1,1.24,2.82,1.29,4.37,1.06a10.29,10.29,0,0,1,3.7-.25c1.23.27,2.59,5.31,3.77,5.51,2.15.37,6.71-2.27,8.19-3.6.15-.13-1.57-4-1.51-4.21a1.3,1.3,0,0,0,0-.62l-2.4-11.16a10.67,10.67,0,0,0-1.69-4.44,7.15,7.15,0,0,0-2.63-2c-3.39-1.55-8.36-1-10.84,2.08-1.31,1.63-1.29,4.46-1.5,6.46A50.73,50.73,0,0,0,211.32,66.53Z" transform="translate(-14.05 -15.32)" fill="url(#linear-gradient-10)"></path><path d="M229,144.58c-6.62,4.27-14.18,6.79-21.65,9.26-1.84.61-4,1.19-5.63.21a6.24,6.24,0,0,1-2.11-2.56c-2.94-5.58-10.29-7.24-6.68-12.41,1.53-2.2,10.2-9.41,12.34-11,4.24-3.15,8.68-6.39,13.89-7.26a25.71,25.71,0,0,1,7.38,0c4.73.57,16.66,2.39,15.66,8.46S233.79,141.46,229,144.58Z" transform="translate(-14.05 -15.32)" fill="#3e3e54"></path><path d="M231,91.52c0,4,.42,8-.9,11.76-1.77,5-6.39,8.43-11,11.13-2.85,1.68-5.94,3.37-7.47,6.29s-.45,7.44,2.8,8a7.68,7.68,0,0,0,3.71-.54,103.57,103.57,0,0,0,18.15-8c2.37-1.34,4.77-2.85,6.23-5.14a16.38,16.38,0,0,0,2-7.55,75.53,75.53,0,0,0-.5-17A37.13,37.13,0,0,0,238.9,78C231,67.3,231,85.62,231,91.52Z" transform="translate(-14.05 -15.32)" fill="#68e1fd"></path><path d="M231,91.52c0,4,.42,8-.9,11.76-1.77,5-6.39,8.43-11,11.13-2.85,1.68-5.94,3.37-7.47,6.29s-.45,7.44,2.8,8a7.68,7.68,0,0,0,3.71-.54,103.57,103.57,0,0,0,18.15-8c2.37-1.34,4.77-2.85,6.23-5.14a16.38,16.38,0,0,0,2-7.55,75.53,75.53,0,0,0-.5-17A37.13,37.13,0,0,0,238.9,78C231,67.3,231,85.62,231,91.52Z" transform="translate(-14.05 -15.32)" fill="url(#linear-gradient-11)"></path><path d="M187.53,162.19l-1.71,32.73c4-.25,5.82-4.89,6.78-8.72q4.08-16.3,8.17-32.6c.8-3.22,1.62-6.57,1-9.83-.44-2.31-2.52-6.32-5.29-6.57-2.95-.26-4.5,3.53-5.52,5.81C188.29,149,187.86,155.75,187.53,162.19Z" transform="translate(-14.05 -15.32)" fill="url(#linear-gradient-12)"></path><path d="M193.48,164.4l1.16,32.75c3.91-.6,5.36-5.38,6-9.28q2.64-16.59,5.29-33.19c.52-3.28,1-6.68.14-9.88-.64-2.26-3.06-6.07-5.84-6.08-3,0-4.17,3.9-5,6.27C193.09,151.16,193.25,158,193.48,164.4Z" transform="translate(-14.05 -15.32)" fill="url(#linear-gradient-13)"></path><path d="M191.82,188.27l-3.72.27a2.83,2.83,0,0,0-2.11.77,2.69,2.69,0,0,0-.43,1.58c-.1,2-.12,4,0,5.92a.49.49,0,0,0,0,.24.52.52,0,0,0,.47.18,8.44,8.44,0,0,0,4.06-1.08,3.38,3.38,0,0,0,1.32-1.1,3.79,3.79,0,0,0,.45-1.86c.1-1.67.14-3.35.08-5Z" transform="translate(-14.05 -15.32)" fill="#68e1fd"></path><path d="M191.74,195a.89.89,0,0,0-.12-.4.59.59,0,0,0-.74-.09,2.61,2.61,0,0,0-.58.57,4,4,0,0,1-2.53,1.38,18.06,18.06,0,0,0-3,.18,5.55,5.55,0,0,0-1.91,1.25l-3.24,2.8c-.76.65-1.59,1.5-1.41,2.49a2.35,2.35,0,0,0,2,1.61,10.6,10.6,0,0,0,4.84-.6,36.37,36.37,0,0,0,4.24-1.42,4.51,4.51,0,0,0,1.88-1.28C192.28,200,191.91,196.75,191.74,195Z" transform="translate(-14.05 -15.32)" fill="#3e3e54"></path><path d="M200.75,188.71,197,189a2.87,2.87,0,0,0-2.12.77,2.78,2.78,0,0,0-.42,1.58c-.11,2-.12,4-.05,5.92a.7.7,0,0,0,.05.25.51.51,0,0,0,.46.17,8.34,8.34,0,0,0,4.07-1.08,3.34,3.34,0,0,0,1.32-1.09,4,4,0,0,0,.44-1.86q.17-2.52.09-5Z" transform="translate(-14.05 -15.32)" fill="#68e1fd"></path><path d="M200.67,195.41a.84.84,0,0,0-.11-.41.59.59,0,0,0-.75-.08,2.37,2.37,0,0,0-.57.57,4,4,0,0,1-2.53,1.37,19.1,19.1,0,0,0-3,.19,5.56,5.56,0,0,0-1.92,1.24l-3.24,2.8c-.75.66-1.58,1.51-1.41,2.49a2.36,2.36,0,0,0,2,1.61,10.49,10.49,0,0,0,4.85-.6,35.16,35.16,0,0,0,4.24-1.42,4.45,4.45,0,0,0,1.87-1.28C201.21,200.4,200.84,197.18,200.67,195.41Z" transform="translate(-14.05 -15.32)" fill="#3e3e54"></path><path d="M203.93,123.44c-2.18.11-4.59,0-6.25,1.44a1.24,1.24,0,0,0-.55,1,1.41,1.41,0,0,0,.4.71l4.89,5.69a3.66,3.66,0,0,0,.83.79,3.28,3.28,0,0,0,2.08.28,12.62,12.62,0,0,0,7.19-3.3c2-1.91,1.07-5-1.07-6.55S206.47,123.31,203.93,123.44Z" transform="translate(-14.05 -15.32)" fill="url(#linear-gradient-14)"></path><path d="M229.05,41.89c6.86.59,13,4.93,17.16,10.41C250.54,58,254,65.57,261,67.07c3.15.68,6.44-.09,9.64.24A14.45,14.45,0,0,1,283,78.65c.75,3.89-.17,7.91.23,11.85.79,7.77,6.65,15.16,4.46,22.65-1.74,5.92-9,9.51-14.79,7.25-6.16-2.41-8.83-9.44-13-14.6-1.81-2.25-4.46-4.36-7.3-3.83-1.41.27-2.64,1.16-4,1.52-3.2.83-6.53-1.42-8.16-4.3s-2-6.28-2.51-9.54c-.74-4.6-2-9.32-5-12.85-3.72-4.32-9.77-6.47-12.58-11.43-1.66-2.94-1.95-6.41-3.46-9.4-1.34-2.63-3.91-4-2.78-7.11C216,43.72,224.3,41.49,229.05,41.89Z" transform="translate(-14.05 -15.32)" fill="#3e3e54"></path><path d="M210.23,48.75a5.36,5.36,0,0,0,1.39,4.72,21.71,21.71,0,0,0,4,3.21,10.33,10.33,0,0,1,3.49,3.68,1.73,1.73,0,0,0,.42.67.54.54,0,0,0,.71,0,.74.74,0,0,0,.14-.46c.2-2.8-.31-5.59-.31-8.39,0-1.9.57-4.32-.57-6C217.31,42.93,211.11,45.54,210.23,48.75Z" transform="translate(-14.05 -15.32)" fill="#3e3e54"></path><path d="M191.3,110.29a3.11,3.11,0,0,0,.47,2.22c.9,1.15,2.88.85,3.82-.26a5.82,5.82,0,0,0,1-4.17,7.1,7.1,0,0,0,.8,3.85c.73,1.1,2.41,1.69,3.42.83a2.63,2.63,0,0,0,.77-2.1,5.16,5.16,0,0,0-1.53-3.57,3.9,3.9,0,0,0,2.18,1.55,2.48,2.48,0,0,0,1.35,0,2.11,2.11,0,0,0,1.3-2.27,3.29,3.29,0,0,0-1.57-2.25,8.21,8.21,0,0,0-2.66-1c.67-.48,1.44-.81,2.1-1.3a2.83,2.83,0,0,0,1.28-2c.07-1.38-1.47-2.39-2.85-2.28a6.48,6.48,0,0,0-3.56,1.93,8.14,8.14,0,0,0-3.12-1.85,3.41,3.41,0,0,0-3.38.82,2.7,2.7,0,0,0,.82,4,25.39,25.39,0,0,1-2.62.13,2.71,2.71,0,0,0-2.21,1.22,2.1,2.1,0,0,0,.81,2.57,3.43,3.43,0,0,0,2.84.31c.6-.18,1.72-1.11,2.26-.69C192.45,107.55,191.47,108.59,191.3,110.29Z" transform="translate(-14.05 -15.32)" fill="#68e1fd"></path><ellipse cx="182.65" cy="88.29" rx="3.39" ry="2.53" fill="#fff"></ellipse></svg>