<svg width="40" height="40" viewBox="0 0 40 40" fill="none" xmlns="http://www.w3.org/2000/svg">
<path id="album-inner" d="M20 3.33333C10.8 3.33333 3.33334 10.8 3.33334 20C3.33334 29.2 10.8 36.6667 20 36.6667C29.2 36.6667 36.6667 29.2 36.6667 20C36.6667 10.8 29.2 3.33333 20 3.33333ZM20 33.3333C12.65 33.3333 6.66668 27.35 6.66668 20C6.66668 12.65 12.65 6.66667 20 6.66667C27.35 6.66667 33.3333 12.65 33.3333 20C33.3333 27.35 27.35 33.3333 20 33.3333ZM20 12.5C15.85 12.5 12.5 15.85 12.5 20C12.5 24.15 15.85 27.5 20 27.5C24.15 27.5 27.5 24.15 27.5 20C27.5 15.85 24.15 12.5 20 12.5ZM20 21.6667C19.0833 21.6667 18.3333 20.9167 18.3333 20C18.3333 19.0833 19.0833 18.3333 20 18.3333C20.9167 18.3333 21.6667 19.0833 21.6667 20C21.6667 20.9167 20.9167 21.6667 20 21.6667Z" fill="black"/>
</svg>
