<svg width="40" height="40" viewBox="0 0 40 40" fill="none" xmlns="http://www.w3.org/2000/svg">
<path id="artist-inner" d="M36.7813 32.8125C34.5898 29.0339 31.1876 26.1051 27.125 24.5C29.1189 23.0046 30.5917 20.9197 31.3349 18.5407C32.078 16.1618 32.0538 13.6093 31.2656 11.2448C30.4775 8.88034 28.9653 6.8238 26.9434 5.3665C24.9215 3.90919 22.4924 3.125 20 3.125C17.5077 3.125 15.0785 3.90919 13.0566 5.3665C11.0347 6.8238 9.52255 8.88034 8.73439 11.2448C7.94624 13.6093 7.92202 16.1618 8.66516 18.5407C9.4083 20.9197 10.8811 23.0046 12.875 24.5C8.81246 26.1051 5.41025 29.0339 3.21876 32.8125C2.97012 33.2435 2.90287 33.7556 3.0318 34.2361C3.16073 34.7167 3.47528 35.1264 3.90626 35.375C4.33724 35.6236 4.84933 35.6909 5.32989 35.562C5.81046 35.433 6.22012 35.1185 6.46876 34.6875C7.84019 32.3124 9.81263 30.3401 12.1879 28.9688C14.5631 27.5976 17.2574 26.8757 20 26.8757C22.7426 26.8757 25.4369 27.5976 27.8122 28.9688C30.1874 30.3401 32.1598 32.3124 33.5313 34.6875C33.6971 34.9717 33.9343 35.2076 34.2193 35.372C34.5043 35.5364 34.8272 35.6236 35.1563 35.625C35.4856 35.6276 35.8095 35.5413 36.0938 35.375C36.3073 35.252 36.4944 35.0881 36.6445 34.8927C36.7947 34.6973 36.9048 34.4742 36.9686 34.2362C37.0325 33.9983 37.0488 33.75 37.0167 33.5057C36.9845 33.2614 36.9045 33.0259 36.7813 32.8125ZM11.875 15C11.875 13.393 12.3515 11.8221 13.2443 10.486C14.1371 9.14984 15.4061 8.10844 16.8907 7.49348C18.3754 6.87852 20.009 6.71761 21.5851 7.03112C23.1612 7.34462 24.6089 8.11846 25.7453 9.25476C26.8816 10.3911 27.6554 11.8388 27.9689 13.4149C28.2824 14.991 28.1215 16.6247 27.5065 18.1093C26.8916 19.594 25.8502 20.8629 24.514 21.7557C23.1779 22.6485 21.607 23.125 20 23.125C17.8451 23.125 15.7785 22.269 14.2548 20.7452C12.731 19.2215 11.875 17.1549 11.875 15Z" fill="black"/>
</svg>
