<svg width="24" height="24" viewBox="0 0 24 24" fill="none" xmlns="http://www.w3.org/2000/svg">
<path id="close-inner" d="M12.94 12L17.8 7.13999C17.9092 7.01246 17.9663 6.84841 17.9598 6.68062C17.9533 6.51284 17.8838 6.35368 17.7651 6.23495C17.6463 6.11622 17.4872 6.04666 17.3194 6.04018C17.1516 6.0337 16.9876 6.09077 16.86 6.19999L12 11.06L7.14002 6.19332C7.01249 6.08411 6.84844 6.02704 6.68065 6.03352C6.51287 6.04 6.35371 6.10955 6.23498 6.22828C6.11625 6.34701 6.0467 6.50617 6.04022 6.67396C6.03373 6.84174 6.09081 7.00579 6.20002 7.13332L11.06 12L6.19336 16.86C6.12357 16.9198 6.06689 16.9933 6.02687 17.076C5.98686 17.1587 5.96437 17.2488 5.96082 17.3406C5.95728 17.4324 5.97275 17.524 6.00626 17.6095C6.03978 17.6951 6.09062 17.7728 6.15559 17.8378C6.22056 17.9027 6.29826 17.9536 6.38381 17.9871C6.46936 18.0206 6.56091 18.0361 6.65273 18.0325C6.74454 18.029 6.83463 18.0065 6.91734 17.9665C7.00005 17.9265 7.07359 17.8698 7.13336 17.8L12 12.94L16.86 17.8C16.9876 17.9092 17.1516 17.9663 17.3194 17.9598C17.4872 17.9533 17.6463 17.8838 17.7651 17.765C17.8838 17.6463 17.9533 17.4871 17.9598 17.3194C17.9663 17.1516 17.9092 16.9875 17.8 16.86L12.94 12Z" fill="black"/>
</svg>
