<svg width="50" height="50" viewBox="0 0 50 50" fill="none" xmlns="http://www.w3.org/2000/svg">
<path id="pause-inner" d="M25 4.16667C20.8796 4.16667 16.8517 5.38853 13.4257 7.67772C9.99963 9.96692 7.32937 13.2206 5.75254 17.0274C4.17571 20.8342 3.76314 25.0231 4.567 29.0644C5.37086 33.1057 7.35504 36.8178 10.2686 39.7314C13.1822 42.645 16.8944 44.6292 20.9357 45.433C24.9769 46.2369 29.1658 45.8243 32.9726 44.2475C36.7794 42.6707 40.0331 40.0004 42.3223 36.5744C44.6115 33.1484 45.8334 29.1204 45.8334 25C45.8334 22.2641 45.2945 19.555 44.2475 17.0274C43.2006 14.4998 41.666 12.2032 39.7314 10.2686C37.7969 8.33406 35.5002 6.79949 32.9726 5.75251C30.445 4.70554 27.7359 4.16667 25 4.16667V4.16667ZM20.8334 31.25C20.8334 31.8025 20.6139 32.3324 20.2232 32.7231C19.8325 33.1138 19.3026 33.3333 18.75 33.3333C18.1975 33.3333 17.6676 33.1138 17.2769 32.7231C16.8862 32.3324 16.6667 31.8025 16.6667 31.25V18.75C16.6667 18.1975 16.8862 17.6676 17.2769 17.2769C17.6676 16.8862 18.1975 16.6667 18.75 16.6667C19.3026 16.6667 19.8325 16.8862 20.2232 17.2769C20.6139 17.6676 20.8334 18.1975 20.8334 18.75V31.25ZM33.3334 31.25C33.3334 31.8025 33.1139 32.3324 32.7232 32.7231C32.3325 33.1138 31.8026 33.3333 31.25 33.3333C30.6975 33.3333 30.1676 33.1138 29.7769 32.7231C29.3862 32.3324 29.1667 31.8025 29.1667 31.25V18.75C29.1667 18.1975 29.3862 17.6676 29.7769 17.2769C30.1676 16.8862 30.6975 16.6667 31.25 16.6667C31.8026 16.6667 32.3325 16.8862 32.7232 17.2769C33.1139 17.6676 33.3334 18.1975 33.3334 18.75V31.25Z" fill="black"/>
</svg>
