<svg width="40" height="40" viewBox="0 0 40 40" fill="none" xmlns="http://www.w3.org/2000/svg">
<path id="settings-inner-1" d="M23.1468 33.9263H17.1632L16.3389 30.2165C15.358 29.8329 14.4406 29.3034 13.6179 28.6458L9.99181 29.7871L7 24.6053L9.80034 22.0354C9.64362 20.9941 9.64362 19.9352 9.80034 18.894L7 16.3225L9.99181 11.1407L13.6179 12.282C14.441 11.6238 15.3589 11.0938 16.3404 10.7098L17.1632 7H23.1468L23.9711 10.7098C24.952 11.0934 25.8693 11.623 26.6921 12.2805L30.3182 11.1392L33.31 16.321L30.5097 18.891C30.6665 19.9322 30.6665 20.9911 30.5097 22.0324L33.31 24.6023L30.3182 29.7842L26.6921 28.6428C25.8696 29.3015 24.9522 29.832 23.9711 30.2165L23.1468 33.9263Z" stroke="black" stroke-width="3" stroke-linecap="round" stroke-linejoin="round"/>
<path id="settings-inner-2" d="M20.155 24.9509C22.6335 24.9509 24.6428 22.9417 24.6428 20.4632C24.6428 17.9847 22.6335 15.9754 20.155 15.9754C17.6765 15.9754 15.6673 17.9847 15.6673 20.4632C15.6673 22.9417 17.6765 24.9509 20.155 24.9509Z" stroke="black" stroke-width="3"/>
</svg>
