<svg width="30" height="30" viewBox="0 0 30 30" fill="none" xmlns="http://www.w3.org/2000/svg">
<path d="M20 7.5C19.6685 7.5 19.3505 7.63169 19.1161 7.86611C18.8817 8.10053 18.75 8.41847 18.75 8.75V13.525L18.575 13.3375L12.2 8.075C11.8162 7.76749 11.3538 7.57398 10.8653 7.51652C10.3769 7.45906 9.88218 7.53995 9.4375 7.74999C9.06272 7.92942 8.74642 8.21132 8.5252 8.56305C8.30398 8.91479 8.1869 9.32198 8.1875 9.7375V20.2625C8.1869 20.678 8.30398 21.0852 8.5252 21.4369C8.74642 21.7887 9.06272 22.0706 9.4375 22.25C9.79484 22.4125 10.1825 22.4977 10.575 22.5C11.1666 22.5007 11.7405 22.2977 12.2 21.925L18.575 16.6625L18.75 16.475V21.25C18.75 21.5815 18.8817 21.8995 19.1161 22.1339C19.3505 22.3683 19.6685 22.5 20 22.5C20.3315 22.5 20.6495 22.3683 20.8839 22.1339C21.1183 21.8995 21.25 21.5815 21.25 21.25V8.75C21.25 8.41847 21.1183 8.10053 20.8839 7.86611C20.6495 7.63169 20.3315 7.5 20 7.5Z" fill="black"/>
</svg>
