<svg width="25" height="25" viewBox="0 0 25 25" fill="none" xmlns="http://www.w3.org/2000/svg">
<path id="lyrics-inner" d="M17.7083 7.29168H7.29168C7.01541 7.29168 6.75046 7.40142 6.55511 7.59677C6.35976 7.79212 6.25001 8.05708 6.25001 8.33334C6.25001 8.60961 6.35976 8.87456 6.55511 9.06991C6.75046 9.26526 7.01541 9.37501 7.29168 9.37501H17.7083C17.9846 9.37501 18.2496 9.26526 18.4449 9.06991C18.6403 8.87456 18.75 8.60961 18.75 8.33334C18.75 8.05708 18.6403 7.79212 18.4449 7.59677C18.2496 7.40142 17.9846 7.29168 17.7083 7.29168ZM17.7083 11.4583H7.29168C7.01541 11.4583 6.75046 11.5681 6.55511 11.7634C6.35976 11.9588 6.25001 12.2237 6.25001 12.5C6.25001 12.7763 6.35976 13.0412 6.55511 13.2366C6.75046 13.4319 7.01541 13.5417 7.29168 13.5417H17.7083C17.9846 13.5417 18.2496 13.4319 18.4449 13.2366C18.6403 13.0412 18.75 12.7763 18.75 12.5C18.75 12.2237 18.6403 11.9588 18.4449 11.7634C18.2496 11.5681 17.9846 11.4583 17.7083 11.4583ZM19.7917 2.08334H5.20834C4.37954 2.08334 3.58469 2.41258 2.99863 2.99863C2.41258 3.58469 2.08334 4.37954 2.08334 5.20834V15.625C2.08334 16.4538 2.41258 17.2487 2.99863 17.8347C3.58469 18.4208 4.37954 18.75 5.20834 18.75H17.2813L21.1354 22.6146C21.2328 22.7111 21.3482 22.7875 21.4751 22.8394C21.602 22.8912 21.7379 22.9175 21.875 22.9167C22.0117 22.9202 22.1472 22.8917 22.2708 22.8333C22.4611 22.7552 22.6239 22.6225 22.7388 22.4519C22.8538 22.2814 22.9157 22.0807 22.9167 21.875V5.20834C22.9167 4.37954 22.5874 3.58469 22.0014 2.99863C21.4153 2.41258 20.6205 2.08334 19.7917 2.08334ZM20.8333 19.3646L18.4479 16.9688C18.3506 16.8722 18.2352 16.7958 18.1082 16.744C17.9813 16.6922 17.8454 16.6659 17.7083 16.6667H5.20834C4.93208 16.6667 4.66712 16.5569 4.47177 16.3616C4.27642 16.1662 4.16668 15.9013 4.16668 15.625V5.20834C4.16668 4.93208 4.27642 4.66712 4.47177 4.47177C4.66712 4.27642 4.93208 4.16668 5.20834 4.16668H19.7917C20.0679 4.16668 20.3329 4.27642 20.5282 4.47177C20.7236 4.66712 20.8333 4.93208 20.8333 5.20834V19.3646Z" fill="black"/>
</svg>
