<svg width="20" height="20" viewBox="0 0 20 20" fill="none" xmlns="http://www.w3.org/2000/svg">
<path id="moon-inner" d="M7.5 0.347507C7.62202 0.495772 7.69677 0.677222 7.71459 0.86841C7.73242 1.0596 7.6925 1.25174 7.6 1.42001C6.87732 2.74685 6.49992 4.23412 6.5025 5.74501C6.5025 10.7713 10.6 14.8413 15.65 14.8413C16.3088 14.8413 16.95 14.7725 17.5663 14.6413C17.7552 14.6003 17.9519 14.616 18.132 14.6862C18.3121 14.7565 18.4675 14.8782 18.5788 15.0363C18.6962 15.2006 18.7561 15.3991 18.7491 15.601C18.7421 15.8028 18.6686 15.9967 18.54 16.1525C17.5596 17.3568 16.3228 18.3271 14.9198 18.9927C13.5168 19.6583 11.9829 20.0025 10.43 20C4.6675 20 0 15.3575 0 9.63751C0 5.33251 2.6425 1.64001 6.405 0.0750069C6.59242 -0.00420327 6.80049 -0.0204608 6.99794 0.0286765C7.19539 0.0778138 7.37156 0.189693 7.5 0.347507Z" fill="black"/>
</svg>
