<svg width="24" height="24" viewBox="0 0 24 24" fill="none" xmlns="http://www.w3.org/2000/svg">
<path id="repeat-inner" d="M17.91 5H5.91L7.21 3.71C7.3983 3.5217 7.50409 3.2663 7.50409 3C7.50409 2.7337 7.3983 2.47831 7.21 2.29C7.0217 2.1017 6.7663 1.99591 6.5 1.99591C6.2337 1.99591 5.9783 2.1017 5.79 2.29L2.79 5.29C2.69627 5.38297 2.62188 5.49357 2.57111 5.61543C2.52034 5.73728 2.4942 5.86799 2.4942 6C2.4942 6.13201 2.52034 6.26272 2.57111 6.38458C2.62188 6.50644 2.69627 6.61704 2.79 6.71L5.79 9.71C5.88296 9.80373 5.99356 9.87812 6.11542 9.92889C6.23728 9.97966 6.36799 10.0058 6.5 10.0058C6.63201 10.0058 6.76272 9.97966 6.88458 9.92889C7.00644 9.87812 7.11704 9.80373 7.21 9.71C7.30373 9.61704 7.37812 9.50644 7.42889 9.38458C7.47966 9.26272 7.5058 9.13201 7.5058 9C7.5058 8.86799 7.47966 8.73728 7.42889 8.61543C7.37812 8.49357 7.30373 8.38297 7.21 8.29L5.91 7H17.91C18.1149 6.99602 18.3185 7.03245 18.5093 7.10719C18.7001 7.18194 18.8743 7.29354 19.022 7.43562C19.1696 7.5777 19.2878 7.74748 19.3698 7.93525C19.4519 8.12303 19.4961 8.32513 19.5 8.53V11C19.5 11.2652 19.6054 11.5196 19.7929 11.7071C19.9804 11.8946 20.2348 12 20.5 12C20.7652 12 21.0196 11.8946 21.2071 11.7071C21.3946 11.5196 21.5 11.2652 21.5 11V8.53C21.4961 8.06249 21.4001 7.60033 21.2176 7.16991C21.035 6.73949 20.7695 6.34925 20.4361 6.02145C20.1028 5.69366 19.7081 5.43474 19.2747 5.25948C18.8412 5.08422 18.3775 4.99605 17.91 5ZM18.21 14.29C18.0217 14.1017 17.7663 13.9959 17.5 13.9959C17.2337 13.9959 16.9783 14.1017 16.79 14.29C16.6017 14.4783 16.4959 14.7337 16.4959 15C16.4959 15.2663 16.6017 15.5217 16.79 15.71L18.09 17H6.09C5.88513 17.004 5.68148 16.9676 5.49069 16.8928C5.29989 16.8181 5.1257 16.7065 4.97804 16.5644C4.83039 16.4223 4.71218 16.2525 4.63015 16.0648C4.54813 15.877 4.5039 15.6749 4.5 15.47V13C4.5 12.7348 4.39464 12.4804 4.20711 12.2929C4.01957 12.1054 3.76522 12 3.5 12C3.23478 12 2.98043 12.1054 2.79289 12.2929C2.60536 12.4804 2.5 12.7348 2.5 13V15.47C2.50392 15.9375 2.59989 16.3997 2.78244 16.8301C2.96498 17.2605 3.23051 17.6508 3.56388 17.9786C3.89724 18.3063 4.29191 18.5653 4.72534 18.7405C5.15878 18.9158 5.62249 19.004 6.09 19H18.09L16.79 20.29C16.6963 20.383 16.6219 20.4936 16.5711 20.6154C16.5203 20.7373 16.4942 20.868 16.4942 21C16.4942 21.132 16.5203 21.2627 16.5711 21.3846C16.6219 21.5064 16.6963 21.617 16.79 21.71C16.883 21.8037 16.9936 21.8781 17.1154 21.9289C17.2373 21.9797 17.368 22.0058 17.5 22.0058C17.632 22.0058 17.7627 21.9797 17.8846 21.9289C18.0064 21.8781 18.117 21.8037 18.21 21.71L21.21 18.71C21.3037 18.617 21.3781 18.5064 21.4289 18.3846C21.4797 18.2627 21.5058 18.132 21.5058 18C21.5058 17.868 21.4797 17.7373 21.4289 17.6154C21.3781 17.4936 21.3037 17.383 21.21 17.29L18.21 14.29Z" fill="black"/>
</svg>
