<svg width="40" height="40" viewBox="0 0 40 40" fill="none" xmlns="http://www.w3.org/2000/svg">
<path id="search-inner" fill-rule="evenodd" clip-rule="evenodd" d="M27.2083 24.8317L36.175 33.7983C36.4902 34.1137 36.6671 34.5414 36.667 34.9873C36.6668 35.4331 36.4896 35.8607 36.1742 36.1758C35.8588 36.491 35.4311 36.668 34.9852 36.6678C34.5394 36.6677 34.1118 36.4904 33.7967 36.175L24.83 27.2083C22.1495 29.2845 18.7788 30.2615 15.4035 29.9406C12.0283 29.6197 8.90205 28.025 6.6608 25.481C4.41955 22.937 3.23165 19.6347 3.33875 16.2459C3.44586 12.8571 4.83992 9.63643 7.23734 7.23901C9.63477 4.84158 12.8555 3.44752 16.2442 3.34042C19.633 3.23331 22.9353 4.42122 25.4793 6.66247C28.0234 8.90372 29.618 12.03 29.9389 15.4052C30.2598 18.7805 29.2828 22.1512 27.2067 24.8317H27.2083ZM16.6667 26.6667C19.3188 26.6667 21.8624 25.6131 23.7377 23.7377C25.6131 21.8624 26.6667 19.3188 26.6667 16.6667C26.6667 14.0145 25.6131 11.471 23.7377 9.5956C21.8624 7.72023 19.3188 6.66666 16.6667 6.66666C14.0145 6.66666 11.471 7.72023 9.5956 9.5956C7.72023 11.471 6.66667 14.0145 6.66667 16.6667C6.66667 19.3188 7.72023 21.8624 9.5956 23.7377C11.471 25.6131 14.0145 26.6667 16.6667 26.6667Z" fill="black"/>
</svg>
