<svg width="30" height="30" viewBox="0 0 30 30" fill="none" xmlns="http://www.w3.org/2000/svg">
<path id="skip-forward-ten-inner" d="M23.598 8.442V5.625C23.598 5.32663 23.7165 5.04048 23.9275 4.8295C24.1385 4.61853 24.4246 4.5 24.723 4.5C25.0214 4.5 25.3075 4.61853 25.5185 4.8295C25.7295 5.04048 25.848 5.32663 25.848 5.625V10.875C25.848 11.1734 25.7295 11.4595 25.5185 11.6705C25.3075 11.8815 25.0214 12 24.723 12H18.723C18.4246 12 18.1385 11.8815 17.9275 11.6705C17.7165 11.4595 17.598 11.1734 17.598 10.875C17.598 10.5766 17.7165 10.2905 17.9275 10.0795C18.1385 9.86853 18.4246 9.75 18.723 9.75H21.7605C19.968 7.665 17.406 6.375 14.598 6.375C10.9995 6.375 7.80299 8.4975 6.11549 11.6895C6.01286 11.8921 5.85699 12.063 5.66461 12.1838C5.47223 12.3045 5.2506 12.3706 5.02349 12.375C4.21649 12.375 3.65699 11.5755 4.01849 10.8555C6.03299 6.8685 9.98549 4.125 14.5995 4.125C18.2085 4.125 21.4125 5.8035 23.5995 8.442H23.598ZM18.7515 25.5C21.564 25.5 22.5015 23.1495 22.5015 20.25C22.5015 17.3505 21.564 15 18.7515 15C15.939 15 15.0015 17.3505 15.0015 20.25C15.0015 23.1495 15.939 25.5 18.7515 25.5ZM19.7655 22.7805C19.6889 22.9191 19.5765 23.0346 19.44 23.115C19.335 23.172 19.134 23.25 18.75 23.25C18.3675 23.25 18.165 23.172 18.0615 23.115C17.925 23.0347 17.8125 22.9192 17.736 22.7805C17.469 22.3485 17.2515 21.525 17.2515 20.25C17.2515 18.975 17.469 18.1515 17.736 17.718C17.8128 17.5799 17.9252 17.4649 18.0615 17.385C18.1665 17.328 18.3675 17.25 18.7515 17.25C19.134 17.25 19.3365 17.328 19.44 17.385C19.5765 17.4654 19.6889 17.5809 19.7655 17.7195C20.0325 18.1515 20.2515 18.975 20.2515 20.25C20.2515 21.525 20.0325 22.3485 19.7655 22.782V22.7805ZM12.375 16.125C12.3751 15.9098 12.3135 15.6991 12.1975 15.5178C12.0815 15.3366 11.916 15.1924 11.7205 15.1024C11.525 15.0124 11.3078 14.9803 11.0947 15.0101C10.8816 15.0398 10.6814 15.13 10.518 15.27L7.89299 17.52C7.66623 17.7143 7.52596 17.9908 7.50304 18.2886C7.48011 18.5863 7.57641 18.881 7.77074 19.1077C7.96508 19.3345 8.24154 19.4748 8.5393 19.4977C8.83706 19.5206 9.13173 19.4243 9.35849 19.23L10.125 18.57V24.375C10.125 24.6734 10.2435 24.9595 10.4545 25.1705C10.6655 25.3815 10.9516 25.5 11.25 25.5C11.5484 25.5 11.8345 25.3815 12.0455 25.1705C12.2565 24.9595 12.375 24.6734 12.375 24.375V16.125Z" fill="black"/>
</svg>
