<svg width="30" height="30" viewBox="0 0 30 30" fill="none" xmlns="http://www.w3.org/2000/svg">
<path id="skip-back-ten-inner" d="M6 8.442V5.625C6 5.32663 5.88147 5.04048 5.6705 4.8295C5.45952 4.61853 5.17337 4.5 4.875 4.5C4.57663 4.5 4.29048 4.61853 4.0795 4.8295C3.86853 5.04048 3.75 5.32663 3.75 5.625V10.875C3.75 11.496 4.254 12 4.875 12H10.875C11.1734 12 11.4595 11.8815 11.6705 11.6705C11.8815 11.4595 12 11.1734 12 10.875C12 10.5766 11.8815 10.2905 11.6705 10.0795C11.4595 9.86853 11.1734 9.75 10.875 9.75H7.839C9.63 7.665 12.1935 6.375 15 6.375C18.6 6.375 21.795 8.4975 23.4825 11.6895C23.6985 12.099 24.1125 12.375 24.576 12.375C25.3815 12.375 25.941 11.5755 25.578 10.8555C23.5665 6.8685 19.614 4.125 15 4.125C11.391 4.125 8.187 5.8035 6 8.442ZM12.375 16.125C12.3751 15.9098 12.3135 15.6991 12.1975 15.5178C12.0815 15.3366 11.916 15.1924 11.7205 15.1024C11.525 15.0124 11.3078 14.9803 11.0947 15.0101C10.8816 15.0398 10.6814 15.13 10.518 15.27L7.893 17.52C7.78072 17.6161 7.68847 17.7334 7.62153 17.8652C7.55458 17.997 7.51424 18.1407 7.50282 18.288C7.4914 18.4354 7.50912 18.5836 7.55496 18.7241C7.6008 18.8646 7.67387 18.9947 7.77 19.107C7.96414 19.3338 8.24041 19.4741 8.53803 19.4972C8.68539 19.5086 8.83357 19.4909 8.97409 19.445C9.11461 19.3992 9.24472 19.3261 9.357 19.23L10.125 18.57V24.375C10.125 24.6734 10.2435 24.9595 10.4545 25.1705C10.6655 25.3815 10.9516 25.5 11.25 25.5C11.5484 25.5 11.8345 25.3815 12.0455 25.1705C12.2565 24.9595 12.375 24.6734 12.375 24.375V16.125ZM22.5 20.25C22.5 23.1495 21.5625 25.5 18.75 25.5C15.9375 25.5 15 23.1495 15 20.25C15 17.3505 15.9375 15 18.75 15C21.5625 15 22.5 17.3505 22.5 20.25ZM20.25 20.25C20.25 18.975 20.0325 18.1515 19.764 17.718C19.6872 17.5799 19.5748 17.465 19.4385 17.385C19.335 17.328 19.1325 17.25 18.75 17.25C18.3675 17.25 18.165 17.328 18.06 17.385C17.9241 17.4656 17.8122 17.5811 17.736 17.7195C17.4675 18.1515 17.25 18.975 17.25 20.25C17.25 21.525 17.4675 22.3485 17.736 22.782C17.8128 22.9201 17.9252 23.035 18.0615 23.115C18.165 23.172 18.3675 23.25 18.75 23.25C19.1325 23.25 19.335 23.172 19.44 23.115C19.5759 23.0344 19.6878 22.9189 19.764 22.7805C20.0325 22.3485 20.25 21.525 20.25 20.25Z" fill="black"/>
</svg>
