<svg width="30" height="30" viewBox="0 0 30 30" fill="none" xmlns="http://www.w3.org/2000/svg">
<path id="skip-back-inner" d="M19.8125 7.25146C19.3678 7.04142 18.8731 6.96052 18.3847 7.01798C17.8962 7.07544 17.4338 7.26895 17.05 7.57646L10.675 12.839L10.5 13.0265V8.25146C10.5 7.91994 10.3683 7.602 10.1339 7.36758C9.89946 7.13316 9.58152 7.00146 9.25 7.00146C8.91848 7.00146 8.60054 7.13316 8.36612 7.36758C8.1317 7.602 8 7.91994 8 8.25146V20.7515C8 21.083 8.1317 21.4009 8.36612 21.6353C8.60054 21.8698 8.91848 22.0015 9.25 22.0015C9.58152 22.0015 9.89946 21.8698 10.1339 21.6353C10.3683 21.4009 10.5 21.083 10.5 20.7515V15.9765L10.675 16.164L17.05 21.4265C17.5095 21.7991 18.0834 22.0022 18.675 22.0015C19.0675 21.9992 19.4552 21.914 19.8125 21.7515C20.199 21.5811 20.5282 21.3031 20.761 20.9507C20.9937 20.5983 21.1201 20.1863 21.125 19.764V9.23896C21.1201 8.81664 20.9937 8.40467 20.761 8.05223C20.5282 7.6998 20.199 7.42181 19.8125 7.25146Z" fill="black"/>
</svg>
