<svg width="32" height="32" viewBox="0 0 32 32" fill="none" xmlns="http://www.w3.org/2000/svg">
<path id="speaker-volume-high-inner" d="M17.5998 7.18408C17.5998 6.08318 16.228 5.58076 15.5169 6.42022L12.2992 10.2238C12.1513 10.3983 11.9672 10.5385 11.7597 10.6346C11.5522 10.7308 11.3262 10.7805 11.0975 10.7805H8.14994C7.31453 10.7805 6.51333 11.1124 5.9226 11.7031C5.33187 12.2939 5 13.0951 5 13.9305V17.0804C5 17.9158 5.33187 18.717 5.9226 19.3078C6.51333 19.8985 7.31453 20.2304 8.14994 20.2304H11.0975C11.3263 20.2304 11.5523 20.2804 11.7598 20.3766C11.9674 20.4729 12.1514 20.6133 12.2992 20.7879L15.5169 24.5907C16.2272 25.4301 17.5998 24.9277 17.5998 23.8268V7.18487V7.18408ZM20.3032 10.1316C20.3885 10.073 20.4844 10.0318 20.5856 10.0103C20.6868 9.98874 20.7913 9.98738 20.893 10.0062C20.9947 10.0251 21.0918 10.0638 21.1785 10.1202C21.2653 10.1766 21.3401 10.2495 21.3986 10.3348C22.5523 12.0122 23.161 13.7399 23.161 15.5054C23.161 17.271 22.5523 18.9987 21.3986 20.6769C21.3405 20.7632 21.2659 20.8372 21.179 20.8945C21.0921 20.9519 20.9948 20.9914 20.8925 21.0109C20.7903 21.0304 20.6852 21.0294 20.5833 21.008C20.4815 20.9866 20.3849 20.9452 20.2991 20.8862C20.2133 20.8273 20.1401 20.7519 20.0836 20.6644C20.0272 20.577 19.9886 20.4792 19.9702 20.3768C19.9518 20.2744 19.9538 20.1693 19.9762 20.0676C19.9987 19.966 20.041 19.8698 20.1008 19.7846C21.1128 18.312 21.5868 16.8898 21.5868 15.5054C21.5868 14.121 21.1128 12.6988 20.1008 11.227C19.9827 11.0549 19.9377 10.8429 19.9758 10.6377C20.0139 10.4324 20.132 10.2507 20.304 10.1324L20.3032 10.1316ZM23.6555 7.06045C23.5807 6.98909 23.4925 6.93318 23.396 6.89591C23.2995 6.85864 23.1966 6.84073 23.0932 6.84322C22.9898 6.84571 22.888 6.86853 22.7934 6.9104C22.6988 6.95226 22.6134 7.01235 22.542 7.08722C22.4707 7.16209 22.4148 7.25029 22.3775 7.34676C22.3402 7.44324 22.3223 7.54612 22.3248 7.64952C22.3273 7.75292 22.3501 7.85481 22.392 7.94939C22.4339 8.04397 22.4939 8.12937 22.5688 8.20073C24.4485 9.99068 25.4258 12.7201 25.4258 15.5054C25.4258 18.2916 24.4485 21.0202 22.5688 22.8102C22.4939 22.8815 22.4339 22.9669 22.392 23.0615C22.3501 23.1561 22.3273 23.258 22.3248 23.3614C22.3223 23.4648 22.3402 23.5676 22.3775 23.6641C22.4148 23.7606 22.4707 23.8488 22.542 23.9237C22.6134 23.9985 22.6988 24.0586 22.7934 24.1005C22.888 24.1424 22.9898 24.1652 23.0932 24.1677C23.1966 24.1702 23.2995 24.1523 23.396 24.115C23.4925 24.0777 23.5807 24.0218 23.6555 23.9504C25.9101 21.803 27 18.6263 27 15.5054C27 12.3846 25.9101 9.20792 23.6555 7.06045Z" fill="black"/>
</svg>
