<svg id="Layer_1" data-name="Layer 1" xmlns="http://www.w3.org/2000/svg" xmlns:xlink="http://www.w3.org/1999/xlink" viewBox="0 0 361.93 315.85" width="406" height="306" class="illustration styles_illustrationTablet__1DWOa"><defs><linearGradient id="linear-gradient" x1="122.1" y1="100" x2="95.96" y2="434" gradientUnits="userSpaceOnUse"><stop offset="0.01"></stop><stop offset="0.13" stop-opacity="0.69"></stop><stop offset="0.25" stop-opacity="0.32"></stop><stop offset="1" stop-opacity="0"></stop></linearGradient><linearGradient id="linear-gradient-2" x1="252.32" y1="133.74" x2="-50.53" y2="394.82" xlink:href="#linear-gradient"></linearGradient><linearGradient id="linear-gradient-3" x1="493.5" y1="-28.84" x2="-225.04" y2="590.6" xlink:href="#linear-gradient"></linearGradient><linearGradient id="linear-gradient-4" x1="630.89" y1="415.6" x2="-125.95" y2="-57.43" xlink:href="#linear-gradient"></linearGradient><linearGradient id="linear-gradient-5" x1="165.92" y1="102.06" x2="410.31" y2="334.07" xlink:href="#linear-gradient"></linearGradient><linearGradient id="linear-gradient-6" x1="261.27" y1="332.9" x2="227.08" y2="35.58" xlink:href="#linear-gradient"></linearGradient><linearGradient id="linear-gradient-7" x1="291.85" y1="146.22" x2="212.63" y2="304.27" xlink:href="#linear-gradient"></linearGradient><linearGradient id="linear-gradient-8" x1="314.13" y1="93.26" x2="71.99" y2="324.7" xlink:href="#linear-gradient"></linearGradient><linearGradient id="linear-gradient-9" x1="260.61" y1="181.55" x2="371.54" y2="266.58" xlink:href="#linear-gradient"></linearGradient><linearGradient id="linear-gradient-10" x1="2335.62" y1="-765.46" x2="2032.76" y2="-504.38" gradientTransform="matrix(-0.69, 0.73, 0.73, 0.69, 2115.53, -909.67)" xlink:href="#linear-gradient"></linearGradient></defs><title>9</title><path d="M382.88,283.52c-13.53,30.39-46.65,51.42-79.83,49.05-20-1.43-38.53-10.46-57.5-17-37.61-12.87-77.42-10.13-115.78-13.41a218.35,218.35,0,0,1-39.9-6.68q-2.5-.7-5-1.48c-33.08-10.41-60.71-35.75-56.19-73.12,2.09-17.32,18.8-25.3,26-39.69,8.65-17.27,4.87-39.12,6.76-57.7A95.61,95.61,0,0,1,64,109.37,101,101,0,0,1,69.73,93c.1-.24.2-.47.31-.7,14.38-31.48,44.21-56.25,77.61-67.25,43.82-14.44,92.23-8.27,135.69,7.21q4.49,1.59,9,3.39c.73.29,1.45.58,2.17.89q2.25.93,4.47,1.91c19.57,8.69,37.71,20.83,48.12,39.19,10.68,18.84,11.69,41.88,7.68,63.16-1.46,7.74-3.54,15.67-1.86,23.36,2.18,10,10.19,17.48,16.63,25.44a93.18,93.18,0,0,1,18,36.81C392,245.39,390.81,265.7,382.88,283.52Z" transform="translate(-28.19 -16.9)" fill="#68e1fd" opacity="0.18" style="isolation: isolate;"></path><path d="M298.93,38.46c-15.87,3.38-32.65,3.32-48.61,6.85-18.67,4.14-36,13.17-51.54,24.3a57.74,57.74,0,0,1-8.61,5.52c-5,2.37-10.54,3.06-16,3.93A222.48,222.48,0,0,0,135.09,89c-10.2,3.61-20.49,8-31.31,7.78-6.66-.15-13.14-2-19.8-2.11C79.26,94.61,73.9,96,69.73,93c.1-.24.2-.47.31-.7,14.38-31.48,44.21-56.25,77.61-67.25,43.82-14.44,92.23-8.27,135.69,7.21q4.49,1.59,9,3.39c.73.29,1.45.58,2.17.89Q296.71,37.48,298.93,38.46Z" transform="translate(-28.19 -16.9)" fill="#68e1fd" opacity="0.37"></path><path d="M172.12,267.56c-.89,5.36-2.32,11.11-6.54,14.55-3.86,3.15-9.22,3.64-14.2,3.49-3.35-.1-6.86-.49-9.57-2.45-2.89-2.09-4.36-5.6-6.76-8.24s-6.89-4.24-9.37-1.68a40.14,40.14,0,0,1,4.09,29,218.35,218.35,0,0,1-39.9-6.68,25.93,25.93,0,0,1-7.42-5.07c-5.87-5.94-7.35-14.8-10.86-22.37-3.7-8-9.73-14.59-14.7-21.85s-9-15.84-7.83-24.55c1-7.3,5.47-13.63,10.35-19.15S70,191.94,77.16,191.28c8.53-.78,15.17,2,23.53-1.65,4.74-2.09,8.52-5.75,13.16-7.91,11.38-5.3,26.23,3.29,34.3,11.27,7.94,7.83,12.36,18.45,16.58,28.77,4,9.76,8.05,19.75,8.58,30.29A71.51,71.51,0,0,1,172.12,267.56Z" transform="translate(-28.19 -16.9)" fill="url(#linear-gradient)"></path><path d="M139.25,255.29s-10.78-20.23-16.58-26.2-20.4-32.17-15.59-44.78,28.36-15.75,46.1,6.14,12.11,47.59,19.9,58.87,5.16,34.23-15.48,33.09C144.39,281.68,139.25,255.29,139.25,255.29Z" transform="translate(-28.19 -16.9)" fill="#473f47"></path><path d="M140.7,255.15s-10.78-20.23-16.58-26.2-20.4-32.17-15.59-44.78,28.35-15.75,46.1,6.14,12.1,47.59,19.9,58.87,5.16,34.24-15.48,33.1C145.83,281.54,140.7,255.15,140.7,255.15Z" transform="translate(-28.19 -16.9)" fill="#68e1fd"></path><path d="M140.7,255.15s-10.78-20.23-16.58-26.2-20.4-32.17-15.59-44.78,28.35-15.75,46.1,6.14,12.1,47.59,19.9,58.87,5.16,34.24-15.48,33.1C145.83,281.54,140.7,255.15,140.7,255.15Z" transform="translate(-28.19 -16.9)" fill="url(#linear-gradient-2)"></path><path d="M218,114.19l-43.26,34.09c-3.91,3.08-7.89,6.23-10.64,10.38a34.11,34.11,0,0,0-4.77,13.24c-2.05,12-.12,25.32,8.15,34.23,4,4.28,9.17,7.28,13.39,11.33,13.06,12.5,15.49,33.28,28.73,45.58,7.39,6.87,17.4,10.28,27.36,11.87,6.42,1,13.34,1.28,19.09-1.75,5.14-2.72,8.68-7.73,11.28-12.93,3.78-7.58,6-15.87,7.58-24.18,2.16-11.12,3.37-22.39,4.59-33.64l4.5-41.75c.59-5.47,1.18-11,.71-16.46a42.84,42.84,0,0,0-3.35-13.26,40.88,40.88,0,0,0-18.52-20C250,104.26,229.39,105.21,218,114.19Z" transform="translate(-28.19 -16.9)" fill="url(#linear-gradient-3)"></path><path d="M351,177.81c1.78,2.12,3.63,4.2,5.26,6.44,10.18,14,10.09,34.69-.21,48.64a69.68,69.68,0,0,1-11.85,11.87c-4.7,3.9-9.61,7.64-15.15,10.21-16.48,7.64-36.5,4.11-52.94,11.86-7.28,3.44-13.82,9.06-21.82,10-5.4.61-10.78-1-15.87-3-11.88-4.47-23.53-10.82-32.24-20.22-9.49-10.23-13.13-24.23-21.16-35.52-5.7-8-14.85-14.71-15.91-24.89-1.19-11.34-.82-22,5-32.14,7.45-13,17.6-24.34,29-34,10.82-9.17,24.18-19.92,37.79-24.44,19.59-6.52,41.63-6.45,60.53,1.87s34.21,25.22,39,45.31c1.66,7,2.12,14.5,5.53,20.88A41.4,41.4,0,0,0,351,177.81Z" transform="translate(-28.19 -16.9)" fill="#68e1fd"></path><path d="M356.09,232.89a69.68,69.68,0,0,1-11.85,11.87c-4.7,3.9-9.61,7.64-15.15,10.21-.73.34-1.47.66-2.22.95-16,6.41-35,3.51-50.72,10.92-7.28,3.43-13.82,9.06-21.83,10-5.39.61-10.78-1-15.86-2.95-11.88-4.48-23.53-10.82-32.24-20.22-9.49-10.23-13.13-24.24-21.16-35.53-4.12-5.8-10-10.9-13.41-17.12a20.53,20.53,0,0,1-2.51-7.77c-1.18-11.33-.82-22,5-32.14,7.45-13,17.59-24.34,29-34,10.82-9.17,24.18-19.92,37.79-24.45,19.59-6.52,41.63-6.45,60.53,1.87s34.21,25.22,39,45.32c1.66,7,2.12,14.5,5.52,20.87a42,42,0,0,0,5.1,7.14c1.78,2.12,3.63,4.2,5.26,6.44C366.48,198.29,366.39,218.94,356.09,232.89Z" transform="translate(-28.19 -16.9)" fill="url(#linear-gradient-4)"></path><circle cx="238.05" cy="170.54" r="47.91" fill="url(#linear-gradient-5)"></circle><circle cx="238.05" cy="170.54" r="36.95" fill="#68e1fd"></circle><path d="M326.87,255.92c-16,6.41-35,3.51-50.72,10.92-7.28,3.43-13.82,9.06-21.83,10-5.39.61-10.78-1-15.86-2.95-11.88-4.48-23.53-10.82-32.24-20.22-9.49-10.23-13.13-24.24-21.16-35.53-4.12-5.8-10-10.9-13.41-17.12,0,0,16.46,10.65,33.35,4.74s13.63-12.84,13.63-12.84l3.83-1S241.6,177,260.19,179.81s14.64,21.68,18,27,22,14.39,22,14.39-6.71,30.94,13.94,32.91A122.38,122.38,0,0,1,326.87,255.92Z" transform="translate(-28.19 -16.9)" fill="url(#linear-gradient-6)"></path><path d="M283.61,211.88c-12.09,3.35-25.32-1.41-34.91-9.51a24.73,24.73,0,0,1-5.43-6c-3.48-5.88-2.71-13.43-.25-19.81a57.93,57.93,0,0,1-3.8,6.09,16.38,16.38,0,0,1-1.13-3.38,11.8,11.8,0,0,0-2,2.65c-1.19-1.08-.6-3,.1-4.48q2.7-5.57,5.94-10.84a54.16,54.16,0,0,0-9.23,10.09,22.28,22.28,0,0,0-4,12.88c.14,3.77,1.52,7.37,2.38,11,.62,2.62,1,5.31,1.81,7.87a33.8,33.8,0,0,0,3.65,7.41c3.12,5,7.13,9.84,12.67,11.86,4.12,1.51,8.63,1.3,13,1.4,6,.12,12.13.86,18-.41,7.17-1.53,13.46-6,18.47-11.31a19.42,19.42,0,0,0,4.39-6.54,23.68,23.68,0,0,0,1-7c.2-5.21.34-10.7-2.08-15.33A34.11,34.11,0,0,1,292.41,207a13.38,13.38,0,0,0,1.73-6.85,18.42,18.42,0,0,1-5.43,5.82l.77-6.18a23.93,23.93,0,0,1-17.26,10.32,10,10,0,0,0,5.43.75,26.5,26.5,0,0,1-10.8,1.65" transform="translate(-28.19 -16.9)" fill="url(#linear-gradient-7)"></path><path d="M217.44,163.69a69.55,69.55,0,0,0-3.09,10.76,69.62,69.62,0,0,0-.77,10.8c-.06,3.92-.07,7.83-.05,11.75a30.82,30.82,0,0,0,.59,7.05,31.86,31.86,0,0,0,4,8.68c-3.35-4.83-6.79-9.9-7.6-15.72a32.41,32.41,0,0,1,.19-8.46,7.33,7.33,0,0,0-2.62,1.74l-.53-1.54c-1,.22-1.2,1.49-1.21,2.5l-.19,11.7a73.76,73.76,0,0,1,4.25-35.37l-2,14.85.69-1.27,1.49,2.29q1.14-6.07,2.7-12.07a52.6,52.6,0,0,1,4.19-11.65c1.63-3,3.92-6.21,6.89-8A34.39,34.39,0,0,0,217.44,163.69Z" transform="translate(-28.19 -16.9)" fill="url(#linear-gradient-8)"></path><path d="M310.05,224.24c-10,11.94-24.63,20.28-40.17,21.39a49.71,49.71,0,0,0,31.17-5.17l-7.74,6.85a31.56,31.56,0,0,0,18.23-9.65l-7.93,2.57a8.53,8.53,0,0,1,2.06-4.72,2,2,0,0,0-2.33.58c13.27-18.47,19.71-39.35,22.22-61.73,3.81,7.64.57,16.39-1.79,24.09A73.81,73.81,0,0,1,310.05,224.24Z" transform="translate(-28.19 -16.9)" fill="url(#linear-gradient-9)"></path><path d="M125,196.27l5.53,6.85s-6,23.67,2.06,37.85,16.07,18.75,16.07,18.75-20.56-26.31-11.83-50.19c0,0,17-4.69,28.52,7.69s1.71,36.2,1.71,36.2,23.12-34.68-6.68-48.81c0,0-10.62-5.63-26.54-3.18l-6.19-7.37S124.7,191.85,125,196.27Z" transform="translate(-28.19 -16.9)" fill="#68e1fd"></path><path d="M116.21,261.54s-7.27-21.74-7.61-30.06-9.32-36.93-21.78-42.11-30.94,9.74-27.26,37.68,26.22,41.53,29,54.94,21.3,27.3,34.67,11.53C131.83,283.43,116.21,261.54,116.21,261.54Z" transform="translate(-28.19 -16.9)" fill="#473f47"></path><path d="M118.16,261.45s-7.26-21.74-7.6-30.06-9.32-36.94-21.78-42.12S57.84,199,61.52,227s26.22,41.53,29,54.94,21.3,27.3,34.67,11.54C133.79,283.33,118.16,261.45,118.16,261.45Z" transform="translate(-28.19 -16.9)" fill="#68e1fd"></path><path d="M118.16,261.45s-7.26-21.74-7.6-30.06-9.32-36.94-21.78-42.12S57.84,199,61.52,227s26.22,41.53,29,54.94,21.3,27.3,34.67,11.54C133.79,283.33,118.16,261.45,118.16,261.45Z" transform="translate(-28.19 -16.9)" fill="url(#linear-gradient-10)"></path><path d="M83.36,213.15c1.19,1.53,2.66,3.57,4.37,4.54s3.52.59,5.29.64a15.46,15.46,0,0,1,8.73,3.5,46.27,46.27,0,0,1,6.65,6.84,37.8,37.8,0,0,1,5.36,7.49,25.21,25.21,0,0,1,1.84,5.21c2.36,9.42,1.22,19.31.06,28.95-.19-4.92-.53-9.84-1-14.74-.34-3.63-.79-7.2-2.45-10.48a43.08,43.08,0,0,0-21.31-20c-17.15,16.51-5.45,38-4.78,40A22.51,22.51,0,0,0,88.69,270a67.47,67.47,0,0,0,7.23,9.59c-4-4.42-8.67-8.13-12.65-12.55-5.46-6.08-9.54-13.78-9.7-22a22,22,0,0,1,.58-5.55,36.69,36.69,0,0,1,3.39-8c1.85-3.57,4.7-7.48,5.87-11.3.82-2.7-1.7-3.84-3.41-5.52a3.55,3.55,0,0,1-1.35-2.23,1.84,1.84,0,0,1,2.07-1.78,3.6,3.6,0,0,1,2,1.66C82.94,212.62,83.15,212.89,83.36,213.15Z" transform="translate(-28.19 -16.9)" fill="#68e1fd"></path><path d="M117.76,86.53a7.9,7.9,0,0,1-1.48-4,19.64,19.64,0,0,1,1.39-7.5C118.7,78.76,119.06,83,117.76,86.53Z" transform="translate(-28.19 -16.9)" fill="#fff"></path><path d="M294.46,36.55a9.49,9.49,0,0,0-2.54,3.65c-.38,1.15-.38,2.45-1.06,3.45a5.24,5.24,0,0,1-2.43,1.69c-9.18,3.76-19.69.55-29.5,2-13.7,2.07-24.26,12.86-33.12,23.51-5.61,6.73-12.37,14.32-21.12,13.94-3.59-.15-7-1.7-10.59-1.81-11.38-.34-19.67,13.37-31,12.69-6.14-.36-12.37-5-17.93-2.33-2,1-3.54,2.79-5.09,4.45-12.38,13.21-33,18-49.9,11.57-6.59-2.5-11-4-18-2.38-2,.47-5.25,2-8.12,2.36A101.43,101.43,0,0,1,70,92.31c1.61-.06,3.31,0,5.08.12,4.44.23,10-.93,11.15-5.22A14.09,14.09,0,0,0,104,91.1C107.35,94.62,113.8,93,116.5,89a11.43,11.43,0,0,0,1.26-2.49,5.28,5.28,0,0,0,2.62,1.94,8.81,8.81,0,0,0,4.69-.14A41.21,41.21,0,0,0,137,83.47c2.69-1.64,5.26-3.61,8.3-4.41s6.81,0,8.33,2.73c2-3.51,4.78-7.52,8.79-7.26,3.74.24,6.79,4.28,10.46,3.53,5.47-1.13,4.89-10.92,10.29-12.34,3.53-.93,8.2,2.29,10.43-.58,1.12-1.43.61-3.63-.62-5a11.71,11.71,0,0,0-4.71-2.6l-19.9-7.24c-11-4-23-8.8-28.58-19.12l67.65,23.47A13.9,13.9,0,0,0,213,55.81a12.22,12.22,0,0,0,5.4-2.17C229.13,46.9,237.15,35.9,249,31.48c-3.78,11.45-18.59,15.66-24.05,26.41,11.66-8.47,24.26-17.27,38.66-17.81,5.36-.2,10.75.78,16.08.21a28.12,28.12,0,0,0,12.61-4.63C293,36,293.74,36.24,294.46,36.55Z" transform="translate(-28.19 -16.9)" fill="#fff"></path></svg>