<svg id="Layer_1" data-name="Layer 1" xmlns="http://www.w3.org/2000/svg" xmlns:xlink="http://www.w3.org/1999/xlink" viewBox="0 0 427.64 303.94" width="406" height="306" class="illustration styles_illustrationTablet__1DWOa"><defs><linearGradient id="linear-gradient" x1="267.47" y1="350.47" x2="249.73" y2="317.25" gradientUnits="userSpaceOnUse"><stop offset="0" stop-opacity="0"></stop><stop offset="0.91" stop-opacity="0.8"></stop><stop offset="1"></stop></linearGradient><linearGradient id="linear-gradient-2" x1="277.15" y1="335.18" x2="267.31" y2="384.69" xlink:href="#linear-gradient"></linearGradient><linearGradient id="linear-gradient-3" x1="100.98" y1="278.16" x2="81.08" y2="279.48" xlink:href="#linear-gradient"></linearGradient><linearGradient id="linear-gradient-4" x1="81.29" y1="330.5" x2="91.61" y2="356.59" xlink:href="#linear-gradient"></linearGradient><linearGradient id="linear-gradient-5" x1="89.88" y1="303.7" x2="67.35" y2="381.97" xlink:href="#linear-gradient"></linearGradient><linearGradient id="linear-gradient-6" x1="38.05" y1="218.57" x2="91.11" y2="218.57" xlink:href="#linear-gradient"></linearGradient><linearGradient id="linear-gradient-7" x1="186.54" y1="274.83" x2="278.51" y2="244.42" xlink:href="#linear-gradient"></linearGradient><linearGradient id="linear-gradient-8" x1="224.06" y1="312.97" x2="235.88" y2="333.24" xlink:href="#linear-gradient"></linearGradient><linearGradient id="linear-gradient-9" x1="301.49" y1="236.03" x2="347.95" y2="421.86" xlink:href="#linear-gradient"></linearGradient><linearGradient id="linear-gradient-10" x1="229.79" y1="287.7" x2="249.78" y2="302.62" xlink:href="#linear-gradient"></linearGradient><linearGradient id="linear-gradient-11" x1="198.88" y1="185.87" x2="95.83" y2="186.44" xlink:href="#linear-gradient"></linearGradient><linearGradient id="linear-gradient-12" x1="89.6" y1="277.52" x2="60.88" y2="281.18" xlink:href="#linear-gradient"></linearGradient><linearGradient id="linear-gradient-13" x1="79.65" y1="250.72" x2="68.24" y2="256.91" gradientUnits="userSpaceOnUse"><stop offset="0" stop-color="#ecc4d7"></stop><stop offset="0.42" stop-color="#efd4d1"></stop><stop offset="1" stop-color="#f2eac9"></stop></linearGradient><linearGradient id="linear-gradient-14" x1="80.36" y1="273.12" x2="56.71" y2="297.53" xlink:href="#linear-gradient"></linearGradient><linearGradient id="linear-gradient-15" x1="111.79" y1="310.11" x2="89.26" y2="337.98" xlink:href="#linear-gradient"></linearGradient><linearGradient id="linear-gradient-16" x1="107.5" y1="302.4" x2="117.54" y2="302.4" xlink:href="#linear-gradient-13"></linearGradient><linearGradient id="linear-gradient-17" x1="98.66" y1="293.33" x2="105.98" y2="295.77" xlink:href="#linear-gradient-13"></linearGradient><linearGradient id="linear-gradient-18" x1="132.4" y1="331.36" x2="118.41" y2="342.91" xlink:href="#linear-gradient"></linearGradient><linearGradient id="linear-gradient-19" x1="107.77" y1="344.92" x2="97.73" y2="350.65" xlink:href="#linear-gradient"></linearGradient><linearGradient id="linear-gradient-20" x1="42.68" y1="340.25" x2="65.22" y2="340.25" xlink:href="#linear-gradient"></linearGradient><linearGradient id="linear-gradient-21" x1="46.36" y1="341.66" x2="61.54" y2="341.66" xlink:href="#linear-gradient"></linearGradient><linearGradient id="linear-gradient-22" x1="135.16" y1="342.72" x2="141.26" y2="347.23" xlink:href="#linear-gradient"></linearGradient><linearGradient id="linear-gradient-23" x1="152.95" y1="343.91" x2="142.54" y2="345.32" xlink:href="#linear-gradient"></linearGradient><linearGradient id="linear-gradient-24" x1="166.32" y1="343.74" x2="159.19" y2="348.81" xlink:href="#linear-gradient"></linearGradient><linearGradient id="linear-gradient-25" x1="130.88" y1="345.95" x2="147.27" y2="345.95" xlink:href="#linear-gradient"></linearGradient><linearGradient id="linear-gradient-26" x1="146.49" y1="327.15" x2="152.12" y2="268.87" gradientUnits="userSpaceOnUse"><stop offset="0" stop-color="#fff" stop-opacity="0"></stop><stop offset="1" stop-color="#fff"></stop></linearGradient><linearGradient id="linear-gradient-27" x1="147.05" y1="324.43" x2="150.7" y2="286.68" xlink:href="#linear-gradient-26"></linearGradient><linearGradient id="linear-gradient-28" x1="240.56" y1="297.41" x2="279.69" y2="301.63" xlink:href="#linear-gradient"></linearGradient><linearGradient id="linear-gradient-29" x1="233.23" y1="320.63" x2="255.57" y2="342.59" xlink:href="#linear-gradient"></linearGradient><linearGradient id="linear-gradient-30" x1="263.18" y1="304.33" x2="275.1" y2="297.1" xlink:href="#linear-gradient"></linearGradient><linearGradient id="linear-gradient-31" x1="261.8" y1="292.53" x2="253.49" y2="327.44" xlink:href="#linear-gradient"></linearGradient><linearGradient id="linear-gradient-32" x1="268.93" y1="293.63" x2="285.54" y2="293.16" xlink:href="#linear-gradient"></linearGradient><linearGradient id="linear-gradient-33" x1="246.78" y1="316.19" x2="260.28" y2="316.19" xlink:href="#linear-gradient-13"></linearGradient><linearGradient id="linear-gradient-34" x1="277.45" y1="340.52" x2="269.99" y2="378.08" xlink:href="#linear-gradient"></linearGradient><linearGradient id="linear-gradient-35" x1="276.58" y1="345.36" x2="272.47" y2="366.03" xlink:href="#linear-gradient"></linearGradient><linearGradient id="linear-gradient-36" x1="82.89" y1="237.88" x2="83.73" y2="252.17" xlink:href="#linear-gradient-13"></linearGradient><linearGradient id="linear-gradient-37" x1="71.79" y1="244.12" x2="74.33" y2="244.12" xlink:href="#linear-gradient-13"></linearGradient><linearGradient id="linear-gradient-38" x1="74.87" y1="230.6" x2="101.24" y2="231.35" xlink:href="#linear-gradient"></linearGradient><linearGradient id="linear-gradient-39" x1="77.12" y1="220.92" x2="62.76" y2="237.9" xlink:href="#linear-gradient"></linearGradient><linearGradient id="linear-gradient-40" x1="76.73" y1="234.94" x2="100.31" y2="235.62" xlink:href="#linear-gradient"></linearGradient><linearGradient id="linear-gradient-41" x1="91.25" y1="314.27" x2="76.99" y2="333.98" xlink:href="#linear-gradient"></linearGradient><linearGradient id="linear-gradient-42" x1="244.95" y1="242.1" x2="250.23" y2="257.38" xlink:href="#linear-gradient-13"></linearGradient><linearGradient id="linear-gradient-43" x1="252.45" y1="261.41" x2="260.05" y2="269.57" xlink:href="#linear-gradient-13"></linearGradient><linearGradient id="linear-gradient-44" x1="234.74" y1="293.35" x2="232.34" y2="298.7" xlink:href="#linear-gradient"></linearGradient><linearGradient id="linear-gradient-45" x1="233.84" y1="294.3" x2="229.39" y2="305.2" xlink:href="#linear-gradient"></linearGradient><linearGradient id="linear-gradient-46" x1="212.28" y1="281.32" x2="202.09" y2="297.84" xlink:href="#linear-gradient"></linearGradient><linearGradient id="linear-gradient-47" x1="217.04" y1="290.81" x2="223.69" y2="290.81" xlink:href="#linear-gradient-13"></linearGradient><linearGradient id="linear-gradient-48" x1="250.07" y1="305.82" x2="254.03" y2="307.41" xlink:href="#linear-gradient"></linearGradient><linearGradient id="linear-gradient-49" x1="252.07" y1="306.56" x2="257.29" y2="308.66" xlink:href="#linear-gradient"></linearGradient><linearGradient id="linear-gradient-50" x1="252.22" y1="306.55" x2="256.16" y2="308.14" xlink:href="#linear-gradient"></linearGradient><linearGradient id="linear-gradient-51" x1="249.78" y1="238.17" x2="250.87" y2="232.2" xlink:href="#linear-gradient"></linearGradient><linearGradient id="linear-gradient-52" x1="253.53" y1="293.12" x2="253.53" y2="293.12" xlink:href="#linear-gradient"></linearGradient></defs><title>67. Camping</title><path d="M97.25,87s91.4-32.21,130.53-6.84,10.41,65.8,72.92,75.58,86.16,30.56,92.91,60.29-15,91.26-15,91.26h0a105.92,105.92,0,0,1-70.85,45.53l-54.74,9S66.15,368.47,34.76,318.5s-14.2-125-14.2-125S50.92,109,97.25,87Z" transform="translate(-0.67 -70.39)" fill="#68e1fd" opacity="0.27"></path><path d="M95.05,234.66s-.54-12.34-15.28-12.26c-9.68.06-11.82,7.8-11.42,15.65.41,8.25,2.81,9.94,2.81,9.94l2.24-1.33S93.71,234.65,95.05,234.66Z" transform="translate(-0.67 -70.39)"></path><path d="M83.45,194.23c1-2.56,2.57-6,5.19-5.25,1.22.37,1.92,1.62,2.86,2.5,3,2.86,8.41,1.28,10.89-2.09s2.86-7.78,3.16-11.94a10.85,10.85,0,0,0,9.88-19.22c6.46-3.11,9-12.37,4.94-18.31,5.54-9.69,1-23.69-9.11-28.34,2-4.65-1-9.81-3.92-14C102.13,90.14,94,81.68,85.51,84.94a18.44,18.44,0,0,0-33.95-2.8,12.41,12.41,0,0,0-14.83-2.77,12.44,12.44,0,0,0-5.91,13.89c-3.75-2.66-9.31,1-10.27,5.47s1.1,9,3.11,13.17a10.13,10.13,0,0,0-11.59,4.19,10.14,10.14,0,0,0,1.61,12.21c-3.42-2-8.08.14-10.15,3.53s-2.26,7.57-2.38,11.54c-.25,8.3,0,17.84,6.45,23.11A15.62,15.62,0,0,0,2,185.77a15.62,15.62,0,0,0,18.53,7.73,9.44,9.44,0,0,0,7.32,11.57c2.68.4,5.72-.33,7.89,1.29,1.23.91,1.89,2.41,3,3.47,3.14,3,7.88.72,9.6-2.53C57.15,215.3,79.79,203.91,83.45,194.23Z" transform="translate(-0.67 -70.39)" fill="#68e1fd"></path><path d="M405.78,304.37c-1.86,6.39-7.94,10.74-14.24,12.89s-13.05,2.6-19.53,4.1c-11.45,2.63-21.92,8.47-33.25,11.56-27.42,7.46-57.5-1.74-84.61,6.74,1.57,6.49,14.2,5.5,14.54,12.17a6.43,6.43,0,0,1-1.79,4.38c-3.34,3.86-8.78,5-13.86,5.54-18,1.86-36-1.51-54-3.68-43.57-5.26-87.63-3.46-131.51-3.93-10.15-.11-20.45-.36-30.14-3.38-3.3-1-7.2-4.15-5.44-7.13a6.13,6.13,0,0,1,3.42-2.22l37.81-13.82L22,327.18a11.58,11.58,0,0,1,12.73-8.68,60.81,60.81,0,0,1-16.4-6.33,5.34,5.34,0,0,1-2.78-2.73c-.8-2.63,2.35-4.65,5-5.47,11.16-3.48,23-4.16,34.63-4.82l56.4-3.17c94.8-5.33,187.46,4.95,282.4,6,1.55,1.08,3.18,1,5.07,1a50.89,50.89,0,0,1,5.66,0,1.71,1.71,0,0,1,1,.36C406,303.64,406.1,304.18,405.78,304.37Z" transform="translate(-0.67 -70.39)" fill="#68e1fd" opacity="0.35"></path><path d="M286.63,344.76a5.13,5.13,0,0,1,1.81,2.73,4.77,4.77,0,0,1-.54,2.49,32.87,32.87,0,0,1-10,12.82,11.8,11.8,0,0,1-3.52,2,10,10,0,0,1-4.93.13c-5.94-1.13-10.86-5.25-15.11-9.56s-8.23-9.07-13.48-12.08c7.16-5.13,16.71-11.8,25.5-13.58C273.78,328.23,281.75,340.06,286.63,344.76Z" transform="translate(-0.67 -70.39)" fill="#68e1fd"></path><path d="M287.9,350a32.87,32.87,0,0,1-10,12.82,11.8,11.8,0,0,1-3.52,2,10,10,0,0,1-4.93.13,22,22,0,0,1-8.53-3.83,48.53,48.53,0,0,1-6.58-5.73c-4.24-4.32-8.23-9.07-13.48-12.08,7.16-5.13,16.71-11.8,25.5-13.58,6.68-1.36,13.84,8.2,18.76,13.51l0,.05c.49.54,1,1,1.42,1.47a5.13,5.13,0,0,1,1.81,2.73A4.77,4.77,0,0,1,287.9,350Z" transform="translate(-0.67 -70.39)" fill="url(#linear-gradient)"></path><path d="M287.9,350a32.87,32.87,0,0,1-10,12.82,11.8,11.8,0,0,1-3.52,2,10,10,0,0,1-4.93.13,22,22,0,0,1-8.53-3.83,5.44,5.44,0,0,1-.68-.77c-3.39-4.63,1.7-16.36,10.15-19.57a15,15,0,0,1,14.73,2.46l0,.05c.49.54,1,1,1.42,1.47a5.13,5.13,0,0,1,1.81,2.73A4.77,4.77,0,0,1,287.9,350Z" transform="translate(-0.67 -70.39)" fill="url(#linear-gradient-2)"></path><path d="M84,256.11s6.52-.26,17.23,34c.19.61,9.46,5.64,9.46,5.64l-6.94,5.41-9.68-2.64S75.51,264.69,84,256.11Z" transform="translate(-0.67 -70.39)" fill="#68e1fd"></path><path d="M84,256.11s6.52-.26,17.23,34c.19.61,9.46,5.64,9.46,5.64l-6.94,5.41-9.68-2.64S75.51,264.69,84,256.11Z" transform="translate(-0.67 -70.39)" fill="url(#linear-gradient-3)"></path><path d="M47.85,326.06l47.6-18.17s6.69-2.15,10.89,6.18a29,29,0,0,1,3,16.05s-46.12,23.4-46.65,23S47.85,326.06,47.85,326.06Z" transform="translate(-0.67 -70.39)" fill="#68e1fd"></path><path d="M47.85,326.06l47.6-18.17s6.69-2.15,10.89,6.18a29,29,0,0,1,3,16.05s-46.12,23.4-46.65,23S47.85,326.06,47.85,326.06Z" transform="translate(-0.67 -70.39)" fill="url(#linear-gradient-4)"></path><path d="M62.25,321.16c-.89.54-1.91,1.31-1.8,2.35s1,1.48,1.87,1.85c6.63,2.87,14.16,2.27,21.39,2.17a3.42,3.42,0,0,1,1.43.18,3.56,3.56,0,0,1,1.61,2.07l1.9,4.37A3.28,3.28,0,0,0,90.1,336,2.88,2.88,0,0,0,92,336a6.92,6.92,0,0,0,4.4-3c1.31-2.39.29-5.31-.18-8-.21-1.25-.17-2.8.91-3.46a3.18,3.18,0,0,1,1.78-.32,10.14,10.14,0,0,1,5.26,1.43,5.55,5.55,0,0,1,2.68,4.56,17.44,17.44,0,0,0,1.12-7,4.3,4.3,0,0,0-.75-2.56,4.71,4.71,0,0,0-3-1.31,91,91,0,0,0-34,.74C67,317.74,65.07,319.46,62.25,321.16Z" transform="translate(-0.67 -70.39)" fill="url(#linear-gradient-5)"></path><path d="M217.07,184.92a.71.71,0,0,0,0-1.41.71.71,0,0,0,0,1.41Z" transform="translate(-0.67 -70.39)"></path><path d="M35.15,150.14s10,23,11.07,48.66S53.14,301,33.58,313.06H73.94s-6.34-9.39-8.63-28.42S54,191.67,64.14,171a220,220,0,0,1,22.5-36.17H84.37L58.61,173.93l-3.08-22.69c0-.11,0-.21,0-.32-.07-5.88-1.29-26.17-6.9-26.17l.13,60.11S43.21,155.42,36,143.61Z" transform="translate(-0.67 -70.39)" fill="#68e1fd"></path><path d="M35.15,149.8s10,23,11.07,48.66,6.92,102.15-12.64,114.26H73.94s-6.34-9.39-8.63-28.43-11.32-93-1.17-113.67a220.17,220.17,0,0,1,22.5-36.16H84.37L58.61,173.59,55.53,150.9c0-.11,0-.21,0-.32-.07-5.88-1.29-26.17-6.9-26.17l.13,60.11S43.21,155.08,36,143.27Z" transform="translate(-0.67 -70.39)" fill="url(#linear-gradient-6)"></path><path d="M106.34,303,182,201.48S239,278,250.63,299.67s20.26,22.1,20.26,22.1Z" transform="translate(-0.67 -70.39)" fill="#68e1fd"></path><path d="M106.34,303,182,201.48S239,278,250.63,299.67s20.26,22.1,20.26,22.1Z" transform="translate(-0.67 -70.39)" fill="#68e1fd"></path><path d="M106.34,303,182,201.48S239,278,250.63,299.67s20.26,22.1,20.26,22.1Z" transform="translate(-0.67 -70.39)" fill="url(#linear-gradient-7)"></path><path d="M243.26,310.22s-14.36-.14-20.14,1.59-22.7,27.92-22.7,27.92a28.78,28.78,0,0,0,5.53,5c3.12,2.06,15.89-12.2,15.89-12.2l28.95-1.23,2.74-2.52,12.34-11.41S246.7,315.36,243.26,310.22Z" transform="translate(-0.67 -70.39)" fill="#68e1fd"></path><path d="M243.26,310.22s-14.36-.14-20.14,1.59-22.7,27.92-22.7,27.92a28.78,28.78,0,0,0,5.53,5c3.12,2.06,15.89-12.2,15.89-12.2l28.95-1.23,2.74-2.52,12.34-11.41S246.7,315.36,243.26,310.22Z" transform="translate(-0.67 -70.39)" fill="url(#linear-gradient-8)"></path><path d="M336.47,198.8,182,201.48s65.33,116.88,88.86,120.29c0,0,62-14,84.22-13.22s73.2-8.56,73.2-8.56-48.55-54.05-64.45-66.39S336.47,198.8,336.47,198.8Z" transform="translate(-0.67 -70.39)" fill="#68e1fd"></path><path d="M336.47,198.8,182,201.48s65.33,116.88,88.86,120.29c0,0,62-14,84.22-13.22s73.2-8.56,73.2-8.56-48.55-54.05-64.45-66.39S336.47,198.8,336.47,198.8Z" transform="translate(-0.67 -70.39)" fill="url(#linear-gradient-9)"></path><path d="M239.19,278.11c-.73,1.18-1.32,2.44-1.93,3.68a141.17,141.17,0,0,1-7.78,13.91c-.19.3-.46.64-.81.61a1,1,0,0,1-.53-.29,16.59,16.59,0,0,0-4.37-2.67c-2-.84-4.72-1.11-6,.64a4.77,4.77,0,0,0-.62,3.52,13.14,13.14,0,0,0,3.19,7,11.67,11.67,0,0,0,5.92,3.65,7,7,0,0,0,4.88-.44,9.6,9.6,0,0,0,2.18-1.79,55.12,55.12,0,0,0,10.57-15.22,13.07,13.07,0,0,0,1.59-5.88c0-1.27-.4-2.52-.47-3.79s.16-2.58.13-3.87c-.05-1.45-.62-3.94-2.49-3.11C241.27,274.65,239.94,276.9,239.19,278.11Z" transform="translate(-0.67 -70.39)" fill="#68e1fd"></path><path d="M239.19,278.11c-.73,1.18-1.32,2.44-1.93,3.68a141.17,141.17,0,0,1-7.78,13.91c-.19.3-.46.64-.81.61a1,1,0,0,1-.53-.29,16.59,16.59,0,0,0-4.37-2.67c-2-.84-4.72-1.11-6,.64a4.77,4.77,0,0,0-.62,3.52,13.14,13.14,0,0,0,3.19,7,11.67,11.67,0,0,0,5.92,3.65,7,7,0,0,0,4.88-.44,9.6,9.6,0,0,0,2.18-1.79,55.12,55.12,0,0,0,10.57-15.22,13.07,13.07,0,0,0,1.59-5.88c0-1.27-.4-2.52-.47-3.79s.16-2.58.13-3.87c-.05-1.45-.62-3.94-2.49-3.11C241.27,274.65,239.94,276.9,239.19,278.11Z" transform="translate(-0.67 -70.39)" fill="url(#linear-gradient-10)"></path><polygon points="176.74 240.88 181.37 131.09 172.17 240.88 176.74 240.88" fill="url(#linear-gradient-11)"></polygon><path d="M70.79,251.67s-8.65,3.34-10.68,4.84-5,4.33-3.4,12.61a102.22,102.22,0,0,0,3.4,13.58s3.77,17.65,3.42,22.79,25.32,1,29.55-2.89-2.8-17.61-1.8-24.75-5.57-21.31-8.75-23.21S70.79,251.67,70.79,251.67Z" transform="translate(-0.67 -70.39)" fill="#68e1fd"></path><path d="M70.79,251.67s-8.65,3.34-10.68,4.84-5,4.33-3.4,12.61a102.22,102.22,0,0,0,3.4,13.58s3.77,17.65,3.42,22.79,25.32,1,29.55-2.89-2.8-17.61-1.8-24.75-5.57-21.31-8.75-23.21S70.79,251.67,70.79,251.67Z" transform="translate(-0.67 -70.39)" fill="url(#linear-gradient-12)"></path><path d="M71.16,248a38.08,38.08,0,0,0-.53,5.18c.1,1.28,2.86,5,7.43,5.11l2.35-.52-.24-2.16-6.77-8.94Z" transform="translate(-0.67 -70.39)" fill="url(#linear-gradient-13)"></path><path d="M60.16,257.63s2.82-1.21,7,3.34,3.33,15.08,17.25,20.9S98,291,96.6,293.58s-4.95,5.52-12.18,2.58C56.63,284.86,50.09,260,60.16,257.63Z" transform="translate(-0.67 -70.39)" fill="#68e1fd"></path><path d="M60.16,257.63s2.82-1.21,7,3.34,3.33,15.08,17.25,20.9S98,291,96.6,293.58s-4.95,5.52-12.18,2.58C56.63,284.86,50.09,260,60.16,257.63Z" transform="translate(-0.67 -70.39)" fill="url(#linear-gradient-14)"></path><path d="M94.11,300.93s16.68,2.7,21.08,7,11.35,22.58,11.35,22.58l-7.65,3.7L108.18,319.1l-10.93-2.56S81.51,311,84,306.07,94.11,300.93,94.11,300.93Z" transform="translate(-0.67 -70.39)" fill="#68e1fd"></path><path d="M94.11,300.93s16.68,2.7,21.08,7,11.35,22.58,11.35,22.58l-7.65,3.7L108.18,319.1l-10.93-2.56S81.51,311,84,306.07,94.11,300.93,94.11,300.93Z" transform="translate(-0.67 -70.39)" fill="url(#linear-gradient-15)"></path><path d="M109.82,296.82s3.43,2.5,4.14,4.11,1.23,7,1.23,7-2.47.54-3.08-.87-1.38-2.82-1.38-2.82l-1.42-.82v2.76s-.38,1-1.53-.65a35.75,35.75,0,0,1-2.63-5.4Z" transform="translate(-0.67 -70.39)" fill="url(#linear-gradient-16)"></path><path d="M96.29,290.48a15.9,15.9,0,0,0,6.74.81,37.91,37.91,0,0,1,7.7.09s1.83.44.92,2.4,0,3-.92,3-1.2,2.45-3,2.84a15.61,15.61,0,0,1-3.41.4c-.26,0-2.18.79-3.24,0s-6.69-4-6.69-4S92.21,292.57,96.29,290.48Z" transform="translate(-0.67 -70.39)" fill="url(#linear-gradient-17)"></path><path d="M110.73,291.38s15-13.13,28.88-15.46a63,63,0,0,0-10.54,4.31A92.37,92.37,0,0,0,111.68,292Z" transform="translate(-0.67 -70.39)" fill="none" stroke="#000" stroke-miterlimit="10" stroke-width="0.39"></path><polygon points="130.33 205.81 131.68 210.19 136.24 208.12 135 204.3 130.33 205.81" fill="none" stroke="#000" stroke-miterlimit="10" stroke-width="0.39"></polygon><path d="M118.89,334.17l2.44,6.61L136.9,336s-.47-3.9-5.09-3.45-7-1.23-7-1.23Z" transform="translate(-0.67 -70.39)" fill="#68e1fd"></path><path d="M94.76,343.68l1.53,8.21,15.61-.67s-.19-5.15-5-5.42-4.1-3.55-4.1-3.55Z" transform="translate(-0.67 -70.39)" fill="#68e1fd"></path><path d="M118.89,334.17l2.44,6.61L136.9,336s-.47-3.9-5.09-3.45-7-1.23-7-1.23Z" transform="translate(-0.67 -70.39)" fill="url(#linear-gradient-18)"></path><path d="M94.76,343.68l1.53,8.21,15.61-.67s-.19-5.15-5-5.42-4.1-3.55-4.1-3.55Z" transform="translate(-0.67 -70.39)" fill="url(#linear-gradient-19)"></path><line x1="95.62" y1="281.49" x2="111.24" y2="280.83" fill="#68e1fd"></line><path d="M43.1,330s0-3.77,4.75-3.95,14.28,7.4,14.81,12.16,5.48,11.2,0,14.88-16.39-.89-17.1-6S41.52,337.3,43.1,330Z" transform="translate(-0.67 -70.39)" fill="#68e1fd"></path><path d="M43.1,330s0-3.77,4.75-3.95,14.28,7.4,14.81,12.16,5.48,11.2,0,14.88-16.39-.89-17.1-6S41.52,337.3,43.1,330Z" transform="translate(-0.67 -70.39)" fill="url(#linear-gradient-20)"></path><path d="M46.64,334.77s0-2.54,3.21-2.66,9.61,5,10,8.19,3.68,7.54,0,10-11-.6-11.52-4.07S45.58,339.68,46.64,334.77Z" transform="translate(-0.67 -70.39)" fill="url(#linear-gradient-21)"></path><path d="M122.77,357.09s2,4,3.77,4.34l23.26-31.06-2.65-4.11Z" transform="translate(-0.67 -70.39)" fill="#68e1fd"></path><path d="M149.8,362.67a7,7,0,0,0,6.29,0l-3.89-35s-3.59-5-5-1.39S149.8,362.67,149.8,362.67Z" transform="translate(-0.67 -70.39)" fill="#68e1fd"></path><path d="M151.32,331.3l3.89-3.48L179.34,358s-2.89,3.29-5.67,2.58Z" transform="translate(-0.67 -70.39)" fill="#68e1fd"></path><path d="M122.77,357.09s2,4,3.77,4.34l23.26-31.06-2.65-4.11Z" transform="translate(-0.67 -70.39)" fill="url(#linear-gradient-22)"></path><path d="M149.8,362.67a7,7,0,0,0,6.29,0l-3.89-35s-3.59-5-5-1.39S149.8,362.67,149.8,362.67Z" transform="translate(-0.67 -70.39)" fill="url(#linear-gradient-23)"></path><path d="M151.32,331.3l3.89-3.48L179.34,358s-2.89,3.29-5.67,2.58Z" transform="translate(-0.67 -70.39)" fill="url(#linear-gradient-24)"></path><path d="M130.88,356.73a5.88,5.88,0,0,0,4.76,1.3l11.63-19.6v-4.68Z" transform="translate(-0.67 -70.39)" fill="#68e1fd"></path><path d="M130.88,356.73a5.88,5.88,0,0,0,4.76,1.3l11.63-19.6v-4.68Z" transform="translate(-0.67 -70.39)" fill="url(#linear-gradient-25)"></path><path d="M133.63,320.13c-1.76-3.37-1.33-7.54.21-11s4.07-6.39,6.57-9.25a3.83,3.83,0,0,0,.29,3.27c.18-4.35,3.35-7.9,5.22-11.83a20.94,20.94,0,0,0,1.83-11.8l2,6.15c1.14-2.31.51-5.07,1-7.6.79-4.34,4.56-7.41,8.07-10.07-1.72,3.7-3.47,7.59-3.23,11.66.33,5.37,4.05,9.93,5.3,15.17a17,17,0,0,1-1.13,11.05c-.7,1.49-1.63,2.95-1.66,4.6a10.63,10.63,0,0,1,5.57-3.67c-2.69,2.11-2.49,6.18-2,9.56a23.78,23.78,0,0,1,.22,8.15c-1.26,6-8.53,10.55-14.59,9.85-3.2-.37-4.7-3.05-6.41-5.46C138.71,325.84,135.38,323.46,133.63,320.13Z" transform="translate(-0.67 -70.39)" fill="#68e1fd" opacity="0.69"></path><path d="M133.63,320.13c-1.76-3.37-1.33-7.54.21-11s4.07-6.39,6.57-9.25a3.83,3.83,0,0,0,.29,3.27c.18-4.35,3.35-7.9,5.22-11.83a20.94,20.94,0,0,0,1.83-11.8l2,6.15c1.14-2.31.51-5.07,1-7.6.79-4.34,4.56-7.41,8.07-10.07-1.72,3.7-3.47,7.59-3.23,11.66.33,5.37,4.05,9.93,5.3,15.17a17,17,0,0,1-1.13,11.05c-.7,1.49-1.63,2.95-1.66,4.6a10.63,10.63,0,0,1,5.57-3.67c-2.69,2.11-2.49,6.18-2,9.56a23.78,23.78,0,0,1,.22,8.15c-1.26,6-8.53,10.55-14.59,9.85-3.2-.37-4.7-3.05-6.41-5.46C138.71,325.84,135.38,323.46,133.63,320.13Z" transform="translate(-0.67 -70.39)" fill="url(#linear-gradient-26)"></path><path d="M138.72,319.88a8.31,8.31,0,0,1,.14-7.12,24.27,24.27,0,0,1,4.25-6,2.47,2.47,0,0,0,.19,2.12c.12-2.82,2.17-5.12,3.38-7.67a13.59,13.59,0,0,0,1.19-7.64l1.32,4c.73-1.5.33-3.29.63-4.93.51-2.81,3-4.8,5.23-6.52-1.12,2.39-2.26,4.91-2.1,7.55.21,3.48,2.63,6.44,3.43,9.82a11,11,0,0,1-.73,7.16,7.76,7.76,0,0,0-1.07,3,6.85,6.85,0,0,1,3.61-2.37c-1.75,1.37-1.62,4-1.31,6.19a15.38,15.38,0,0,1,.15,5.28c-.82,3.9-5.53,6.83-9.45,6.38-2.08-.24-3.05-2-4.16-3.54C142,323.59,139.85,322,138.72,319.88Z" transform="translate(-0.67 -70.39)" fill="url(#linear-gradient-27)"></path><path d="M259.34,266.77s12.21,3.68,14.06,6.72,5.39,43.59,2.88,50.33-13,8.71-13,8.71-19.81-8.57-20-22.31,0-34.3,0-34.3S241.31,268.65,259.34,266.77Z" transform="translate(-0.67 -70.39)" fill="#68e1fd"></path><path d="M259.34,266.77s12.21,3.68,14.06,6.72,5.39,43.59,2.88,50.33-13,8.71-13,8.71-19.81-8.57-20-22.31,0-34.3,0-34.3S241.31,268.65,259.34,266.77Z" transform="translate(-0.67 -70.39)" fill="url(#linear-gradient-28)"></path><path d="M273.1,321.28s-5,8.92-13,12.89-16.8,8.34-17.75,12.9-.76,14.36-.76,14.36-7.3,2.88-10.11-2.14c-1.74-3.11-3-11.68-3.73-17.74a15.44,15.44,0,0,1,4.86-13.17,34.47,34.47,0,0,1,19.63-9C270,317.37,272.53,315,273.1,321.28Z" transform="translate(-0.67 -70.39)" fill="#68e1fd"></path><path d="M273.1,321.35s-5,8.92-13,12.89-16.8,8.34-17.75,12.9-.76,14.36-.76,14.36-7.3,2.88-10.11-2.14c-1.74-3.11-3-11.68-3.73-17.74a15.44,15.44,0,0,1,4.86-13.17,34.47,34.47,0,0,1,19.63-9C270,317.44,272.53,315,273.1,321.35Z" transform="translate(-0.67 -70.39)" fill="url(#linear-gradient-29)"></path><path d="M252.88,294.24a14.41,14.41,0,0,1,2.16,2,4.33,4.33,0,0,0,5.5.88c2.56-1.52,5.73-3,7.23-1.95,2.72,1.86,12.8,11.94,3.86,23.89s-16.53-3.89-19.68-5.49-8.16,1.15-9.62-1.75S242.45,286.32,252.88,294.24Z" transform="translate(-0.67 -70.39)" fill="#68e1fd"></path><path d="M252.88,294.24a14.41,14.41,0,0,1,2.16,2,4.33,4.33,0,0,0,5.5.88c2.56-1.52,5.73-3,7.23-1.95,2.72,1.86,12.8,11.94,3.86,23.89s-16.53-3.89-19.68-5.49-8.16,1.15-9.62-1.75S242.45,286.32,252.88,294.24Z" transform="translate(-0.67 -70.39)" fill="url(#linear-gradient-30)"></path><path d="M251.12,296.83a13.81,13.81,0,0,1,2.15,2,4.35,4.35,0,0,0,5.5.88c2.56-1.52,5.74-3,7.24-2,2.72,1.87,14.56,9.36,5.62,21.31s-16.53-3.89-19.68-5.49-8.16,1.15-9.62-1.75S240.69,288.91,251.12,296.83Z" transform="translate(-0.67 -70.39)" fill="url(#linear-gradient-31)"></path><path d="M264.28,281.3a7.09,7.09,0,0,1,4.15-8.37,5.1,5.1,0,0,1,5,.56c5.29,3.57,7.14,28.77,7.14,28.77s-5.93,13.3-17.24,12.52,5.61-15.11,5.61-15.11Z" transform="translate(-0.67 -70.39)" fill="#68e1fd"></path><path d="M264.28,281.3a7.09,7.09,0,0,1,4.15-8.37,5.1,5.1,0,0,1,5,.56c5.29,3.57,7.14,28.77,7.14,28.77s-5.93,13.3-17.24,12.52,5.61-15.11,5.61-15.11Z" transform="translate(-0.67 -70.39)" fill="url(#linear-gradient-32)"></path><path d="M258.18,312.32a.37.37,0,0,0,0,.23,7.12,7.12,0,0,0,2,2.88.56.56,0,0,0,.29.16.59.59,0,0,0,.28-.1,2.79,2.79,0,0,0,.95-.95,21.94,21.94,0,0,1-1.87-2c-.18-.25-.34-.64-.66-.73S258.24,312.05,258.18,312.32Z" transform="translate(-0.67 -70.39)" fill="#68e1fd"></path><path d="M253.17,313.18c-.49,0-1.16,0-1.22.38a12.43,12.43,0,0,0,2.3.54c-.79.78-2.36.86-3.72.87l-2.87,0a1.27,1.27,0,0,0-.74.15c-.24.18-.13.5.13.66a2.44,2.44,0,0,0,1,.27l2.49.36a26.38,26.38,0,0,0-2.82-.26c-.13,0-.29,0-.35.09s.06.21.19.28a11.73,11.73,0,0,0,3.57,1.26l-1.62-.43a1,1,0,0,0-.68,0c-.35.17-.09.56.23.75a5.06,5.06,0,0,0,2.33.65,5.34,5.34,0,0,0-1.2.05c.26.56,1.31.65,2.14.62a17.27,17.27,0,0,0,4.21-.88c1.87-.57,2.64-2.11,3.74-3.11.21-.19-.44-.44-.38-.68s-.16-.56-.37-.8c-.7-.8-.88-1.11-2.22-.95A33,33,0,0,1,253.17,313.18Z" transform="translate(-0.67 -70.39)" fill="url(#linear-gradient-33)"></path><path d="M192,337.82a8.06,8.06,0,0,0-3.19-1.47,2.37,2.37,0,0,0-2.69,1.72,3.2,3.2,0,0,0,.26,1.49,34.31,34.31,0,0,0,3.87,7.7,8.82,8.82,0,0,0,4,3.67c2.44.91,5.18-.18,7.33-1.65,1.6-1.1,3.18-2.74,3-4.67-.25-2.17-2.73-4.24-4.76-4.62C196.86,339.45,194.72,339.51,192,337.82Z" transform="translate(-0.67 -70.39)" fill="#68e1fd"></path><path d="M228.54,367.73a3.65,3.65,0,0,0-.15,4.25,5.41,5.41,0,0,0,3.8,2.26,11.14,11.14,0,0,0,4.51-.41,8.91,8.91,0,0,0,2.65-1.08,7.2,7.2,0,0,0,2.86-4.45,17.7,17.7,0,0,0,.21-5.39.8.8,0,0,0-.12-.43.73.73,0,0,0-.44-.23c-2.2-.59-7.07-1.88-8.6.23-.67.93-.51,2-1.45,2.93S229.43,366.7,228.54,367.73Z" transform="translate(-0.67 -70.39)" fill="#68e1fd"></path><path d="M267.5,348c-2.89,3.21-3.76,8.26-1.65,12a5.88,5.88,0,0,0,1.42,1.75,6.43,6.43,0,0,0,4.48,1.06c5.7-.42,8.21-4,11.93-8.3,2.5-2.92,1.79-5.09.94-6.5C281.1,342.17,271.31,343.72,267.5,348Z" transform="translate(-0.67 -70.39)" fill="url(#linear-gradient-34)"></path><path d="M271.1,349.45a5.86,5.86,0,0,0-.9,6.61,2.92,2.92,0,0,0,.78,1,3.53,3.53,0,0,0,2.46.59c3.14-.23,4.52-2.18,6.57-4.57,1.38-1.6,1-2.8.51-3.58C278.59,346.27,273.2,347.11,271.1,349.45Z" transform="translate(-0.67 -70.39)" fill="url(#linear-gradient-35)"></path><path d="M92.92,235.84s-1.68,18.4-7.51,19.66-9.53-.89-11.64-6.46,1.61-18.95,10.6-16.93S92.92,235.84,92.92,235.84Z" transform="translate(-0.67 -70.39)" fill="url(#linear-gradient-36)"></path><path d="M74.16,242.81s-1.48-1.91-2.11-1-.1,5,1.35,4.84S74.16,242.81,74.16,242.81Z" transform="translate(-0.67 -70.39)" fill="url(#linear-gradient-37)"></path><path d="M69,243.1c-.28,1.5-1.41,1.88-2.53-2.21-.47-2-1-2.59,0-4.41a2.76,2.76,0,0,0,.46-1.33c0-.73-.69-1.24-1.12-1.82-1.21-1.69-.52-4,.21-6l2.8-7.46a6,6,0,0,1,1.09-2.05c1.66-1.78,4.59-.95,6.83,0,2.69,1.14,5.14,3.24,8.06,3.43,4.25.29,10.58,5.29,7,7.5,0,0-4.4-1.53-8-.8C75.51,229.68,69.5,240.57,69,243.1Z" transform="translate(-0.67 -70.39)" fill="#68e1fd"></path><path d="M92.8,227.31a2,2,0,0,1-1,1.47h0s-4.4-1.53-8-.8C75.51,229.68,69.5,240.57,69,243.1c-.1.51-.29.89-.55,1s-.43,0-.67-.23a7.34,7.34,0,0,1-1.31-3c-.47-2-1-2.59,0-4.41l.06-.1a2.56,2.56,0,0,0,.4-1.23c0-.73-.69-1.24-1.12-1.82-1.21-1.69-.52-4,.21-6q1.4-3.72,2.8-7.46l.21-.55,0,0a4.58,4.58,0,0,1,.86-1.46c1.66-1.78,4.59-.95,6.83,0,2.69,1.14,5.14,3.24,8.06,3.43C88.24,221.53,93.07,224.88,92.8,227.31Z" transform="translate(-0.67 -70.39)" fill="url(#linear-gradient-38)"></path><path d="M84.84,223.39s-1.69,1.6-7.42,2.91c-5.36,1.23-10.31,9.1-10.91,10.08a2.56,2.56,0,0,0,.4-1.23c0-.73-.69-1.24-1.12-1.82-1.21-1.69-.52-4,.21-6q1.4-3.72,2.8-7.46l.21-.55,0,0,.86-1.46,3.3.72Z" transform="translate(-0.67 -70.39)" fill="url(#linear-gradient-39)"></path><path d="M91.76,228.78h0s-4.4-1.53-8-.8C75.51,229.68,69.5,240.57,69,243.1c-.1.51-.29.89-.55,1a1.61,1.61,0,0,1-.67-.23c-.3-.22,2.3-6.07,2.3-6.07A41.11,41.11,0,0,1,79,228c5.59-4.37,13.66-.93,13.66-.93a.76.76,0,0,1,.17.2C93.25,228,91.94,228.69,91.76,228.78Z" transform="translate(-0.67 -70.39)" fill="url(#linear-gradient-40)"></path><path d="M63.53,305.49s.38,10.32,3.9,13.42,22.79,8.21,22.79,8.21,4.38,13.55,4.54,16.56,11.58-3.16,11.58-3.16-3.31-19-4.19-21.16-15.51-13.87-15.51-13.87Z" transform="translate(-0.67 -70.39)" fill="#68e1fd"></path><path d="M63.53,305.49s.38,10.32,3.9,13.42,22.79,8.21,22.79,8.21,4.38,13.55,4.54,16.56,11.58-3.16,11.58-3.16-3.31-19-4.19-21.16-15.51-13.87-15.51-13.87Z" transform="translate(-0.67 -70.39)" fill="url(#linear-gradient-41)"></path><path d="M238.38,245.35s.65,19.6,5.67,21.13,12.52-3.24,13.75-8.06-1.94-16.49-1.94-16.49S237.43,238.57,238.38,245.35Z" transform="translate(-0.67 -70.39)" fill="url(#linear-gradient-42)"></path><path d="M234.65,239.91s-2.39,3.75.73,5.37,10.26-1.28,11.71-1.14a42.88,42.88,0,0,1,5.79,1.64,7.11,7.11,0,0,1,2.41,4.44c.4,2.91,0,3.9,0,3.9s2.32-4.15,2.5-2.58.41,4.12-1.05,4.83l1.35.67s3.68-6.43,3-9.6c-.33-1.59,1.32-5.07.08-6.87s-5.37-1.92-5.37-1.92S245.62,230.52,234.65,239.91Z" transform="translate(-0.67 -70.39)"></path><path d="M258.09,257s1.73,8.3,1.25,9.73c0,0-3,3.15-5.14,3.28a23.61,23.61,0,0,1-3.41,0v-4.4A19.22,19.22,0,0,0,258.09,257Z" transform="translate(-0.67 -70.39)" fill="url(#linear-gradient-43)"></path><polygon points="251.84 233.36 214.68 214.6 213.95 219.36 245.54 235.74 251.84 233.36" fill="#68e1fd"></polygon><path d="M215.56,283.65c-.65-.94-2.05-.84-3.06-1.37a6,6,0,0,1-1.41-1.21,6.11,6.11,0,0,0-3-1.91,2.69,2.69,0,0,0-3,1.37c-.38.92,0,2-.17,3-.07.56-.3,1.09-.34,1.64a3.4,3.4,0,0,0,1,2.5,10.29,10.29,0,0,0,2.22,1.64,1.71,1.71,0,0,0,1.17.37,3,3,0,0,1,.72-.17,1.06,1.06,0,0,1,.6.4,3.64,3.64,0,0,0,2.1,1.24,2.83,2.83,0,0,0,2.63-1.66C215.59,288.28,216.39,284.85,215.56,283.65Z" transform="translate(-0.67 -70.39)" fill="#68e1fd"></path><path d="M252.51,303.75l-1,.65-36.78-14.57a2.77,2.77,0,0,0,.22-.37,11,11,0,0,0,.94-4.18Z" transform="translate(-0.67 -70.39)" fill="url(#linear-gradient-44)"></path><path d="M251.54,304.4l-2.32,4.4-35.07-18.05a2,2,0,0,0,.22-.37,10.81,10.81,0,0,0,.94-4.18Z" transform="translate(-0.67 -70.39)" fill="#68e1fd"></path><path d="M251.54,304.4l-2.06,4.4-35.33-18.05a2,2,0,0,0,.22-.37,10.81,10.81,0,0,0,.94-4.18Z" transform="translate(-0.67 -70.39)" fill="url(#linear-gradient-45)"></path><path d="M215.92,285.28a11,11,0,0,1-.94,4.18,2.77,2.77,0,0,1-.22.37,2.71,2.71,0,0,1-2.41,1.29,3.64,3.64,0,0,1-2.1-1.24,1.06,1.06,0,0,0-.6-.4,3,3,0,0,0-.72.17,1.71,1.71,0,0,1-1.17-.37,10.29,10.29,0,0,1-2.22-1.64,3.4,3.4,0,0,1-1-2.5c0-.55.27-1.08.34-1.64.14-1-.21-2.05.17-3a2.69,2.69,0,0,1,3-1.37,6.11,6.11,0,0,1,3,1.91,6,6,0,0,0,1.41,1.21c1,.53,2.41.43,3.06,1.37A2.94,2.94,0,0,1,215.92,285.28Z" transform="translate(-0.67 -70.39)" fill="url(#linear-gradient-46)"></path><path d="M214.61,285.66a11,11,0,0,1-.94,4.18,2.77,2.77,0,0,1-.22.37A2.71,2.71,0,0,1,211,291.5a3.64,3.64,0,0,1-2.1-1.24,1.06,1.06,0,0,0-.6-.4,3,3,0,0,0-.72.17,1.71,1.71,0,0,1-1.17-.37,10.29,10.29,0,0,1-2.22-1.64,3.4,3.4,0,0,1-1-2.5c0-.55.27-1.08.34-1.64.14-1-.21-2.05.17-3a2.69,2.69,0,0,1,3-1.37,6.11,6.11,0,0,1,3,1.91,6,6,0,0,0,1.41,1.21c1,.53,2.41.43,3.06,1.37A2.94,2.94,0,0,1,214.61,285.66Z" transform="translate(-0.67 -70.39)" fill="#68e1fd"></path><path d="M217.21,289.39a5.09,5.09,0,0,1,2.16-3.46,5.68,5.68,0,0,1,0,3.39,4.7,4.7,0,0,1,0-2.85c.16-.52.6-1.11,1.13-1s.57.84.5,1.37a17.43,17.43,0,0,1-.54,2.68A4.77,4.77,0,0,1,221,287a.55.55,0,0,1,.28-.3c.31-.12.56.25.65.56a7.12,7.12,0,0,1,.27,3.24,8.73,8.73,0,0,1,.43-2.63.47.47,0,0,1,.23-.34c.19-.08.39.09.49.26a2.86,2.86,0,0,1,.31,1.36,13.9,13.9,0,0,1-1.25,6.41.91.91,0,0,1-.32.45.89.89,0,0,1-.43.11C217.58,296.37,216.58,292.7,217.21,289.39Z" transform="translate(-0.67 -70.39)" fill="url(#linear-gradient-47)"></path><path d="M254.15,311.41H254c-1.6-.21-2.68-2.1-2.39-4.2s1.81-3.65,3.42-3.43l.21,0c-1.54-.11-3,1.4-3.26,3.44S252.66,311.08,254.15,311.41Z" transform="translate(-0.67 -70.39)" fill="url(#linear-gradient-48)"></path><path d="M257.4,308c-.27,2-1.7,3.53-3.25,3.43-1.49-.33-2.47-2.15-2.19-4.16s1.72-3.55,3.26-3.44C256.7,304.16,257.67,306,257.4,308Z" transform="translate(-0.67 -70.39)" fill="url(#linear-gradient-49)"></path><path d="M257.77,308c-.28,2.1-1.82,3.64-3.42,3.42l-.2,0c1.55.1,3-1.4,3.25-3.43s-.7-3.82-2.18-4.17h.15C257,304,258.05,305.92,257.77,308Z" transform="translate(-0.67 -70.39)" fill="url(#linear-gradient-50)"></path><polygon points="251.84 233.36 249.49 238.29 248.56 238.4 250.88 234.01 251.84 233.36" fill="url(#linear-gradient-51)"></polygon><path d="M253.53,293.12" transform="translate(-0.67 -70.39)" fill="url(#linear-gradient-52)"></path></svg>