<svg id="Layer_1" data-name="Layer 1" xmlns="http://www.w3.org/2000/svg" xmlns:xlink="http://www.w3.org/1999/xlink" viewBox="0 0 382.53 318.69" width="406" height="306" class="illustration styles_illustrationTablet__1DWOa"><defs><linearGradient id="linear-gradient" x1="146" y1="26.45" x2="157.8" y2="125.68" gradientUnits="userSpaceOnUse"><stop offset="0" stop-opacity="0"></stop><stop offset="0.99"></stop></linearGradient><linearGradient id="linear-gradient-2" x1="227.15" y1="-53.31" x2="196.61" y2="511.54" gradientUnits="userSpaceOnUse"><stop offset="0" stop-opacity="0"></stop><stop offset="0.95"></stop></linearGradient><linearGradient id="linear-gradient-3" x1="277.01" y1="281.3" x2="187.32" y2="285.3" xlink:href="#linear-gradient-2"></linearGradient><linearGradient id="linear-gradient-4" x1="280.56" y1="263.11" x2="167.47" y2="248.23" xlink:href="#linear-gradient-2"></linearGradient><linearGradient id="linear-gradient-5" x1="256.93" y1="271.8" x2="161" y2="270.58" xlink:href="#linear-gradient-2"></linearGradient><linearGradient id="linear-gradient-6" x1="282.68" y1="271.73" x2="390.76" y2="270.86" xlink:href="#linear-gradient-2"></linearGradient><linearGradient id="linear-gradient-7" x1="221.13" y1="261.85" x2="204.04" y2="293.85" xlink:href="#linear-gradient-2"></linearGradient><linearGradient id="linear-gradient-8" x1="122.37" y1="253.77" x2="125.19" y2="323.2" xlink:href="#linear-gradient-2"></linearGradient></defs><title>Data maintenance</title><path d="M98.31,16.32C82.43,27.58,68.88,76.78,57.88,92-19.84,199.43,42.5,273.18,70.05,295.39c21.12,17,51.05,22.4,79.52,23.16,47.85,1.27,95.33-8.53,143.2-8.37,25.21.09,52.12,2.6,74-8.48,29.74-15,39-50,35.15-80.26s-17.55-58.95-21.58-89.17c-2.95-22.16-.81-45.46-10.87-65.9-12.81-26-43.38-42.16-74.47-48.7s-63.47-5.16-95.4-6C182.1,11.14,171.05,2,154.25.29,135-1.7,113.07,5.87,98.31,16.32Z" transform="translate(-20.24 0.03)" fill="#68e1fd" opacity="0.24" style="isolation: isolate;"></path><path d="M71.15,103.68c-2.59,27.24,4.47,55.2-1.75,81.85-2.19,9.38-6,18.4-7.2,28S63,233.8,70.42,240c4.23,3.51,9.69,5.1,14.5,7.77S94.25,255,94,260.46c-.14,3.28-2,6.41-1.55,9.66.77,5.85,7.83,8.21,13.64,9.26a875.68,875.68,0,0,0,214.09,12c11.88-.8,25.36-2.73,32.09-12.55,6.24-9.12,3.62-22.55-4.45-30.1-2-1.87-4.34-3.52-5.59-6-3.06-6,1.68-12.72,4.8-18.67,7.6-14.52,5.64-32,3.48-48.22-1.18-8.91-2.49-18.16-7.46-25.65-5.09-7.66-13.37-12.49-21.39-17-35.55-20-71.91-39-110.7-51.62C173.88,69.56,77,42.07,71.15,103.68Z" transform="translate(-20.24 0.03)" fill="#68e1fd" opacity="0.24" style="isolation: isolate;"></path><path d="M187,39.89H111.53A21.72,21.72,0,0,0,89.8,61.61v47.67H216.56V64.41Z" transform="translate(-20.24 0.03)" fill="#68e1fd"></path><path d="M187,39.89H111.53A21.72,21.72,0,0,0,89.8,61.61v47.67H216.56V64.41Z" transform="translate(-20.24 0.03)" fill="url(#linear-gradient)"></path><rect x="69.52" y="65.36" width="256.8" height="179.73" rx="28.3" fill="#68e1fd"></rect><g id="S5qw0R"><path d="M152.18,136.77v-2.09a1.76,1.76,0,0,0,.1-.3,24.26,24.26,0,0,1,2.34-7.68,15.06,15.06,0,0,1,3.06-4.51,4.08,4.08,0,0,1,4.41-1.11c.53.19,1.08.33,1.61.52a15.69,15.69,0,0,0,10.6.16c3.47-1.22,6.27-3.3,7.53-7a21.89,21.89,0,0,0,.49-12.89,4.72,4.72,0,0,1,1.19-4.84,11.32,11.32,0,0,1,2-1.66,26.55,26.55,0,0,1,11.68-4.11c2.75-.34,4.23.59,5.28,3.17,0,.06,0,.12.07.18,1.71,3.92,4.31,7,8.37,8.57a14.32,14.32,0,0,0,18.19-8.09A8.36,8.36,0,0,1,231.46,92a3.11,3.11,0,0,1,2.16-.76,21.84,21.84,0,0,1,7.4,1.63A17.25,17.25,0,0,1,248.34,98a4.31,4.31,0,0,1,.82,4.6c-.1.26-.19.53-.3.79a14.22,14.22,0,0,0-1.2,4.71,13.6,13.6,0,0,0,7,13.31c4.7,2.45,9.5,2,14.2-.11a4.57,4.57,0,0,1,5.38.86,13.31,13.31,0,0,1,1.91,2.46A29.3,29.3,0,0,1,279.89,136a4.6,4.6,0,0,1-3,5.15,17,17,0,0,0-6.95,5,13.88,13.88,0,0,0,5.34,21.74,9.35,9.35,0,0,1,2.37,1.46,5.1,5.1,0,0,1,2,4.31,21.22,21.22,0,0,1-4.55,12.5,7,7,0,0,1-7.82,2.33,17.92,17.92,0,0,0-9.63-.73,10.92,10.92,0,0,0-5.48,2.38,13.86,13.86,0,0,0-3.42,4.78,15.18,15.18,0,0,0,.27,12.09,6.71,6.71,0,0,1,.51,2.64,5.08,5.08,0,0,1-2.21,4,25.3,25.3,0,0,1-12.89,5.15,4,4,0,0,1-3-.73,6.86,6.86,0,0,1-2.08-2.76,17.77,17.77,0,0,0-4-6,13,13,0,0,0-16.31-1.94,16.53,16.53,0,0,0-6.68,8,4.83,4.83,0,0,1-4,3.25,8.46,8.46,0,0,1-2.46.05,29.76,29.76,0,0,1-10.28-3.53,15.66,15.66,0,0,1-4.27-3.28,4.39,4.39,0,0,1-1-4.66c.29-.84.67-1.65,1-2.47a13.08,13.08,0,0,0-2.91-14.38,8.87,8.87,0,0,0-4-2.26,19.94,19.94,0,0,0-10.86.33c-3.18.93-5.49.1-7.29-2.69a24.94,24.94,0,0,1-3.31-7.32c-.38-1.44-.62-2.92-.92-4.38v-.91c0-.23.09-.46.12-.69a4.61,4.61,0,0,1,3-4.08,18.41,18.41,0,0,0,7.88-6.22,12.18,12.18,0,0,0-.45-15.48,19.49,19.49,0,0,0-7.51-5.46A4.06,4.06,0,0,1,153,139C152.64,138.3,152.43,137.52,152.18,136.77Zm93.58,18a29.8,29.8,0,1,0-29.88,29.89A29.79,29.79,0,0,0,245.76,154.81Z" transform="translate(-20.24 0.03)" fill="url(#linear-gradient-2)"></path></g><path d="M264.5,274.24H98.31c-2.88,0-15.62-1.64-15.62-3.65h0c0-2,12.74-3.64,15.62-3.64H264.5Z" transform="translate(-20.24 0.03)" fill="#fff"></path><path d="M354.78,269.87v2.49A15.77,15.77,0,0,1,339,288.11H240.77a15.79,15.79,0,0,1-15.13-11.31,15.48,15.48,0,0,1-.65-4.44v-2.49a15.22,15.22,0,0,1,1.56-6.75,15.72,15.72,0,0,1,14.22-9H339A15.78,15.78,0,0,1,354.78,269.87Z" transform="translate(-20.24 0.03)" fill="#68e1fd"></path><path d="M286.41,284v4.16H240.77a15.79,15.79,0,0,1-15.13-11.31,15,15,0,0,1,3.42-.59S233.5,284,239.24,284Z" transform="translate(-20.24 0.03)" fill="url(#linear-gradient-3)"></path><path d="M219.28,262.36v16.11a4.4,4.4,0,0,1-3.72,4.37,3.17,3.17,0,0,1-.69.07,4.44,4.44,0,0,1-4.44-4.44V262.36a4.46,4.46,0,0,1,4.44-4.44,3.17,3.17,0,0,1,.69.07A4.42,4.42,0,0,1,219.28,262.36Z" transform="translate(-20.24 0.03)" fill="#68e1fd"></path><path d="M298.09,259.2s-53.65-.69-59.91,0-9.71,8.33-9.71,8.33a19,19,0,0,1-1.92-4.41,15.72,15.72,0,0,1,14.22-9h57Z" transform="translate(-20.24 0.03)" fill="url(#linear-gradient-4)"></path><rect x="196.09" y="262.81" width="18.74" height="15.61" fill="#68e1fd"></rect><rect x="206.67" y="268.37" width="65.23" height="6.42" rx="3.21" fill="url(#linear-gradient-5)"></rect><rect x="269.3" y="268.37" width="65.23" height="6.42" rx="3.21" fill="url(#linear-gradient-6)"></rect><path d="M219.28,262.36v16.11a4.4,4.4,0,0,1-3.72,4.37V258A4.42,4.42,0,0,1,219.28,262.36Z" transform="translate(-20.24 0.03)" fill="url(#linear-gradient-7)"></path><polygon points="83.5 266.98 79.16 262.99 56.09 266.11 56.09 273.74 76.91 277.73 83.33 273.92 83.5 266.98" fill="#fff"></polygon><polygon points="190.19 271.66 82.46 271.49 75.17 274.7 56.49 272.64 56.09 273.74 76.91 277.73 82.72 274.26 190.19 274.61 190.19 271.66" fill="url(#linear-gradient-8)"></polygon></svg>