<svg id="Layer_1" data-name="Layer 1" xmlns="http://www.w3.org/2000/svg" xmlns:xlink="http://www.w3.org/1999/xlink" viewBox="0 0 354.14 291.65" width="406" height="306" class="illustration styles_illustrationTablet__1DWOa"><defs><linearGradient id="linear-gradient" x1="208.45" y1="108.76" x2="203.37" y2="314.19" gradientUnits="userSpaceOnUse"><stop offset="0.01"></stop><stop offset="0.13" stop-opacity="0.69"></stop><stop offset="1" stop-opacity="0"></stop></linearGradient><linearGradient id="linear-gradient-2" x1="317.32" y1="155.05" x2="142.24" y2="165.2" xlink:href="#linear-gradient"></linearGradient><linearGradient id="linear-gradient-3" x1="420.83" y1="200.41" x2="118.79" y2="150.38" xlink:href="#linear-gradient"></linearGradient><linearGradient id="linear-gradient-4" x1="209.49" y1="172.32" x2="238.01" y2="172.32" gradientUnits="userSpaceOnUse"><stop offset="0.01" stop-color="#fff"></stop><stop offset="0.13" stop-color="#fff" stop-opacity="0.69"></stop><stop offset="1" stop-color="#fff" stop-opacity="0"></stop></linearGradient><linearGradient id="linear-gradient-5" x1="236.21" y1="190.46" x2="219.55" y2="173.02" xlink:href="#linear-gradient"></linearGradient><linearGradient id="linear-gradient-6" x1="239.38" y1="240.29" x2="240.11" y2="287.63" xlink:href="#linear-gradient"></linearGradient><linearGradient id="linear-gradient-7" x1="176.32" y1="291.24" x2="224.2" y2="241.58" xlink:href="#linear-gradient"></linearGradient><linearGradient id="linear-gradient-8" x1="279.69" y1="209.03" x2="197.51" y2="240.37" xlink:href="#linear-gradient-4"></linearGradient><linearGradient id="linear-gradient-9" x1="235.51" y1="166.5" x2="233.82" y2="192.09" xlink:href="#linear-gradient"></linearGradient><linearGradient id="linear-gradient-10" x1="1443.7" y1="1423.84" x2="1391.5" y2="1401.39" gradientTransform="matrix(0.06, -1, -1, -0.06, 1550.93, 1641.52)" xlink:href="#linear-gradient-4"></linearGradient><linearGradient id="linear-gradient-11" x1="1930.7" y1="139.68" x2="1980.06" y2="176.28" gradientTransform="matrix(-1, 0, 0, 1, 2203.2, 0)" xlink:href="#linear-gradient-4"></linearGradient><linearGradient id="linear-gradient-12" x1="1969.27" y1="127.92" x2="2127.31" y2="224.41" gradientTransform="matrix(-1, 0, 0, 1, 2203.2, 0)" xlink:href="#linear-gradient-4"></linearGradient><linearGradient id="linear-gradient-13" x1="290.17" y1="80.65" x2="217.62" y2="146.28" xlink:href="#linear-gradient"></linearGradient><linearGradient id="linear-gradient-14" x1="1957.08" y1="153.98" x2="2014.34" y2="174.35" gradientTransform="matrix(-1, 0, 0, 1, 2203.2, 0)" xlink:href="#linear-gradient-4"></linearGradient><linearGradient id="linear-gradient-15" x1="1975.84" y1="119.98" x2="1980.86" y2="119.98" gradientTransform="matrix(-1, 0, 0, 1, 2203.2, 0)" xlink:href="#linear-gradient"></linearGradient><linearGradient id="linear-gradient-16" x1="1966.69" y1="109.48" x2="1967.6" y2="124.49" gradientTransform="matrix(-1, 0, 0, 1, 2173.24, -29.87)" xlink:href="#linear-gradient"></linearGradient><linearGradient id="linear-gradient-17" x1="1981.84" y1="108.5" x2="1982.75" y2="123.51" gradientTransform="matrix(-1, 0, 0, 1, 2173.24, -29.87)" xlink:href="#linear-gradient"></linearGradient><linearGradient id="linear-gradient-18" x1="1969.55" y1="108.79" x2="1962.69" y2="81.13" gradientTransform="matrix(-1, 0, 0, 1, 2203.2, 0)" xlink:href="#linear-gradient"></linearGradient><linearGradient id="linear-gradient-19" x1="1983.94" y1="105.22" x2="1977.08" y2="77.56" gradientTransform="matrix(-1, 0, 0, 1, 2203.2, 0)" xlink:href="#linear-gradient"></linearGradient><linearGradient id="linear-gradient-20" x1="241.58" y1="168.31" x2="276.47" y2="230.05" xlink:href="#linear-gradient-4"></linearGradient><linearGradient id="linear-gradient-21" x1="196.76" y1="118.06" x2="221.38" y2="118.06" xlink:href="#linear-gradient"></linearGradient><linearGradient id="linear-gradient-22" x1="212.88" y1="118.38" x2="237.5" y2="118.38" xlink:href="#linear-gradient"></linearGradient><linearGradient id="linear-gradient-23" x1="160.03" y1="88.26" x2="175.39" y2="88.26" xlink:href="#linear-gradient"></linearGradient><linearGradient id="linear-gradient-24" x1="179.61" y1="88.26" x2="194.97" y2="88.26" xlink:href="#linear-gradient"></linearGradient></defs><title>8</title><path d="M383.7,225.18c-.56,10-1.82,20.33-5.7,29.43-.59,1.35-1.21,2.67-1.91,4a41.79,41.79,0,0,1-3.3,5.2c-10.27,13.77-28.39,19.55-45.55,20.16-1.1,0-2.17.06-3.25.06-16.07.1-32-3.22-48-4.44q-6.56-.49-13.14-.51A184,184,0,0,0,202,289.13c-32.74,11.33-64.58,32.23-98.26,32.39a76.54,76.54,0,0,1-12.92-1c-27-4.42-50.58-25.62-57.8-52a83.79,83.79,0,0,1-2.49-13.88,167.46,167.46,0,0,1,.07-27.79,632.91,632.91,0,0,1,10-74.57c4.74-25.07,10.94-50.81,26.5-71C86,56.69,112.35,51.69,143,47.43c4.33-.6,8.71-1,13.12-1.17a291.88,291.88,0,0,1,31.53.63c5.21.32,10.42.68,15.61,1,5.54.34,11.06.62,16.52.74,5.29.12,10.53.08,15.69-.22a66.31,66.31,0,0,0,15.16-2.9c18.1-5.45,35.94-16.36,54.63-15.59,19.65.82,40.09,9.09,50.58,25.74,5.62,8.95,8,19.51,10.23,29.83,7.33,33.52,14.7,67.4,17.16,101.5A304.24,304.24,0,0,1,383.7,225.18Z" transform="translate(-29.96 -29.87)" fill="#68e1fd" opacity="0.18" style="isolation: isolate;"></path><path d="M378,254.61c-.59,1.35-1.21,2.67-1.91,4a41.79,41.79,0,0,1-3.3,5.2c-10.27,13.77-28.39,19.55-45.55,20.16-1.1,0-2.17.06-3.25.06-15.66-.06-31.21-3.25-46.87-4.44-4.75-.36-9.53-.53-14.31-.51a184.12,184.12,0,0,0-59.65,10.09c-33.12,11.46-65.32,32.73-99.43,32.39a75.62,75.62,0,0,1-11.74-1c-27-4.42-50.58-25.62-57.81-52a84.82,84.82,0,0,1-2.48-13.88Z" transform="translate(-29.96 -29.87)" fill="#68e1fd"></path><path d="M378,254.61c-.59,1.35-1.21,2.67-1.91,4a41.79,41.79,0,0,1-3.3,5.2c-10.27,13.77-28.39,19.55-45.55,20.16-1.1,0-2.17.06-3.25.06-13.4-.05-26.72-2.39-40.09-3.81q-3.39-.37-6.78-.63c-4.75-.36-9.53-.53-14.31-.51a183.64,183.64,0,0,0-40.8,4.69,181.66,181.66,0,0,0-18.85,5.4c-33.12,11.46-65.32,32.73-99.43,32.39a75.62,75.62,0,0,1-11.74-1c-27-4.42-50.58-25.62-57.81-52a84.82,84.82,0,0,1-2.48-13.88Z" transform="translate(-29.96 -29.87)" fill="url(#linear-gradient)"></path><path d="M351.13,260.83c-18.76,7.83-39.92,5.85-60.24,6.75-38.56,1.73-76.37,14.35-114.89,13.08l-1,0-1.63-.07a15.24,15.24,0,0,0,.11-1.65,6.62,6.62,0,0,0,0-.77c0-.1,0-.2,0-.3,0-.29-.05-.59-.09-.88a7.08,7.08,0,0,0-.16-.8v0a6.7,6.7,0,0,0-.23-.88c0-.21-.12-.42-.19-.63a12.75,12.75,0,0,0-.49-1.21c-.1-.2-.19-.4-.29-.59a5.57,5.57,0,0,0-.33-.57c-.1-.19-.23-.37-.34-.56s-.22-.33-.35-.49-.29-.38-.43-.56l-1.35-.12c-.73-.06-1.47-.1-2.19-.12l-1,0h-.1c-26.42-.38-52.15,19.37-78.07,13.12-1-4.6,3.18-8.77,7.54-10.56s9.27-2.29,13.2-4.88c7.36-4.85,8.74-15.13,14.46-21.84,7.65-9,22.18-10.65,28.08-20.87,3.13-5.42,3-12,4.08-18.19,2.26-13.15,10-24.86,12.33-38,2.38-13.56-1.17-27.37-4-40.84a387.21,387.21,0,0,1-8.21-74,27.27,27.27,0,0,1,.84-8,291.88,291.88,0,0,1,31.53.63c5.21.32,10.42.68,15.61,1,5.54.34,11.06.62,16.52.74,5.29.12,10.53.08,15.69-.22a66.31,66.31,0,0,0,15.16-2.9c-3.67,18.4-5.34,37.13-7,55.82-.75,8.38-1.48,17,.78,25.07,3.39,12.11,13.3,22.82,11.87,35.31-.62,5.38-3.32,10.27-4.8,15.47-3.4,12-2.44,36.76,5.92,46.77,3.2,3.81,8.95,5.4,12.81,8.45,5.87,4.65,8.33,11.9,14,16.46,2.87,2.31,6.58,3.23,10.17,4A356.72,356.72,0,0,0,351.13,260.83Z" transform="translate(-29.96 -29.87)" fill="#68e1fd"></path><path d="M351.13,260.83c-18.76,7.83-39.92,5.85-60.24,6.75-38.56,1.73-76.37,14.35-114.89,13.08l-1,0-1.63-.07a15.24,15.24,0,0,0,.11-1.65,6.62,6.62,0,0,0,0-.77c0-.1,0-.2,0-.3,0-.29-.05-.59-.09-.88a7.08,7.08,0,0,0-.16-.8v0a6.7,6.7,0,0,0-.23-.88c0-.21-.12-.42-.19-.63-.14-.41-.32-.81-.49-1.21-.1-.2-.19-.4-.29-.59s-.21-.38-.33-.57-.23-.37-.34-.56-.22-.33-.35-.49-.29-.38-.43-.56q-.66-.08-1.35-.12c-.73-.06-1.47-.1-2.19-.12l-1,0h-.1c-26.42-.38-52.15,19.37-78.07,13.12-1-4.6,3.18-8.77,7.54-10.56s9.27-2.29,13.2-4.88c7.36-4.85,8.74-15.13,14.46-21.84,7.65-9,22.18-10.65,28.08-20.87,3.13-5.42,3-12,4.08-18.19,2.26-13.15,10-24.86,12.33-38,2.38-13.56-1.17-27.37-4-40.84a387.21,387.21,0,0,1-8.21-74,27.27,27.27,0,0,1,.84-8,291.88,291.88,0,0,1,31.53.63c5.21.32,10.42.68,15.61,1,5.54.34,11.06.62,16.52.74,5.29.12,10.53.08,15.69-.22a66.31,66.31,0,0,0,15.16-2.9c-3.67,18.4-5.34,37.13-7,55.82-.75,8.38-1.48,17,.78,25.07,3.39,12.11,13.3,22.82,11.87,35.31-.62,5.38-3.32,10.27-4.8,15.47-3.4,12-2.44,36.76,5.92,46.77,3.2,3.81,8.95,5.4,12.81,8.45,5.87,4.65,8.33,11.9,14,16.46,2.87,2.31,6.58,3.23,10.17,4A356.72,356.72,0,0,0,351.13,260.83Z" transform="translate(-29.96 -29.87)" fill="url(#linear-gradient-2)"></path><path d="M228,107.3c-2.67,7.72-6.67,15.36-6.22,23.52.3,5.48,2.6,10.63,4.07,15.92,5,18,.29,37.12.94,55.78a96.64,96.64,0,0,0,6.06,30.63c.75,2,1.57,4.13,1.25,6.25s-1.93,4.1-3.26,6a33.78,33.78,0,0,0-6.21,22.23l-29.78,10.55a59.08,59.08,0,0,0-5.7-32.15c-5.89,6.19-12.22,13.54-11.35,22,.25,2.45,1.09,4.84,1.05,7.31,0,2.11-1,4.41-2.84,5.32a3.92,3.92,0,0,1-1,.34,2.45,2.45,0,0,0,0-.38,10.49,10.49,0,0,0-2.06-5.37,12.84,12.84,0,0,0-5.82-4.49,10.25,10.25,0,0,0-1.23-.39c-7.39-2-14.66,2.91-9.7-8.28A105.39,105.39,0,0,1,170,239.66c2.53-3.18,5.27-6.27,6.87-10,3.81-8.91.36-19.12.9-28.8.51-9.28,4.68-17.89,7.83-26.64s5.24-18.61,1.63-27.18c-1-2.47-2.5-4.72-3.7-7.11a36.63,36.63,0,0,1-3.58-21.44c1.27-9.2,6.06-18.09,4.74-27.3-.54-3.86-2.15-7.51-2.63-11.39s.55-8.36,3.92-10.31c1.07-.62,2.37-1,3-2.06a4.81,4.81,0,0,0,.35-2.89q-.81-8.82-1.61-17.64c5.21.32,10.42.68,15.61,1-4.15,4.7-3.87,11.88-1.94,17.84s5.24,11.48,6.54,17.61a7.75,7.75,0,0,1-.36,5.38c-.81,1.42-2.34,2.25-3.64,3.23-4.35,3.23-6.92,9-5.55,14.26.59,2.29,1.88,4.34,2.88,6.48,3.36,7.11,3.76,15.21,4.1,23.07a154.48,154.48,0,0,0,.16-28.77,21.72,21.72,0,0,1,0-6.08c.79-4.07,4-7.27,5.38-11.17,2.39-6.6-.56-13.77-2.5-20.51S206,54,211.63,49.77a37.06,37.06,0,0,0-.73,19.57,96.56,96.56,0,0,1,8.89-20.72c5.29.12,10.53.08,15.69-.22q-.63,9.54-1.26,19.07C233.34,80.92,232.4,94.57,228,107.3Z" transform="translate(-29.96 -29.87)" fill="url(#linear-gradient-3)"></path><path d="M218.43,170.81c.27,1.29.63,2.75-.11,3.84a4.8,4.8,0,0,1-1.47,1.25,23.66,23.66,0,0,0-5.32,4.86,7.66,7.66,0,0,0-2,4.53c0,1.68,1.19,3.48,2.88,3.53,1.88.05,3.11-1.84,4.39-3.23a18.82,18.82,0,0,1,5.72-3.89,23.33,23.33,0,0,1,7.94-2.68c2.11-.22,4.32,0,6.26-.81a2.31,2.31,0,0,0,1-.76,2.86,2.86,0,0,0,0-2.49,63.11,63.11,0,0,0-5.74-12.5c-1.94-3.23-6.81-9.4-10.51-5.24C218.26,160.83,217.47,166.21,218.43,170.81Z" transform="translate(-29.96 -29.87)" fill="#68e1fd"></path><path d="M218.43,170.81c.27,1.29.63,2.75-.11,3.84a4.8,4.8,0,0,1-1.47,1.25,23.66,23.66,0,0,0-5.32,4.86,7.66,7.66,0,0,0-2,4.53c0,1.68,1.19,3.48,2.88,3.53,1.88.05,3.11-1.84,4.39-3.23a18.82,18.82,0,0,1,5.72-3.89,23.33,23.33,0,0,1,7.94-2.68c2.11-.22,4.32,0,6.26-.81a2.31,2.31,0,0,0,1-.76,2.86,2.86,0,0,0,0-2.49,63.11,63.11,0,0,0-5.74-12.5c-1.94-3.23-6.81-9.4-10.51-5.24C218.26,160.83,217.47,166.21,218.43,170.81Z" transform="translate(-29.96 -29.87)" fill="url(#linear-gradient-4)"></path><path d="M218.43,170.81c.27,1.29.63,2.75-.11,3.84a4.8,4.8,0,0,1-1.47,1.25,23.66,23.66,0,0,0-5.32,4.86,7.66,7.66,0,0,0-2,4.53c0,1.68,1.19,3.48,2.88,3.53,1.88.05,3.11-1.84,4.39-3.23a18.82,18.82,0,0,1,5.72-3.89,23.33,23.33,0,0,1,7.94-2.68c2.11-.22,4.32,0,6.26-.81a2.31,2.31,0,0,0,1-.76,2.86,2.86,0,0,0,0-2.49,63.11,63.11,0,0,0-5.74-12.5c-1.94-3.23-6.81-9.4-10.51-5.24C218.26,160.83,217.47,166.21,218.43,170.81Z" transform="translate(-29.96 -29.87)" fill="url(#linear-gradient-5)"></path><path d="M284.52,279.4c0,.27-.21.53-.62.78q-3.39-.37-6.78-.63c-4.75-.36-9.53-.53-14.31-.51a183.64,183.64,0,0,0-40.8,4.69c-15.64-.74-26.56-2.4-26.56-4.33,0-2.61,19.93-4.73,44.54-4.73S284.52,276.79,284.52,279.4Z" transform="translate(-29.96 -29.87)" fill="url(#linear-gradient-6)"></path><path d="M270.94,242.25v.2a51.58,51.58,0,0,1-.64,8.27,38.78,38.78,0,0,1-4.72,13.57c-.12.21-.24.42-.37.62a33.52,33.52,0,0,1-4.83,6.17c-7.58,7.66-18.52,11.34-30.3,11.34-10.64,0-20-3-26.81-9.23a30.93,30.93,0,0,1-4.77-5.51,36.83,36.83,0,0,1-5.3-12.16,54.24,54.24,0,0,1-1.48-13.07q0-.88,0-1.77c0-1.59.14-3.2.3-4.84a86.15,86.15,0,0,1,1.63-10.36c3.63-16.73,12.08-33.86,22.88-42.56,4.56-3.69,9.55-5.86,14.77-5.86C253.15,177.06,270.85,215,270.94,242.25Z" transform="translate(-29.96 -29.87)" fill="#68e1fd"></path><path d="M270.94,242.25v.2a51.58,51.58,0,0,1-.64,8.27,38.78,38.78,0,0,1-4.72,13.57c-.12.21-.24.42-.37.62a33.52,33.52,0,0,1-4.83,6.17c-7.58,7.66-18.52,11.34-30.3,11.34-10.64,0-20-3-26.81-9.23a30.93,30.93,0,0,1-4.77-5.51,36.83,36.83,0,0,1-5.3-12.16,54.24,54.24,0,0,1-1.48-13.07q0-.88,0-1.77c0-1.59.14-3.2.3-4.84a86.15,86.15,0,0,1,1.63-10.36c3.63-16.73,12.08-33.86,22.88-42.56,4.56-3.69,9.55-5.86,14.77-5.86C253.15,177.06,270.85,215,270.94,242.25Z" transform="translate(-29.96 -29.87)" fill="url(#linear-gradient-7)"></path><path d="M270.94,242.45c0,9.08-2.11,16.55-5.73,22.46-7.2,5.29-16.44,7.85-26.26,7.85-21.88,0-38.36-12.7-38.36-40,0-16.22,6.27-36.28,16-49.87,4.57-3.69,9.56-5.86,14.78-5.86C253.2,177.06,270.94,215.19,270.94,242.45Z" transform="translate(-29.96 -29.87)" fill="#68e1fd"></path><path d="M270.94,242.45c0,9.08-2.11,16.55-5.73,22.46-7.2,5.29-16.44,7.85-26.26,7.85-21.88,0-38.36-12.7-38.36-40,0-16.22,6.27-36.28,16-49.87,4.57-3.69,9.56-5.86,14.78-5.86C253.2,177.06,270.94,215.19,270.94,242.45Z" transform="translate(-29.96 -29.87)" fill="url(#linear-gradient-8)"></path><path d="M220.5,185.1c.23,0,.49.08.6.29a.71.71,0,0,1,0,.53,6.87,6.87,0,0,0-.47,2.27,5.56,5.56,0,0,0,3.19,4.74,9.82,9.82,0,0,0,5.87.72,49,49,0,0,0,5.82-1.45,49.28,49.28,0,0,1,12.07-1.74,5.4,5.4,0,0,0,2-.26,1.74,1.74,0,0,0,1.18-1.46,2.26,2.26,0,0,0-1.22-1.76,4.82,4.82,0,0,1-1.71-1.41,2.84,2.84,0,0,0-.44-.73,2,2,0,0,0-.94-.38c-1.52-.39-2.73-1.49-4.1-2.28a20.56,20.56,0,0,0-4.4-1.7l-5-1.51a8.8,8.8,0,0,0-5.49-.34,22.9,22.9,0,0,0-7.39,2.26c-.76.44-2.25,1.13-2.19,2.13S219.58,185,220.5,185.1Z" transform="translate(-29.96 -29.87)" fill="url(#linear-gradient-9)"></path><polygon points="167.86 181.61 176.25 184.5 187.82 179.5 197.54 184.5 207.52 179.5 216.72 185.55 226.18 179.5 235.21 182.53 237.48 189.49 227.49 185.41 214.35 191.33 206.06 185.41 196.62 191.85 186.37 184.5 174.15 193.43 165.56 188.44 167.86 181.61" fill="#68e1fd"></polygon><polygon points="167.86 181.61 176.25 184.5 187.82 179.5 197.54 184.5 207.52 179.5 216.72 185.55 226.18 179.5 235.21 182.53 237.48 189.49 227.49 185.41 214.35 191.33 206.06 185.41 196.62 191.85 186.37 184.5 174.15 193.43 165.56 188.44 167.86 181.61" fill="#fff"></polygon><path d="M270.94,242.25v.2a51.58,51.58,0,0,1-.64,8.27,29.55,29.55,0,0,1-5.15-4.52c-1.13-1.26-2.26-2.68-3.9-3.1-1.83-.46-3.74.52-5.15,1.79s-2.54,2.84-4.06,4a9.18,9.18,0,0,1-7.49,1.55c-2.46-.59-4.56-2.17-6.73-3.47s-4.73-2.38-7.2-1.82c-3.62.83-5.56,4.7-8.56,6.89a10.54,10.54,0,0,1-12.6-.42c-2-1.71-3.71-4.37-6.37-4.51-2.47-.15-4.41,2-5.81,4-1.15,1.67-2.36,3.51-4.08,4.42a54.24,54.24,0,0,1-1.48-13.07q0-.88,0-1.77a.46.46,0,0,1,.16.07,8.57,8.57,0,0,1,10.39-1.85c1.89,1.06,3.28,2.8,5.07,4a10.74,10.74,0,0,0,9.39,1.23c3.57-1.25,6.2-4.28,8.45-7.32,1.54-2.1,5-1.62,7.48-.89a17,17,0,0,1,6.59,4.09c2.29,2.1,4.69,4.65,7.81,4.67,3.39,0,6-3.07,7.37-6.16.57-1.25,1.1-2.64,2.26-3.36a6.17,6.17,0,0,1,2.58-.67c2.53-.26,5.36-.44,7.29,1.2s2.33,4.83,4.34,6.54Z" transform="translate(-29.96 -29.87)" fill="#fff" opacity="0.74"></path><path d="M265.58,264.29c-.12.21-.24.42-.37.62a33.52,33.52,0,0,1-4.83,6.17,20.64,20.64,0,0,1-6.32-.54c-3.26-.85-6.23-2.73-9.55-3.33-7.25-1.32-14.31,3.59-21.67,3.34-2.67-.1-5.26-.87-7.9-1.26s-5.5-.38-7.8,1c-1.4.82-2.49,2.08-3.87,2.93a30.93,30.93,0,0,1-4.77-5.51,19.93,19.93,0,0,0,8.23-2.7c2.83-1.73,5.74-4.07,9-3.61,1.71.23,3.21,1.23,4.77,2a18,18,0,0,0,8.2,1.82,10.47,10.47,0,0,0,4.72-1c1.05-.55,1.94-1.34,3-1.94,2.14-1.25,4.69-1.55,7.15-1.83a10.76,10.76,0,0,1,3.58,0c2,.45,3.48,1.93,5.22,2.94C256.3,265.58,261,265.28,265.58,264.29Z" transform="translate(-29.96 -29.87)" fill="#fff"></path><circle cx="184.17" cy="200.85" r="5.26" fill="#fff"></circle><circle cx="207.33" cy="199.2" r="5.26" fill="#fff"></circle><circle cx="226.67" cy="196.81" r="5.26" fill="#fff"></circle><path d="M198.5,230.72a5.27,5.27,0,0,1-5.26,5.26,5.17,5.17,0,0,1-1.19-.14,86.15,86.15,0,0,1,1.63-10.36A5.27,5.27,0,0,1,198.5,230.72Z" transform="translate(-29.96 -29.87)" fill="#fff"></path><path d="M198.49,256.66a1.14,1.14,0,0,0-.51.35,1.28,1.28,0,0,0-.15.58l-.07.91a1.42,1.42,0,0,0,0,.58c.16.5.78.67,1.3.65a9.77,9.77,0,0,0,2.47-.69,23.79,23.79,0,0,1,7.29-.82c.51,0,1.11-.07,1.36-.52.87-1.56-3.37-2.37-4.29-2.41A16.91,16.91,0,0,0,198.49,256.66Z" transform="translate(-29.96 -29.87)" fill="#fff"></path><path d="M226.05,254.43a4.29,4.29,0,0,0-2.57,1.68.74.74,0,0,0-.11.59c.12.37.6.42,1,.41l11.12-.37a1.73,1.73,0,0,0,1.81-2.06c-.26-1.1-1.25-1.2-2.22-1.32A22.2,22.2,0,0,0,226.05,254.43Z" transform="translate(-29.96 -29.87)" fill="#fff"></path><path d="M253.13,252.17a18.59,18.59,0,0,0-5.16.44c-.45.12-.95.35-1.06.8a1.21,1.21,0,0,0,.49,1.1,5,5,0,0,0,2.95,1.09c1.06.1,2.13,0,3.19.11,2.36.2,4.82,1.2,7,.26a.78.78,0,0,0,.32-.21c.89-1.22-1.28-3.08-2.3-3.39C256.92,251.86,254.8,252.19,253.13,252.17Z" transform="translate(-29.96 -29.87)" fill="#fff"></path><path d="M215.88,143.2a30.49,30.49,0,0,1-6.64-8.77,13.48,13.48,0,0,1-.58-10.73,7.34,7.34,0,0,0,.65-1.86,7.37,7.37,0,0,0-.38-2.53,3,3,0,0,1,.31-2.48c.54-.67,1.83-.69,2.12.12a2.16,2.16,0,0,1,2.26-1.89,2.47,2.47,0,0,1,2.17,2.12,2.36,2.36,0,0,1,2.53,2,4.15,4.15,0,0,1-1.08,3.28,3.35,3.35,0,0,0-.6.8,3.15,3.15,0,0,0-.19,1.22,30.84,30.84,0,0,0,.47,7,10.48,10.48,0,0,0,3.4,6c1.48,1.18,3.51,2,4.05,3.81a6,6,0,0,1-1.27,5.15C221,148.2,217.32,144.63,215.88,143.2Z" transform="translate(-29.96 -29.87)" fill="url(#linear-gradient-10)"></path><path d="M261.82,124.24a13.72,13.72,0,0,1,6.34,7.45,36.74,36.74,0,0,0,1.68-6.21,28.13,28.13,0,0,1,2.67,9.4,8.31,8.31,0,0,1,1.71-3.14c2.4,4.56,4.83,9.22,5.67,14.3s-.2,10.76-3.91,14.34c-1.66,1.6-4.11,2.73-6.27,1.92-2-.73-3-2.79-3.89-4.71-2-4.58-4.66-10.15-4.48-15.25.1-2.86.52-5.72.61-8.6C262,132.61,262.68,124.7,261.82,124.24Z" transform="translate(-29.96 -29.87)" fill="#68e1fd"></path><path d="M261.82,124.24a13.72,13.72,0,0,1,6.34,7.45,36.74,36.74,0,0,0,1.68-6.21,28.13,28.13,0,0,1,2.67,9.4,8.31,8.31,0,0,1,1.71-3.14c2.4,4.56,4.83,9.22,5.67,14.3s-.2,10.76-3.91,14.34c-1.66,1.6-4.11,2.73-6.27,1.92-2-.73-3-2.79-3.89-4.71-2-4.58-4.66-10.15-4.48-15.25.1-2.86.52-5.72.61-8.6C262,132.61,262.68,124.7,261.82,124.24Z" transform="translate(-29.96 -29.87)" fill="url(#linear-gradient-11)"></path><path d="M251.7,176.68c3.82.12,7.93.16,11.1-2a17.33,17.33,0,0,0,4-4.2c2.47-3.28,4.88-6.84,5.46-10.91a13.64,13.64,0,0,0-4.32-11.89c-3.86-3.45-9.3-4.37-13.92-6.71a24.63,24.63,0,0,1-12.34-14.78c2.26-.32,3.76-2.69,3.89-5s-.79-4.47-1.69-6.57L240,105.54,243.32,93c1.06-4,2.13-8,2.11-12.13s-1.26-8.39-4.22-11.25a3.88,3.88,0,0,0-3-1.34c-1.89.26-2.61,2.56-2.93,4.44a106.64,106.64,0,0,0-1.52,11.51c-.4,6.89.54,13.91-1.08,20.61-2.09,0-3.55-2-4.24-4a15.24,15.24,0,0,1-.35-6.21q1-12,2-24a3.16,3.16,0,0,0-.32-2.13c-.71-1-2.29-.84-3.41-.31a11.67,11.67,0,0,0-5.75,7.2,31.19,31.19,0,0,0-1,9.39c0,5.71.21,11.54,2.3,16.86a10.59,10.59,0,0,1,.78,2.45c.23,1.77-.63,3.5-1.51,5.05-1.93,3.39-4.15,6.75-4.79,10.6s.86,8.39,4.49,9.83c2.81,4.62,1.89,10.2,1,15.53L220,155.26c-.46,2.62-.88,5.5.48,7.78.22.38.9.66,1,.23,2.32,1.11,3.22,3.25,4.27,5.6a26.9,26.9,0,0,0,1.2,2.75c1.52,2.6,4.68,3.67,7.6,4.39a88.73,88.73,0,0,0,9.28,1.76C246.56,178.15,249.74,178.72,251.7,176.68Z" transform="translate(-29.96 -29.87)" fill="#68e1fd"></path><path d="M251.7,176.68c3.82.12,7.93.16,11.1-2a17.33,17.33,0,0,0,4-4.2c2.47-3.28,4.88-6.84,5.46-10.91a13.64,13.64,0,0,0-4.32-11.89c-3.86-3.45-9.3-4.37-13.92-6.71a24.63,24.63,0,0,1-12.34-14.78c2.26-.32,3.76-2.69,3.89-5s-.79-4.47-1.69-6.57L240,105.54,243.32,93c1.06-4,2.13-8,2.11-12.13s-1.26-8.39-4.22-11.25a3.88,3.88,0,0,0-3-1.34c-1.89.26-2.61,2.56-2.93,4.44a106.64,106.64,0,0,0-1.52,11.51c-.4,6.89.54,13.91-1.08,20.61-2.09,0-3.55-2-4.24-4a15.24,15.24,0,0,1-.35-6.21q1-12,2-24a3.16,3.16,0,0,0-.32-2.13c-.71-1-2.29-.84-3.41-.31a11.67,11.67,0,0,0-5.75,7.2,31.19,31.19,0,0,0-1,9.39c0,5.71.21,11.54,2.3,16.86a10.59,10.59,0,0,1,.78,2.45c.23,1.77-.63,3.5-1.51,5.05-1.93,3.39-4.15,6.75-4.79,10.6s.86,8.39,4.49,9.83c2.81,4.62,1.89,10.2,1,15.53L220,155.26c-.46,2.62-.88,5.5.48,7.78.22.38.9.66,1,.23,2.32,1.11,3.22,3.25,4.27,5.6a26.9,26.9,0,0,0,1.2,2.75c1.52,2.6,4.68,3.67,7.6,4.39a88.73,88.73,0,0,0,9.28,1.76C246.56,178.15,249.74,178.72,251.7,176.68Z" transform="translate(-29.96 -29.87)" fill="url(#linear-gradient-12)"></path><path d="M246.33,138a6.66,6.66,0,0,1-5.69,2.62,13.76,13.76,0,0,1-7.86-3.27c-.54-.44-5.05-6.09-4.27-6.49a5.7,5.7,0,0,1-5.28-.19,7.62,7.62,0,0,1-3.36-4.2,65,65,0,0,0,9.15,0,1.94,1.94,0,0,0,1.52-.59,2.08,2.08,0,0,0,.12-1.52,8.58,8.58,0,0,1,.73-5.61,5,5,0,0,1,3.81-2.58c2.26,0,1.66,2.94,1.14,4.36s-1.13,2.79-.77,4.19A6.24,6.24,0,0,0,237,127c2.37,2.86,4.85,5.81,8.2,7.41.75.35,1.63.76,1.8,1.57a2,2,0,0,1-.17,1.12A5.36,5.36,0,0,1,246.33,138Z" transform="translate(-29.96 -29.87)" fill="url(#linear-gradient-13)"></path><path d="M239.34,149.82c-1.9-3.6-4.91-6.79-8.79-8a7.11,7.11,0,0,0-9.66,5.67,19.36,19.36,0,0,0,.19,7.8c.88,4.93,2.32,9.89,5.29,13.92s7.71,7,12.72,6.86c.7-3.62,1.43-7.33,3.38-10.47s1-3.73,0-6.78S240.86,152.71,239.34,149.82Z" transform="translate(-29.96 -29.87)" fill="#68e1fd"></path><path d="M239.34,149.82c-1.9-3.6-4.91-6.79-8.79-8a7.11,7.11,0,0,0-9.66,5.67,19.36,19.36,0,0,0,.19,7.8c.88,4.93,2.32,9.89,5.29,13.92s7.71,7,12.72,6.86c.7-3.62,1.43-7.33,3.38-10.47s1-3.73,0-6.78S240.86,152.71,239.34,149.82Z" transform="translate(-29.96 -29.87)" fill="url(#linear-gradient-14)"></path><path d="M225.24,118.09a2.8,2.8,0,0,1,1.55.21,1,1,0,0,1,.45,1.33,1.38,1.38,0,0,1-.3.29L225,121.47a1.87,1.87,0,0,1-.67.38c-.63.15-1.2-.39-1.53-.95a2.58,2.58,0,0,1-.43-1.56C222.52,117.86,224.17,118.14,225.24,118.09Z" transform="translate(-29.96 -29.87)" fill="url(#linear-gradient-15)"></path><circle cx="206.29" cy="83.93" r="1.25" fill="url(#linear-gradient-16)"></circle><circle cx="191.14" cy="82.95" r="1.25" fill="url(#linear-gradient-17)"></circle><path d="M224.36,123.65a2.51,2.51,0,0,0,1.48,1,7.45,7.45,0,0,0,1.83.21c.09.2-.18.38-.4.44a3.5,3.5,0,0,1-2.93-.65,2.87,2.87,0,0,1-2.1.38.26.26,0,0,1-.19-.09c-.11-.16.14-.33.33-.35.51-.05,1.15.09,1.46-.32a1.23,1.23,0,0,0,.08-1c0-.2-.47-1.65,0-1.39S224.11,123.25,224.36,123.65Z" transform="translate(-29.96 -29.87)" fill="#68e1fd"></path><path d="M238.66,94.4C238,91.24,237,88.17,236.6,85a24.62,24.62,0,0,1,2-13.17.94.94,0,0,1,.4-.51.88.88,0,0,1,.78.11,5,5,0,0,1,2.55,5.24,1.11,1.11,0,0,1,.62-1,8.18,8.18,0,0,1,1.86,5.85,24,24,0,0,1-1.33,6.13l-2.84,9.15a10.52,10.52,0,0,0-.26-4.5,59.48,59.48,0,0,1-1.29,10C238.79,99.65,239.19,97.08,238.66,94.4Z" transform="translate(-29.96 -29.87)" fill="#68e1fd"></path><path d="M223.42,81.62a31.1,31.1,0,0,1,3-11.74c-2.37,1.45-3.64,4.17-4.45,6.83A33.94,33.94,0,0,0,224.43,102c-1.46-1.58-.33-7.39-.5-9.6A83,83,0,0,1,223.42,81.62Z" transform="translate(-29.96 -29.87)" fill="#68e1fd"></path><path d="M238.66,94.4C238,91.24,237,88.17,236.6,85a24.62,24.62,0,0,1,2-13.17.94.94,0,0,1,.4-.51.88.88,0,0,1,.78.11,5,5,0,0,1,2.55,5.24,1.11,1.11,0,0,1,.62-1,8.18,8.18,0,0,1,1.86,5.85,24,24,0,0,1-1.33,6.13l-2.84,9.15a10.52,10.52,0,0,0-.26-4.5,59.48,59.48,0,0,1-1.29,10C238.79,99.65,239.19,97.08,238.66,94.4Z" transform="translate(-29.96 -29.87)" fill="url(#linear-gradient-18)"></path><path d="M223.42,81.62a31.1,31.1,0,0,1,3-11.74c-2.37,1.45-3.64,4.17-4.45,6.83A33.94,33.94,0,0,0,224.43,102c-1.46-1.58-.33-7.39-.5-9.6A83,83,0,0,1,223.42,81.62Z" transform="translate(-29.96 -29.87)" fill="url(#linear-gradient-19)"></path><path d="M238.68,166.78c-1.92,3.18-1.93,7.68.67,10.34l-14,.78a4.43,4.43,0,0,0-2.1.47,1.52,1.52,0,0,0-.72,1.84,1.91,1.91,0,0,0,.88.78c3,1.57,6.73.3,10.11.78l.16,1c8.75.87,17.6,1.73,26.31.52a5.19,5.19,0,0,0,3-1.1c1.57-1.52.8-4.16,1.4-6.27s2.72-3.63,3.69-5.68a6.26,6.26,0,0,0-1.67-7.35c-2.14-1.73-5.13-1.82-7.89-1.82C251.46,161.05,242.76,159.13,238.68,166.78Z" transform="translate(-29.96 -29.87)" fill="#68e1fd"></path><path d="M238.68,166.78c-1.92,3.18-1.93,7.68.67,10.34l-9.71.54c-2.48.14-6-.27-7.66,2a2.36,2.36,0,0,0,.79,3.64,6.63,6.63,0,0,0,2.59.75c-1,1-1.82,2.72-.94,3.89a3.13,3.13,0,0,0,2.64.95,9.44,9.44,0,0,0,4.94-1.55c-.71.26-1.51.26-2.19.59s-1.2,1.24-.73,1.84a1.53,1.53,0,0,0,1.21.46c2.1.05,4.05-1,5.92-2,5.33-2.72,11.11-4.87,17.1-4.93,1.83,0,3.63.07,5.46-.09,1.43-.12,3,0,4.15-1.09,1.57-1.52.8-4.16,1.4-6.27s2.72-3.63,3.69-5.68a6.26,6.26,0,0,0-1.67-7.35c-2.14-1.73-5.13-1.82-7.89-1.82C251.46,161.05,242.76,159.13,238.68,166.78Z" transform="translate(-29.96 -29.87)" fill="#68e1fd"></path><path d="M238.68,166.78c-1.92,3.18-1.93,7.68.67,10.34l-9.71.54c-2.48.14-6-.27-7.66,2a2.36,2.36,0,0,0,.79,3.64,6.63,6.63,0,0,0,2.59.75c-1,1-1.82,2.72-.94,3.89a3.13,3.13,0,0,0,2.64.95,9.44,9.44,0,0,0,4.94-1.55c-.71.26-1.51.26-2.19.59s-1.2,1.24-.73,1.84a1.53,1.53,0,0,0,1.21.46c2.1.05,4.05-1,5.92-2,5.33-2.72,11.11-4.87,17.1-4.93,1.83,0,3.63.07,5.46-.09,1.43-.12,3,0,4.15-1.09,1.57-1.52.8-4.16,1.4-6.27s2.72-3.63,3.69-5.68a6.26,6.26,0,0,0-1.67-7.35c-2.14-1.73-5.13-1.82-7.89-1.82C251.46,161.05,242.76,159.13,238.68,166.78Z" transform="translate(-29.96 -29.87)" fill="url(#linear-gradient-20)"></path><path d="M209.61,108.33c1-.14,2.12-.27,2.85.41a1.81,1.81,0,0,0,.44.39,1.25,1.25,0,0,0,.64.06l5.58-.42a2,2,0,0,1,1.77.44,2,2,0,0,1,.32,1.09c.14,1.73.19,3.46.16,5.19a2.12,2.12,0,0,1-.34,1.34,2.06,2.06,0,0,1-1.29.56l-3.15.58a2.24,2.24,0,0,0-1.14.44,3.38,3.38,0,0,0-.68,1.5c-.61,1.75-2.49,2.67-4.21,3.35a82.41,82.41,0,0,1-13.86,4.13c1.25-2.83,1.13-6,.8-9.12-.2-1.81-1.81-8.82.44-9.47,1.58-.45,4.08.13,5.76.06A58.43,58.43,0,0,0,209.61,108.33Z" transform="translate(-29.96 -29.87)" fill="#68e1fd"></path><path d="M209.61,109.49a3.42,3.42,0,0,1,2.85.42,2,2,0,0,0,.44.38,1.25,1.25,0,0,0,.64.06l5.58-.42a2,2,0,0,1,1.77.45,1.93,1.93,0,0,1,.32,1.08c.14,1.73.19,3.46.16,5.2A2.12,2.12,0,0,1,221,118a2.17,2.17,0,0,1-1.29.56l-3.15.57a2.33,2.33,0,0,0-1.14.44,3.42,3.42,0,0,0-.68,1.51c-.61,1.74-2.49,2.66-4.21,3.34-4.48,1.78-7.45,1.36-12.18,2.33,1.26-2.82-.55-4.25-.88-7.32-.2-1.81-1.81-8.82.44-9.46,1.58-.46,4.08.12,5.76,0A55.68,55.68,0,0,0,209.61,109.49Z" transform="translate(-29.96 -29.87)" fill="url(#linear-gradient-21)"></path><path d="M225.73,108.33c1-.14,2.12-.27,2.85.41a1.81,1.81,0,0,0,.44.39,1.25,1.25,0,0,0,.64.06l5.58-.42a2,2,0,0,1,1.77.44,2,2,0,0,1,.32,1.09c.14,1.73.19,3.46.16,5.19a2.12,2.12,0,0,1-.34,1.34,2.06,2.06,0,0,1-1.29.56l-3.15.58a2.24,2.24,0,0,0-1.14.44,3.38,3.38,0,0,0-.68,1.5c-.61,1.75-2.49,2.67-4.21,3.35-4.48,1.78-6.05,3.16-10.78,4.13,1.25-2.83-2-6-2.28-9.12-.2-1.81-1.81-8.82.45-9.47,1.57-.45,4.08.13,5.75.06A58.43,58.43,0,0,0,225.73,108.33Z" transform="translate(-29.96 -29.87)" fill="#68e1fd"></path><path d="M225.73,109.49a3.42,3.42,0,0,1,2.85.42,2,2,0,0,0,.44.38,1.25,1.25,0,0,0,.64.06l5.58-.42a2,2,0,0,1,1.77.45,1.93,1.93,0,0,1,.32,1.08c.14,1.73.19,3.46.16,5.2a2.12,2.12,0,0,1-.34,1.34,2.17,2.17,0,0,1-1.29.56l-3.15.57a2.33,2.33,0,0,0-1.14.44,3.42,3.42,0,0,0-.68,1.51c-.61,1.74-2.49,2.66-4.21,3.34-4.48,1.78-6.05,2-10.78,3,1.25-2.83-2-4.89-2.28-8-.2-1.81-1.81-8.82.45-9.46,1.57-.46,4.08.12,5.75,0A55.68,55.68,0,0,0,225.73,109.49Z" transform="translate(-29.96 -29.87)" fill="url(#linear-gradient-22)"></path><circle cx="167.71" cy="88.2" r="9.36" fill="#68e1fd"></circle><circle cx="187.29" cy="88.26" r="9.36" fill="#68e1fd"></circle><circle cx="167.71" cy="88.26" r="7.68" fill="url(#linear-gradient-23)"></circle><circle cx="187.29" cy="88.26" r="7.68" fill="url(#linear-gradient-24)"></circle><path d="M238.29,136.58a30.55,30.55,0,0,1-7.67-7.88,13.58,13.58,0,0,1-1.9-10.58,7.1,7.1,0,0,0,.42-1.92,7.54,7.54,0,0,0-.69-2.47,3,3,0,0,1,0-2.5c.45-.73,1.72-.91,2.11-.14a2.17,2.17,0,0,1,2-2.16,2.49,2.49,0,0,1,2.42,1.84,2.35,2.35,0,0,1,2.75,1.65,4.12,4.12,0,0,1-.67,3.38,3.74,3.74,0,0,0-.49.87,2.83,2.83,0,0,0,0,1.23,31.35,31.35,0,0,0,1.32,6.88,10.47,10.47,0,0,0,4.12,5.51c1.61,1,3.73,1.55,4.49,3.28a5.15,5.15,0,0,1,.33,1.65,4.87,4.87,0,0,1-1,3.63C244,140.92,239.9,137.82,238.29,136.58Z" transform="translate(-29.96 -29.87)" fill="#fff"></path><path d="M383.7,225.18c-.56,10-1.82,20.33-5.7,29.43-.59,1.35-1.21,2.67-1.91,4-12.25.92-26.13,1.65-34.84-4a17.64,17.64,0,0,1-2.33-1.77c-12.54-11.22-21.54-26.12-23.28-43.06A164.52,164.52,0,0,1,329,226.2a148.32,148.32,0,0,1-10.3-34.86,137.13,137.13,0,0,1,23.32,34.75,171,171,0,0,1-12.16-51.37,202,202,0,0,1,15.73,36.08,181.54,181.54,0,0,1-6.37-55.42,443.28,443.28,0,0,1,19.58,55.86,602.67,602.67,0,0,1-8.11-74c7,10.16,10.44,22.26,13.67,34.15q5.78,21.19,10.95,42.56-.54-14.83-1.07-29.65,2.6,9.42,5.2,18.86a33.26,33.26,0,0,1,3.63-16.87c0,.23.08.47.14.7A304.24,304.24,0,0,1,383.7,225.18Z" transform="translate(-29.96 -29.87)" fill="#68e1fd"></path></svg>