<svg width="406" height="306" viewBox="0 0 406 306" fill="none" xmlns="http://www.w3.org/2000/svg">
<g clip-path="url(#clip0_328_1111)">
<path opacity="0.24" d="M386.493 232.713C386.306 234.697 385.954 236.661 385.44 238.587C384.259 243.035 382.474 247.301 380.134 251.265C366.585 274.892 340.055 288.576 313.355 294.159C286.656 299.742 259.092 298.527 231.853 299.776C195.061 301.443 158.364 307.613 121.572 305.595C104.13 304.626 86.8383 301.825 69.9825 297.237C-11.2769 297.237 28.4516 173.144 33.1231 126.098C35.1484 105.846 37.4976 84.5875 49.0617 67.8185C62.7456 47.9914 86.9742 38.115 110.676 33.7945C134.378 29.474 158.769 29.744 182.343 24.7687C220.822 16.6677 258.08 -5.1171 296.931 1.09363C335.039 7.16934 365.964 43.4684 365.944 82.0626C365.944 109.154 353.651 136.069 360.705 163.072C366.842 186.491 388.856 207.229 386.493 232.713Z" fill="#68E1FD"/>
<path opacity="0.24" d="M385.44 238.587C384.259 243.035 382.474 247.301 380.134 251.265C366.585 274.892 340.055 288.576 313.355 294.159C286.656 299.742 259.092 298.527 231.853 299.776C195.061 301.443 158.364 307.613 121.572 305.595C104.13 304.626 86.8382 301.825 69.9823 297.237C58.6883 294.159 35.3508 290.149 28.519 279.685C24.2457 273.157 23.5436 260.925 23.4019 250.616C25.9604 251.022 28.4987 251.629 30.7265 251.838C38.2874 252.567 45.9428 252.615 53.5239 252.851C69.5818 253.364 85.6509 253.708 101.731 253.884C165.738 254.563 229.697 252.457 293.609 247.565C324.271 245.207 354.882 242.214 385.44 238.587Z" fill="#68E1FD"/>
<path d="M224.765 160.318H206.699V271.726H224.765V160.318Z" fill="#68E1FD"/>
<path d="M224.765 160.318H206.699V271.726H224.765V160.318Z" fill="url(#paint0_linear_328_1111)"/>
<path d="M267.234 126.105V170.255H143.458V126.105C143.472 120.007 145.907 114.163 150.228 109.86C154.548 105.556 160.4 103.143 166.498 103.152H244.2C250.296 103.15 256.143 105.565 260.461 109.868C264.779 114.17 267.214 120.009 267.234 126.105V126.105Z" fill="#68E1FD"/>
<path d="M166.593 106.96C169.213 106.959 171.807 107.474 174.227 108.477C176.648 109.48 178.847 110.95 180.698 112.804C182.55 114.657 184.018 116.857 185.018 119.279C186.018 121.7 186.531 124.295 186.528 126.915V170.053H146.698V126.915C146.691 121.631 148.783 116.56 152.514 112.818C156.244 109.076 161.309 106.969 166.593 106.96V106.96Z" fill="url(#paint1_linear_328_1111)"/>
<path d="M267.241 126.105V170.255H190.957V123.533C188.682 111.321 180.088 105.711 173.02 103.125H244.207C250.308 103.122 256.16 105.54 260.479 109.848C264.798 114.157 267.23 120.004 267.241 126.105Z" fill="url(#paint2_linear_328_1111)"/>
<path d="M187.811 163.93H106.889C105.14 163.93 103.723 165.347 103.723 167.096V167.102C103.723 168.851 105.14 170.269 106.889 170.269H187.811C189.559 170.269 190.977 168.851 190.977 167.102V167.096C190.977 165.347 189.559 163.93 187.811 163.93Z" fill="#68E1FD"/>
<path d="M187.811 163.93H106.889C105.14 163.93 103.723 165.347 103.723 167.096V167.102C103.723 168.851 105.14 170.269 106.889 170.269H187.811C189.559 170.269 190.977 168.851 190.977 167.102V167.096C190.977 165.347 189.559 163.93 187.811 163.93Z" fill="url(#paint3_linear_328_1111)"/>
<path opacity="0.24" d="M167.876 261.958C157.365 263.834 146.948 266.272 136.302 267.298C129.403 267.973 121.788 268.317 116.779 273.117C115.589 274.133 114.801 275.541 114.558 277.086C114.268 280.408 117.744 282.723 120.843 283.945C129.896 287.523 139.745 288.549 149.453 289.17C165.283 290.176 181.181 290.19 197.012 290.203L244.268 290.25C258.215 290.25 273.701 289.683 283.692 279.949C285.67 278.025 287.412 275.648 287.743 272.908C288.296 268.466 284.928 264.294 280.857 262.437C273.809 259.217 263.264 259.885 255.582 259.062C245.597 257.955 235.552 257.347 225.507 257.225C206.191 256.99 186.895 258.575 167.876 261.958V261.958Z" fill="#68E1FD"/>
<path d="M152.538 132.613C140.744 132.613 129.315 129.035 120.438 122.439C118.129 120.752 116.05 118.771 114.254 116.546C110.878 116.168 107.626 115.052 104.729 113.278C100.541 110.785 97.0541 107.269 94.595 103.061C92.1358 98.8532 90.7846 94.0898 90.6679 89.2172C90.5512 84.3446 91.6728 79.522 93.9278 75.201C96.1827 70.8799 99.4972 67.2017 103.561 64.5106L104.857 66.4683C101.124 68.9391 98.08 72.3168 96.0087 76.2851C93.9375 80.2534 92.9073 84.6824 93.0145 89.1574C93.1218 93.6324 94.363 98.007 96.622 101.871C98.8809 105.736 102.084 108.964 105.93 111.253C107.948 112.474 110.151 113.361 112.452 113.879C111.093 111.596 110.293 109.024 110.116 106.372C110.055 104.407 110.432 102.453 111.219 100.652C112.006 98.8505 113.183 97.2464 114.666 95.9558C115.656 94.9985 116.85 94.2782 118.159 93.8491C119.468 93.42 120.856 93.2933 122.221 93.4785C123.586 93.6637 124.891 94.156 126.038 94.9183C127.184 95.6807 128.144 96.6932 128.843 97.8798C130.449 100.326 131.022 103.309 130.436 106.176C129.349 111.125 124.927 115.196 119.425 116.303C118.757 116.436 118.08 116.529 117.4 116.579C118.763 118.037 120.256 119.365 121.862 120.549C131.881 127.975 145.328 131.404 158.742 129.912L158.998 132.248C156.854 132.491 154.697 132.613 152.538 132.613V132.613ZM115.49 114.277C116.646 114.311 117.802 114.22 118.939 114.007C123.469 113.096 127.236 109.68 128.114 105.69C128.556 103.434 128.101 101.095 126.844 99.1692C126.329 98.2664 125.612 97.4948 124.75 96.9146C123.888 96.3343 122.903 95.961 121.873 95.8238C120.842 95.6866 119.794 95.7892 118.81 96.1236C117.826 96.4579 116.932 97.015 116.198 97.7515C114.982 98.8009 114.015 100.108 113.368 101.579C112.722 103.049 112.411 104.645 112.458 106.251C112.688 109.16 113.739 111.943 115.49 114.277V114.277Z" fill="white"/>
<path d="M113.471 59.6838C114.496 56.3797 116.665 53.5486 119.587 51.6976C123.273 49.4226 127.796 49.0783 132.117 48.788C130.966 49.7167 130.218 51.0543 130.031 52.5212C129.767 53.9659 129.794 55.451 129.572 56.9024C129.031 59.8943 127.475 62.6078 125.165 64.5845C122.855 66.5611 119.933 67.6796 116.894 67.751C116.32 64.6524 118.521 61.7968 120.586 59.4137C119.397 59.7636 118.326 60.4344 117.493 61.3525C116.659 62.2707 116.094 63.4007 115.861 64.6186C115.777 65.6385 115.635 66.6528 115.435 67.6565C115.246 68.2843 114.403 69.8032 113.539 69.4792C112.911 69.2429 112.863 66.9476 112.789 66.3738C112.565 64.1206 112.797 61.8455 113.471 59.6838V59.6838Z" fill="#68E1FD"/>
<path d="M80.0208 73.6174C80.0825 75.2828 80.3086 76.9381 80.6958 78.559C81.0873 80.1864 81.9517 81.6615 83.1801 82.7985C84.0396 83.402 84.8645 84.0534 85.6509 84.7495C85.6951 84.8134 85.7592 84.8609 85.8332 84.8845C86.6095 85.087 87.3656 82.0019 87.3521 81.4686C87.1979 80.2967 86.7801 79.175 86.1302 78.1877C85.5096 77.0243 84.6405 76.0118 83.5847 75.2219C82.5288 74.4321 81.3121 73.8843 80.0208 73.6174V73.6174Z" fill="#68E1FD"/>
</g>
<defs>
<linearGradient id="paint0_linear_328_1111" x1="216.205" y1="257.151" x2="214.848" y2="138.364" gradientUnits="userSpaceOnUse">
<stop stop-color="#010101" stop-opacity="0"/>
<stop offset="0.95" stop-color="#010101"/>
</linearGradient>
<linearGradient id="paint1_linear_328_1111" x1="146.665" y1="138.493" x2="186.528" y2="138.493" gradientUnits="userSpaceOnUse">
<stop stop-color="#010101" stop-opacity="0"/>
<stop offset="0.95" stop-color="#010101"/>
</linearGradient>
<linearGradient id="paint2_linear_328_1111" x1="222.172" y1="102.133" x2="214.949" y2="224.95" gradientUnits="userSpaceOnUse">
<stop stop-color="#010101" stop-opacity="0"/>
<stop offset="0.95" stop-color="#010101"/>
</linearGradient>
<linearGradient id="paint3_linear_328_1111" x1="146.901" y1="159.508" x2="147.806" y2="174.866" gradientUnits="userSpaceOnUse">
<stop stop-color="#010101" stop-opacity="0"/>
<stop offset="0.95" stop-color="#010101"/>
</linearGradient>
<clipPath id="clip0_328_1111">
<rect width="406" height="306" fill="white"/>
</clipPath>
</defs>
</svg>
