<svg id="Layer_1" data-name="Layer 1" xmlns="http://www.w3.org/2000/svg" xmlns:xlink="http://www.w3.org/1999/xlink" viewBox="0 0 480.98 430.77" width="406" height="306" class="illustration styles_illustrationTablet__1DWOa"><defs><linearGradient id="linear-gradient" x1="221.19" y1="209.35" x2="246.31" y2="186.25" gradientUnits="userSpaceOnUse"><stop offset="0" stop-color="#010101" stop-opacity="0"></stop><stop offset="0.95" stop-color="#010101"></stop></linearGradient><linearGradient id="linear-gradient-2" x1="222.38" y1="283" x2="228.37" y2="186.34" gradientTransform="translate(63.4 54.56) rotate(8.23)" xlink:href="#linear-gradient"></linearGradient><linearGradient id="linear-gradient-3" x1="245.58" y1="192.01" x2="254.56" y2="12.39" gradientTransform="translate(63.4 54.56) rotate(8.23)" xlink:href="#linear-gradient"></linearGradient><linearGradient id="linear-gradient-4" x1="193.85" y1="175.48" x2="314.47" y2="195.16" gradientTransform="translate(63.4 54.56) rotate(8.23)" xlink:href="#linear-gradient"></linearGradient><linearGradient id="linear-gradient-5" x1="271.76" y1="132.84" x2="312.18" y2="133.8" gradientTransform="translate(63.4 54.56) rotate(8.23)" xlink:href="#linear-gradient"></linearGradient><linearGradient id="linear-gradient-6" x1="161.03" y1="60.43" x2="397.7" y2="38.63" gradientTransform="translate(63.4 54.56) rotate(8.23)" gradientUnits="userSpaceOnUse"><stop offset="0" stop-color="#fff" stop-opacity="0"></stop><stop offset="0.95" stop-color="#fff"></stop></linearGradient><linearGradient id="linear-gradient-7" x1="124.43" y1="63.43" x2="330.31" y2="44.46" xlink:href="#linear-gradient-6"></linearGradient><linearGradient id="linear-gradient-8" x1="236.66" y1="47.2" x2="246.28" y2="133.17" gradientTransform="translate(63.4 54.56) rotate(8.23)" xlink:href="#linear-gradient"></linearGradient><linearGradient id="linear-gradient-9" x1="239.56" y1="128.87" x2="156.16" y2="193.03" gradientTransform="translate(63.4 54.56) rotate(8.23)" xlink:href="#linear-gradient"></linearGradient></defs><title>Smiley - Love</title><path d="M490.13,341.67c-4.08,16.64-7.74,31.42-12.81,44.52-10,25.91-25.46,45.25-60.26,59.05-43.11,17.08-90.75,7.65-134.19-3.09-35.21-8.73-70.68-18.8-106.94-18.32-26.45.35-53.89,6.21-78.62-3.1-15.65-5.89-28-17.14-37.57-30.91-8.6-12.36-14.85-26.8-19.09-41.2-16-54.75-8.89-115.84,19.25-165.42,9.75-17.21,21.89-33.08,30.46-50.89,14.09-29.26,19.12-64.44,43.06-86.36,27.15-24.89,68.51-23.68,105.19-20.27,37.86,3.54,78.65,9.18,106,35.6C370.22,86,380,125.49,410,144.7c21.22,13.58,48.82,14.25,69.88,28.11C540,212.52,503.07,288.93,490.13,341.67Z" transform="translate(-32.26 -23.85)" fill="#68e1fd" opacity="0.24" style="isolation: isolate;"></path><path d="M228.38,176.79c-4,2.2-9.3,2.85-11.54,6.82-2.32,4.14.18,9.45-1,14-.74,2.78-2.78,5-3.78,7.73-1.57,4.2-.38,9,2,12.82s5.89,6.74,9.32,9.62c1.22,1,2.58,2.11,4.18,2.15a5.24,5.24,0,0,0,3.27-1.28c2.7-2.1,4.11-5.4,5.84-8.36s4.25-5.89,7.66-6.26c2.05-.23,4.13.54,6.17.24,3.76-.54,6.13-4.43,6.94-8.14s.62-7.64,1.95-11.2c2.12-5.72,7.85-9.72,9.33-15.65,1.15-4.66-.58-9.52-2.56-13.89-3.61-8-12.76-20.77-21.22-11.22C238.75,161.17,237,172,228.38,176.79Z" transform="translate(-32.26 -23.85)" fill="#606161"></path><path d="M228.38,176.79c-4,2.2-9.3,2.85-11.54,6.82-2.32,4.14.18,9.45-1,14-.74,2.78-2.78,5-3.78,7.73-1.57,4.2-.38,9,2,12.82s5.89,6.74,9.32,9.62c1.22,1,2.58,2.11,4.18,2.15a5.24,5.24,0,0,0,3.27-1.28c2.7-2.1,4.11-5.4,5.84-8.36s4.25-5.89,7.66-6.26c2.05-.23,4.13.54,6.17.24,3.76-.54,6.13-4.43,6.94-8.14s.62-7.64,1.95-11.2c2.12-5.72,7.85-9.72,9.33-15.65,1.15-4.66-.58-9.52-2.56-13.89-3.61-8-12.76-20.77-21.22-11.22C238.75,161.17,237,172,228.38,176.79Z" transform="translate(-32.26 -23.85)" fill="url(#linear-gradient)"></path><path d="M477.32,386.19c-10,25.91-25.46,45.25-60.26,59.05-43.11,17.08-90.75,7.65-134.19-3.09-35.21-8.73-70.68-18.8-106.94-18.32-26.45.35-53.89,6.21-78.62-3.1-15.65-5.89-28-17.14-37.57-30.91,29.06-17.17,82.95-8.89,107.68-8.5q87.33,1.33,174.66,2.74Q409.72,385.11,477.32,386.19Z" transform="translate(-32.26 -23.85)" fill="#68e1fd" opacity="0.24" style="isolation: isolate;"></path><path d="M199.29,398.29l-3.1,12.5a3.5,3.5,0,0,1-1.55,2.53,4.31,4.31,0,0,1-3.11-.17,95.4,95.4,0,0,1-44-29.45q52.75-.69,105.5-.23c1.8,0,3.74.08,5.14,1.08,1.62,1.16,2,3.18,2.42,5A45.41,45.41,0,0,0,272.27,411c15.54,16.16-18.28,5.53-25.28,3.55C242.65,413.37,198.72,400.61,199.29,398.29Z" transform="translate(-32.26 -23.85)" fill="#68e1fd" opacity="0.6" style="isolation: isolate;"></path><path d="M273.85,411.66a3.75,3.75,0,0,0,.35,1.82,3.58,3.58,0,0,0,2.67,1.41,18.47,18.47,0,0,0,8.91-.77,1.58,1.58,0,0,0,.93-.61,1.34,1.34,0,0,0,0-1c-.43-1.43-1.79-2.35-2.59-3.61-2.17-3.42.24-8.06-1-11.93-.58-1.89-8.18,1-8.94,2.73C272.86,402.83,273.77,408.29,273.85,411.66Z" transform="translate(-32.26 -23.85)" fill="#f5c7c8"></path><path d="M247.91,280.62l-8.22,16.3-.93,51.29-33.38-9.44-7.33,10,45.56,18.87a12.4,12.4,0,0,0,12-8.92l17.45-59.61-1,102.29L284,403,303.8,281.39Z" transform="translate(-32.26 -23.85)" fill="#606161"></path><path d="M247.91,280.62l-8.22,16.3-.93,51.29-33.38-9.44-7.33,10,45.56,18.87a12.4,12.4,0,0,0,12-8.92l17.45-59.61-1,102.29L284,403,303.8,281.39Z" transform="translate(-32.26 -23.85)" fill="url(#linear-gradient-2)"></path><path d="M190.84,331.72a3,3,0,0,0-1.42-.21,3.13,3.13,0,0,0-1.2.59c-8.3,5.83-12.89,15.84-14.34,25.88-.3,2-.13,4.63,1.78,5.32a3.59,3.59,0,0,0,1.66.12c3.39-.4,6.16-2.87,8.31-5.52s3.94-5.64,6.56-7.82a8.35,8.35,0,0,0,1.54-1.43,7,7,0,0,0,.92-2.2,39.69,39.69,0,0,1,1.86-5c.75-1.65,2.36-3.5,2.81-5.19s-1.16-1.87-2.86-2.55S192.74,332.31,190.84,331.72Z" transform="translate(-32.26 -23.85)" fill="#606161"></path><path d="M285.67,410.09a4.17,4.17,0,0,1,1.58-.35,3.78,3.78,0,0,1,1.52.58l10.85,6a12.47,12.47,0,0,1,3.81,2.79,4.28,4.28,0,0,1,.81,4.42c-1.07,2.2-4.07,2.39-6.51,2.26a98.71,98.71,0,0,1-16.2-1.71c-3.43-.76-7-2-9.18-4.74s-2.69-7.3,1-8.16c1.62-.37,4.15.48,5.91.33A25,25,0,0,0,285.67,410.09Z" transform="translate(-32.26 -23.85)" fill="#606161"></path><path d="M320.91,312c-7-2.28-14.55-1.35-21.88-.81a192.14,192.14,0,0,1-72.78-8.77c7.46-11.53,10-25.45,12.7-38.91q7.85-38.76,19.52-76.6c.58-1.9,1.26-3.92,2.84-5.13s3.81-1.33,5.85-1.33c12.66,0,35.73-.75,46.89,6.29,7.74,4.88,2.35,25.57,2.58,34.33.4,15.31,1.82,30.56,2.94,45.83C319.88,271.13,320,311.66,320.91,312Z" transform="translate(-32.26 -23.85)" fill="#68e1fd"></path><path d="M320.93,311.94c-7-2.25-14.59-1.32-21.9-.81A192,192,0,0,1,241,306.46c-4.94-1.18-9.85-2.53-14.69-4.11,7.46-11.49,10-25.44,12.71-38.86q4.93-24.57,11.47-48.72,3.75-14,8-27.89c.55-1.9,1.26-4,2.81-5.17s3.83-1.33,5.86-1.31c12.67-.06,35.74-.73,46.89,6.27,7.76,4.9,2.38,25.58,2.58,34.36.41,15.3,1.84,30.56,2.95,45.82C319.87,271.13,320,311.68,320.93,311.94Z" transform="translate(-32.26 -23.85)" fill="url(#linear-gradient-3)"></path><path d="M280,256.29c-7.13,4.41-17.27,2.89-24.33-.84-1.11-.62-2.3-1.26-3.46-.87a4.23,4.23,0,0,0-2.1,2.41c-3,6.89-2.86,14.64-3.39,22.16A116.54,116.54,0,0,1,242,304.58a3.15,3.15,0,0,1-1.06,1.88c-4.94-1.18-9.85-2.53-14.69-4.11,7.46-11.49,10-25.44,12.71-38.86q4.93-24.57,11.47-48.72c4.27,1.95,8,5.39,11,9,4.4,5.24,8,11.15,13.16,15.63C280.12,244.2,290.23,250,280,256.29Z" transform="translate(-32.26 -23.85)" fill="url(#linear-gradient-4)"></path><path d="M329.74,235.85c-.3,4.61-1.38,9.62-5,12.48-3.08,2.42-7.48,2.71-11.16,1.37a19.92,19.92,0,0,1-9-7.29,31.33,31.33,0,0,1-5.07-25.3,10.2,10.2,0,0,1,2.22-4.77c1.22-1.29,1.71.85,3.34,1.55,1.1.48,3.53,1.82,4.12,2.87,2.49,4.42,2.61,6.93,6.17,10.55a52.93,52.93,0,0,1-1.22-17.06c.25-2.65,1.83-10.19,6.11-9.12,2.13.53,3.76,6.71,4.65,8.54A52.32,52.32,0,0,1,329.74,235.85Z" transform="translate(-32.26 -23.85)" fill="#68e1fd"></path><path d="M329.74,235.85c-.3,4.61-1.38,9.62-5,12.48-3.08,2.42-7.48,2.71-11.16,1.37a19.92,19.92,0,0,1-9-7.29,31.33,31.33,0,0,1-5.07-25.3,10.2,10.2,0,0,1,2.22-4.77c1.22-1.29,1.71.85,3.34,1.55,1.1.48,3.53,1.82,4.12,2.87,2.49,4.42,2.61,6.93,6.17,10.55a52.93,52.93,0,0,1-1.22-17.06c.25-2.65,1.83-10.19,6.11-9.12,2.13.53,3.76,6.71,4.65,8.54A52.32,52.32,0,0,1,329.74,235.85Z" transform="translate(-32.26 -23.85)" fill="url(#linear-gradient-5)"></path><circle cx="256.11" cy="117.41" r="62.02" fill="#68e1fd"></circle><path d="M349.73,150.13a62,62,0,1,1-53-70.33l.49.07A62,62,0,0,1,349.73,150.13Z" transform="translate(-32.26 -23.85)" fill="url(#linear-gradient-6)"></path><path d="M349.73,150.13a62,62,0,0,1-53.57,52.67l-.5-.07A62,62,0,0,1,296.73,79.8l.49.07A62,62,0,0,1,349.73,150.13Z" transform="translate(-32.26 -23.85)" fill="url(#linear-gradient-7)"></path><path d="M269.74,122.13s-4.88-8.2-10-3.91-4.4,15.25,9.62,23.6c0,0,17.4-8.71,12.87-19.31S269.74,122.13,269.74,122.13Z" transform="translate(-32.26 -23.85)" fill="#68e1fd"></path><path d="M309.06,124s-4.88-8.19-10-3.9-4.4,15.25,9.62,23.6c0,0,17.4-8.72,12.87-19.31S309.06,124,309.06,124Z" transform="translate(-32.26 -23.85)" fill="#68e1fd"></path><path d="M258.78,158.89l62.62.32s-4.14,24.66-30.71,24.3C259.21,183.09,258.78,158.89,258.78,158.89Z" transform="translate(-32.26 -23.85)" fill="#68e1fd"></path><path d="M258.78,158.89l62.62.32s-4.14,24.66-30.71,24.3C259.21,183.09,258.78,158.89,258.78,158.89Z" transform="translate(-32.26 -23.85)" fill="url(#linear-gradient-8)"></path><path d="M307.86,216.75s2.47-5.65,10-7.18c4.8-1,6.79-10.36,5.93-13.45s-2.7-4.33-4.25-3.41-4.44,10.88-6.72,10.53,2.16-5.72.4-6.16-2.46,1.74-5.34,4.64a29.11,29.11,0,0,0-6.93,11.2S304,216.3,307.86,216.75Z" transform="translate(-32.26 -23.85)" fill="#f5c7c8"></path><path d="M286.57,218.53a19.23,19.23,0,0,0-9.06-6.89c-4.62-1.63-7.43-9.92-6.77-13.06s2.42-4.49,4-3.67,5.12,10.58,7.37,10.09-2.51-5.57-.79-6.12,3.09,1.09,5.63,4.3a56.61,56.61,0,0,1,6.77,11.56A16.6,16.6,0,0,1,286.57,218.53Z" transform="translate(-32.26 -23.85)" fill="#f5c7c8"></path><path d="M285.76,213.37a9.4,9.4,0,0,0-.59,2.83,103.59,103.59,0,0,1-2.47,13.67,2.07,2.07,0,0,1-.58,1.17c-1,.79-2.25-.47-2.84-1.57l-11.2-20.76a34.09,34.09,0,0,0-4.51-7c-1.86-2-4.65-6.52-7.4-6.83s-21.82,4.41-11.23,30.21c2.5,6.09,6.35,11.53,10.23,16.86,3.39,4.67,7.1,9.46,12.38,11.77,5.57,2.44,12.27,1.64,17.52-1.44a27.43,27.43,0,0,0,11.26-13.93,34.22,34.22,0,0,0,.12-23.91c-.84-2.26-2.22-5.43-5-5.16A8.27,8.27,0,0,0,285.76,213.37Z" transform="translate(-32.26 -23.85)" fill="#68e1fd"></path><path d="M285.76,213.37a9.4,9.4,0,0,0-.59,2.83,103.59,103.59,0,0,1-2.47,13.67,2.07,2.07,0,0,1-.58,1.17c-1,.79-2.25-.47-2.84-1.57l-11.2-20.76a34.09,34.09,0,0,0-4.51-7c-1.86-2-4.65-6.52-7.4-6.83s-21.82,4.41-11.23,30.21c2.5,6.09,6.35,11.53,10.23,16.86,3.39,4.67,7.1,9.46,12.38,11.77,5.57,2.44,12.27,1.64,17.52-1.44a27.43,27.43,0,0,0,11.26-13.93,34.22,34.22,0,0,0,.12-23.91c-.84-2.26-2.22-5.43-5-5.16A8.27,8.27,0,0,0,285.76,213.37Z" transform="translate(-32.26 -23.85)" fill="url(#linear-gradient-9)"></path><path d="M200.8,337.69a11.78,11.78,0,0,0-2-.49,5.64,5.64,0,0,0-5.7,8.13,4,4,0,0,0,1.15,1.46,6.32,6.32,0,0,0,1.88.87c1.26.42,2.54.8,3.82,1.15a1.23,1.23,0,0,0,.63.05,1.22,1.22,0,0,0,.44-.31l2.71-2.59a7.75,7.75,0,0,0,1.7-2c.41-.83,1.36-3.8.78-4.54-.34-.42-2.12-.67-2.65-.83Z" transform="translate(-32.26 -23.85)" fill="#f5c7c8"></path><path d="M173,200.19s-4.88-8.19-10-3.9-4.4,15.25,9.62,23.6c0,0,17.4-8.72,12.87-19.31S173,200.19,173,200.19Z" transform="translate(-32.26 -23.85)" fill="#68e1fd"></path><path d="M366,175.71s-2.32-3.91-4.77-1.86-2.1,7.26,4.59,11.24c0,0,8.29-4.15,6.13-9.2S366,175.71,366,175.71Z" transform="translate(-32.26 -23.85)" fill="#68e1fd"></path><path d="M197.82,266.86s-3.65-6.12-7.48-2.91-3.28,11.37,7.18,17.61c0,0,13-6.51,9.6-14.42S197.82,266.86,197.82,266.86Z" transform="translate(-32.26 -23.85)" fill="#68e1fd"></path><path d="M382.16,250.54s-4.89-8.19-10-3.9-4.4,15.25,9.63,23.6c0,0,17.4-8.72,12.87-19.31S382.16,250.54,382.16,250.54Z" transform="translate(-32.26 -23.85)" fill="#68e1fd"></path></svg>