<svg id="Layer_1" data-name="Layer 1" xmlns="http://www.w3.org/2000/svg" xmlns:xlink="http://www.w3.org/1999/xlink" viewBox="0 0 339.56 267.44" width="406" height="306" class="illustration styles_illustrationTablet__1DWOa"><defs><linearGradient id="linear-gradient" x1="189.7" y1="98.44" x2="265.73" y2="164.33" gradientUnits="userSpaceOnUse"><stop offset="0.01"></stop><stop offset="0.13" stop-opacity="0.69"></stop><stop offset="0.25" stop-opacity="0.32"></stop><stop offset="1" stop-opacity="0"></stop></linearGradient></defs><title>3. </title><path d="M235.38,34.52" transform="translate(-39.96 -43.8)" fill="#68e1fd" opacity="0.18" style="isolation: isolate;"></path><path d="M377.94,241.52c-3.84-16.83-15.92-27.47-21.36-43.67-4.54-13.54-3.59-28.27-6.23-42.3-5.1-27.12-23.6-50.31-46-66.42s-48.63-26-74.77-34.84c-10.32-3.49-20.81-6.87-31.5-8.81a98.53,98.53,0,0,0-16.36-1.67c-28.54-.37-54.65,14.49-73.8,34.83C99.25,87.84,87.79,100.77,84,113.1c-4.39,14.21-.3,30.51-4.44,45.21-3.35,11.88-11,22-17.81,32.26C46.4,213.57,34,242.16,43,268.31c7.82,22.78,30.87,37.94,54.66,41.75s48.13-2.09,70.59-10.79c14.68-5.68,29.43-12.69,45.17-12.62,14.62.06,28.41,6.22,42.34,10.65a183.39,183.39,0,0,0,76.55,7.31c10.26-1.21,20.76-3.43,29.21-9.38C377.74,283.78,382.36,260.89,377.94,241.52ZM241.71,138c-.51-.2-1.06-.4-1.64-.6A68.8,68.8,0,0,0,229.59,135a1.45,1.45,0,0,0-.86-.17v0c0,.14-.06.72-.16,1.55-.32,3-1.16,9.2-2.53,9.2a20.47,20.47,0,0,1-18-10.81c-.3-.55-.57-1.11-.82-1.69a20.49,20.49,0,0,1,17.71-28.44c.38,0,.77,0,1.16,0a20.49,20.49,0,0,1,20.49,20.49C246.53,131.27,245.37,135,241.71,138Z" transform="translate(-39.96 -43.8)" fill="#68e1fd" opacity="0.18" style="isolation: isolate;"></path><ellipse cx="176.06" cy="215.01" rx="87.85" ry="9.37" fill="#68e1fd" opacity="0.17"></ellipse><path d="M182.63,150.66A98.7,98.7,0,0,1,167.29,148c-5.66-1.56-9-3.51-9-5.63,0-3.13,7.33-5.9,18.58-7.58l.61,1.69c-9.1,1.39-14.91,3.51-14.91,5.89,0,1.73,3.09,3.33,8.29,4.61l.16,0a92.74,92.74,0,0,0,10.93,1.84Z" transform="translate(-39.96 -43.8)" fill="#fff"></path><path d="M243.91,142.35c0,1.73-3.08,3.33-8.28,4.61l-.16,0c-7.44,1.8-19.11,3-32.24,3s-24.8-1.16-32.23-3l-.16,0c-5.2-1.28-8.29-2.88-8.29-4.61,0-4.22,18.22-7.62,40.68-7.62S243.91,138.13,243.91,142.35Z" transform="translate(-39.96 -43.8)" fill="#fff"></path><path d="M246.82,169v87c0,5.14-19.82,9.31-44.27,9.31s-44.28-4.17-44.28-9.31V169a12.09,12.09,0,0,1,12.09-12.08h64.37A12.08,12.08,0,0,1,246.82,169Z" transform="translate(-39.96 -43.8)" fill="#fff"></path><path d="M243.05,183.5v68.64c0,4.71-18.13,8.52-40.5,8.52S162,256.85,162,252.14V183.5c0,3.76,18.13,6.8,40.51,6.8S243.05,187.26,243.05,183.5Z" transform="translate(-39.96 -43.8)" fill="#68e1fd" opacity="0.45"></path><path d="M243,174.87v8.41c-.71-3.65-18.56-6.57-40.48-6.57-20.2,0-36.94,2.48-40,5.72a1.7,1.7,0,0,0-.25.31v-7.87A10.69,10.69,0,0,1,173,164.18h59.35A10.7,10.7,0,0,1,243,174.87Z" transform="translate(-39.96 -43.8)" fill="#68e1fd" opacity="0.18" style="isolation: isolate;"></path><path d="M162.55,182.43a1.55,1.55,0,0,0-.51,1.07v-1.23Z" transform="translate(-39.96 -43.8)" fill="#68e1fd" opacity="0.45"></path><path d="M243.05,183.27v.23a1.64,1.64,0,0,0,0-.22Z" transform="translate(-39.96 -43.8)" fill="#68e1fd" opacity="0.45"></path><path d="M243.05,183.5a1.8,1.8,0,0,1,0,.22c-.68,3.66-18.54,6.58-40.48,6.58-20.84,0-38-2.64-40.25-6a1.39,1.39,0,0,1-.26-.77,1.29,1.29,0,0,1,.26-.76,1.7,1.7,0,0,1,.25-.31c3.06-3.24,19.8-5.72,40-5.72,21.92,0,39.77,2.92,40.48,6.57A1.64,1.64,0,0,1,243.05,183.5Z" transform="translate(-39.96 -43.8)" fill="#68e1fd" opacity="0.77"></path><path d="M243.91,142.35c0,1.73-3.08,3.33-8.28,4.61l-.16,0c-7.44,1.8-19.11,3-32.24,3s-24.8-1.16-32.23-3l-.16,0c-5.2-1.28-8.29-2.88-8.29-4.61,0-4.22,18.22-7.62,40.68-7.62S243.91,138.13,243.91,142.35Z" transform="translate(-39.96 -43.8)" fill="#68e1fd" opacity="0.18" style="isolation: isolate;"></path><path d="M235.47,147c-7.44,1.8-19.11,3-32.24,3s-24.8-1.16-32.23-3c7.43-1.81,19.11-3,32.23-3S228,145.19,235.47,147Z" transform="translate(-39.96 -43.8)" fill="#68e1fd" opacity="0.18" style="isolation: isolate;"></path><path d="M212.81,162.67S223.26,168,223.64,174s0,89.84,0,89.84l11.29-1.49V173.73s.89-6.75-8.58-12.27Z" transform="translate(-39.96 -43.8)" fill="#fff" opacity="0.27"></path><polygon points="173.46 169.17 171.1 171.54 168.07 173.68 142.67 106.86 141.97 105.04 141.94 104.95 137.5 92.66 136.89 90.97 129.62 70.84 102.52 61.62 99.13 60.47 93.2 58.45 93.52 57.2 95.27 50.38 95.49 50.46 99.19 51.79 133.75 64.27 143.55 90.15 144.18 91.82 149.44 105.71 150.11 107.48 173.46 169.17" fill="#68e1fd"></polygon><polygon points="150.7 110.18 147.94 120.66 149.71 125.55 152.54 115.07 150.7 110.18" fill="#fff"></polygon><polygon points="154.92 120.91 152.16 131.39 153.93 136.29 156.76 125.8 154.92 120.91" fill="#fff"></polygon><polygon points="158.79 130.78 156.04 141.26 157.81 146.16 160.63 135.67 158.79 130.78" fill="#fff"></polygon><polygon points="145.72 105.38 141.94 104.95 129.62 70.84 93.2 58.45 93.52 57.2 95.41 54.69 131.87 68.68 145.72 105.38" fill="#fff" opacity="0.42"></polygon><polygon points="141.51 85.39 138.76 95.86 140.53 100.76 143.35 90.28 141.51 85.39" fill="#fff"></polygon><polygon points="144.89 94.61 142.13 105.09 143.9 109.98 146.73 99.5 144.89 94.61" fill="#fff"></polygon><ellipse cx="134.08" cy="98.17" rx="4.15" ry="1.34" transform="translate(-33.28 161.08) rotate(-76.16)" fill="#473f47"></ellipse><polygon points="102.23 52.91 102.52 61.62 98.25 60.17 98.53 51.58 102.23 52.91" fill="#fff"></polygon><polygon points="110.96 56.04 111.41 64.64 106.37 62.93 106.37 54.34 110.96 56.04" fill="#fff"></polygon><polygon points="116.49 58.03 116.49 66.35 120.45 67.69 120.44 59.46 116.49 58.03" fill="#fff"></polygon><polyline points="128.33 62.13 128.44 70.37 125.3 69.3 124.63 60.8" fill="#fff"></polyline><polygon points="134.76 66.94 132 77.42 133.77 82.32 136.59 71.83 134.76 66.94" fill="#fff"></polygon><polygon points="138.13 76.17 135.38 86.64 137.15 91.54 139.97 81.06 138.13 76.17" fill="#fff"></polygon><path d="M246.82,142.35v11.26s0,.07,0,.19,0,.13,0,.22-.05.2-.09.33c-.74,2-4.52,3.83-10.37,5.28-8.11,2-20.23,3.29-33.76,3.29s-25.66-1.28-33.78-3.29c-5.82-1.44-9.59-3.26-10.35-5.26a1.89,1.89,0,0,1-.1-.35c0-.08,0-.16,0-.22s0-.19,0-.19V142.35c1.4,3,6.3,4.86,8.88,5.67l.14,0c8.08,2.23,20.87,3.67,35.26,3.67s27.17-1.44,35.26-3.67l.13,0C240.53,147.2,245.42,145.32,246.82,142.35Z" transform="translate(-39.96 -43.8)" fill="#fff"></path><path d="M189.4,149.51c-2.63-.18-5.13-.4-7.47-.67l.7,1.82q3.56.38,7.44.62Z" transform="translate(-39.96 -43.8)" fill="#fff"></path><path d="M246.82,142.35c0,2.12-3.35,4.07-9,5.63-8.09,2.23-20.87,3.67-35.26,3.67-4.34,0-8.52-.13-12.48-.37l-.67-1.77c4.32.29,9,.45,13.83.45,13.13,0,24.8-1.16,32.24-3l.16,0c5.2-1.28,8.28-2.88,8.28-4.61,0-1.15-1.34-2.23-3.75-3.21a42.46,42.46,0,0,0-7.29-2c-1.34-.27-2.77-.52-4.3-.74A166.49,166.49,0,0,0,208,134.78c-1.56,0-3.15-.05-4.76-.05-6.9,0-13.4.32-19.09.89l-.63-1.67a189.37,189.37,0,0,1,19-.91c1.56,0,3.1,0,4.62.05a167.76,167.76,0,0,1,21.56,1.75l.86.14a60.58,60.58,0,0,1,12.12,3C245,139.3,246.82,140.77,246.82,142.35Z" transform="translate(-39.96 -43.8)" fill="#fff"></path><path d="M192.85,194.38a5.36,5.36,0,0,1,2.28-.17,5,5,0,0,1,1.9,1,41.9,41.9,0,0,1,9.41,10,3.87,3.87,0,0,1,.58,1.1,4.2,4.2,0,0,1,0,1.73,65.65,65.65,0,0,1-3,12.51,3.46,3.46,0,0,1-.81,1.48,3.55,3.55,0,0,1-1.88.71q-8.25,1.38-16.58,2.09a1.85,1.85,0,0,1-2.19-1.07l-6-9.22a6.72,6.72,0,0,1-1.48-3.87,6.32,6.32,0,0,1,.43-1.75c.71-2,1.52-3.94,2.41-5.85.79-1.67,1.64-4.27,3-5.58,1.17-1.16,3.29-1.2,4.85-1.55Z" transform="translate(-39.96 -43.8)" fill="#fff"></path><path d="M194.07,197.45c.18,3-1.81,5.55-2.68,8.38a3.84,3.84,0,0,0-.15,2.22,4.32,4.32,0,0,0,.77,1.33,47.74,47.74,0,0,0,10,9.84,19.34,19.34,0,0,0,4.18-10.78,4.1,4.1,0,0,0-.14-1.6,4.72,4.72,0,0,0-1.38-1.74,74.27,74.27,0,0,1-6.1-6.32c-.93-1.1-2-2.32-3.46-2.4a.31.31,0,0,0-.25.05.35.35,0,0,0-.12.21l-.85,2.5" transform="translate(-39.96 -43.8)" fill="#68e1fd" opacity="0.22"></path><path d="M234,196.36a5.33,5.33,0,0,1,1.74,1.49,4.94,4.94,0,0,1,.62,2.07,41.79,41.79,0,0,1-.35,13.71,4.43,4.43,0,0,1-.36,1.19,4.33,4.33,0,0,1-1.21,1.24,67.31,67.31,0,0,1-10.94,6.77,3.5,3.5,0,0,1-1.62.48,3.58,3.58,0,0,1-1.83-.82q-6.82-4.83-13.24-10.2a1.85,1.85,0,0,1-.8-2.3l2.26-10.75a6.79,6.79,0,0,1,1.68-3.78,6.12,6.12,0,0,1,1.55-.94q2.85-1.36,5.82-2.45c1.75-.64,4.18-1.88,6.05-1.87,1.64,0,3.18,1.46,4.53,2.32Z" transform="translate(-39.96 -43.8)" fill="#fff"></path><path d="M232.7,199.4c-2,2.22-5.2,2.66-7.81,4a3.9,3.9,0,0,0-1.68,1.48,4.44,4.44,0,0,0-.39,1.48,47.74,47.74,0,0,0,.16,14,19.27,19.27,0,0,0,10.55-4.71,3.88,3.88,0,0,0,1-1.22,4.74,4.74,0,0,0,.25-2.22,73.48,73.48,0,0,1,.13-8.78c.11-1.44.2-3.07-.76-4.14a.42.42,0,0,0-.22-.15.39.39,0,0,0-.23.07l-2.37,1.18" transform="translate(-39.96 -43.8)" fill="#68e1fd" opacity="0.22"></path><path d="M213.27,225.38a5.33,5.33,0,0,1,1.74,1.49,5.09,5.09,0,0,1,.62,2.07,42.07,42.07,0,0,1-.36,13.71,3.81,3.81,0,0,1-.36,1.19,4.33,4.33,0,0,1-1.21,1.24,66.8,66.8,0,0,1-10.93,6.77,3.54,3.54,0,0,1-1.63.48,3.59,3.59,0,0,1-1.82-.82q-6.82-4.83-13.24-10.2a2.5,2.5,0,0,1-.84-1,2.42,2.42,0,0,1,0-1.28l2.26-10.75a6.72,6.72,0,0,1,1.68-3.78,6.24,6.24,0,0,1,1.54-.94c1.9-.91,3.85-1.73,5.83-2.45,1.74-.64,4.18-1.88,6-1.87,1.64,0,3.17,1.46,4.53,2.32Z" transform="translate(-39.96 -43.8)" fill="#fff"></path><path d="M212,228.42c-1.95,2.22-5.2,2.66-7.8,4.05a3.84,3.84,0,0,0-1.68,1.48,4.38,4.38,0,0,0-.39,1.48,47.74,47.74,0,0,0,.15,14,19.37,19.37,0,0,0,10.56-4.71,3.94,3.94,0,0,0,1-1.23,4.69,4.69,0,0,0,.25-2.21,71.44,71.44,0,0,1,.13-8.78c.11-1.44.2-3.07-.77-4.14a.42.42,0,0,0-.22-.15.39.39,0,0,0-.23.07l-2.36,1.18" transform="translate(-39.96 -43.8)" fill="#68e1fd" opacity="0.22"></path><path d="M207.17,133.09A176.64,176.64,0,0,1,226,134.45c-.1,2-.7,11.14-2.29,11.14a20.49,20.49,0,0,1,0-41c.39,0,.78,0,1.16,0a20.49,20.49,0,0,0-17.71,28.44Z" transform="translate(-39.96 -43.8)" fill="#68e1fd"></path><path d="M207.17,133.09A176.64,176.64,0,0,1,226,134.45c-.1,2-.7,11.14-2.29,11.14a20.49,20.49,0,0,1,0-41c.39,0,.78,0,1.16,0a20.49,20.49,0,0,0-17.71,28.44Z" transform="translate(-39.96 -43.8)" fill="url(#linear-gradient)"></path><path d="M227.66,134.68l-1.65-.23c0-.25,0-.39,0-.39C226.38,134,227,134.23,227.66,134.68Z" transform="translate(-39.96 -43.8)" fill="#68e1fd"></path><path d="M244.21,125.1c0,5.77-1,9.4-4.14,12.3A68.8,68.8,0,0,0,229.59,135a1.45,1.45,0,0,0-.86-.17v0a167.76,167.76,0,0,0-21.56-1.75,20.49,20.49,0,0,1,17.71-28.44A20.49,20.49,0,0,1,244.21,125.1Z" transform="translate(-39.96 -43.8)" fill="#68e1fd"></path><path d="M246.53,125.1c0,6.17-1.16,9.9-4.82,12.9-.51-.2-1.06-.4-1.64-.6A68.8,68.8,0,0,0,229.59,135a1.45,1.45,0,0,0-.86-.17v0c0,.14-.06.72-.16,1.55-.32,3-1.16,9.2-2.53,9.2a20.47,20.47,0,0,1-18-10.81c-.3-.55-.57-1.11-.82-1.69a20.49,20.49,0,0,1,17.71-28.44c.38,0,.77,0,1.16,0A20.49,20.49,0,0,1,246.53,125.1Z" transform="translate(-39.96 -43.8)" fill="#68e1fd"></path><path d="M224.18,140.07l2.76-8.62a1.23,1.23,0,0,0-1.54-1.56l-12.2,3.75a1.24,1.24,0,0,0-.71,1.8c1,1.79,3.66,4.75,10.36,5.48A1.24,1.24,0,0,0,224.18,140.07Z" transform="translate(-39.96 -43.8)" fill="#fff" opacity="0.53"></path><path d="M211.39,131.77s15.69-4.72,15.45-5.56-16.36-8.31-16.36-8.31S205.21,123.89,211.39,131.77Z" transform="translate(-39.96 -43.8)" fill="#fff" opacity="0.53"></path><path d="M241.17,133s-10.48-5.87-10.73-6.71,11.75-3.85,11.75-3.85A19.58,19.58,0,0,1,241.17,133Z" transform="translate(-39.96 -43.8)" fill="#fff" opacity="0.53"></path><path d="M212.32,115.3l16.23,9.54-.89-16.67S219.09,105.5,212.32,115.3Z" transform="translate(-39.96 -43.8)" fill="#fff" opacity="0.53"></path><path d="M230.58,109l-.46,15.17,11.54-3.34S238.75,109.51,230.58,109Z" transform="translate(-39.96 -43.8)" fill="#fff" opacity="0.53"></path><polygon points="190.15 86.7 189.63 91.18 199.21 93.31 190.15 86.7" fill="#fff" opacity="0.53"></polygon><path d="M170.42,181.21a10.75,10.75,0,0,0-.89,3.5,5.46,5.46,0,0,0,1.06,3.35,2.13,2.13,0,0,0,.85.73,1.77,1.77,0,0,0,1.45-.17c1.49-.83,1.86-2.78,2.07-4.48a11.27,11.27,0,0,0,0-3.71c-.23-1-.8-4.82-1.66-4.77C171.72,175.75,170.83,180.11,170.42,181.21Z" transform="translate(-39.96 -43.8)" fill="#fff" opacity="0.53"></path><path d="M163.44,203.41a10.73,10.73,0,0,0-.88,3.5,5.46,5.46,0,0,0,1.06,3.35,2,2,0,0,0,.85.73,1.72,1.72,0,0,0,1.44-.18c1.5-.82,1.87-2.77,2.08-4.47a11,11,0,0,0,0-3.71c-.22-1-.8-4.82-1.66-4.77C164.75,198,163.85,202.31,163.44,203.41Z" transform="translate(-39.96 -43.8)" fill="#fff" opacity="0.53"></path><path d="M175.72,200.74a10.75,10.75,0,0,0-.89,3.5,5.53,5.53,0,0,0,1.07,3.35,2,2,0,0,0,.84.72,1.73,1.73,0,0,0,1.45-.17c1.5-.83,1.87-2.78,2.08-4.47a11,11,0,0,0,0-3.71c-.22-1.05-.8-4.82-1.66-4.77C177,195.28,176.13,199.63,175.72,200.74Z" transform="translate(-39.96 -43.8)" fill="#fff" opacity="0.53"></path><path d="M164.17,240.75a5.65,5.65,0,0,0-.47,1.88,2.93,2.93,0,0,0,.57,1.81,1.09,1.09,0,0,0,.46.39.94.94,0,0,0,.78-.09,3,3,0,0,0,1.11-2.41,5.61,5.61,0,0,0,0-2c-.12-.57-.43-2.6-.89-2.58C164.88,237.8,164.4,240.15,164.17,240.75Z" transform="translate(-39.96 -43.8)" fill="#fff" opacity="0.53"></path><path d="M167.32,220.1a7.21,7.21,0,0,0-.6,2.35,3.64,3.64,0,0,0,.72,2.25,1.39,1.39,0,0,0,.56.49,1.21,1.21,0,0,0,1-.12c1-.55,1.25-1.86,1.39-3a7.44,7.44,0,0,0,0-2.49c-.15-.7-.54-3.24-1.11-3.2C168.19,216.44,167.6,219.36,167.32,220.1Z" transform="translate(-39.96 -43.8)" fill="#fff" opacity="0.53"></path><path d="M176.45,235.27a4.31,4.31,0,0,0-.34,1.37,2.17,2.17,0,0,0,.41,1.31.87.87,0,0,0,.34.29.69.69,0,0,0,.56-.07,2.17,2.17,0,0,0,.82-1.75,4.21,4.21,0,0,0,0-1.46c-.09-.41-.31-1.89-.65-1.87C177,233.13,176.62,234.83,176.45,235.27Z" transform="translate(-39.96 -43.8)" fill="#fff" opacity="0.53"></path><path d="M213.42,213a11,11,0,0,0-.88,3.5,5.46,5.46,0,0,0,1.06,3.35,2.13,2.13,0,0,0,.85.73,1.77,1.77,0,0,0,1.45-.18c1.49-.83,1.86-2.77,2.07-4.47a11.28,11.28,0,0,0,0-3.71c-.23-1.05-.81-4.82-1.67-4.77C214.73,207.51,213.84,211.87,213.42,213Z" transform="translate(-39.96 -43.8)" fill="#fff" opacity="0.53"></path><path d="M214.56,246.77a11,11,0,0,0-.88,3.5,5.46,5.46,0,0,0,1.06,3.35,2.13,2.13,0,0,0,.85.73,1.77,1.77,0,0,0,1.45-.17c1.49-.83,1.86-2.78,2.07-4.48a11.27,11.27,0,0,0,0-3.71c-.23-1-.81-4.82-1.67-4.77C215.87,241.31,215,245.67,214.56,246.77Z" transform="translate(-39.96 -43.8)" fill="#fff" opacity="0.53"></path><path d="M223.41,242a10.69,10.69,0,0,0-.89,3.49,5.44,5.44,0,0,0,1.06,3.35,2.06,2.06,0,0,0,.85.73,1.73,1.73,0,0,0,1.45-.17c1.49-.83,1.86-2.78,2.07-4.48a11.27,11.27,0,0,0,0-3.71c-.23-1-.8-4.82-1.66-4.77C224.71,236.51,223.82,240.86,223.41,242Z" transform="translate(-39.96 -43.8)" fill="#fff" opacity="0.53"></path><path d="M212.7,174.6a11,11,0,0,0-.88,3.5,5.46,5.46,0,0,0,1.06,3.35,2.13,2.13,0,0,0,.85.73,1.74,1.74,0,0,0,1.44-.17c1.5-.83,1.87-2.78,2.08-4.48a11.27,11.27,0,0,0,0-3.71c-.23-1-.81-4.82-1.67-4.77C214,169.14,213.12,173.5,212.7,174.6Z" transform="translate(-39.96 -43.8)" fill="#fff" opacity="0.53"></path><path d="M175.91,251.36a7,7,0,0,0-.57,2.23,3.47,3.47,0,0,0,.68,2.13,1.21,1.21,0,0,0,.54.46,1.07,1.07,0,0,0,.92-.11c1-.52,1.19-1.76,1.32-2.84a7.19,7.19,0,0,0,0-2.36c-.14-.67-.51-3.07-1.06-3C176.74,247.89,176.17,250.66,175.91,251.36Z" transform="translate(-39.96 -43.8)" fill="#fff" opacity="0.53"></path></svg>