<svg id="Layer_1" data-name="Layer 1" xmlns="http://www.w3.org/2000/svg" xmlns:xlink="http://www.w3.org/1999/xlink" viewBox="0 0 404.86 313.38" width="406" height="306" class="illustration styles_illustrationTablet__1DWOa"><defs><linearGradient id="linear-gradient" x1="164.82" y1="228.41" x2="165.31" y2="282.65" gradientTransform="translate(-103.43 -73.21)" gradientUnits="userSpaceOnUse"><stop offset="0" stop-opacity="0"></stop><stop offset="0.99"></stop></linearGradient><linearGradient id="linear-gradient-2" x1="222.09" y1="151.43" x2="114.1" y2="263.33" gradientTransform="matrix(1, 0, 0, 1, 0, 0)" xlink:href="#linear-gradient"></linearGradient><linearGradient id="linear-gradient-3" x1="298.15" y1="157.39" x2="340.5" y2="431.67" gradientTransform="translate(13.97 7.37) rotate(0.46)" xlink:href="#linear-gradient"></linearGradient><linearGradient id="linear-gradient-4" x1="361.09" y1="253.04" x2="362.06" y2="334.39" gradientTransform="translate(11.7 10.25)" xlink:href="#linear-gradient"></linearGradient><linearGradient id="linear-gradient-5" x1="237.48" y1="24.66" x2="262.65" y2="187.72" gradientTransform="matrix(1, 0, 0, 1, 0, 0)" xlink:href="#linear-gradient"></linearGradient><linearGradient id="linear-gradient-6" x1="353.67" y1="118.9" x2="340.48" y2="80.34" gradientTransform="matrix(1, 0, 0, 1, 0, 0)" xlink:href="#linear-gradient"></linearGradient><linearGradient id="linear-gradient-7" x1="450.23" y1="48.18" x2="264.31" y2="55.02" gradientTransform="matrix(1, 0, 0, 1, 0, 0)" xlink:href="#linear-gradient"></linearGradient><linearGradient id="linear-gradient-8" x1="330.64" y1="0.48" x2="349.21" y2="155.38" gradientUnits="userSpaceOnUse"><stop offset="0.02" stop-color="#fff" stop-opacity="0"></stop><stop offset="0.32" stop-color="#fff" stop-opacity="0.39"></stop><stop offset="0.68" stop-color="#fff" stop-opacity="0.68"></stop><stop offset="1" stop-color="#fff"></stop></linearGradient><linearGradient id="linear-gradient-9" x1="336.81" y1="110.73" x2="382.86" y2="127.96" gradientTransform="matrix(1, 0, 0, 1, 0, 0)" xlink:href="#linear-gradient"></linearGradient><linearGradient id="linear-gradient-10" x1="379.08" y1="116.33" x2="356.73" y2="102.53" gradientTransform="matrix(1, 0, 0, 1, 0, 0)" xlink:href="#linear-gradient"></linearGradient></defs><title>network 1</title><path d="M248.24,27.52c-9.66-5.51-21.16-8.6-32-6.17C209,23,202.49,26.92,196.15,30.8l-57,34.93c-13.07,8-26.66,16.53-34.47,29.72-4.38,7.39-6.65,15.81-10.26,23.6-7.55,16.35-21,30.07-25.08,47.61-5.63,24.07,8.21,49,27,65.13s42.06,25.73,63.52,38c13.44,7.69,26.28,16.49,40.28,23.12a133.62,133.62,0,0,0,41,12.06c10.1,1.21,20.62,1.11,30.09-2.6,23.29-9.13,33.37-36.35,52.36-52.64,9.84-8.45,21.91-13.78,32.9-20.68s21.46-16.19,24.95-28.69c4.47-16-3.77-33.07-15.06-45.27s-25.6-21.25-37.26-33.1c-14.28-14.5-20.2-33-31.7-49.2C285.4,56,266.08,37.7,248.24,27.52Z" transform="translate(-7.87 -3.3)" fill="#68e1fd" opacity="0.24" style="isolation: isolate;"></path><path d="M320,220.4c-10.59,2.26-18.57,10.73-25.83,18.76L283,251.56c-3,3.28-6,6.77-7,11.09-1.83,8.54,5.19,16.19,11.61,22.11L313,308.11c3,2.77,6.09,5.59,9.89,7.09,4,1.57,8.43,1.53,12.73,1.46,9.25-.16,19.21-.57,26.55-6.19,5.6-4.29,8.83-11,14.08-15.73,15.67-14.08,23.61-26.57,3.24-40.47C361.83,242.24,344.42,215.17,320,220.4Z" transform="translate(-7.87 -3.3)" fill="#68e1fd" opacity="0.24" style="isolation: isolate;"></path><path d="M100.49,91.73c4,2.76,8.07,5.43,11.3,9a31,31,0,0,1,7.37,23.06,40.24,40.24,0,0,1-9.74,22.48c-3.23,3.81-7.07,7.1-10,11.12-2,2.72-3.61,5.74-5.64,8.46A34.37,34.37,0,0,1,70.47,179a39,39,0,0,1-26.11-6.54c-11.37-7.66-18.16-20.28-26.75-31-2.9-3.61-6.09-7.1-7.89-11.36-2.64-6.26-2-13.37-1-20.08C9.52,105,10.6,99.67,14,95.83c4.18-4.7,10.87-6.09,16.22-9.4C41,79.8,49,63.67,63.66,65.56c6.52.84,11.84,5.79,16.58,9.92A244.87,244.87,0,0,0,100.49,91.73Z" transform="translate(-7.87 -3.3)" fill="#68e1fd" opacity="0.24" style="isolation: isolate;"></path><path d="M295.69,26.5c-7.94,7.16-15.69,15.42-18.12,25.83-2.81,12,2,24.48,8.69,34.78S301.59,106.39,307.8,117c1.95,3.31,3.75,6.89,6.85,9.16,3.55,2.6,8.19,3,12.58,3.38,17.57,1.38,37.25,2.1,50.51-9.51,11-9.64,14.42-25.2,22.68-37.27,2.95-4.3,6.61-8.34,7.9-13.4,2.1-8.25-2.69-16.6-7.82-23.4C389.32,31.09,370.88,9.64,352.32,4.53,331.89-1.09,309.93,13.65,295.69,26.5Z" transform="translate(-7.87 -3.3)" fill="#68e1fd" opacity="0.24" style="isolation: isolate;"></path><polygon points="312.37 74.8 210.67 138.8 207.91 134.38 309.61 70.39 312.37 74.8" fill="#68e1fd"></polygon><rect x="125.59" y="91.17" width="5.21" height="91.91" transform="translate(-57.05 195.25) rotate(-66.03)" fill="#68e1fd"></rect><rect x="31.81" y="63.87" width="58.57" height="116.62" rx="10.31" transform="translate(-19.04 2.96) rotate(-5.37)" fill="#68e1fd"></rect><rect x="31.81" y="63.87" width="58.57" height="116.62" rx="10.31" transform="translate(-19.04 2.96) rotate(-5.37)" fill="url(#linear-gradient)"></rect><rect x="31.68" y="63.75" width="58.57" height="114.14" rx="10.2" transform="translate(-18.91 2.94) rotate(-5.37)" fill="#68e1fd"></rect><rect x="34.48" y="66.38" width="52.68" height="102.47" rx="9.17" transform="translate(-18.62 2.91) rotate(-5.37)" fill="#fff"></rect><path d="M58.47,92.68a23,23,0,1,0,25,20.73A23,23,0,0,0,58.47,92.68Zm3.94,41.85a18.69,18.69,0,1,1,16.85-20.36A18.71,18.71,0,0,1,62.41,134.53Z" transform="translate(-7.87 -3.3)" fill="#68e1fd" opacity="0.18" style="isolation: isolate;"></path><polygon points="53.64 101.73 55.6 122.65 60.74 117.26 56.97 117.61 55.47 101.68 53.64 101.73" fill="#68e1fd"></polygon><polygon points="53.82 122.82 51.85 101.9 46.72 107.29 50.48 106.94 51.98 122.87 53.82 122.82" fill="#68e1fd"></polygon><g id="TWXE3W"><path d="M213.37,96.17a65.94,65.94,0,1,0,65.9,66.1A65.38,65.38,0,0,0,213.37,96.17Zm9.78,30.37a.88.88,0,0,1,.1-.54c.19-.28.4-.64.68-.71s.55.22.93.41c-.69.71-.4,1.1.21,1.41a1,1,0,0,1,.37.31,6.39,6.39,0,0,0,.64,1.37,5.31,5.31,0,0,0,1.37.8,12.15,12.15,0,0,1-1.28,1,5.35,5.35,0,0,1-1.39.61,6,6,0,0,1-1.2,0,1,1,0,0,0,0-.22l.84-.52c-.3-.37-.73-.66-.77-1s.37-.69.61-1.09c-.38-.61-.94-.89-1.33-.63-1.17.78-1.25,1-.72,1.84-.76.3-1.49.58-2.27.85-.16-.79.76-1.51,0-2.22a1.72,1.72,0,0,1,1.53-.85c.31,0,.61,0,.9,0C222.85,127.28,223.21,127.14,223.15,126.54Zm-18.9-16.82c1.54.23,3.09.33,4.63.45a1.64,1.64,0,0,0,1.56-.5c.18-.21.59-.25.9-.3,1.2-.19,2.42-.41,3.63-.54a7.19,7.19,0,0,1,1.91.09c1.48.23,3,.52,4.43.78a1.29,1.29,0,0,1,.64.3c-.61,0-1.23.07-1.84.14a3.66,3.66,0,0,0-1.13.27c-.55.28-1.06.58-1.09,1.39a1.77,1.77,0,0,1-1.37,1.7,20.62,20.62,0,0,0-2.36,1c-.4.19-.4.42,0,.65.55.31,1.11.6,1.72,1-.94.36-.94.36-2.9-.54l.83,1.39c-1.25.33-2.55.7-3.85,1a6.88,6.88,0,0,0-3.28,1.54,5.86,5.86,0,0,1-3.23,1.1c-.61.12-1.09.22-1.09,1,0,.29-.28.62-.52.87a6.9,6.9,0,0,1-1.06.78,2.06,2.06,0,0,1-3.26-1.69,4.75,4.75,0,0,1-.07-1.24A6.19,6.19,0,0,1,198,119a2.74,2.74,0,0,1,.47-.5c1.7-1.84,1.32-3.78-.87-5a7.67,7.67,0,0,0-3-1,3.37,3.37,0,0,1-1.05-.5c1.46-.24,2.87-.43,4.26-.69a10.27,10.27,0,0,0,1.73-.63A9.43,9.43,0,0,1,204.25,109.72Zm14.44,10a1.09,1.09,0,0,1-.44.86,10.38,10.38,0,0,1-1.77.87,1.28,1.28,0,0,1-1.61-.36c-.19-.23-.59-.3-.89-.44,0-.08,0-.15-.07-.22.3-.12.58-.28.87-.37.94-.26,1.86-.5,2.78-.73C218,119.23,218.53,119.23,218.69,119.72Zm-32.84-7.94c.43-.13.89-.22,1.34-.34s1.06-.23,1.26-.89a1,1,0,0,1,.66-.57c.23,0,.44-.09.66-.12.68-.14,1.39-.24,2.09-.35a8.85,8.85,0,0,0,1.66-.24,7.44,7.44,0,0,1,3.19-.49c.35,0,.68-.07,1-.08s.64,0,1,0a.93.93,0,0,0,0,.24,8.53,8.53,0,0,1-4,1.77,14.74,14.74,0,0,0-5.68,2.22c-.53.35-1.09.63-1.51-.19a.1.1,0,0,1,0,0c-.07-.16-.39-.25-.61-.28a9.1,9.1,0,0,1-1.58-.28A2.16,2.16,0,0,1,185.85,111.78Zm-3.49,1.9c-.05,0-.08-.06-.17-.11.5-.85,1.06-1.11,1.93-.71a3.53,3.53,0,0,0,2.72.21.92.92,0,0,1,.14.14c-.14.19-.23.47-.4.54-.42.17-.89.2-1.32.36a.7.7,0,0,0-.42.45c0,.11.21.37.37.42l.57.15c1.53.46,3.06.85,4.6,1.31a.67.67,0,0,1,.3.41,3.21,3.21,0,0,1-.11.68c-.28,1.23.05,1.68,1.32,1.7a.89.89,0,0,1-.71.92c-.83.21-1.65.47-2.45.73-.38.12-.78.24-.66.8a.47.47,0,0,1-.17.34,2.06,2.06,0,0,1-2.38-.08,1.22,1.22,0,0,1,.7-2c.48-.12,1-.15,1.49-.29a.88.88,0,0,0,.55-.39c.05-.12-.15-.39-.31-.55a6.56,6.56,0,0,0-3.44-1.68,11.19,11.19,0,0,0-1.18-.14c-.93-.06-1.87-.16-2.81-.26-.4-.06-.9,0-.93-.61a.85.85,0,0,1,.88-1,12.74,12.74,0,0,0,1.86-.19c.28,0,.67-.24.71-.43C183.13,114,182.85,113.68,182.36,113.68Zm8.16,18.22c.24.28.68.71.61.94a1,1,0,0,1-1.1.69,22.24,22.24,0,0,0-2.53-.19,6.24,6.24,0,0,1,2.95-2.29c-.21.19-.36.33-.59.52A2,2,0,0,1,190.52,131.9Zm2.36,58.76a9.64,9.64,0,0,0-1.86,1.55,4.37,4.37,0,0,0-.62,1.7,25.45,25.45,0,0,1-.9,3.24c-.27.61-1,1-1.46,1.55a2.36,2.36,0,0,1-3.11.62c-.26.75.24,1.22.54,1.74.45.79.45.79-.31,1.33s-1.32,1.08-2,1.65a1.76,1.76,0,0,0-.51,1.75,7.19,7.19,0,0,1-.22,1.65,2.68,2.68,0,0,0-.12.87c.06.57.24,1.13.31,1.7.12,1,.19,1.93.28,2.88,0,.37.13.59.57.63.17,0,.4.22.48.4.26.53.49,1.09.72,1.63a1.42,1.42,0,0,1-2-.28,3.1,3.1,0,0,0-1.61-1.44,5.07,5.07,0,0,1-2.56-2.5c-.6-1.2-1.28-2.24-1.09-3.73a1.93,1.93,0,0,0-1.21-2.26c-.18-.05-.3-.41-.33-.64-.11-.94-.16-1.89-.25-2.83-.19-2-.43-4-.55-6-.09-1.49,0-3,0-4.49,0-.68,0-1.35,0-2a4.32,4.32,0,0,0-3.07-3.8,1.92,1.92,0,0,1-1.55-2,2.12,2.12,0,0,0-1.18-2,4.56,4.56,0,0,1-2.11-2.54,2.5,2.5,0,0,0-.59-.85,2.09,2.09,0,0,1-.61-2,6.15,6.15,0,0,0-.1-1.48,3.84,3.84,0,0,1-.09-1,6.65,6.65,0,0,1,1-2.69,12.72,12.72,0,0,0,1.46-2.78,2.54,2.54,0,0,0-.87-3,1.23,1.23,0,0,0-1-.05,1.74,1.74,0,0,1-2.06-.12,8.49,8.49,0,0,1-2.93-3.14,1.06,1.06,0,0,0-.51-.4,3,3,0,0,0-.93-.21,3.3,3.3,0,0,1-2.26-1.11,3.26,3.26,0,0,0-2.69-1,.84.84,0,0,1-.42,0,11.36,11.36,0,0,1-5.26-3,2.54,2.54,0,0,1-.45-2,62.71,62.71,0,0,1,2.71-11.8,63.36,63.36,0,0,1,8.31-16.61c1.32-1.91,2.85-3.7,4.29-5.54.21-.28.43-.41.75-.19a1.82,1.82,0,0,0,1.44.21c1.18-.14,2.37-.09,3.52-.33a23.62,23.62,0,0,0,4.06-1.27,3.7,3.7,0,0,0,1.81-2.67c.08-.3.19-.61.29-.92.35-1.13.35-1.13,1.51-.87l2.39.54c-.67.24-1.37.47-2,.75-.4.14-.45.41-.18.74.49.58.92,1.17,1.41,1.72.14.14.49.26.61.19,1-.59,2-.33,3.05-.41a7.2,7.2,0,0,1-.94,1.28,3,3,0,0,1-1.26.54c-1.2.24-2.42.4-3.61.59a1.65,1.65,0,0,1-1.7,1.42,8.77,8.77,0,0,0-4.22,1.94,2,2,0,0,0-.89,2.5c.13.39.25.87.87.56.09,0,.3,0,.42.12.59.3,1.14.62,1.72.92s1,.61,1.59.38c.14,0,.33.09.33.07-.15,1-.31,1.82-.48,2.78a1.91,1.91,0,0,0,1.68-.87c1.13-1.61,2.31-3.18,3.45-4.76a5.49,5.49,0,0,0,.51-.71h0a3.06,3.06,0,0,1,3.51-1.57c.78.13,1.32.3,1.25,1.24,0,.14.36.38.57.41.94.11,1.41,0,3-.71a2.06,2.06,0,0,1,.13.45,2.67,2.67,0,0,1,0,.63,3.3,3.3,0,0,0,2,3.9l.31.16a6.67,6.67,0,0,1-4.2,1.82,6.26,6.26,0,0,0-3.11.82,17,17,0,0,1-2.45.93,3.9,3.9,0,0,0-.78.65l.11.2,3.1-.27c-.12.76,0,1.21.8,1.28.3,0,.56.43.94.75-1.34.26-2,1.73-3.71,1.37.52-.47.92-.85,1.33-1.23-.62-.7-.78-.77-1.61-.25s-1.56,1.15-2.34,1.72c-.21.16-.4.4-.63.43-1.37.26-2.05,1.39-2.93,2.28a1.7,1.7,0,0,1-.19.19,2,2,0,0,1-1.48.81,1.13,1.13,0,0,0-.74.28,1.36,1.36,0,0,0-.44.82,2.82,2.82,0,0,1-1.61,2.81,19.29,19.29,0,0,0-2.73,1.77,2.63,2.63,0,0,0-.52,2.86,2.44,2.44,0,0,1,0,2.14c-.07.17-.47.31-.73.31s-.41-.24-.47-.43c-.2-.85-.36-1.74-.57-2.61a4,4,0,0,0-.45-.83,1,1,0,0,0-.17.07c0,.33,0,.66,0,1a.74.74,0,0,1-.17.12c-.22-.24-.43-.5-.68-.73a5.53,5.53,0,0,0-1.07-.8.9.9,0,0,0-1.15.38c-.41.56-.9,1.06-1.33,1.57a14.73,14.73,0,0,0-1.13-1.24.78.78,0,0,0-.63-.15,3.36,3.36,0,0,0-2.11,1.21,14.85,14.85,0,0,1-1.86,1.86,1.49,1.49,0,0,0-.45,2,1.77,1.77,0,0,1,.07.89,3.25,3.25,0,0,0,2.34,3.74,1.85,1.85,0,0,0,2.24-.88c.17-.37.29-.76.47-1.15a.83.83,0,0,1,1.13-.52,1.27,1.27,0,0,1,.34,1.06,13.64,13.64,0,0,1-.59,1.91c-.22.71-.07,1,.68,1.2.54.1,1.09.17,1.65.24a1,1,0,0,1,1,1.18,12.3,12.3,0,0,0,.07,2.43,2.69,2.69,0,0,0,.74,1.25.86.86,0,0,0,.85.07,1.8,1.8,0,0,1,1.65-.16,4.1,4.1,0,0,0,.66.19c1,.25,1.25.07,1.93-.65a5.22,5.22,0,0,1,1.49-1,.52.52,0,0,1,.49.12.47.47,0,0,1,0,.47c-.55.49-.26.73.23.94l1.16.48c-.75-1.21.24-1.63.69-2.36a5.63,5.63,0,0,1,.51.37,3.13,3.13,0,0,0,2.55,1h.14a5.09,5.09,0,0,1,3.42,1.4,10.26,10.26,0,0,0,4.51,2.27A2.4,2.4,0,0,1,187,168.5c.29.5.69,1,1,1.47a1,1,0,0,1-.49,1.74l-.78.38c.21.4.45.52.83.3a3,3,0,0,1,.9-.35,1.07,1.07,0,0,1,.65.33s-.11.28-.16.43-.1.38-.07.4a.75.75,0,0,0,.49.12.54.54,0,0,0,.36-.19,1.44,1.44,0,0,1,2.17,0c.09.09.26.14.26.21.1,1.14.89.68,1.37.48a1.88,1.88,0,0,1,1.49.09c1.2.52,2.45.94,3.7,1.37a.9.9,0,0,1,.66.84,6.65,6.65,0,0,1-1.68,5.38.93.93,0,0,1-.39.29c-.55.24-.59.69-.6,1.2a37.44,37.44,0,0,1-.19,3.82,8.78,8.78,0,0,1-.8,2.25c-.28.57-.56,1.18-1.48,1a1.27,1.27,0,0,0-.81.27C193.23,190.42,193.05,190.56,192.88,190.66ZM262,185.51c-.51,1.26-.82,2.63-1.25,3.94a5.51,5.51,0,0,1-.56,1.11c-.64,1.21-.64,1.21-2,1a2,2,0,0,1-1.27-2.55,6.78,6.78,0,0,0,.85-1.41,3.72,3.72,0,0,0,0-1.66,1.9,1.9,0,0,1,1.17-1.86.93.93,0,0,0,.52-.24c.66-.66,1.32-1.34,1.94-2a3.58,3.58,0,0,0,.37-.68C262.19,182.57,262.59,184,262,185.51Zm12.51-33.95a1.79,1.79,0,0,0-1.61-.69c-2.17.29-4.2-.38-6.23-1a14.7,14.7,0,0,1-4-1.78,10.28,10.28,0,0,0-3.26-1.1,1.82,1.82,0,0,1,.12.54c-.26,1.58.92,2.33,1.84,3.23.4.38.76.78,1.2,1.23l2.72-.73a1.47,1.47,0,0,1,1.79.66,16.3,16.3,0,0,0,1.52,1.6c.49.54.37.68-.19,1.09-1.38,1-3,1.76-4,3.18a1.81,1.81,0,0,1-.5.45c-.87.57-1.75,1.11-2.62,1.68a2.41,2.41,0,0,1-3.44-1.23,9.33,9.33,0,0,0-1.91-3.49,8.53,8.53,0,0,1-1-2,3.51,3.51,0,0,0-1.76-1.78,2.46,2.46,0,0,1-1.45-1.55c-.35-1-.84-1.94-1.25-2.92-1,.4-1,.4-.71,1.38a17.53,17.53,0,0,0,2.15,4.68c1.47,2.33,3.19,4.55,4.11,7.2.24.7.42,1.43.69,2.1.42,1,.87,1.13,1.83.58a.67.67,0,0,1,.31-.14l3.71,0a26.43,26.43,0,0,1-.6,3,5.33,5.33,0,0,1-1.17,2.22,21.06,21.06,0,0,1-2.72,2,1.72,1.72,0,0,0-.59.61c-1.06,2-2.07,3.92-3.13,5.86-.26.49-.34.89,0,1.3,1.46,1.57,1,3.49,1.06,5.33,0,.21-.33.47-.58.61a9.18,9.18,0,0,0-3.1,2.27,3.45,3.45,0,0,0-.7,1.44,11.53,11.53,0,0,1-1.49,4.48c-1.18,2-2.22,4.11-3.3,6.18a1.28,1.28,0,0,1-1.11.82L242,199c-.45,0-.9.14-1.37.17A.83.83,0,0,1,240,199c-.39-.29-.71-.64-1-.9a5.91,5.91,0,0,0-.78-3,6.46,6.46,0,0,0-.7-1,6.11,6.11,0,0,1-1.07-3.35,4.56,4.56,0,0,0-.61-1.93,9.25,9.25,0,0,1-1.44-4,6.62,6.62,0,0,1,.44-2.34,4.62,4.62,0,0,1,.41-.94,2.81,2.81,0,0,0,.16-2.06,17.11,17.11,0,0,0-3-6.58,1.7,1.7,0,0,1,0-1.79c.21-.45.48-.88.74-1.32s.25-.69-.22-.86a1.24,1.24,0,0,1-.89-1c0-.14-.4-.34-.59-.33a3,3,0,0,1-2.5-.9c-.33-.33-1.05-.33-1.61-.36a4.26,4.26,0,0,0-1.21.24l-5.65,1.35a2.59,2.59,0,0,1-2.51-.79,3.32,3.32,0,0,0-.56-.51,2.87,2.87,0,0,1-1.37-2.34,1.33,1.33,0,0,0-.73-1c-1.71-.55-1.94-2.1-2.41-3.45a1.55,1.55,0,0,1,.33-1.18,1.36,1.36,0,0,0,.31-1.58,4.59,4.59,0,0,1,.37-4.37,6.18,6.18,0,0,1,1.94-2.4c.33-.2.42-.78.73-1a6.53,6.53,0,0,0,1.91-3.26,3.86,3.86,0,0,1,1.11-1.3c.68-.66,1.42-1.25,2.1-1.91.38-.35.64-.38.92.1a.7.7,0,0,0,.55.33c1-.12,2.09-.27,3.13-.41a5.05,5.05,0,0,1,.94-.19,9.48,9.48,0,0,0,4.35-.94,1.37,1.37,0,0,1,1,.07c.11.05.11.47.09.71a2.27,2.27,0,0,0,.95,1.82l1.53,1.48c.11.08.21.22.33.24,1,.17,2.08.36,3.14.45.52.05.87-.19,1-.83.14-.47.7-.84,1.06-1.25a1,1,0,0,0,.09.22,3.82,3.82,0,0,0,.73.61,9.1,9.1,0,0,0,1.79.73,4.86,4.86,0,0,0,1.37,0,3.88,3.88,0,0,1,.76,0c1.09.16,2.19.3,3.28.52a1,1,0,0,0,1-.31,2.28,2.28,0,0,0,1.15-2.71,11.06,11.06,0,0,1-.23-1.4,2.45,2.45,0,0,0-2.11.17,2,2,0,0,1-2.49-.22,5.16,5.16,0,0,1-2.25-3c1.06.52,1.49-.13,2-1.08-1.32.31-2.51.56-3.68.89a.74.74,0,0,0-.45,1.12.71.71,0,0,1,.12.45,3.55,3.55,0,0,1-.22.77c-.33-.14-.82-.19-1-.45-.24-.42-.33-.89-.86-1.06a.29.29,0,0,1-.16-.21c.1-1.11-.88-1.65-1.34-2.46-.1-.2-.5-.32-.78-.33a2.29,2.29,0,0,1-1.84-.94,2.38,2.38,0,0,0-.6-.66c-.37-.28-.82-.47-1.17-.05a.87.87,0,0,0,0,1.3,6.21,6.21,0,0,0,2.36,1.75c.63.19.92.77,1.22,1.32-1.32.71-2.19.47-2.9-.73a8.15,8.15,0,0,0-.75-.92,14.65,14.65,0,0,0-1.44-1.61c-.69-.63-2.06-.68-2.22.54a2.72,2.72,0,0,1-.1.38l-.47-.14a1.65,1.65,0,0,0-2.14.81c-.17.26-.43.49-.62.73a2.23,2.23,0,0,0-.47.66,2.65,2.65,0,0,1-2,2,22.57,22.57,0,0,1-4,.33c-.21,0-.56-.37-.58-.57a11.52,11.52,0,0,1,0-2.75,1.92,1.92,0,0,1,2-1.52c.92,0,1.84,0,2.78,0,.34,0,.57-.11.53-.52a2.68,2.68,0,0,1,0-.49c.19-1.09.14-1.22-.85-1.81-.29-.17-.62-.29-.92-.46-.14-.09-.33-.26-.31-.37a.53.53,0,0,1,.33-.38,4.9,4.9,0,0,1,1.07-.19,3.65,3.65,0,0,0,3.49-2.17,2.21,2.21,0,0,1,1.83-1.39c1.31-.21,1.56-.54,1.73-1.91a4.84,4.84,0,0,1,.37-1h.27a10.86,10.86,0,0,1,.56,1.43,1.17,1.17,0,0,0,1,1,8.45,8.45,0,0,0,1.51,0c.87-.11,1.72-.28,2.59-.4.31,0,.5,0,.61-.47s.5-.62.8-.9.69-.44.71-1a1.49,1.49,0,0,1,1.39-1.06,1.11,1.11,0,0,1,.67.47,4.52,4.52,0,0,1,.4,1,3.3,3.3,0,0,0,1-3.3,5.88,5.88,0,0,1-1.06.22,5.45,5.45,0,0,1-1.51,0c-1.44-.32-1.65-1-.88-2.19.26-.42.57-1.28.43-1.37-.54-.4-1,.1-1.42.45a5.84,5.84,0,0,0-2,2.93,10.37,10.37,0,0,1-1.24,2.88c-.23.39-.94.54-1.46.61-.19,0-.49-.42-.7-.69a9.18,9.18,0,0,1-.53-.92.63.63,0,0,0-.07.22l-3.06.16a3.64,3.64,0,0,1-.12-.43c-.45-2.21-.64-1.91,1.48-2.75a6.54,6.54,0,0,0,1.66-1.39c.49-.41,1-.83,1.44-1.24a1.54,1.54,0,0,0,.26-.25c1.44-1.92,3.59-2.24,5.75-2.58s3.81.52,5.67,1l3.09.9c-1.41,1.13-2.69,0-3.89.21,0,.07-.08.14-.07.16a23.06,23.06,0,0,0,2.21,2.1,1.06,1.06,0,0,0,1.51-.71c.12-.44.31-.65.76-.65a1.48,1.48,0,0,0,1.35-.92c.23-.46.54-.67,1-.48-.07.54.17.78.69.61a2.16,2.16,0,0,0,.57-.28,3.21,3.21,0,0,1,2.07-.47,10.55,10.55,0,0,0,3-.61c.9-.24,1.39-.15,1.86.35a65.73,65.73,0,0,1,10.74,14.84,64.19,64.19,0,0,1,6.78,20.63.88.88,0,0,1,0,.23C276.06,153.63,275.33,152.45,274.48,151.56Z" transform="translate(-7.87 -3.3)" fill="#68e1fd"></path><path d="M277.67,153.29c-1.62.34-2.35-.84-3.2-1.73a1.77,1.77,0,0,0-1.61-.69c-2.17.3-4.19-.38-6.23-1a14.69,14.69,0,0,1-4-1.79,9.58,9.58,0,0,0-3.25-1.08,2.09,2.09,0,0,1,.12.53c-.26,1.58.91,2.33,1.84,3.23.39.37.76.78,1.2,1.23l2.73-.73a1.47,1.47,0,0,1,1.78.66,15.25,15.25,0,0,0,1.52,1.6c.5.54.38.68-.19,1.09-1.38,1-3,1.75-4,3.17a2,2,0,0,1-.51.46l-2.63,1.68a2.4,2.4,0,0,1-3.43-1.22,9.41,9.41,0,0,0-1.9-3.5,9,9,0,0,1-1-2,3.42,3.42,0,0,0-1.75-1.78,2.46,2.46,0,0,1-1.45-1.55c-.34-1-.83-2-1.26-2.92-1,.4-1,.4-.71,1.37a17.65,17.65,0,0,0,2.16,4.69c1.48,2.33,3.19,4.55,4.11,7.2.24.7.42,1.42.69,2.1.42,1,.87,1.14,1.83.57a.72.72,0,0,1,.3-.13l3.72,0a26.71,26.71,0,0,1-.6,3,5.5,5.5,0,0,1-1.16,2.22,21.82,21.82,0,0,1-2.73,2,2.08,2.08,0,0,0-.6.62c-1.05,2-2.05,3.93-3.12,5.87a1,1,0,0,0,0,1.3c1.45,1.56,1,3.49,1.05,5.32,0,.21-.33.47-.56.61a9.46,9.46,0,0,0-3.11,2.27,3.37,3.37,0,0,0-.69,1.44,11.78,11.78,0,0,1-1.51,4.48c-1.16,2-2.21,4.11-3.28,6.18a1.32,1.32,0,0,1-1.11.82c-1.06.07-2.12.11-3.18.19-.46,0-.91.14-1.37.17A.93.93,0,0,1,240,199c-.38-.3-.72-.65-1-.91a6,6,0,0,0-.79-3,9.33,9.33,0,0,0-.69-1,6,6,0,0,1-1.09-3.34,4.51,4.51,0,0,0-.6-1.93,9.4,9.4,0,0,1-1.45-4,6.78,6.78,0,0,1,.45-2.34,3.89,3.89,0,0,1,.42-1,2.83,2.83,0,0,0,.15-2.05,17.3,17.3,0,0,0-3-6.59,1.68,1.68,0,0,1,0-1.77,11.56,11.56,0,0,1,.76-1.32c.25-.39.24-.7-.24-.87a1.17,1.17,0,0,1-.87-1c0-.15-.4-.35-.6-.34a3,3,0,0,1-2.49-.9c-.33-.33-1.06-.33-1.62-.36a4.33,4.33,0,0,0-1.21.24l-5.64,1.35a2.6,2.6,0,0,1-2.52-.79,4.45,4.45,0,0,0-.56-.51,2.84,2.84,0,0,1-1.36-2.35,1.34,1.34,0,0,0-.74-.95c-1.71-.55-1.94-2.1-2.4-3.46a1.48,1.48,0,0,1,.32-1.17,1.37,1.37,0,0,0,.31-1.59,4.58,4.58,0,0,1,.38-4.36,6.06,6.06,0,0,1,1.93-2.39c.33-.22.41-.79.73-1.05a6.7,6.7,0,0,0,1.92-3.26,3.82,3.82,0,0,1,1.09-1.31c.69-.65,1.43-1.25,2.12-1.89.37-.35.63-.4.92.1a.71.71,0,0,0,.54.32c1-.11,2.09-.27,3.13-.42a5.36,5.36,0,0,1,.94-.18,9.53,9.53,0,0,0,4.36-1,1.41,1.41,0,0,1,1,.08c.11.05.11.47.09.72a2.28,2.28,0,0,0,1,1.82c.49.5,1,1,1.52,1.46.1.1.21.23.33.25,1,.17,2.08.36,3.13.45.53.05.88-.19,1.06-.83.13-.48.68-.84,1-1.25l.1.22a3.87,3.87,0,0,0,.74.61,8.92,8.92,0,0,0,1.78.74,5.29,5.29,0,0,0,1.37-.05,6.26,6.26,0,0,1,.75,0c1.1.16,2.2.3,3.29.53a1.08,1.08,0,0,0,1-.32,2.3,2.3,0,0,0,1.14-2.7,10,10,0,0,1-.22-1.4,2.43,2.43,0,0,0-2.12.16,2,2,0,0,1-2.49-.23,5.1,5.1,0,0,1-2.25-2.95c1,.53,1.5-.11,2-1.06-1.32.31-2.51.55-3.68.88a.73.73,0,0,0-.44,1.12.86.86,0,0,1,.12.46,5.11,5.11,0,0,1-.23.76c-.33-.14-.81-.2-1-.45-.23-.41-.33-.89-.86-1.06a.29.29,0,0,1-.16-.21c.1-1.11-.88-1.65-1.34-2.47a1.15,1.15,0,0,0-.78-.33,2.2,2.2,0,0,1-1.83-.94,2.94,2.94,0,0,0-.62-.65c-.36-.29-.81-.47-1.16-.05a.84.84,0,0,0,0,1.29,6.23,6.23,0,0,0,2.35,1.77c.63.19.93.76,1.22,1.32a1.87,1.87,0,0,1-2.9-.74,7.27,7.27,0,0,0-.74-.92,18.61,18.61,0,0,0-1.45-1.62c-.69-.62-2.06-.67-2.21.55a3.86,3.86,0,0,1-.12.38l-.45-.13a1.65,1.65,0,0,0-2.15.8,8.67,8.67,0,0,1-.63.73,2.06,2.06,0,0,0-.46.67,2.64,2.64,0,0,1-2,2,23.81,23.81,0,0,1-4,.34c-.19,0-.55-.37-.57-.58a12,12,0,0,1,0-2.74,1.9,1.9,0,0,1,2-1.52c.93,0,1.85,0,2.78,0,.36,0,.58-.1.54-.52a1.57,1.57,0,0,1,0-.48c.17-1.09.12-1.21-.86-1.8-.3-.18-.63-.3-.92-.47s-.32-.26-.31-.38a.57.57,0,0,1,.33-.38,5,5,0,0,1,1.08-.18c1.54-.12,2.85-.62,3.48-2.16a2.17,2.17,0,0,1,1.82-1.39c1.33-.22,1.56-.55,1.75-1.92a5.05,5.05,0,0,1,.35-1l.29,0a11.36,11.36,0,0,1,.55,1.43c.15.56.43.94,1,1a7.61,7.61,0,0,0,1.51,0c.87-.1,1.73-.27,2.59-.39.32,0,.51-.06.61-.47s.5-.62.79-.91.7-.43.71-1,.91-1.13,1.4-1.06a1.18,1.18,0,0,1,.68.49,5,5,0,0,1,.39,1,3.34,3.34,0,0,0,1-3.3,8.4,8.4,0,0,1-1.06.23,5.44,5.44,0,0,1-1.51,0c-1.43-.32-1.65-1-.88-2.18.26-.42.56-1.29.43-1.39-.53-.4-1,.11-1.42.46a5.88,5.88,0,0,0-2,2.93,10.74,10.74,0,0,1-1.24,2.89c-.23.37-.94.52-1.46.6-.2,0-.5-.42-.7-.69a9.41,9.41,0,0,1-.54-.93l-.07.23-3,.16c-.05-.18-.1-.3-.13-.43-.44-2.21-.63-1.91,1.48-2.75a7.22,7.22,0,0,0,1.68-1.38l1.44-1.26a1.84,1.84,0,0,0,.25-.23c1.44-1.93,3.59-2.25,5.75-2.59s3.82.51,5.68,1c1,.27,1.93.57,3.08.91-1.4,1.11-2.69,0-3.89.2,0,.08-.08.14-.07.15a21.88,21.88,0,0,0,2.21,2.1,1.06,1.06,0,0,0,1.52-.71c.11-.43.29-.64.75-.64a1.48,1.48,0,0,0,1.35-.93c.24-.46.54-.66,1-.47-.08.54.17.77.7.6a2.34,2.34,0,0,0,.55-.27,3.27,3.27,0,0,1,2.09-.47,10.28,10.28,0,0,0,2.94-.61,1.64,1.64,0,0,1,1.86.34,65.65,65.65,0,0,1,10.74,14.84,64.52,64.52,0,0,1,6.78,20.63A1.74,1.74,0,0,1,277.67,153.29Z" transform="translate(-7.87 -3.3)" fill="#fff"></path><path d="M175.14,128l-.48,2.76a1.89,1.89,0,0,0,1.68-.87c1.13-1.6,2.3-3.16,3.46-4.74.18-.24.36-.48.52-.74a3,3,0,0,1,3.5-1.55c.77.12,1.32.29,1.26,1.23,0,.13.35.39.56.41.94.11,1.41,0,3-.7a1.84,1.84,0,0,1,.13.44,2.56,2.56,0,0,1,0,.62,3.3,3.3,0,0,0,2,3.9l.3.16a6.54,6.54,0,0,1-4.2,1.83,6.12,6.12,0,0,0-3.1.82,17.34,17.34,0,0,1-2.44.93,3.69,3.69,0,0,0-.79.65l.1.21,3.11-.28c-.12.76,0,1.21.8,1.28.3,0,.57.43.95.74-1.35.26-2,1.73-3.72,1.38l1.33-1.24c-.63-.69-.78-.75-1.62-.23s-1.56,1.14-2.34,1.72c-.2.15-.39.39-.61.43-1.39.25-2.06,1.39-2.94,2.28a2.39,2.39,0,0,1-1.67,1,1.1,1.1,0,0,0-.74.28,1.36,1.36,0,0,0-.44.82,2.82,2.82,0,0,1-1.62,2.8,19.47,19.47,0,0,0-2.71,1.78,2.58,2.58,0,0,0-.52,2.86,2.47,2.47,0,0,1,0,2.14c-.06.17-.47.31-.72.32s-.42-.26-.47-.44c-.22-.86-.36-1.75-.58-2.61a4.27,4.27,0,0,0-.45-.84l-.17.07v1l-.16.12a9.58,9.58,0,0,0-.69-.73,4.87,4.87,0,0,0-1.08-.8.85.85,0,0,0-1.13.37c-.42.56-.91,1.07-1.34,1.56a16,16,0,0,0-1.13-1.23.78.78,0,0,0-.63-.15,3.32,3.32,0,0,0-2.11,1.21,14.14,14.14,0,0,1-1.86,1.85,1.53,1.53,0,0,0-.45,2,1.79,1.79,0,0,1,.08.87,3.24,3.24,0,0,0,2.33,3.75,1.86,1.86,0,0,0,2.24-.88c.18-.37.3-.77.47-1.15a.83.83,0,0,1,1.12-.52,1.27,1.27,0,0,1,.35,1.07,12.4,12.4,0,0,1-.6,1.91c-.22.7-.05,1,.69,1.18a15.07,15.07,0,0,0,1.64.24,1,1,0,0,1,1,1.2,10.88,10.88,0,0,0,.07,2.42,2.69,2.69,0,0,0,.74,1.25.91.91,0,0,0,.85.08,1.74,1.74,0,0,1,1.65-.16,5.54,5.54,0,0,0,.67.18c1,.24,1.25.07,1.91-.66a6.2,6.2,0,0,1,1.51-1,.52.52,0,0,1,.48.13.45.45,0,0,1,0,.47c-.54.49-.24.73.24.93l1.16.49c-.74-1.21.25-1.63.69-2.35a3.51,3.51,0,0,1,.51.36,3.13,3.13,0,0,0,2.56,1,5,5,0,0,1,3.54,1.41,10.28,10.28,0,0,0,4.53,2.27,2.44,2.44,0,0,1,1.75,1.21c.31.52.7,1,1,1.49a1,1,0,0,1-.49,1.73l-.78.38c.21.4.44.52.84.3a2.49,2.49,0,0,1,.89-.34,1.07,1.07,0,0,1,.64.31s-.1.29-.14.45-.12.37-.08.4a.8.8,0,0,0,.48.12.63.63,0,0,0,.36-.19,1.43,1.43,0,0,1,2.18,0c.09.07.26.13.26.2.11,1.14.89.68,1.37.49a1.8,1.8,0,0,1,1.49.09c1.2.51,2.45.93,3.69,1.36a.89.89,0,0,1,.67.84,6.56,6.56,0,0,1-1.69,5.37,1,1,0,0,1-.37.31c-.55.23-.6.68-.62,1.19a34.47,34.47,0,0,1-.18,3.81,8.16,8.16,0,0,1-.81,2.26c-.27.58-.54,1.18-1.47,1-.41-.06-.94.34-1.35.62A9.59,9.59,0,0,0,191,192.2a4.67,4.67,0,0,0-.62,1.7,26.85,26.85,0,0,1-.9,3.25c-.27.61-1,1-1.46,1.54a2.36,2.36,0,0,1-3.11.63c-.26.75.24,1.22.53,1.73.47.81.46.8-.3,1.35s-1.33,1.08-2,1.63a1.82,1.82,0,0,0-.5,1.77,6.31,6.31,0,0,1-.23,1.65,3.71,3.71,0,0,0-.12.86c.07.58.25,1.13.32,1.71.12.95.19,1.91.28,2.87,0,.36.14.6.58.62a.75.75,0,0,1,.48.4c.26.54.47,1.1.7,1.63a1.41,1.41,0,0,1-2-.27,3.06,3.06,0,0,0-1.61-1.44,5,5,0,0,1-2.54-2.49c-.61-1.21-1.29-2.26-1.1-3.74a1.94,1.94,0,0,0-1.22-2.26c-.16-.05-.3-.41-.32-.64-.11-.94-.16-1.88-.25-2.82-.18-2-.43-4-.55-6-.08-1.49,0-3,0-4.5,0-.67,0-1.34,0-2a4.34,4.34,0,0,0-3.06-3.8,1.88,1.88,0,0,1-1.55-2,2.14,2.14,0,0,0-1.18-2,4.67,4.67,0,0,1-2.13-2.54,2.34,2.34,0,0,0-.58-.85,2.08,2.08,0,0,1-.6-2,7.29,7.29,0,0,0-.11-1.46,4,4,0,0,1-.08-1,6.38,6.38,0,0,1,1-2.68,13.64,13.64,0,0,0,1.46-2.78,2.55,2.55,0,0,0-.87-3,1.15,1.15,0,0,0-1-.05,1.83,1.83,0,0,1-2.08-.12,8.66,8.66,0,0,1-2.92-3.15,1,1,0,0,0-.51-.41,3.36,3.36,0,0,0-.94-.2,3.25,3.25,0,0,1-2.24-1.11,3.23,3.23,0,0,0-2.7-1,1.12,1.12,0,0,1-.41,0,11.31,11.31,0,0,1-5.26-3.06,2.5,2.5,0,0,1-.46-2,64.48,64.48,0,0,1,11-28.41c1.34-1.91,2.86-3.69,4.29-5.53.22-.28.45-.41.76-.18a1.85,1.85,0,0,0,1.44.2c1.17-.15,2.38-.09,3.52-.33a22.26,22.26,0,0,0,4.06-1.28,3.62,3.62,0,0,0,1.81-2.65c.09-.31.19-.62.29-.93.34-1.13.34-1.12,1.51-.86l2.39.54c-.67.23-1.36.46-2,.73-.4.15-.45.41-.17.75.47.57.91,1.17,1.4,1.71.13.15.48.28.61.2,1-.58,2-.34,3-.41a6.63,6.63,0,0,1-.93,1.27,2.85,2.85,0,0,1-1.27.55c-1.19.24-2.4.4-3.6.59a1.66,1.66,0,0,1-1.7,1.43,8.63,8.63,0,0,0-4.21,1.93,2,2,0,0,0-.89,2.51c.12.38.24.85.85.55.1,0,.3.06.44.13.57.29,1.13.62,1.71.91s1,.61,1.59.39A.45.45,0,0,1,175.14,128Z" transform="translate(-7.87 -3.3)" fill="#fff"></path><path d="M193.5,111.94c1.47-.24,2.87-.43,4.25-.7a11.4,11.4,0,0,0,1.75-.62,9.25,9.25,0,0,1,4.75-.9c1.53.22,3.08.33,4.62.46a1.67,1.67,0,0,0,1.57-.52c.17-.2.59-.23.9-.29,1.21-.2,2.41-.42,3.63-.54a7.21,7.21,0,0,1,1.91.09c1.48.23,3,.52,4.43.79a1.16,1.16,0,0,1,.64.29c-.61,0-1.23.07-1.84.14a3.47,3.47,0,0,0-1.12.27c-.57.28-1.07.58-1.1,1.4a1.77,1.77,0,0,1-1.38,1.69,24.63,24.63,0,0,0-2.36,1c-.4.18-.4.41,0,.63.56.32,1.12.62,1.72.95-.93.38-.93.38-2.89-.52l.83,1.37c-1.25.33-2.55.71-3.86,1a7.08,7.08,0,0,0-3.28,1.55,6,6,0,0,1-3.21,1.09c-.61.11-1.11.23-1.1,1,0,.28-.29.62-.52.85a5.77,5.77,0,0,1-1,.79,2.06,2.06,0,0,1-3.27-1.69,4.35,4.35,0,0,1-.07-1.24A5.94,5.94,0,0,1,198,119a2.44,2.44,0,0,1,.46-.51c1.71-1.84,1.33-3.78-.87-5a7.38,7.38,0,0,0-3-1A3,3,0,0,1,193.5,111.94Z" transform="translate(-7.87 -3.3)" fill="#fff"></path><path d="M182.19,113.58c.5-.86,1.05-1.12,1.92-.72a3.46,3.46,0,0,0,2.73.2l.14.15c-.13.18-.23.47-.4.54-.42.17-.89.2-1.32.35a.76.76,0,0,0-.42.46c0,.11.2.37.36.41,1.72.51,3.45,1,5.17,1.47a.59.59,0,0,1,.31.42,2.25,2.25,0,0,1-.12.67c-.27,1.23.07,1.68,1.33,1.7a.87.87,0,0,1-.72.91c-.82.23-1.63.47-2.44.74-.37.12-.77.25-.65.8,0,.1-.1.25-.19.34a2,2,0,0,1-2.37-.09,1.2,1.2,0,0,1,.69-2c.49-.14,1-.17,1.49-.3a1,1,0,0,0,.57-.39c0-.11-.17-.4-.32-.55a7.06,7.06,0,0,0-4.61-1.82c-.94-.06-1.88-.16-2.82-.26-.4,0-.91,0-.94-.61a.85.85,0,0,1,.89-1,16.27,16.27,0,0,0,1.86-.19c.27,0,.67-.24.71-.43.09-.44-.19-.73-.68-.74C182.32,113.67,182.28,113.63,182.19,113.58Z" transform="translate(-7.87 -3.3)" fill="#fff"></path><path d="M261.77,181.09c.43,1.48.82,2.88.2,4.41-.51,1.28-.82,2.64-1.24,3.95a6.79,6.79,0,0,1-.56,1.11c-.65,1.22-.65,1.22-2,1a2,2,0,0,1-1.25-2.56,7.09,7.09,0,0,0,.84-1.41,3.72,3.72,0,0,0,0-1.66,1.87,1.87,0,0,1,1.17-1.84,1,1,0,0,0,.52-.26c.66-.66,1.31-1.33,1.94-2A2.77,2.77,0,0,0,261.77,181.09Z" transform="translate(-7.87 -3.3)" fill="#fff"></path><path d="M198.72,108.92a8.49,8.49,0,0,1-4,1.77,14.9,14.9,0,0,0-5.68,2.22c-.56.35-1.11.65-1.53-.22-.07-.16-.38-.24-.6-.27a10.47,10.47,0,0,1-1.58-.29,2,2,0,0,1,.52-.35c.43-.14.89-.21,1.34-.34s1.06-.22,1.26-.89a1,1,0,0,1,.66-.57c.9-.2,1.83-.33,2.75-.47a8.3,8.3,0,0,0,1.67-.24,7.39,7.39,0,0,1,3.19-.48c.33,0,.68-.08,1-.09s.65,0,1,0Z" transform="translate(-7.87 -3.3)" fill="#fff"></path><path d="M224.23,128.35c-.39-.59-.95-.88-1.35-.61-1.15.78-1.24,1-.7,1.83l-2.28.86c-.16-.8.76-1.51,0-2.23a1.69,1.69,0,0,1,1.53-.85c.3,0,.6,0,.9,0,.48,0,.85-.17.78-.78a.83.83,0,0,1,.11-.54c.18-.27.39-.64.66-.7s.56.23.94.41c-.68.71-.4,1.1.22,1.41a.84.84,0,0,1,.35.32,6.33,6.33,0,0,0,.65,1.36,5.31,5.31,0,0,0,1.37.8,13.27,13.27,0,0,1-1.28,1,5.18,5.18,0,0,1-1.39.6,4.73,4.73,0,0,1-1.19,0l0-.23.83-.53c-.29-.35-.74-.66-.77-1S224,128.76,224.23,128.35Z" transform="translate(-7.87 -3.3)" fill="#fff"></path><path d="M213.91,120.42c.29-.12.58-.27.88-.36.92-.25,1.85-.49,2.77-.72.45-.11,1-.11,1.12.38a1.05,1.05,0,0,1-.43.86,10.12,10.12,0,0,1-1.78.87,1.28,1.28,0,0,1-1.61-.37c-.19-.23-.58-.29-.89-.43Z" transform="translate(-7.87 -3.3)" fill="#fff"></path><path d="M187.5,133.34a6.18,6.18,0,0,1,2.95-2.29l-.59.52c.26.13.52.17.65.32s.68.71.61.94a.94.94,0,0,1-1.09.7C189.22,133.4,188.4,133.4,187.5,133.34Z" transform="translate(-7.87 -3.3)" fill="#fff"></path></g><rect x="273.71" y="191.32" width="5.21" height="96.91" transform="translate(-96.96 218.6) rotate(-38.15)" fill="#68e1fd"></rect><path d="M247.42,217.86l-.1.76A65.94,65.94,0,1,1,202.55,97.05a91.9,91.9,0,0,0-12.78,12.81c-.74.92-1.51,1.87-2.24,2.86-.59.78-1.18,1.58-1.75,2.41-.42.61-.85,1.25-1.27,1.9a67.85,67.85,0,0,0-4.2,7.41h0a56.22,56.22,0,0,0-5,15.19,48.6,48.6,0,0,0,2,24,60.36,60.36,0,0,0,5.17,11.24,105.48,105.48,0,0,0,11,15.46C218.36,219.31,247.42,217.86,247.42,217.86Z" transform="translate(-7.87 -3.3)" fill="url(#linear-gradient-2)"></path><path d="M365.49,291l-70.19-.56a5,5,0,0,1-4.88-3.91l-12.75-55.19a5,5,0,0,1,5-6.19l70.2.56a5.09,5.09,0,0,1,4.92,3.95l12.73,55.11A5.07,5.07,0,0,1,365.49,291Z" transform="translate(-7.87 -3.3)" fill="#68e1fd"></path><path d="M361.32,285.08,298,284.57a4.54,4.54,0,0,1-4.41-3.39L282,233.32a4.41,4.41,0,0,1,4.47-5.36l63.36.51a4.51,4.51,0,0,1,4.4,3.39l11.52,47.85A4.43,4.43,0,0,1,361.32,285.08Z" transform="translate(-7.87 -3.3)" fill="url(#linear-gradient-3)"></path><path d="M296.23,288.67h91.58a3.09,3.09,0,0,1,3.09,3.09v0a3.09,3.09,0,0,1-3.09,3.09H296.23a3.06,3.06,0,0,1-3.06-3.06v-.08a3.06,3.06,0,0,1,3.06-3.06Z" transform="translate(-5.52 -6.03) rotate(0.46)" fill="#68e1fd"></path><rect x="333.53" y="288.92" width="79.2" height="6.19" rx="2.79" transform="matrix(1, 0.01, -0.01, 1, -5.52, -6.28)" fill="#68e1fd"></rect><rect x="333.53" y="288.92" width="79.2" height="6.19" rx="2.79" transform="matrix(1, 0.01, -0.01, 1, -5.52, -6.28)" fill="url(#linear-gradient-4)"></rect><path d="M324,243.58,328.59,264a0,0,0,0,0,.07,0l4.36-5.93-3.65.82a0,0,0,0,1-.05,0l-3.5-15.57Z" transform="translate(-7.87 -3.3)" fill="#fff"></path><path d="M326.86,264.47l-4.59-20.41a0,0,0,0,0-.06,0L317.84,250l3.66-.82a.05.05,0,0,1,.05,0l3.5,15.58Z" transform="translate(-7.87 -3.3)" fill="#fff"></path><line x1="228.32" y1="100.7" x2="263.02" y2="54.77" fill="url(#linear-gradient-5)"></line><path d="M379.7,111.51c-1.72,6.59-9.53,5.38-9.53,5.38s-45.33.85-46.18,0c-.69-.7-.24-3.37-.07-4.32,0-.21.07-.33.07-.33h12.95s6.11-3.18-3.91-17.58C324.62,82.54,356.38,82,366.75,82.13c2,0,3.18.07,3.18.07S381.4,104.91,379.7,111.51Z" transform="translate(-7.87 -3.3)" fill="#68e1fd"></path><path d="M374.32,106.87c-1.7,6.6-9.53,5.37-9.53,5.37s-28.72.55-40.87.33c0-.21.07-.33.07-.33h12.95s6.11-3.18-3.91-17.58C324.62,82.54,356.38,82,366.75,82.13,370,89.1,375.55,102.14,374.32,106.87Z" transform="translate(-7.87 -3.3)" fill="#68e1fd"></path><path d="M376.17,107.84c-1.7,6.6-11.38,4.4-11.38,4.4s-28.72.55-40.87.33c0-.21.07-.33.07-.33h12.95s6.11-3.18-3.91-17.58C324.62,82.54,356.38,82,366.75,82.13,370,89.1,377.41,103.11,376.17,107.84Z" transform="translate(-7.87 -3.3)" fill="url(#linear-gradient-6)"></path><rect x="281.76" y="13.66" width="115.06" height="77.21" rx="9.11" fill="#68e1fd"></rect><rect x="281.76" y="13.66" width="115.06" height="77.21" rx="9.11" fill="url(#linear-gradient-7)"></rect><rect x="279.32" y="13.66" width="115.06" height="77.21" rx="9.11" fill="#68e1fd"></rect><rect x="279.32" y="13.66" width="115.06" height="77.21" rx="9.11" fill="url(#linear-gradient-8)"></rect><path d="M402.17,77.39l.07,7.67a9.11,9.11,0,0,1-9.11,9.11H296.29a9.11,9.11,0,0,1-9.11-9.11l-.07-7.67Z" transform="translate(-7.87 -3.3)" fill="#68e1fd"></path><rect x="316.12" y="109.29" width="45.16" height="4.29" fill="url(#linear-gradient-9)"></rect><path d="M376.17,107.84l.43,7.7a9.61,9.61,0,0,1-7.45,1.35v-4.3S375.56,114.44,376.17,107.84Z" transform="translate(-7.87 -3.3)" fill="url(#linear-gradient-10)"></path><path d="M337.53,35.53a18.09,18.09,0,1,0,18.24,17.93A18.1,18.1,0,0,0,337.53,35.53Zm.3,33.1a14.72,14.72,0,1,1,14.58-14.85A14.74,14.74,0,0,1,337.83,68.63Z" transform="translate(-7.87 -3.3)" fill="#fff" opacity="0.18" style="isolation: isolate;"></path><polygon points="331.22 42.12 331.37 58.66 335.76 54.78 332.78 54.8 332.66 42.2 331.22 42.12" fill="#fff"></polygon><polygon points="329.96 58.68 329.81 42.13 325.42 46.02 328.4 45.99 328.51 58.59 329.96 58.68" fill="#fff"></polygon></svg>