<svg id="Layer_1" data-name="Layer 1" xmlns="http://www.w3.org/2000/svg" xmlns:xlink="http://www.w3.org/1999/xlink" viewBox="0 0 463.38 425.94" width="406" height="306" class="illustration styles_illustrationTablet__1DWOa"><defs><linearGradient id="linear-gradient" x1="237.32" y1="318.42" x2="219.05" y2="886.15" gradientUnits="userSpaceOnUse"><stop offset="0" stop-color="#010101" stop-opacity="0"></stop><stop offset="0.95" stop-color="#010101"></stop></linearGradient><linearGradient id="linear-gradient-2" x1="312.52" y1="375.35" x2="247.65" y2="176.15" xlink:href="#linear-gradient"></linearGradient><linearGradient id="linear-gradient-3" x1="291.93" y1="315.29" x2="207.87" y2="323.21" xlink:href="#linear-gradient"></linearGradient><linearGradient id="linear-gradient-4" x1="296.97" y1="192.01" x2="388.57" y2="247.98" xlink:href="#linear-gradient"></linearGradient><linearGradient id="linear-gradient-5" x1="220.36" y1="180.42" x2="130.59" y2="182.7" xlink:href="#linear-gradient"></linearGradient><linearGradient id="linear-gradient-6" x1="262.1" y1="223.16" x2="222.92" y2="287.81" xlink:href="#linear-gradient"></linearGradient><linearGradient id="linear-gradient-7" x1="166.17" y1="31.14" x2="361.23" y2="13.17" gradientTransform="translate(59.57 52.55) rotate(7.67)" gradientUnits="userSpaceOnUse"><stop offset="0" stop-color="#fff" stop-opacity="0"></stop><stop offset="0.95" stop-color="#fff"></stop></linearGradient><linearGradient id="linear-gradient-8" x1="136.01" y1="33.61" x2="305.69" y2="17.98" xlink:href="#linear-gradient-7"></linearGradient></defs><title>Smiley - Netral</title><path d="M204.88,24.36C182.43,33.62,167,54.56,155.57,76s-20.27,44.5-35.29,63.59C110.18,152.4,97.56,163,86.8,175.32c-31.82,36.34-45.87,87.55-37.07,135s40.28,90.26,83,112.79c48.59,25.61,107.19,24.66,160.87,13,30.14-6.55,60.17-16.31,91-15.09,10.32.41,20.88,2,30.81-.78,10.56-3,19.1-10.63,26.86-18.39,22.16-22.15,41.49-47.58,53.79-76.4,29.61-69.36,12.68-156-40.87-209.11-13-12.85-27.72-23.78-40.91-36.4-11.69-11.17-22.15-23.67-34.73-33.83C355.32,26.58,324.26,17.53,293.34,19,265.08,20.39,231.49,13.38,204.88,24.36Z" transform="translate(-47.15 -18.06)" fill="#68e1fd" opacity="0.24" style="isolation: isolate;"></path><ellipse cx="235.02" cy="389.87" rx="90.76" ry="14.01" opacity="0.48" fill="url(#linear-gradient)"></ellipse><path d="M297,380.66l.35,7.75a10.34,10.34,0,0,1-6.91,6.36,10,10,0,0,1-8.71-1.78l.55-13" transform="translate(-47.15 -18.06)" fill="#c8a59c"></path><path d="M266.86,387.73l.35,7.76a10.36,10.36,0,0,1-6.92,6.36,10,10,0,0,1-8.7-1.79l.55-13" transform="translate(-47.15 -18.06)" fill="#c8a59c"></path><path d="M303.16,253.62,298,382.43a12.12,12.12,0,0,1-6.8,2.37c-4.75.27-5.61.62-9-2.5l-15-135.1,35.95-.76Z" transform="translate(-47.15 -18.06)" fill="#606161"></path><path d="M303.16,253.62,298,382.43a12.12,12.12,0,0,1-6.8,2.37c-4.75.27-5.61.62-9-2.5l-15-135.1,35.95-.76Z" transform="translate(-47.15 -18.06)" fill="url(#linear-gradient-2)"></path><path d="M282.79,265.18,268,390.48s-2.14,2.19-7.95,2.27c-6.62.09-7.22-.82-8.7-4.17L248.4,244.87l34,5.8Z" transform="translate(-47.15 -18.06)" fill="#606161"></path><path d="M282.79,265.18,268,390.48s-2.14,2.19-7.95,2.27c-6.62.09-7.22-.82-8.7-4.17L248.4,244.87l34,5.8Z" transform="translate(-47.15 -18.06)" fill="url(#linear-gradient-3)"></path><path d="M287.46,252.65A77,77,0,0,1,273.17,256c-6.43.66-13.18-2.45-18.27-2.71-6.74-.35-6.92-.56-6.92-4.95,0-2.22,56-7.51,56-7.51s-.26,4-.25,7.78c0,2.81-1.2,2.65-6.3,2.94S291.42,250.3,287.46,252.65Z" transform="translate(-47.15 -18.06)" fill="#f2fbff"></path><path d="M265.35,153.73s-9.4,2.44-16.1,7.32c-4.14,3-1.27,87.29-1.27,87.29.41-.08,18.41,7.23,35.82,4.22C298.62,250,304,243.05,304,243.05s1.34-80.85-1.54-84.17c-1.29-1.49-15.38-6.69-15.38-6.69S280.88,161.44,265.35,153.73Z" transform="translate(-47.15 -18.06)" fill="#68e1fd"></path><path d="M295,116.76a22.37,22.37,0,0,0-1.62-7.15h0s5.31-2.71,4.24,7.06.12,10.62-3.85,16l-.87-2.08C294,125.48,295.43,123,295,116.76Z" transform="translate(-47.15 -18.06)" fill="#26265f"></path><path d="M268.43,135l-3.08,18.72s6.89,10.09,15.59,8.59,6.54-5.57,6.54-5.57l-1.13-15.82S278.49,142.32,268.43,135Z" transform="translate(-47.15 -18.06)" fill="#c8a59c"></path><path d="M267.35,141.59l1.08-6.58c10.06,7.31,15.27,4.2,15.27,4.2l2.43,8.5a8.11,8.11,0,0,1-5.17,2.48C276.14,150.54,271.26,146.77,267.35,141.59Z" transform="translate(-47.15 -18.06)" fill="#b58b81"></path><path d="M265.72,151.48l-9.11,4.29S271,171,275.37,170.64c0,0,4.13-7.68,8-8.89Z" transform="translate(-47.15 -18.06)" fill="#f2fbff"></path><path d="M301.38,158.36s7.75.86,12.12,29.84c4.06,26.84,8.37,37.24.09,41.4-11.43,5.74-16.2,4.15-16.2,4.15s-3.92-8-1.67-13.44c0,0,2.86-1.07,8.39-3.6l-.17-20.5S290.81,154.24,301.38,158.36Z" transform="translate(-47.15 -18.06)" fill="#68e1fd"></path><path d="M286.86,154.09a26.75,26.75,0,0,1-3.48,7.66c.85.34,6.42,4.22,6.52,6.86,0,0,5.53-12.53,3.25-14.51a56.07,56.07,0,0,0-5.9-2.62Z" transform="translate(-47.15 -18.06)" fill="#f2fbff"></path><path d="M253,158.84s-14.1,4.55-15.7,27.07c-1.45,20.46-5.13,35.41-2.14,41.49,3.89,7.92,31.07,9.25,31.07,9.25a29.09,29.09,0,0,0-.48-11.87l-14.91-5.94S253.21,162.34,253,158.84Z" transform="translate(-47.15 -18.06)" fill="#68e1fd"></path><path d="M303.92,173.89l2.88,40.48a4.14,4.14,0,0,1-2.54,4.47s.36-19.52.13-20.46S303.41,176.78,303.92,173.89Z" transform="translate(-47.15 -18.06)" fill="url(#linear-gradient-4)"></path><path d="M260.55,121.38c.74,10.39,11.39,28.74,21.78,28s13.4-22.23,12.66-32.62-6.58-16.27-17-15.53A18.86,18.86,0,0,0,260.55,121.38Z" transform="translate(-47.15 -18.06)" fill="#c8a59c"></path><path d="M269.26,101.85s3.13-5.5,12.9-4.44,12,8,14.58,6.89,7.26,3,4.07,7.64-8.39,5.89-14.78,2.82-14.33-3.39-16-1.51,2.15,21,2.15,21,.07.88-1.75.12-.66-12.3-4.22-12.93-3.92,7.36-1.07,9.77c2.2,1.87,2.66,8.26,2.66,8.26s-11.43-7.64-10.61-20.91S263,100.54,269.26,101.85Z" transform="translate(-47.15 -18.06)" fill="#26265f"></path><path d="M294.63,223.13a7.28,7.28,0,0,0-5-2.12c-3,.06-5.61,1.12-10,1.43s-1.45,4.37-1.25,7.14-.44,6.2.5,7,16.65-1.18,18.28-3.06C297.89,232.65,297.38,224.7,294.63,223.13Z" transform="translate(-47.15 -18.06)" fill="#c8a59c"></path><path d="M298.89,221.07s.59,11.41,1.75,12.21L295,234.56a14.71,14.71,0,0,1-1.42-12.29Z" transform="translate(-47.15 -18.06)" fill="#f2fbff"></path><circle cx="249.21" cy="206.13" r="1.07" fill="#d2e8ec"></circle><path d="M285,235c-.24-2,.69-3.89,1-7.27s-1.91-4.24-5.11-4.6c-.88-.1-1.57-.21-2.15-.3-3,.73-.61,4.35-.44,6.88s-.4,6.08.47,6.88c.36.33,3.1.18,6.29-.23A5.65,5.65,0,0,0,285,235Z" transform="translate(-47.15 -18.06)" fill="#b58b81"></path><path d="M298.89,221.07s.59,11.41,1.75,12.21L295,234.56a14.71,14.71,0,0,1-1.42-12.29Z" transform="translate(-47.15 -18.06)" fill="#f2fbff"></path><circle cx="249.21" cy="206.13" r="1.07" fill="#d2e8ec"></circle><polygon points="205.81 159.82 201.49 199.39 206.56 201.74 205.81 159.82" fill="url(#linear-gradient-5)"></polygon><path d="M260.92,237,248,234.56l.7,8.92s.72-7.82,5.57-5.81S260.92,237,260.92,237Z" transform="translate(-47.15 -18.06)" fill="url(#linear-gradient-6)"></path><path d="M287,138.65s-.29-.25-2.47-.1a32,32,0,0,1-7.71-.54c-1.67-.43-2.47-.17-2.31,2.08s1.94,4.24,6.34,4.48c4.94.26,7-1.6,7.4-3.82C288.51,139.14,287.53,138.61,287,138.65Z" transform="translate(-47.15 -18.06)" fill="#c8a59c"></path><path d="M268,225.14a44.81,44.81,0,0,0,5.46-1.53c2.35-.88,3.08-.37,6.53,0s5.8,1.24,5.51,4.7-1.3,5.39-1,7.41-.37,3.75-3.38,3.82-13.09-3-13.09-3" transform="translate(-47.15 -18.06)" fill="#c8a59c"></path><path d="M264.69,224.19h5.23s2.26,7.55-.68,12.79l-5.82-.21S265.42,229.43,264.69,224.19Z" transform="translate(-47.15 -18.06)" fill="#f2fbff"></path><ellipse cx="220.18" cy="208.61" rx="1.15" ry="1.22" fill="#d2e8ec"></ellipse><polygon points="254.09 164.05 245.35 165.75 244.93 163.05 253.67 161.35 254.09 164.05" fill="#f2fbff"></polygon><path d="M287.74,126.29h0a5.19,5.19,0,0,1,3.72-6.33,5.19,5.19,0,0,1,2.6,10l-.18,0A5.2,5.2,0,0,1,287.74,126.29Zm4-5.12a3.95,3.95,0,0,0-2.83,4.8h0a3.94,3.94,0,1,0,5.81-4.38,3.87,3.87,0,0,0-2.84-.45Z" transform="translate(-47.15 -18.06)" fill="#292f67"></path><path d="M277.09,130.08a5.83,5.83,0,0,1-2.72-3.59h0a5.89,5.89,0,1,1,11.4-3,5.8,5.8,0,0,1-.62,4.46,5.88,5.88,0,0,1-3.6,2.72l-.21,0A5.85,5.85,0,0,1,277.09,130.08Zm1.82-9.56a4.64,4.64,0,0,0-1.19,8.49,4.64,4.64,0,0,0,6.35-1.65,4.62,4.62,0,0,0,.5-3.52,4.67,4.67,0,0,0-2.14-2.83,4.6,4.6,0,0,0-3.36-.53Z" transform="translate(-47.15 -18.06)" fill="#292f67"></path><path d="M287.6,125.09l1.2-.35a1.81,1.81,0,0,0-1-1.06,3.72,3.72,0,0,0-3.12.55l.59,1.09c1.22-.66,1.81-.58,2.05-.48A.54.54,0,0,1,287.6,125.09Z" transform="translate(-47.15 -18.06)" fill="#292f67"></path><polygon points="227.77 106.66 227.72 105.41 220.6 105.62 220.66 106.86 227.77 106.66" fill="#292f67"></polygon><circle cx="234.17" cy="90.11" r="51.11" fill="#68e1fd"></circle><path d="M332,115a51.1,51.1,0,1,1-44.25-57.54l.41,0A51.11,51.11,0,0,1,332,115Z" transform="translate(-47.15 -18.06)" fill="url(#linear-gradient-7)"></path><path d="M332,115a51.12,51.12,0,0,1-43.73,43.83l-.41-.06a51.12,51.12,0,0,1-.11-101.31l.41,0A51.11,51.11,0,0,1,332,115Z" transform="translate(-47.15 -18.06)" fill="url(#linear-gradient-8)"></path><line x1="209.94" y1="104.88" x2="261.54" y2="104.64"></line><path d="M257.08,125.4c-.66,0-1.21-.79-1.21-1.77s.54-1.79,1.21-1.79l51.61-.36h0c.67,0,1.22.8,1.22,1.78s-.54,1.78-1.21,1.79l-51.61.35Z" transform="translate(-47.15 -18.06)" fill="#68e1fd"></path><circle cx="216.82" cy="80.27" r="5.03" fill="#68e1fd"></circle><circle cx="248.5" cy="80.27" r="5.03" fill="#68e1fd"></circle><path d="M234,409.49c-1,1.2-1.93,2.64-1.19,3.92a5.44,5.44,0,0,0,3.05,1.87,30.92,30.92,0,0,0,13.33.83,62.28,62.28,0,0,0,12.7-3.38,13.67,13.67,0,0,0,3.29-1.55c2-1.42,2.49-3.57,2.72-5.58a35.74,35.74,0,0,0,0-8.27,1.9,1.9,0,0,0-1.26-1.83,3.93,3.93,0,0,0-1.86.14,62.35,62.35,0,0,1-10.54,1.61,13.17,13.17,0,0,0-4.66.94C244.24,400,236.85,406,234,409.49Z" transform="translate(-47.15 -18.06)" fill="#606161"></path><path d="M281.73,405.49a3.4,3.4,0,0,0,.89,2.27,6.71,6.71,0,0,0,3,1.22c9.08,2.16,18.67,4.1,28.1,2.95,2.11-.26,4.33-.74,5.68-1.93a4,4,0,0,0,.61-5.09,16.46,16.46,0,0,0-4.33-4.32c-4-3.14-13-8.31-17-11.45a4.1,4.1,0,0,0-1.24-.73,5.29,5.29,0,0,0-2.1,0c-3.69.41-2.42,3.05-6.15,3.12-1.73,0-4.44-.5-6,.28C279.32,393.72,281.42,402.59,281.73,405.49Z" transform="translate(-47.15 -18.06)" fill="#606161"></path></svg>