<svg id="Layer_1" data-name="Layer 1" xmlns="http://www.w3.org/2000/svg" xmlns:xlink="http://www.w3.org/1999/xlink" viewBox="0 0 345.82 271.86" width="406" height="306" class="illustration styles_illustrationTablet__1DWOa"><defs><linearGradient id="linear-gradient" x1="196.94" y1="134.77" x2="231.97" y2="526.45" gradientUnits="userSpaceOnUse"><stop offset="0.01"></stop><stop offset="0.13" stop-opacity="0.69"></stop><stop offset="0.25" stop-opacity="0.32"></stop><stop offset="1" stop-opacity="0"></stop></linearGradient><linearGradient id="linear-gradient-2" x1="168.34" y1="157.82" x2="168.34" y2="327.5" xlink:href="#linear-gradient"></linearGradient><linearGradient id="linear-gradient-3" x1="209.95" y1="121.39" x2="228.54" y2="392.53" xlink:href="#linear-gradient"></linearGradient><linearGradient id="linear-gradient-4" x1="117.04" y1="127.76" x2="135.62" y2="398.9" xlink:href="#linear-gradient"></linearGradient><linearGradient id="linear-gradient-5" x1="120.65" y1="76.22" x2="162.04" y2="398.89" xlink:href="#linear-gradient"></linearGradient><linearGradient id="linear-gradient-6" x1="242.57" y1="104.19" x2="283.96" y2="426.86" xlink:href="#linear-gradient"></linearGradient><linearGradient id="linear-gradient-7" x1="162.72" y1="70.83" x2="204.11" y2="393.49" xlink:href="#linear-gradient"></linearGradient><linearGradient id="linear-gradient-8" x1="182.32" y1="130.12" x2="164.67" y2="242" xlink:href="#linear-gradient"></linearGradient><linearGradient id="linear-gradient-9" x1="285.74" y1="186.45" x2="252.52" y2="219.86" xlink:href="#linear-gradient"></linearGradient><linearGradient id="linear-gradient-10" x1="209.93" y1="169.96" x2="202.33" y2="295.82" xlink:href="#linear-gradient"></linearGradient><linearGradient id="linear-gradient-11" x1="218.26" y1="244.85" x2="-116.79" y2="111.39" xlink:href="#linear-gradient"></linearGradient><linearGradient id="linear-gradient-12" x1="225.89" y1="159.97" x2="573.9" y2="224.16" xlink:href="#linear-gradient"></linearGradient></defs><title>8</title><path d="M382.1,208.61a83.77,83.77,0,0,1-1.81,12.62c-3.13,14.38-9.59,28.18-15.9,41.51-4,8.52-9,16.85-16.4,22.74-3.05,2.45-6.92,4.92-10.77,5.83a70.68,70.68,0,0,0-8.71,3,12.84,12.84,0,0,1-3.76.58,140.51,140.51,0,0,1-26.88-1.26c-8.59-1.24-16.5-4.08-24.88-6.29-17.2-4.54-35-8.09-52.89-6.45-37.45,3.43-70.64,29.08-108.23,29.85-23.26.47-75.2-12.73-75.19-62.62,0-10.43,6.14-18.53,11.93-26.9,4-5.73,7.77-11.59,9.31-18.41a41.19,41.19,0,0,0,.3-15.75c-1.93-12.35-7.93-25.14-10.33-42.37-1.74-12.42-1.61-27.16,3.25-45.7,4.54-17.29,18.73-30.1,31.54-42.58C115.59,24.36,218,45,260.61,50.55,341.12,61,387.3,126.27,382.1,208.61Z" transform="translate(-36.68 -38.9)" fill="#68e1fd" opacity="0.18" style="isolation: isolate;"></path><path d="M380.29,221.23a114.22,114.22,0,0,1-3.76,13.19,243.75,243.75,0,0,1-9.7,23.14c-.81,1.73-1.63,3.46-2.44,5.18L363.8,264c-3.94,8.09-8.81,15.9-15.81,21.51-3.05,2.45-6.92,4.92-10.77,5.83a70.68,70.68,0,0,0-8.71,3,12.84,12.84,0,0,1-3.76.58,140.51,140.51,0,0,1-26.88-1.26c-8.59-1.24-16.5-4.08-24.88-6.29-17.2-4.54-35-8.09-52.89-6.45-37.45,3.43-70.64,29.08-108.23,29.85-18.49.37-55.09-7.89-69.33-36.35a54.63,54.63,0,0,1-5.2-16.84,66.05,66.05,0,0,1-.66-9.43,30.08,30.08,0,0,1,3.53-13.71,112.48,112.48,0,0,1,8.4-13.19Z" transform="translate(-36.68 -38.9)" fill="#68e1fd"></path><path d="M376.53,234.42a243.75,243.75,0,0,1-9.7,23.14H37.34a66.05,66.05,0,0,1-.66-9.43,30.08,30.08,0,0,1,3.53-13.71Z" transform="translate(-36.68 -38.9)" fill="url(#linear-gradient)"></path><path d="M205.22,176.3c-6.8,6.75-17.07,8.61-26.65,8.57s-19.21-1.65-28.71-.4c-6.08.8-12,2.74-18.06,3.34s-12.23-.17-18.36-.34c-8.57-.23-17.12.72-25.69,1a174.58,174.58,0,0,1-29.53-1.43c-1.93-12.35-7.93-25.14-10.33-42.37a6.28,6.28,0,0,0,3.66,2c-.22-3.53-.29-7.28,1.53-10.31a7.27,7.27,0,0,1,3.78-3.08c1.29-.44,3.85.34,4.78-.44s.39-4.11.61-5.43a15.81,15.81,0,0,1,8.31-11.52,15.82,15.82,0,0,1,5.23-1.7,21.18,21.18,0,0,1,7.52.47,21.84,21.84,0,0,1,11.88,6.76c3,3.54,4.43,8.54,3.07,13a8.54,8.54,0,0,1,7.87,2.13,8.13,8.13,0,0,1,1.37,1.78A10.68,10.68,0,0,1,108,135c1.79-5.53,9.73-6.06,14-3.17,3.64,2.49,5.47,7,5.68,11.45,1.47-3.87,7-4.85,10.53-2.68s5.24,6.4,5.89,10.49A35.79,35.79,0,0,1,154.1,142,12,12,0,0,1,160,139.9a12.51,12.51,0,0,1,6.32,2.14,46.08,46.08,0,0,1,9.71,7.65,20.24,20.24,0,0,1,5.33,8.38c.89,3.22.36,7-2,9.35,2.86-1.32,6.31-2.63,9-1,1.46.87,2.35,2.42,3.4,3.75A16.39,16.39,0,0,0,205.22,176.3Z" transform="translate(-36.68 -38.9)" fill="#fff" opacity="0.54"></path><path d="M94.13,241.05s-20-42.09,2.92-89c0,0,22.7,37.31,3.1,89Z" transform="translate(-36.68 -38.9)" fill="#68e1fd"></path><rect x="102.68" y="188.96" width="131.32" height="13.13" fill="#68e1fd"></rect><rect x="102.68" y="188.96" width="131.32" height="13.13" fill="url(#linear-gradient-2)"></rect><path d="M286.42,214.63V241H267l-3.67-8.47a5.3,5.3,0,0,0-4.9-3.19l-12,.09a5.29,5.29,0,0,0-4.83,3.22L238,241H176.41a3.49,3.49,0,0,1-2.74-1.34l-3.91-8.16a3.34,3.34,0,0,0-2.71-1.3l-16.49.13a3.36,3.36,0,0,0-2.55,1.25l-4.42,8.12a3.49,3.49,0,0,1-2.71,1.3H125.09V212c0-15.21,6.13-36.44,17.17-36.44H255.18a23,23,0,0,1,21,13.49l9,19.82A14,14,0,0,1,286.42,214.63Z" transform="translate(-36.68 -38.9)" fill="#68e1fd"></path><rect x="83.06" y="198" width="12.53" height="4.93" rx="1.84" fill="#68e1fd"></rect><rect x="241.02" y="198" width="12.53" height="4.93" rx="1.84" fill="#68e1fd"></rect><circle cx="215.57" cy="202.93" r="10.89" fill="#473f47"></circle><circle cx="215.57" cy="202.93" r="7.3" fill="#68e1fd"></circle><circle cx="215.57" cy="203.34" r="4.26" fill="url(#linear-gradient-3)"></circle><circle cx="122.22" cy="202.93" r="10.89" fill="#473f47"></circle><circle cx="122.22" cy="202.93" r="7.3" fill="#68e1fd"></circle><circle cx="122.22" cy="203.34" r="4.26" fill="url(#linear-gradient-4)"></circle><path d="M285.17,208.85l1,3.13H125.09c0-15.21,6.13-36.44,17.17-36.44H255.18a23,23,0,0,1,21,13.49Z" transform="translate(-36.68 -38.9)" fill="#fff"></path><rect x="97.42" y="147.37" width="6.76" height="1.07" fill="#68e1fd"></rect><rect x="97.42" y="150.13" width="6.76" height="1.07" fill="#68e1fd"></rect><rect x="97.42" y="152.88" width="6.76" height="1.07" fill="#68e1fd"></rect><rect x="97.42" y="155.64" width="6.76" height="1.07" fill="#68e1fd"></rect><rect x="97.42" y="158.4" width="6.76" height="1.07" fill="#68e1fd"></rect><rect x="97.42" y="161.16" width="6.76" height="1.07" fill="#68e1fd"></rect><rect x="114.92" y="147.9" width="31.86" height="15.8" rx="2.69" fill="#68e1fd"></rect><path d="M268.2,202.6H241.72a2.69,2.69,0,0,1-2.69-2.7V189.49a2.68,2.68,0,0,1,2.69-2.69h21.74c1.49,0,2,.85,2.69,2.69l4.28,9.41a2.59,2.59,0,0,1-1.87,3.67A2.19,2.19,0,0,1,268.2,202.6Z" transform="translate(-36.68 -38.9)" fill="#68e1fd"></path><rect x="153.15" y="147.9" width="40.94" height="15.8" rx="3.05" fill="#68e1fd"></rect><rect x="114.92" y="147.9" width="31.86" height="15.8" rx="2.69" fill="url(#linear-gradient-5)"></rect><path d="M268.2,202.6H241.72a2.69,2.69,0,0,1-2.69-2.7V189.49a2.68,2.68,0,0,1,2.69-2.69h21.74c1.49,0,2,.85,2.69,2.69l4.28,9.41a2.59,2.59,0,0,1-1.87,3.67A2.19,2.19,0,0,1,268.2,202.6Z" transform="translate(-36.68 -38.9)" fill="url(#linear-gradient-6)"></path><rect x="153.15" y="147.9" width="40.94" height="15.8" rx="3.05" fill="url(#linear-gradient-7)"></rect><path d="M88.41,182.51h1.34a1.62,1.62,0,0,1,1.62,1.62v9.15a1.62,1.62,0,0,1-1.62,1.62H88.41a0,0,0,0,1,0,0V182.51A0,0,0,0,1,88.41,182.51Z" fill="#68e1fd"></path><rect x="149.98" y="173.08" width="46.55" height="29" fill="url(#linear-gradient-8)"></rect><path d="M282.32,202.6h-1.91a3.43,3.43,0,0,1-3.08-1.94l-5.44-11.32a1.78,1.78,0,0,1,1.6-2.54H275Z" transform="translate(-36.68 -38.9)" fill="#68e1fd"></path><path d="M282.32,202.6h-1.91a3.43,3.43,0,0,1-3.08-1.94l-5.44-11.32a1.78,1.78,0,0,1,1.6-2.54H275Z" transform="translate(-36.68 -38.9)" fill="url(#linear-gradient-9)"></path><path d="M286.16,226.48V241H267l-3.67-8.47a5.3,5.3,0,0,0-4.9-3.19l-12,.09a5.29,5.29,0,0,0-4.83,3.22L238,241H176.41a3.49,3.49,0,0,1-2.74-1.34l-3.91-8.16a3.34,3.34,0,0,0-2.71-1.3l-16.49.13a3.36,3.36,0,0,0-2.55,1.25l-4.42,8.12a3.49,3.49,0,0,1-2.71,1.3H126v-14.5Z" transform="translate(-36.68 -38.9)" fill="url(#linear-gradient-10)"></path><path d="M97.05,152.08v89h3.1S119,195.72,97.05,152.08Z" transform="translate(-36.68 -38.9)" fill="url(#linear-gradient-11)"></path><path d="M222.63,115.53c-2.26,7.88,2.93,17.11,10.83,19.26,6.24,1.7,13.27-.54,19.15,2.14,2.35,1.08,4.3,2.86,6.4,4.36a32.09,32.09,0,0,0,29.27,3.9,30.19,30.19,0,0,1,5.27-1.76c3.25-.56,6.54.49,9.78,1.11a39.24,39.24,0,0,0,20.6-1.56c6.07-2.16,12.39-7.83,10.44-14-1.59-5-7.5-6.83-12-9.56-9.49-5.78-14.25-17.68-24.2-22.61-9.64-4.78-22.7-.71-27.92,8.69a14.14,14.14,0,0,0-16-5.14C244.55,103.91,226.44,102.31,222.63,115.53Z" transform="translate(-36.68 -38.9)" fill="#fff"></path><path d="M312.78,232.55S336.05,147,298.89,116.88c0,0,43.49,19.36,23.78,115.9Z" transform="translate(-36.68 -38.9)" fill="#68e1fd"></path><path d="M312.78,232.55S336.05,147,298.89,116.88c0,0,43.49,19.36,23.78,115.9Z" transform="translate(-36.68 -38.9)" fill="url(#linear-gradient-12)"></path><path d="M275.48,104.1A30.14,30.14,0,0,1,273,82.63c7,6.83,14.64,13.05,22.23,19.26A14.32,14.32,0,0,1,301,87.07l5.27,11.82a70.7,70.7,0,0,1,9.23-8.06c2.56-1.87,5.86-3.63,8.76-2.34q-4.92,12-10.79,23.5a4,4,0,0,1,1.75-3.81,10.89,10.89,0,0,1,4.11-1.58,29.3,29.3,0,0,1,6.64-.94c4.74,0,9.3,2,13.12,4.84a67.57,67.57,0,0,1,10.14,9.94c-8.67-.5-17.88-.88-25.45,3.36a22.74,22.74,0,0,1,6.62,10.43c-7.52-5.19-15.48-10.55-24.57-11.4a30.61,30.61,0,0,1,2.71,10,72.06,72.06,0,0,1-1.09,24.5,34.53,34.53,0,0,1-16.72-22.89,50.15,50.15,0,0,0-22.33,24.17c-3.47-6.2-6-13.51-4.14-20.36,1.44-5.21,5.33-9.49,9.9-12.38s9.8-4.54,15-5.93l-13-2.67c3.12-.71,10.76-2.24,13.43,0C283.65,115.14,278.41,109.61,275.48,104.1Z" transform="translate(-36.68 -38.9)" fill="#68e1fd"></path><path d="M363.8,264c-3.94,8.09-8.81,15.9-15.81,21.51-3.05,2.45-6.92,4.92-10.77,5.83a70.68,70.68,0,0,0-8.71,3,12.84,12.84,0,0,1-3.76.58,140.51,140.51,0,0,1-26.88-1.26c-8.59-1.24-16.5-4.08-24.88-6.29-17.2-4.54-35-8.09-52.89-6.45-37.45,3.43-70.64,29.08-108.23,29.85-18.49.37-55.09-7.89-69.33-36.35,9.61-1.59,23,.88,30.11-1.69,10.93-3.95,21.25-10.25,32.82-11.33,21.8-2,44.13,14.82,64.37,6.46,8.54-3.52,16.1-11.39,25.25-10.15,3.14.42,6,1.92,8.86,3.3a143.44,143.44,0,0,0,41.85,12.83c5.5.8,11.14,1.27,16.6.22,11.08-2.13,21-10.41,32.22-9.47,7.63.64,14.29,5.48,21.8,7,9.87,1.95,19.8-2,29.42-5C351.58,264.82,357.89,263.51,363.8,264Z" transform="translate(-36.68 -38.9)" fill="#fff" opacity="0.54"></path></svg>