<svg id="Layer_1" data-name="Layer 1" xmlns="http://www.w3.org/2000/svg" xmlns:xlink="http://www.w3.org/1999/xlink" viewBox="0 0 377.32 288.9" width="406" height="306" class="illustration styles_illustrationTablet__1DWOa"><defs><linearGradient id="linear-gradient" x1="259.79" y1="160.96" x2="334.12" y2="35.95" gradientTransform="matrix(1, 0, 0, -1, 0, 352)" gradientUnits="userSpaceOnUse"><stop offset="0.01"></stop><stop offset="0.13" stop-opacity="0.69"></stop><stop offset="0.25" stop-opacity="0.32"></stop><stop offset="1" stop-opacity="0"></stop></linearGradient><linearGradient id="linear-gradient-2" x1="218.97" y1="115.81" x2="201.7" y2="57.25" gradientTransform="matrix(1, 0, 0, -1, 0, 352)" gradientUnits="userSpaceOnUse"><stop offset="0" stop-color="#fff"></stop><stop offset="1" stop-color="#fff"></stop></linearGradient><linearGradient id="linear-gradient-3" x1="278.14" y1="201.96" x2="267.72" y2="169.86" xlink:href="#linear-gradient"></linearGradient><linearGradient id="linear-gradient-4" x1="354.55" y1="213.93" x2="330.34" y2="167.75" xlink:href="#linear-gradient"></linearGradient><linearGradient id="linear-gradient-5" x1="265.51" y1="205.85" x2="302.3" y2="148.04" xlink:href="#linear-gradient"></linearGradient><linearGradient id="linear-gradient-6" x1="219.3" y1="247.81" x2="289.88" y2="84.51" xlink:href="#linear-gradient"></linearGradient><linearGradient id="linear-gradient-7" x1="297.21" y1="281.48" x2="367.78" y2="118.18" xlink:href="#linear-gradient"></linearGradient><linearGradient id="linear-gradient-8" x1="264.14" y1="267.2" x2="334.72" y2="103.89" xlink:href="#linear-gradient"></linearGradient></defs><title>1</title><path d="M395.34,259.89a51.15,51.15,0,0,1-2,9.23c-5.14,16.34-18,30.53-33.15,39.34C342.66,318.69,327.91,323,312.79,323A97.22,97.22,0,0,1,290,320c-1-.23-2-.49-3-.75q-3.78-1-7.72-2.22L276,316l-1.62-.54c-2.17-.73-4.37-1.5-6.63-2.32L264.37,312c-11.06-4.13-21.71-9.89-32.58-14.6-10-4.34-20.25-7.79-31.13-8.23-27.41-1.11-51.84,17.1-78.88,21.77-32.47,5.6-67-10.25-85.93-37.24q-1.41-2-2.69-4.08c-.26-.41-.51-.83-.76-1.24-.67-1.11-1.31-2.22-1.92-3.35-.28-.51-.55-1-.82-1.55s-.58-1.13-.86-1.7l-.07-.14c-.29-.57-.56-1.14-.83-1.72h0a98.51,98.51,0,0,1-6-16.74A107.71,107.71,0,0,1,25,179.24q1-2.75,2.19-5.43c3.86-8.86,9.13-17.15,16.4-23.46,14.68-12.76,35.19-15.82,52.83-24a119.41,119.41,0,0,0,23.82-15c25.7-20.37,46-49,75-64.93a100.92,100.92,0,0,1,40.14-11.9A114,114,0,0,1,303,50.12c13.24,7.93,25.6,17.08,36.29,41.54,5.91,13.52,11.3,31.71,16.06,57a85.83,85.83,0,0,0,2.13,8.68c6.33,21.1,20.27,41.15,29.5,61.84,4.69,10.52,8.15,21.21,8.77,32.28A46.26,46.26,0,0,1,395.34,259.89Z" transform="translate(-18.46 -34.13)" fill="#68e1fd" opacity="0.18" style="isolation: isolate;"></path><path d="M395.34,259.89a51.15,51.15,0,0,1-2,9.23c-5.14,16.34-18,30.53-33.15,39.34C342.66,318.69,327.91,323,312.79,323c-14.8,0-30-4.17-48.42-11.06-11.06-4.13-21.71-9.89-32.58-14.6-10-4.34-20.25-7.79-31.13-8.23-27.41-1.11-51.84,17.1-78.88,21.77-32.47,5.6-67-10.25-85.93-37.24a91.39,91.39,0,0,1-8-13.78h0a98.51,98.51,0,0,1-6-16.74s37.63-32.42,78.85-14.65c61.38,26.47,84.46-9.39,114.87-5.63s46.18,7.32,74,14.08c22,5.32,65.95-14,97.24-17.89,4.69,10.52,8.15,21.21,8.77,32.28A47.32,47.32,0,0,1,395.34,259.89Z" transform="translate(-18.46 -34.13)" fill="#68e1fd" opacity="0.18" style="isolation: isolate;"></path><path d="M393.33,269.12c-5.14,16.34-18.05,30.53-33.15,39.34-34.66,20.24-58.49,17.45-95.81,3.52-11.06-4.13-21.71-9.89-32.58-14.6a84.12,84.12,0,0,1-.44-8.55,82.15,82.15,0,0,1,39.89-70.48c1.7-1,3.44-2,5.22-2.88q2.24-1.14,4.55-2.14c.78-.34,1.57-.67,2.37-1a81.29,81.29,0,0,1,20.17-5.11,83.61,83.61,0,0,1,10-.6,82,82,0,0,1,22.82,3.21q3.11.9,6.11,2A82.33,82.33,0,0,1,393.33,269.12Z" transform="translate(-18.46 -34.13)" fill="#68e1fd"></path><path d="M393.33,269.12c-5.14,16.34-18.05,30.53-33.15,39.34-34.66,20.24-58.49,17.45-95.81,3.52-11.06-4.13-21.71-9.89-32.58-14.6a84.12,84.12,0,0,1-.44-8.55,82.15,82.15,0,0,1,39.89-70.48c1.7-1,3.44-2,5.22-2.88q2.24-1.14,4.55-2.14c.78-.34,1.57-.67,2.37-1a81.29,81.29,0,0,1,20.17-5.11,83.61,83.61,0,0,1,10-.6,82,82,0,0,1,22.82,3.21q3.11.9,6.11,2A82.33,82.33,0,0,1,393.33,269.12Z" transform="translate(-18.46 -34.13)" fill="url(#linear-gradient)"></path><circle cx="205.57" cy="54.65" r="23.65" fill="#fff"></circle><path d="M216.94,161.05c-5.78-.45-11.91-.83-17.07,1.81-2,1-3.72,2.43-5.7,3.43-4,2-8.75,2.18-13.28,2.28-14.25.3-29.95.05-40.65-9.36a22.19,22.19,0,0,1-21.12,12,5.69,5.69,0,0,0-2.53.13,5.68,5.68,0,0,0-2.27,2.39c-5.8,8.66-18.79,11.47-27.65,6-5.26,5.39-12.74,7.88-19.91,10.19a41.68,41.68,0,0,1-7.31,1.86c-6.28.78-12.64-1.46-17.92-4.94a63,63,0,0,1-10-8.52c-3.49-3.54-4.84-3.93-2.54-8.55A62.23,62.23,0,0,1,43.5,150.38c14.68-12.76,35.19-15.82,52.83-24a119.41,119.41,0,0,0,23.82-15c5.08,1.26,9.43,6,8.76,11.19,10.36-4.11,23.54,1.81,27.35,12.28a10.46,10.46,0,0,1,11.22,2.52c1.39,1.49,2.4,3.46,4.24,4.35a10.45,10.45,0,0,0,4.18.65c8.17.31,16.12,3.29,23.06,7.51C204.76,153.29,209.54,160.48,216.94,161.05Z" transform="translate(-18.46 -34.13)" fill="#fff" opacity="0.49" style="isolation: isolate;"></path><path d="M357.37,157.22a91.14,91.14,0,0,1-19.23,1.42c-4.55-.15-9.79-1.08-12-5a29.06,29.06,0,0,1-29.6-7.56c-.73,1.91-3.52,1.67-5.4.85A27.54,27.54,0,0,1,277,132.8a23.68,23.68,0,0,1-18.19-2.19,38.3,38.3,0,0,0-5.59-3.14,21,21,0,0,0-6.49-.9L219,125.65a36.19,36.19,0,0,0,21.32-10.21c2.65-2.64,4.92-5.7,8-7.88s7.21-3.33,10.53-1.61c.74-9.93,11-17.46,20.92-17.16s18.92,7,24.09,15.51c-1.11-1.88,11.43-9.35,12.89-10a38.63,38.63,0,0,1,16.46-3.82,15.6,15.6,0,0,1,6,1.16c5.91,13.52,11.3,31.71,16.06,57A85.66,85.66,0,0,0,357.37,157.22Z" transform="translate(-18.46 -34.13)" fill="#fff" opacity="0.49" style="isolation: isolate;"></path><path d="M395.34,259.89a51.15,51.15,0,0,1-2,9.23c-5.14,16.34-18,30.53-33.15,39.34C342.66,318.69,327.91,323,312.79,323A97.22,97.22,0,0,1,290,320l-3-.75q-3.78-1-7.72-2.22L276,316l-1.62-.54c-2.17-.73-4.37-1.5-6.63-2.32L264.37,312c-11.06-4.13-21.71-9.89-32.58-14.6-10-4.34-20.25-7.79-31.13-8.23-27.41-1.11-51.84,17.1-78.88,21.77-32.47,5.6-67-10.25-85.93-37.24q-1.41-2-2.69-4.08c-.26-.41-.51-.83-.76-1.24-.67-1.11-1.31-2.22-1.92-3.35-.28-.51-.55-1-.82-1.55s-.58-1.13-.86-1.7l-.07-.14c-.29-.57-.56-1.14-.83-1.72H395.34Z" transform="translate(-18.46 -34.13)" fill="#68e1fd"></path><path d="M395.34,259.89a51.15,51.15,0,0,1-2,9.23,58.78,58.78,0,0,1-5.46,12.2q-1,1.73-2.13,3.39a78.68,78.68,0,0,1-25.56,23.75C342.66,318.69,327.91,323,312.79,323A97.22,97.22,0,0,1,290,320l-3-.75q-3.78-1-7.72-2.22L276,316l-1.62-.54c-2.17-.73-4.37-1.5-6.63-2.32L264.37,312c-10.73-4-21.07-9.54-31.6-14.17l-.35-.15-.63-.28a127.18,127.18,0,0,0-12.26-4.68,71.37,71.37,0,0,0-18.87-3.55H198c-26.33.1-50.06,17.3-76.22,21.82-26.67,4.53-54.78-5.35-74.42-24a87,87,0,0,1-11.51-13.32l-1-1.44c-.6-.87-1.16-1.75-1.71-2.64-.26-.41-.51-.83-.76-1.24-.67-1.11-1.31-2.22-1.92-3.35-.28-.51-.55-1-.82-1.55s-.58-1.13-.86-1.7l-.07-.14c-.29-.57-.56-1.14-.83-1.72H395.34Z" transform="translate(-18.46 -34.13)" opacity="0.49" fill="url(#linear-gradient-2)" style="isolation: isolate;"></path><path d="M343.94,267c-1.38.48-2.76.94-4.14,1.39C341.17,267.87,342.55,267.41,343.94,267Z" transform="translate(-18.46 -34.13)" fill="#fff" opacity="0.49" style="isolation: isolate;"></path><path d="M219.53,292.7c-7.26-.11-14.36-2.12-21.53-3.6h2.66A71.44,71.44,0,0,1,219.53,292.7Z" transform="translate(-18.46 -34.13)" fill="#fff" opacity="0.49" style="isolation: isolate;"></path><path d="M387.87,281.32q-1,1.73-2.13,3.39c-3.1-.25-6.19-.48-9.23-.64-17.55-.9-35.1,1.13-52.55,3.16l-91.19,10.58-.35-.15,25-9.06c-12.13-2.18-24.23,3.88-36.56,4.1H219.5a71.37,71.37,0,0,0-18.87-3.55H198c-2.17-.45-4.34-.85-6.53-1.13-8.59-1.12-17.3-.44-25.94.24L66.38,296c6.34-2.87,12.75-5.79,18.17-10.15A138.32,138.32,0,0,0,47.36,287a87,87,0,0,1-11.51-13.32l-1-1.44c8.3-.17,17.38,1,24,.94q39.87-.24,79.75.54l-22.38,6.9c41.09,9.16,84.25-2.54,125.89,3.54l-5.84-6c34.82.43,70.46.75,103.54-9.84A100.12,100.12,0,0,0,320,278c4.79,5.95,13.64,6.08,21.27,5.69Z" transform="translate(-18.46 -34.13)" fill="#fff" opacity="0.24" style="isolation: isolate;"></path><path d="M303.55,207.24q-4.1.49-8.12,1.4c-2.94-9.87-8.78-24.83-19.72-38.39h0c-1.21-1.51-2.49-3-3.84-4.45A81,81,0,0,0,236.44,143s18.15.5,37,16.86q1.76,1.51,3.5,3.21C286.72,172.56,296.39,186.58,303.55,207.24Z" transform="translate(-18.46 -34.13)" fill="#68e1fd"></path><path d="M303.55,207.24q-4.1.49-8.12,1.4c-2.94-9.87-8.78-24.83-19.72-38.39h0c-1.21-1.51-2.49-3-3.84-4.45A81,81,0,0,0,236.44,143s18.15.5,37,16.86q1.76,1.51,3.5,3.21C286.72,172.56,296.39,186.58,303.55,207.24Z" transform="translate(-18.46 -34.13)" fill="url(#linear-gradient-3)"></path><path d="M342.46,211.89q-3-1.14-6.11-2c3.11-22,5.61-57.77-7.48-73.6C329.41,136.47,349.55,145.28,342.46,211.89Z" transform="translate(-18.46 -34.13)" fill="#68e1fd"></path><path d="M342.46,211.89q-3-1.14-6.11-2c3.11-22,5.61-57.77-7.48-73.6C329.41,136.47,349.55,145.28,342.46,211.89Z" transform="translate(-18.46 -34.13)" fill="url(#linear-gradient-4)"></path><path d="M281,213.33q-2.31,1-4.55,2.14c-7-20.89-7.25-37.26-4.59-49.68.45-2.1,1-4.09,1.57-6,5.63-17.83,16.89-25.73,17.36-26A72.82,72.82,0,0,0,276.94,163c-.54,2.41-.94,4.82-1.23,7.2h0C273.67,186.81,277.17,202.28,281,213.33Z" transform="translate(-18.46 -34.13)" fill="#68e1fd"></path><path d="M281,213.33q-2.31,1-4.55,2.14c-7-20.89-7.25-37.26-4.59-49.68.45-2.1,1-4.09,1.57-6,5.63-17.83,16.89-25.73,17.36-26A72.82,72.82,0,0,0,276.94,163c-.54,2.41-.94,4.82-1.23,7.2h0C273.67,186.81,277.17,202.28,281,213.33Z" transform="translate(-18.46 -34.13)" fill="url(#linear-gradient-5)"></path><path d="M239.71,155.32a30.9,30.9,0,0,0,2.17,8A102.13,102.13,0,0,0,247.33,176a14.21,14.21,0,0,1-12.88-9.57c-1.37-4.24-.62-8.85.4-13.18a18.64,18.64,0,0,1,2.1-5.73c-8.54,5.92-15.6,14.73-17.14,25A43.92,43.92,0,0,1,216,155a7.55,7.55,0,0,1,2.23-6.2c3.42-4,8.24-7.18,13.47-6.93a242.12,242.12,0,0,0-22.18-10.11c3.29-1.28,6.67-2.59,10.2-2.64,5-.07,9.61,2.35,13.92,4.82,1.46.83,3,1.77,3.69,3.3,1.07-1.06.71-2.82.28-4.26l-3.09-10.28a32.8,32.8,0,0,1,5.48,2.7,9.92,9.92,0,0,1,2.71,2.24c2,2.64,1.43,6.44.24,9.56a9.5,9.5,0,0,1,7.75-3,19.45,19.45,0,0,1,8.1,2.67c2.5,1.37,5,3.13,6.12,5.73a56.89,56.89,0,0,0-17.77-3.1c-1.77,0-3.71.12-5,1.36a37.56,37.56,0,0,1,12,6.75,19.9,19.9,0,0,1,6.75,11.73c-.1-.72-2.37-2.21-3-2.75-1.08-1-2.18-1.94-3.31-2.86a41.88,41.88,0,0,0-7.14-4.8c-1.44-.75-5.79-3.22-7.38-2.11C238.93,147.7,239.59,153.85,239.71,155.32Z" transform="translate(-18.46 -34.13)" fill="#68e1fd"></path><path d="M328.61,145.05a25.21,25.21,0,0,0,.16,6.94,84.62,84.62,0,0,0,1.85,11.51,12,12,0,0,1-8.56-10.43c-.26-3.73,1.28-7.34,3-10.67a15.3,15.3,0,0,1,2.87-4.25c-8.17,3.09-15.72,8.85-19.06,16.93a36.74,36.74,0,0,1,.42-15.13,8.26,8.26,0,0,1,1-2.72,7.49,7.49,0,0,1,2-1.89c3.59-2.53,8.18-4.19,12.39-2.93q-7.68-6.76-16-12.75c2.94-.38,6-.76,8.86-.09,4.07,1,7.36,3.87,10.38,6.76a6.94,6.94,0,0,1,2.35,3.45c1.08-.65,1.15-2.16,1.09-3.42l-.43-9a27.32,27.32,0,0,1,4,3.35,8.22,8.22,0,0,1,1.76,2.38c1.13,2.57-.14,5.55-1.74,7.85a8,8,0,0,1,6.93-.84,16.44,16.44,0,0,1,6.12,3.8c1.76,1.62,3.41,3.56,3.82,5.92A47.75,47.75,0,0,0,338,133.68c-1.43-.37-3.05-.66-4.32.11a31.25,31.25,0,0,1,8.39,7.94,16.77,16.77,0,0,1,3.13,10.94c.06-.61-1.49-2.29-1.87-2.85-.68-1-1.38-2-2.12-3a35.3,35.3,0,0,0-4.85-5.37c-1-.9-4.08-3.8-5.6-3.22C329.53,138.67,328.81,143.82,328.61,145.05Z" transform="translate(-18.46 -34.13)" fill="#68e1fd"></path><path d="M263.93,136.7a159.66,159.66,0,0,0,18.16-1,28.59,28.59,0,0,0-2.2,21.58c2.34-2.91,2.39-7,3.36-10.57a20.34,20.34,0,0,1,4-7.75,31.81,31.81,0,0,0,2.45,9.19c1.9,4.38,4.84,8.55,4.93,13.32a23.74,23.74,0,0,0-2.24-24.74A30.23,30.23,0,0,1,308,148.17a14.56,14.56,0,0,0-11.17-17.3,12.33,12.33,0,0,0-1.48-.24,35.16,35.16,0,0,1,8.7-5.88,16.48,16.48,0,0,0-7.63-2.3c-2.68,0-5.5,1.4-6.52,3.88a34.91,34.91,0,0,1,.17-10c-2.66,1.47-5.55,3.2-6.48,6.1-.62,1.91,1,5.38-.23,6.83s-4.83.51-6.44.74A21.53,21.53,0,0,0,263.93,136.7Z" transform="translate(-18.46 -34.13)" fill="#68e1fd"></path><path d="M239.71,155.32a30.9,30.9,0,0,0,2.17,8A102.13,102.13,0,0,0,247.33,176a14.21,14.21,0,0,1-12.88-9.57c-1.37-4.24-.62-8.85.4-13.18a18.64,18.64,0,0,1,2.1-5.73c-8.54,5.92-15.6,14.73-17.14,25A43.92,43.92,0,0,1,216,155a7.55,7.55,0,0,1,2.23-6.2c3.42-4,8.24-7.18,13.47-6.93a242.12,242.12,0,0,0-22.18-10.11c3.29-1.28,6.67-2.59,10.2-2.64,5-.07,9.61,2.35,13.92,4.82,1.46.83,3,1.77,3.69,3.3,1.07-1.06.71-2.82.28-4.26l-3.09-10.28a32.8,32.8,0,0,1,5.48,2.7,9.92,9.92,0,0,1,2.71,2.24c2,2.64,1.43,6.44.24,9.56a9.5,9.5,0,0,1,7.75-3,19.45,19.45,0,0,1,8.1,2.67c2.5,1.37,5,3.13,6.12,5.73a56.89,56.89,0,0,0-17.77-3.1c-1.77,0-3.71.12-5,1.36a37.56,37.56,0,0,1,12,6.75,19.9,19.9,0,0,1,6.75,11.73c-.1-.72-2.37-2.21-3-2.75-1.08-1-2.18-1.94-3.31-2.86a41.88,41.88,0,0,0-7.14-4.8c-1.44-.75-5.79-3.22-7.38-2.11C238.93,147.7,239.59,153.85,239.71,155.32Z" transform="translate(-18.46 -34.13)" fill="url(#linear-gradient-6)"></path><path d="M328.61,145.05a25.21,25.21,0,0,0,.16,6.94,84.62,84.62,0,0,0,1.85,11.51,12,12,0,0,1-8.56-10.43c-.26-3.73,1.28-7.34,3-10.67a15.3,15.3,0,0,1,2.87-4.25c-8.17,3.09-15.72,8.85-19.06,16.93a36.74,36.74,0,0,1,.42-15.13,8.26,8.26,0,0,1,1-2.72,7.49,7.49,0,0,1,2-1.89c3.59-2.53,8.18-4.19,12.39-2.93q-7.68-6.76-16-12.75c2.94-.38,6-.76,8.86-.09,4.07,1,7.36,3.87,10.38,6.76a6.94,6.94,0,0,1,2.35,3.45c1.08-.65,1.15-2.16,1.09-3.42l-.43-9a27.32,27.32,0,0,1,4,3.35,8.22,8.22,0,0,1,1.76,2.38c1.13,2.57-.14,5.55-1.74,7.85a8,8,0,0,1,6.93-.84,16.44,16.44,0,0,1,6.12,3.8c1.76,1.62,3.41,3.56,3.82,5.92A47.75,47.75,0,0,0,338,133.68c-1.43-.37-3.05-.66-4.32.11a31.25,31.25,0,0,1,8.39,7.94,16.77,16.77,0,0,1,3.13,10.94c.06-.61-1.49-2.29-1.87-2.85-.68-1-1.38-2-2.12-3a35.3,35.3,0,0,0-4.85-5.37c-1-.9-4.08-3.8-5.6-3.22C329.53,138.67,328.81,143.82,328.61,145.05Z" transform="translate(-18.46 -34.13)" fill="url(#linear-gradient-7)"></path><path d="M263.93,136.7a159.66,159.66,0,0,0,18.16-1,28.59,28.59,0,0,0-2.2,21.58c2.34-2.91,2.39-7,3.36-10.57a20.34,20.34,0,0,1,4-7.75,31.81,31.81,0,0,0,2.45,9.19c1.9,4.38,4.84,8.55,4.93,13.32a23.74,23.74,0,0,0-2.24-24.74A30.23,30.23,0,0,1,308,148.17a14.56,14.56,0,0,0-11.17-17.3,12.33,12.33,0,0,0-1.48-.24,35.16,35.16,0,0,1,8.7-5.88,16.48,16.48,0,0,0-7.63-2.3c-2.68,0-5.5,1.4-6.52,3.88a34.91,34.91,0,0,1,.17-10c-2.66,1.47-5.55,3.2-6.48,6.1-.62,1.91,1,5.38-.23,6.83s-4.83.51-6.44.74A21.53,21.53,0,0,0,263.93,136.7Z" transform="translate(-18.46 -34.13)" fill="url(#linear-gradient-8)"></path><path d="M155.2,111.86a10,10,0,0,1,7.71,1.84,1,1,0,0,0,.51.27c.41,0,.71-.37.92-.73,1.84-3.08,5-5.75,8.55-5.7a14.34,14.34,0,0,1,5.16,1.42,8.45,8.45,0,0,1,4,2.67c-1.76-.6-3.4-1.49-5.15-2.12a9.19,9.19,0,0,0-5.46-.48c-2.72.77-4.51,3.33-5.85,5.82l3.24.39a3.9,3.9,0,0,0-2.52.54l-7.8,3.74,4-3a.29.29,0,0,0,.1-.12.2.2,0,0,0-.11-.22,8.94,8.94,0,0,0-9.79-1.57,11.16,11.16,0,0,0-6.09,8.12C147.57,117.67,149.63,112.88,155.2,111.86Z" transform="translate(-18.46 -34.13)" fill="#68e1fd"></path><path d="M127.17,135.63a10,10,0,0,1,7.7,1.84,1.09,1.09,0,0,0,.52.27c.41,0,.71-.37.92-.73,1.83-3.08,5-5.75,8.55-5.69a14.27,14.27,0,0,1,5.16,1.41,8.6,8.6,0,0,1,4,2.67c-1.76-.6-3.4-1.49-5.15-2.12a9.19,9.19,0,0,0-5.46-.48c-2.72.78-4.51,3.33-5.85,5.82l3.24.39a3.9,3.9,0,0,0-2.52.54l-7.8,3.74,4-3s.09-.07.1-.12a.22.22,0,0,0-.1-.22,8.94,8.94,0,0,0-9.79-1.57,11.16,11.16,0,0,0-6.09,8.12C119.54,141.44,121.59,136.65,127.17,135.63Z" transform="translate(-18.46 -34.13)" fill="#68e1fd"></path><path d="M166.59,139.72a9.94,9.94,0,0,1,7.7,1.83,1.1,1.1,0,0,0,.51.27c.42.05.72-.37.93-.72,1.83-3.09,5-5.76,8.55-5.7a14.54,14.54,0,0,1,5.16,1.42,8.5,8.5,0,0,1,4,2.66c-1.76-.6-3.41-1.49-5.15-2.11a9,9,0,0,0-5.46-.48c-2.72.77-4.51,3.32-5.85,5.81l3.23.39a3.81,3.81,0,0,0-2.51.55l-7.81,3.73,4-3.05a.23.23,0,0,0,.1-.12.21.21,0,0,0-.1-.22,8.94,8.94,0,0,0-9.8-1.56,11.14,11.14,0,0,0-6.08,8.12C159,145.52,161,140.73,166.59,139.72Z" transform="translate(-18.46 -34.13)" fill="#68e1fd"></path></svg>