<svg id="Layer_1" data-name="Layer 1" xmlns="http://www.w3.org/2000/svg" xmlns:xlink="http://www.w3.org/1999/xlink" viewBox="0 0 544.43 472.18" width="406" height="306" class="illustration styles_illustrationTablet__1DWOa"><defs><linearGradient id="linear-gradient" x1="314.14" y1="39.82" x2="320.61" y2="349.02" gradientUnits="userSpaceOnUse"><stop offset="0" stop-color="#fff" stop-opacity="0"></stop><stop offset="0.13" stop-color="#fff" stop-opacity="0.23"></stop><stop offset="0.23" stop-color="#fff" stop-opacity="0.41"></stop><stop offset="0.35" stop-color="#fff" stop-opacity="0.59"></stop><stop offset="0.48" stop-color="#fff" stop-opacity="0.74"></stop><stop offset="0.6" stop-color="#fff" stop-opacity="0.85"></stop><stop offset="0.72" stop-color="#fff" stop-opacity="0.93"></stop><stop offset="0.84" stop-color="#fff" stop-opacity="0.98"></stop><stop offset="0.95" stop-color="#fff"></stop></linearGradient><linearGradient id="linear-gradient-2" x1="256.57" y1="118.24" x2="434.76" y2="311.79" xlink:href="#linear-gradient"></linearGradient><linearGradient id="linear-gradient-3" x1="254.74" y1="124.46" x2="437.87" y2="323.39" xlink:href="#linear-gradient"></linearGradient><linearGradient id="linear-gradient-4" x1="253.02" y1="178.43" x2="311.35" y2="241.79" xlink:href="#linear-gradient"></linearGradient><linearGradient id="linear-gradient-5" x1="338.28" y1="168.18" x2="396.61" y2="231.54" xlink:href="#linear-gradient"></linearGradient><linearGradient id="linear-gradient-6" x1="257.87" y1="382.89" x2="291.93" y2="669.5" gradientUnits="userSpaceOnUse"><stop offset="0" stop-color="#010101" stop-opacity="0"></stop><stop offset="0.95" stop-color="#010101"></stop></linearGradient><linearGradient id="linear-gradient-7" x1="135.57" y1="382.48" x2="148.34" y2="508.27" xlink:href="#linear-gradient-6"></linearGradient><linearGradient id="linear-gradient-8" x1="84.39" y1="261.59" x2="70.76" y2="478.51" xlink:href="#linear-gradient-6"></linearGradient><linearGradient id="linear-gradient-9" x1="128.29" y1="227.1" x2="142.88" y2="755.78" xlink:href="#linear-gradient-6"></linearGradient><linearGradient id="linear-gradient-10" x1="68.8" y1="311.87" x2="508.16" y2="434.93" xlink:href="#linear-gradient-6"></linearGradient></defs><title>Sun</title><path d="M515.51,348.31c-17.32,8.84-38.08,9.58-53.55,21.76a53.75,53.75,0,0,0-7.71,7.44c-16.44,19.52-20.68,50.15-37.13,70.68-23.41,29.2-65.36,30.78-99.94,20.75s-67-29.17-102.49-33.87c-55-7.25-118.3,19-162.1-17.54-14.18-11.85-23.83-28.78-32.28-45.78,0,0,0-.06-.06-.1-6.51-13-12.66-27.29-11.24-42,1.07-10.91,6.22-20.78,11.24-30.33,15.44-29.33,43.18-65,47.94-98.84,4.41-31.18-12.53-65.33,7.9-94.63,15-31,44.42-53.45,76.6-58.31,24.51-3.69,49.37,2.27,74.1,1.14,47-2.14,89.49-29.4,135.1-41.6S466.3,5.15,484.14,52c12,31.73.61,68.57,8.54,101.75,10.78,45,55.14,75.79,60.15,122C556,305,540.27,335.62,515.51,348.31Z" transform="translate(-8.81 -2.34)" fill="#68e1fd" opacity="0.24" style="isolation: isolate;"></path><path d="M212.51,145.53c13.45,10.2,17.42,29.39,13.21,45.62s-15.18,29.92-27.19,41.74a43.66,43.66,0,0,1,39.2,12.71,42.45,42.45,0,0,1,9.84,39.59,66.14,66.14,0,0,1,91.68,14.13c11.68-17,24.87-35.06,44.74-41,17.07-5.11,35.36-.09,52.45,4.92-14.75-5.55-23.25-22.24-22.07-37.79s10.53-29.62,22.47-39.81c-10,1.6-18.58-7.37-23-16.39a70.53,70.53,0,0,1-3.71-52.76C383,124.1,351.26,107.84,342,81.53a46.34,46.34,0,0,1-32.55,16.13,45.84,45.84,0,0,1-16.57-2.21c-4.18-1.36-11.48-8-15.2-8.24-5.5-.34-10,17.71-13.91,23.68C252.21,128.49,233.49,141.69,212.51,145.53Z" transform="translate(-8.81 -2.34)" fill="url(#linear-gradient)"></path><circle cx="311.12" cy="182.58" r="67.27" fill="#68e1fd"></circle><circle cx="311.68" cy="178.1" r="63.83" fill="url(#linear-gradient-2)"></circle><ellipse cx="311.38" cy="185.99" rx="67.61" ry="63.86" fill="url(#linear-gradient-3)"></ellipse><ellipse cx="271.06" cy="198.03" rx="21.54" ry="20.34" fill="url(#linear-gradient-4)"></ellipse><ellipse cx="356.32" cy="187.78" rx="21.54" ry="20.34" fill="url(#linear-gradient-5)"></ellipse><path d="M454.25,377.51a80.38,80.38,0,0,0-10.13,15.8c-9.06,17.94-14.53,39.3-27,54.88-23.41,29.2-65.36,30.78-99.94,20.75s-67-29.17-102.49-33.87c-44.84-5.92-95.18,10.46-136-3.1a79,79,0,0,1-26.09-14.44c-1.62-1.36-3.17-2.75-4.66-4.21C38.12,403.67,30.61,391.56,24,379c-1.26-2.42-2.52-4.85-3.72-7.28,0,0,0-.06-.06-.1,31-10.74,65.36,5.51,98.61,7.71,17.12,1.13,34.87-1.49,51.08,4.14,7.81,2.72,15.16,7.32,23.38,7.87,7.28.52,14.31-2.23,21.46-3.66,20.72-4.11,42,2.78,63.13,3,32.41.26,63.1-15.25,95.44-17.35C392.81,372.07,429.29,368.9,454.25,377.51Z" transform="translate(-8.81 -2.34)" fill="#68e1fd" opacity="0.61" style="isolation: isolate;"></path><path d="M444.12,393.31c-9.06,17.94-14.53,39.3-27,54.88-23.41,29.2-65.36,30.78-99.94,20.75s-67-29.17-102.49-33.87c-44.84-5.92-95.18,10.46-136-3.1q19.86-7.73,39.69-15.41c4.54-1.75,9.13-3.53,14-4.05,5.18-.58,10.42.32,15.57,1.13a440,440,0,0,0,67.82,5.15c10.56,0,21.27-.42,31.4,2.52,6.06,1.75,11.79,4.7,18,5.9,10.62,2,21.43-1.2,31.73-4.41l71.71-22.17c20-6.19,47.36-17.06,68.4-10.65A30,30,0,0,1,444.12,393.31Z" transform="translate(-8.81 -2.34)" fill="url(#linear-gradient-6)"></path><path d="M158.39,271.62a30,30,0,0,1-21.69,18.94c-2,.42-4.15.68-5.83,1.74a5.8,5.8,0,0,0-1.23,1c-1.3,1.49-1.59,3.59-1.85,5.6q-1.35,11.81-2.78,23.6c-1.1,9.29-2.2,18.58-2.72,27.91a255.31,255.31,0,0,0,1.26,40.63c.42,3.75.78,7.86-1.36,11a8.31,8.31,0,0,1-2.39,2.3,19.66,19.66,0,0,1-6.64,2.59A81.84,81.84,0,0,1,93.32,409c-1.56,0-3.14-.06-4.7-.19-11.65-.87-4.3-20.62-3.4-27.42,2.07-15.12,1-31.27-1.1-46.33-.1-.74-.19-1.49-.35-2.23a8.32,8.32,0,0,0-.94-2.24,13.66,13.66,0,0,0-4-3.49c-9.94-6.83-16-18.42-17.81-30.34s.1-24.15,3.56-35.67c1.11-3.66,3-7.8,6.64-8.55a1.28,1.28,0,0,1,.33-.06c4.4-.65,7.64,4.14,8.67,8.48,2.36,9.87-.55,20.49,2.2,30.27,1.23,4.3,5.41,9,9.46,7,2.55-1.23,3.23-4.33,3.43-7.31,0,0,0-.07,0-.07,0-.52.06-1,.06-1.49A440.68,440.68,0,0,1,99.11,238c.78-5.89,1.72-11.91,4.27-17.29,2.5-5.14,7.38-9.94,13-9.71a3.94,3.94,0,0,1,.84,0c4.89.62,8.58,5,10,9.72s1.1,9.74.94,14.66a170.19,170.19,0,0,0,.52,19.43l.39,4.07c.19,1.95.42,3.86.68,5.8,2.72,1.68,6.54-.23,8-3.08s1.27-6.28,1-9.45c-.3-3.69-.55-7.38-.85-11.07a22.31,22.31,0,0,1,.33-7.74,7.76,7.76,0,0,1,3.69-4.76,4.68,4.68,0,0,1,1.46-.55c4.33-.87,7.77,3.53,9.77,7.48C158.81,246.69,162.56,259.83,158.39,271.62Z" transform="translate(-8.81 -2.34)" fill="#68e1fd"></path><path d="M249,404.22c-19.1,1.72-38.4,3.47-57.4.84-16.51-2.3-33-7.86-49.53-5.76a124.47,124.47,0,0,0-12.85,2.62,339.67,339.67,0,0,1-63.65,8.52,61.19,61.19,0,0,0-17.61,2.88C38.12,403.67,30.61,391.56,24,379c19.82-1.06,39.66-1,59,3,6.15,1.3,12.27,3,18.52,3.63,13.89,1.49,28.07-2,41.86.1,7.09,1.13,13.82,3.69,20.4,6.54,5,2.13,10,4.5,15.44,5.37a83.73,83.73,0,0,0,11.33.52c6.9.13,13.73.9,20.56,1.71Q230,402,249,404.22Z" transform="translate(-8.81 -2.34)" fill="url(#linear-gradient-7)"></path><path d="M94.48,308.56c-.68,2.13-2.07,4.4-4.27,4.66a6.4,6.4,0,0,1-3.5-.94A29.1,29.1,0,0,1,72.37,294.7c-3.3-11.4.58-23.12,0-34.67-.1-2.11-1-4.92-1.17-7.45a1.28,1.28,0,0,1,.33-.06c4.4-.65,7.64,4.14,8.67,8.48,2.36,9.87-.55,20.49,2.2,30.27,1.23,4.3,5.41,9,9.46,7,2.55-1.23,3.23-4.33,3.43-7.31.13,1.32.22,2.68.29,4C95.81,299.56,95.91,304.22,94.48,308.56Z" transform="translate(-8.81 -2.34)" fill="url(#linear-gradient-8)"></path><path d="M129.06,258.89a170.79,170.79,0,0,1-.91-23.5c.16-4.92.52-10-.94-14.66s-5.11-9.1-10-9.72a3.94,3.94,0,0,0-.84,0,1.06,1.06,0,0,1,.19-.45c2.07-3.21,7.45-1.23,9.45,1.07,2.37,2.75,3,6.6,3.34,10.26C130.48,234.16,129.51,246.56,129.06,258.89Z" transform="translate(-8.81 -2.34)" fill="none"></path><path d="M147.22,247.3c.06,8.49-1.49,17.91-8.13,23.18-2.3,1.82-5.05,3-7.25,4.89-1.36,1.2-2.17,4.08-3.43,4.57-.23,9.26-.49,17.93-.62,19q-1.35,11.81-2.78,23.6c-1.1,9.29-2.2,18.58-2.72,27.91a255.31,255.31,0,0,0,1.26,40.63c.42,3.75.78,7.86-1.36,11a8.31,8.31,0,0,1-2.39,2.3,15.38,15.38,0,0,1-3.89-7c-2.43-8-1.62-16.64-.9-25q1.74-20.16,2.72-40.37,1.65-35.4.93-70.8-.37-17.73-1.32-35.39c-.2-3.07-2.27-11.78-1-14.89a3.94,3.94,0,0,1,.84,0c4.89.62,8.58,5,10,9.72s1.1,9.74.94,14.66a170.19,170.19,0,0,0,.52,19.43l.39,4.07c.19,1.95.42,3.86.68,5.8,2.72,1.68,6.54-.23,8-3.08s1.27-6.28,1-9.45c-.3-3.69-.55-7.38-.85-11.07a22.31,22.31,0,0,1,.33-7.74,7.76,7.76,0,0,1,3.69-4.76c.1.1.19.23.29.33C146.34,233.9,147.19,240.83,147.22,247.3Z" transform="translate(-8.81 -2.34)" fill="url(#linear-gradient-9)"></path><path d="M103,396c0,2.86,0,5.84-1.31,8.41a9.62,9.62,0,0,1-10.15,5,2,2,0,0,1-1.19-.58,2.2,2.2,0,0,1-.31-1.5q1.13-27.92,2.26-55.81c.33-8.32.68-16.71,2.77-24.77,1.09-4.2,2.65-8.28,3.49-12.54,1.1-5.53,1-11.22.82-16.86-.3-11.3-.62-22.62-.08-33.92.49-10.18.65-23.46,5.16-32.72,4.88,3.6,1.19,21.67,1,27.33q-.55,16.74-1,33.49-.85,33.19-1.22,66.41Q103.09,377,103,396Z" transform="translate(-8.81 -2.34)" fill="url(#linear-gradient-10)"></path></svg>