<svg id="Layer_1" data-name="Layer 1" xmlns="http://www.w3.org/2000/svg" xmlns:xlink="http://www.w3.org/1999/xlink" viewBox="0 0 349.88 296.85" width="406" height="306" class="illustration styles_illustrationTablet__1DWOa"><defs><linearGradient id="linear-gradient" x1="248.63" y1="45.91" x2="205.5" y2="193.45" gradientUnits="userSpaceOnUse"><stop offset="0.01"></stop><stop offset="0.13" stop-opacity="0.69"></stop><stop offset="0.25" stop-opacity="0.32"></stop><stop offset="1" stop-opacity="0"></stop></linearGradient><linearGradient id="linear-gradient-2" x1="203.6" y1="224.06" x2="183.93" y2="90.39" xlink:href="#linear-gradient"></linearGradient><linearGradient id="linear-gradient-3" x1="164.08" y1="20.86" x2="264.46" y2="175.21" xlink:href="#linear-gradient"></linearGradient><linearGradient id="linear-gradient-4" x1="192.34" y1="-5.17" x2="373.18" y2="272.9" xlink:href="#linear-gradient"></linearGradient></defs><title>4</title><path d="M169.45,308.42c-41.61-6.53-71.18-17.53-92.06-30.57a80,80,0,0,1-37.67-67.12v-2a80.43,80.43,0,0,1,29.62-61.93c18.7-15.32,40.2-39,51.71-72.78,23.16-67.87,75.08-57.29,75.08-57.29,68.78-2,87.47,46.39,94,66.91,16.31,50.92,50.1,59.53,77.37,84.89a105.74,105.74,0,0,1,15.51,17.88C411.49,227.92,348.67,336.58,169.45,308.42Z" transform="translate(-39.72 -16.17)" fill="#68e1fd" opacity="0.18" style="isolation: isolate;"></path><path d="M277.74,308.06c-29.75,6-65.74,7-108.29.36-41.61-6.53-71.18-17.53-92.06-30.57a80,80,0,0,1-37.67-67.12v-2a80.77,80.77,0,0,1,10.05-38.49q.46-.87,1-1.71H367.54a105.74,105.74,0,0,1,15.51,17.88C404.74,218.08,373.36,288.77,277.74,308.06Z" transform="translate(-39.72 -16.17)" fill="#68e1fd" opacity="0.18" style="isolation: isolate;"></path><path d="M301,125.58c-2.2,7-35,2.93-73.28-9.08-38-11.94-67.17-27.21-65.38-34.27a.65.65,0,0,1,0-.13c2-6.43,37.27-22.08,72.72-15.17h0a86.09,86.09,0,0,1,9.17,2.32C282.57,81.26,303.19,118.59,301,125.58Z" transform="translate(-39.72 -16.17)" fill="#68e1fd"></path><ellipse cx="156.11" cy="206.08" rx="72.13" ry="11.1" fill="#68e1fd" opacity="0.18" style="isolation: isolate;"></ellipse><path d="M121.68,91.61" transform="translate(-39.72 -16.17)" fill="#68e1fd"></path><path d="M301,125.58c-2.15,6.84-33.58,3.1-70.77-8.3l-2.51-.78-1.48-.47c-37.31-11.85-65.66-26.83-63.9-33.8a.65.65,0,0,1,0-.13,1.9,1.9,0,0,1,.18-.42c1.91-3.61,13-3.86,29.1-1.27a317.3,317.3,0,0,1,40.93,9.82l3.07,1,.93.3C274.42,103.44,303.18,118.65,301,125.58Z" transform="translate(-39.72 -16.17)" fill="url(#linear-gradient)"></path><path d="M236.6,91.48l-6.36,25.8L205.93,216l-4.06-1,24.38-99,6.35-25.8,3.07,1Z" transform="translate(-39.72 -16.17)" fill="#fff"></path><polyline points="201.85 128.4 169.95 120.83 168.19 123.32 200.91 131.43 201.85 129.24" fill="#fff"></polyline><polygon points="104.5 202.34 173.28 115.7 174.94 117.5 107 203.95 104.5 202.34" fill="#fff"></polygon><polygon points="101.84 201.89 170.61 115.25 173.28 115.7 104.5 202.34 101.84 201.89" fill="#68e1fd" opacity="0.18" style="isolation: isolate;"></polygon><polygon points="101.84 201.89 170.61 115.25 173.28 115.7 104.5 202.34 101.84 201.89" fill="#68e1fd" opacity="0.18" style="isolation: isolate;"></polygon><polygon points="107 203.95 104.12 203.69 101.84 201.89 104.5 202.34 107 203.95" fill="#fff"></polygon><path d="M149.83,181.84l30.86,12.25S197,198,207.63,188.92s24.24-44.71,31.72-45.13l-25.93-6s-4.54,1.25-7.73,11.22-7.34,28.79-27.49,31S149.83,181.84,149.83,181.84Z" transform="translate(-39.72 -16.17)" fill="#68e1fd"></path><path d="M149.83,181.84l30.86,12.25S197,198,207.63,188.92s24.24-44.71,31.72-45.13l-25.93-6s-4.54,1.25-7.73,11.22-7.34,28.79-27.49,31S149.83,181.84,149.83,181.84Z" transform="translate(-39.72 -16.17)" fill="#68e1fd"></path><path d="M149.83,181.84l30.86,12.25S197,198,207.63,188.92s24.24-44.71,31.72-45.13l-25.93-6s-4.54,1.25-7.73,11.22-7.34,28.79-27.49,31S149.83,181.84,149.83,181.84Z" transform="translate(-39.72 -16.17)" fill="url(#linear-gradient-2)"></path><path d="M213.42,202.83l-62.11-24.71a2,2,0,0,0-2.5,1l0,0a2,2,0,0,0,1,2.71L212,206.5a2,2,0,0,0,2.49-.94h0A2,2,0,0,0,213.42,202.83Z" transform="translate(-39.72 -16.17)" fill="#fff"></path><path d="M213.42,202.83l-62.11-24.71a2,2,0,0,0-2.5,1l0,0a2,2,0,0,0,1,2.71L212,206.5a2,2,0,0,0,2.49-.94h0A2,2,0,0,0,213.42,202.83Z" transform="translate(-39.72 -16.17)" fill="#68e1fd" opacity="0.77" style="isolation: isolate;"></path><polygon points="138.47 212.04 207.25 125.4 208.91 127.2 140.97 213.65 138.47 212.04" fill="#fff"></polygon><rect x="229.4" y="168.49" width="4.59" height="47.64" rx="2.3" transform="translate(468.68 294.88) rotate(163.53)" fill="#fff"></rect><polygon points="135.81 211.59 204.58 124.95 207.25 125.4 138.47 212.04 135.81 211.59" fill="#fff"></polygon><polygon points="135.81 211.59 204.58 124.95 207.25 125.4 138.47 212.04 135.81 211.59" fill="#68e1fd" opacity="0.18" style="isolation: isolate;"></polygon><polygon points="135.81 211.59 204.58 124.95 207.25 125.4 138.47 212.04 135.81 211.59" fill="#68e1fd" opacity="0.18" style="isolation: isolate;"></polygon><polygon points="140.97 213.65 138.09 213.39 135.81 211.59 138.47 212.04 140.97 213.65" fill="#fff"></polygon><path d="M241.91,214.19,179.8,189.48a2,2,0,0,0-2.5,1l0,.05a2,2,0,0,0,1,2.71l62.13,24.66a2,2,0,0,0,2.49-.94h0A2,2,0,0,0,241.91,214.19Z" transform="translate(-39.72 -16.17)" fill="#fff"></path><path d="M241.91,214.19,179.8,189.48a2,2,0,0,0-2.5,1l0,.05a2,2,0,0,0,1,2.71l62.13,24.66a2,2,0,0,0,2.49-.94h0A2,2,0,0,0,241.91,214.19Z" transform="translate(-39.72 -16.17)" fill="#68e1fd" opacity="0.77" style="isolation: isolate;"></path><path d="M243.05,213.42l-62.11-24.7a2,2,0,0,0-2.5,1l0,0a2,2,0,0,0,1,2.71l62.13,24.65a2,2,0,0,0,2.49-.93h0A2,2,0,0,0,243.05,213.42Z" transform="translate(-39.72 -16.17)" fill="#fff"></path><path d="M235.11,66.93c-31.48-.62-43.44,13.48-43.44,13.48-16.08-2.59-27.19-2.34-29.1,1.27C165.89,75,200.41,60.16,235.11,66.93Z" transform="translate(-39.72 -16.17)" fill="url(#linear-gradient-3)"></path><path d="M241.57,68.46s5.89,6.68,0,24.63c0,0,23.76,8,34.52,13.5C276.09,106.59,269.15,76.32,241.57,68.46Z" transform="translate(-39.72 -16.17)" fill="url(#linear-gradient-4)"></path><path d="M279.25,303.92c.54,1.2.32,2.53-1.43,3.93-2.39,1.91-8.55,1.78-11.5,2.23a266.16,266.16,0,0,1-29,2.71,348.75,348.75,0,0,1-67.85-4.37c-41.61-6.53-71.18-17.53-92.06-30.57a80,80,0,0,1-37.67-67.12v-2a80.77,80.77,0,0,1,10.05-38.49,117,117,0,0,0,13.47,2c3.85.23,10.24-.34,13.75,1.46,3.67,1.89,3.51,7.72,1.14,10.63-1.46,1.78-3.73,3-4.33,5.26-.92,3.36,2.56,6.23,5.71,7.71,5.29,2.48,11.06,4.06,15.86,7.39s8.56,9.15,7.17,14.82c-1,4.18-4.48,7.2-7.21,10.52-3.54,4.3-6.08,9.73-5.7,15.29s4.24,11.06,9.7,12.15c4.06.81,8.15-.8,12.1-2,18.3-5.7,40.26-2.72,53.33,11.3,3.12,3.35,5.66,7.2,8.79,10.53a40,40,0,0,0,32.82,12.13c5.14-.56,10.12-2.11,15.21-3,7.21-1.28,14.58-1.24,21.9-1.2,7,0,14.47.25,20.06,4.41,4,2.95,6.51,7.61,10.79,10.07C276,300.71,278.45,302.18,279.25,303.92Z" transform="translate(-39.72 -16.17)" fill="#68e1fd" opacity="0.37"></path></svg>